<svg width="30" height="30" viewBox="0 0 30 30" fill="none" xmlns="http://www.w3.org/2000/svg">
<g clip-path="url(#clip0)">
<path d="M19.4341 14.2179L18.7836 13.5674L21.1352 11.8661L19.4341 14.2179Z" fill="#2B2A2F" stroke="black"/>
<mask id="path-2-inside-1" fill="white">
<path d="M26.6422 10.1322C26.6374 10.1221 26.6374 10.1114 26.6321 10.1013C26.6263 10.0916 26.6171 10.0863 26.6108 10.0771C26.1221 9.239 25.5441 8.45939 24.8877 7.75275L25.9259 6.71504L26.6093 7.39847L28.6596 5.34769L26.6093 3.29739L24.5586 5.34769L25.2425 6.0316L24.2043 7.06932C23.4976 6.41295 22.7185 5.8344 21.8799 5.34575C21.8707 5.33947 21.8654 5.33029 21.8558 5.32449C21.8456 5.31869 21.835 5.31917 21.8248 5.31385C20.3299 4.45255 18.6503 3.87884 16.8595 3.66859V3.09294H17.5845C18.2511 3.09294 18.7929 2.55112 18.7929 1.8846C18.7929 1.21809 18.2506 0.67627 17.5841 0.67627H13.2341C12.5675 0.67627 12.0257 1.21809 12.0257 1.8846C12.0257 2.55112 12.5675 3.09294 13.2341 3.09294H13.9591V3.65167C13.4371 3.70725 12.916 3.79232 12.4008 3.91025C12.1408 3.9697 11.9779 4.22925 12.0378 4.48929C12.0973 4.74932 12.3568 4.91269 12.6168 4.85227C13.0615 4.75029 13.5105 4.67344 13.9605 4.62172L14.4791 4.5816C14.6377 4.56952 14.7836 4.56082 14.9257 4.55405V5.5096C14.9257 5.77689 15.1418 5.99294 15.4091 5.99294C15.6763 5.99294 15.8924 5.77689 15.8924 5.5096V4.55744C17.7102 4.64105 19.4231 5.12922 20.9461 5.93252L20.4696 6.75757C20.3362 6.98909 20.4154 7.2844 20.6465 7.4178C20.7223 7.46179 20.8055 7.48257 20.8876 7.48257C21.0549 7.48257 21.2173 7.39605 21.3067 7.2409L21.7818 6.41779C23.2942 7.3772 24.5789 8.6619 25.5383 10.1743L24.7152 10.6494C24.4846 10.7828 24.4053 11.0781 24.5392 11.3096C24.6291 11.4648 24.791 11.5513 24.9583 11.5513C25.0404 11.5513 25.1236 11.5305 25.1995 11.4865L26.0245 11.0099C26.8389 12.5547 27.3285 14.2956 27.4015 16.1425H26.4469C26.1797 16.1425 25.9636 16.3585 25.9636 16.6258C25.9636 16.8931 26.1797 17.1091 26.4469 17.1091H27.4015C27.3285 18.9559 26.8389 20.6969 26.0245 22.2416L25.1995 21.7651C24.9684 21.6317 24.6726 21.71 24.5392 21.942C24.4058 22.1735 24.4851 22.4688 24.7161 22.6022L25.5392 23.0773C24.5798 24.5897 23.2951 25.8744 21.7828 26.8338L21.3077 26.0107C21.1738 25.7787 20.8775 25.6999 20.6474 25.8338C20.4159 25.9672 20.3366 26.263 20.4705 26.494L20.9471 27.3191C19.4241 28.1224 17.7112 28.6105 15.8934 28.6941V27.7429C15.8934 27.4757 15.6773 27.2596 15.41 27.2596C15.1427 27.2596 14.9267 27.4757 14.9267 27.7429V28.698C14.1548 28.6714 13.3805 28.5748 12.6183 28.3998C12.3583 28.3374 12.0987 28.5027 12.0393 28.7628C11.9793 29.0228 12.1422 29.2824 12.4022 29.3418C13.367 29.5641 14.3525 29.6763 15.3303 29.6763C15.354 29.6763 15.3767 29.6748 15.4004 29.6743C15.4037 29.6743 15.4062 29.6763 15.4091 29.6763C15.4129 29.6763 15.4163 29.6739 15.4202 29.6739C17.7436 29.6579 19.9234 29.0305 21.8094 27.9469C21.8243 27.9401 21.8403 27.9368 21.8548 27.9281C21.8645 27.9223 21.8698 27.9131 21.879 27.9068C23.8311 26.769 25.4624 25.1397 26.6026 23.189C26.6118 23.1759 26.6234 23.1658 26.6316 23.1513C26.6374 23.1411 26.6369 23.1305 26.6417 23.1203C27.7457 21.2063 28.3803 18.9898 28.3803 16.6263C28.3803 14.2628 27.7457 12.0462 26.6422 10.1322ZM26.6089 4.66425L27.2923 5.34769L26.6089 6.0316L25.9249 5.34769L26.6089 4.66425ZM14.9257 3.58642V2.12627H13.2341C13.1011 2.12627 12.9924 2.01752 12.9924 1.8846C12.9924 1.75169 13.1011 1.64294 13.2341 1.64294H17.5841C17.717 1.64294 17.8257 1.75169 17.8257 1.8846C17.8257 2.01752 17.717 2.12627 17.5841 2.12627H15.8924V3.58642C15.7242 3.57965 15.5637 3.57627 15.4091 3.57627C15.3955 3.57627 15.3801 3.57724 15.3665 3.57724C15.3544 3.57724 15.3424 3.57627 15.3303 3.57627C15.251 3.57627 15.1717 3.58159 15.0925 3.58304C15.0364 3.58449 14.9837 3.584 14.9257 3.58642Z"/>
</mask>
<path d="M26.6422 10.1322C26.6374 10.1221 26.6374 10.1114 26.6321 10.1013C26.6263 10.0916 26.6171 10.0863 26.6108 10.0771C26.1221 9.239 25.5441 8.45939 24.8877 7.75275L25.9259 6.71504L26.6093 7.39847L28.6596 5.34769L26.6093 3.29739L24.5586 5.34769L25.2425 6.0316L24.2043 7.06932C23.4976 6.41295 22.7185 5.8344 21.8799 5.34575C21.8707 5.33947 21.8654 5.33029 21.8558 5.32449C21.8456 5.31869 21.835 5.31917 21.8248 5.31385C20.3299 4.45255 18.6503 3.87884 16.8595 3.66859V3.09294H17.5845C18.2511 3.09294 18.7929 2.55112 18.7929 1.8846C18.7929 1.21809 18.2506 0.67627 17.5841 0.67627H13.2341C12.5675 0.67627 12.0257 1.21809 12.0257 1.8846C12.0257 2.55112 12.5675 3.09294 13.2341 3.09294H13.9591V3.65167C13.4371 3.70725 12.916 3.79232 12.4008 3.91025C12.1408 3.9697 11.9779 4.22925 12.0378 4.48929C12.0973 4.74932 12.3568 4.91269 12.6168 4.85227C13.0615 4.75029 13.5105 4.67344 13.9605 4.62172L14.4791 4.5816C14.6377 4.56952 14.7836 4.56082 14.9257 4.55405V5.5096C14.9257 5.77689 15.1418 5.99294 15.4091 5.99294C15.6763 5.99294 15.8924 5.77689 15.8924 5.5096V4.55744C17.7102 4.64105 19.4231 5.12922 20.9461 5.93252L20.4696 6.75757C20.3362 6.98909 20.4154 7.2844 20.6465 7.4178C20.7223 7.46179 20.8055 7.48257 20.8876 7.48257C21.0549 7.48257 21.2173 7.39605 21.3067 7.2409L21.7818 6.41779C23.2942 7.3772 24.5789 8.6619 25.5383 10.1743L24.7152 10.6494C24.4846 10.7828 24.4053 11.0781 24.5392 11.3096C24.6291 11.4648 24.791 11.5513 24.9583 11.5513C25.0404 11.5513 25.1236 11.5305 25.1995 11.4865L26.0245 11.0099C26.8389 12.5547 27.3285 14.2956 27.4015 16.1425H26.4469C26.1797 16.1425 25.9636 16.3585 25.9636 16.6258C25.9636 16.8931 26.1797 17.1091 26.4469 17.1091H27.4015C27.3285 18.9559 26.8389 20.6969 26.0245 22.2416L25.1995 21.7651C24.9684 21.6317 24.6726 21.71 24.5392 21.942C24.4058 22.1735 24.4851 22.4688 24.7161 22.6022L25.5392 23.0773C24.5798 24.5897 23.2951 25.8744 21.7828 26.8338L21.3077 26.0107C21.1738 25.7787 20.8775 25.6999 20.6474 25.8338C20.4159 25.9672 20.3366 26.263 20.4705 26.494L20.9471 27.3191C19.4241 28.1224 17.7112 28.6105 15.8934 28.6941V27.7429C15.8934 27.4757 15.6773 27.2596 15.41 27.2596C15.1427 27.2596 14.9267 27.4757 14.9267 27.7429V28.698C14.1548 28.6714 13.3805 28.5748 12.6183 28.3998C12.3583 28.3374 12.0987 28.5027 12.0393 28.7628C11.9793 29.0228 12.1422 29.2824 12.4022 29.3418C13.367 29.5641 14.3525 29.6763 15.3303 29.6763C15.354 29.6763 15.3767 29.6748 15.4004 29.6743C15.4037 29.6743 15.4062 29.6763 15.4091 29.6763C15.4129 29.6763 15.4163 29.6739 15.4202 29.6739C17.7436 29.6579 19.9234 29.0305 21.8094 27.9469C21.8243 27.9401 21.8403 27.9368 21.8548 27.9281C21.8645 27.9223 21.8698 27.9131 21.879 27.9068C23.8311 26.769 25.4624 25.1397 26.6026 23.189C26.6118 23.1759 26.6234 23.1658 26.6316 23.1513C26.6374 23.1411 26.6369 23.1305 26.6417 23.1203C27.7457 21.2063 28.3803 18.9898 28.3803 16.6263C28.3803 14.2628 27.7457 12.0462 26.6422 10.1322ZM26.6089 4.66425L27.2923 5.34769L26.6089 6.0316L25.9249 5.34769L26.6089 4.66425ZM14.9257 3.58642V2.12627H13.2341C13.1011 2.12627 12.9924 2.01752 12.9924 1.8846C12.9924 1.75169 13.1011 1.64294 13.2341 1.64294H17.5841C17.717 1.64294 17.8257 1.75169 17.8257 1.8846C17.8257 2.01752 17.717 2.12627 17.5841 2.12627H15.8924V3.58642C15.7242 3.57965 15.5637 3.57627 15.4091 3.57627C15.3955 3.57627 15.3801 3.57724 15.3665 3.57724C15.3544 3.57724 15.3424 3.57627 15.3303 3.57627C15.251 3.57627 15.1717 3.58159 15.0925 3.58304C15.0364 3.58449 14.9837 3.584 14.9257 3.58642Z" fill="#2B2A2F"/>
<path d="M26.6422 10.1322L25.7393 10.5621L25.7562 10.5976L25.7759 10.6317L26.6422 10.1322ZM26.6321 10.1013L27.5179 9.63726L27.5044 9.61161L27.4895 9.58677L26.6321 10.1013ZM26.6108 10.0771L25.7469 10.5808L25.7651 10.612L25.7855 10.6418L26.6108 10.0771ZM24.8877 7.75275L24.1808 7.04548L23.4989 7.72699L24.155 8.43332L24.8877 7.75275ZM25.9259 6.71504L26.633 6.00793L25.9261 5.30099L25.219 6.00776L25.9259 6.71504ZM26.6093 7.39847L25.9022 8.10558L26.6094 8.81277L27.3165 8.10549L26.6093 7.39847ZM28.6596 5.34769L29.3668 6.05471L30.0738 5.3476L29.3667 4.64058L28.6596 5.34769ZM26.6093 3.29739L27.3164 2.59028L26.6094 1.88326L25.9023 2.5902L26.6093 3.29739ZM24.5586 5.34769L23.8515 4.6405L23.1443 5.3476L23.8514 6.05479L24.5586 5.34769ZM25.2425 6.0316L25.9494 6.73887L26.6569 6.03177L25.9496 5.3245L25.2425 6.0316ZM24.2043 7.06932L23.5237 7.80201L24.2297 8.45778L24.9112 7.77659L24.2043 7.06932ZM21.8799 5.34575L21.3152 6.17106L21.3451 6.19152L21.3765 6.20977L21.8799 5.34575ZM21.8558 5.32449L22.3703 4.46699L22.3611 4.46152L22.3519 4.45624L21.8558 5.32449ZM21.8248 5.31385L21.3256 6.18033L21.343 6.19036L21.3608 6.19968L21.8248 5.31385ZM16.8595 3.66859H15.8595V4.55805L16.7429 4.66176L16.8595 3.66859ZM16.8595 3.09294V2.09294H15.8595V3.09294H16.8595ZM13.9591 3.09294H14.9591V2.09294H13.9591V3.09294ZM13.9591 3.65167L14.0649 4.64605L14.9591 4.55084V3.65167H13.9591ZM12.4008 3.91025L12.6237 4.8851L12.6239 4.88504L12.4008 3.91025ZM12.0378 4.48929L13.0127 4.26641L13.0123 4.26469L12.0378 4.48929ZM12.6168 4.85227L12.3933 3.87757L12.3905 3.87822L12.6168 4.85227ZM13.9605 4.62172L13.8834 3.6247L13.8648 3.62613L13.8463 3.62826L13.9605 4.62172ZM14.4791 4.5816L14.4031 3.58449L14.402 3.58458L14.4791 4.5816ZM14.9257 4.55405H15.9257V3.5053L14.8782 3.55518L14.9257 4.55405ZM15.8924 4.55744L15.9383 3.55849L14.8924 3.51038V4.55744H15.8924ZM20.9461 5.93252L21.812 6.4327L22.3318 5.53283L21.4127 5.04802L20.9461 5.93252ZM20.4696 6.75757L19.6036 6.25739L19.6031 6.25832L20.4696 6.75757ZM20.6465 7.4178L21.1479 6.55263L21.1465 6.5518L20.6465 7.4178ZM21.3067 7.2409L20.4406 6.74099L20.4403 6.74157L21.3067 7.2409ZM21.7818 6.41779L22.3175 5.57337L21.437 5.0148L20.9157 5.91787L21.7818 6.41779ZM25.5383 10.1743L26.0382 11.0403L26.9413 10.5191L26.3827 9.63856L25.5383 10.1743ZM24.7152 10.6494L24.2152 9.78329L24.2143 9.78382L24.7152 10.6494ZM24.5392 11.3096L23.6735 11.8102L23.674 11.811L24.5392 11.3096ZM25.1995 11.4865L24.6993 10.6206L24.698 10.6213L25.1995 11.4865ZM26.0245 11.0099L26.9091 10.5436L26.4244 9.62414L25.5243 10.144L26.0245 11.0099ZM27.4015 16.1425V17.1425H28.4418L28.4007 16.103L27.4015 16.1425ZM27.4015 17.1091L28.4007 17.1486L28.4418 16.1091H27.4015V17.1091ZM26.0245 22.2416L25.5243 23.1076L26.4244 23.6274L26.9091 22.708L26.0245 22.2416ZM25.1995 21.7651L25.6996 20.8991L25.6995 20.8991L25.1995 21.7651ZM24.5392 21.942L25.4057 22.4412L25.4061 22.4404L24.5392 21.942ZM24.7161 22.6022L24.2161 23.4682L24.2162 23.4683L24.7161 22.6022ZM25.5392 23.0773L26.3837 23.613L26.9422 22.7325L26.0392 22.2112L25.5392 23.0773ZM21.7828 26.8338L20.9167 27.3337L21.438 28.2368L22.3185 27.6782L21.7828 26.8338ZM21.3077 26.0107L20.4415 26.5105L20.4416 26.5106L21.3077 26.0107ZM20.6474 25.8338L21.1467 26.7002L21.1504 26.6981L20.6474 25.8338ZM20.4705 26.494L21.3364 25.9938L21.3357 25.9926L20.4705 26.494ZM20.9471 27.3191L21.4136 28.2036L22.3328 27.7187L21.813 26.8189L20.9471 27.3191ZM15.8934 28.6941H14.8934V29.7412L15.9393 29.6931L15.8934 28.6941ZM14.9267 28.698L14.8923 29.6974L15.9267 29.733V28.698H14.9267ZM12.6183 28.3998L12.3851 29.3723L12.3946 29.3744L12.6183 28.3998ZM12.0393 28.7628L13.0137 28.9874L13.0141 28.9856L12.0393 28.7628ZM12.4022 29.3418L12.6268 28.3673L12.6251 28.367L12.4022 29.3418ZM15.4004 29.6743V28.6743H15.3902L15.38 28.6745L15.4004 29.6743ZM15.4202 29.6739V30.6739L15.427 30.6738L15.4202 29.6739ZM21.8094 27.9469L21.3978 27.0355L21.3534 27.0556L21.3112 27.0798L21.8094 27.9469ZM21.8548 27.9281L22.3693 28.7855L21.8548 27.9281ZM21.879 27.9068L21.3754 27.0428L21.3441 27.061L21.3143 27.0815L21.879 27.9068ZM26.6026 23.189L25.7848 22.6135L25.7605 22.648L25.7392 22.6844L26.6026 23.189ZM26.6316 23.1513L25.7633 22.6551L25.7616 22.6583L26.6316 23.1513ZM26.6417 23.1203L25.7755 22.6207L25.7558 22.6548L25.7389 22.6904L26.6417 23.1203ZM26.6089 4.66425L27.316 3.95715L26.6091 3.25029L25.902 3.9569L26.6089 4.66425ZM27.2923 5.34769L27.9996 6.05454L28.7063 5.34744L27.9994 4.64058L27.2923 5.34769ZM26.6089 6.0316L25.9018 6.73871L26.6091 7.44607L27.3162 6.73846L26.6089 6.0316ZM25.9249 5.34769L25.2181 4.64033L24.5105 5.34744L25.2178 6.05479L25.9249 5.34769ZM14.9257 3.58642H13.9257V4.62895L14.9674 4.58555L14.9257 3.58642ZM14.9257 2.12627H15.9257V1.12627H14.9257V2.12627ZM15.8924 2.12627V1.12627H14.8924V2.12627H15.8924ZM15.8924 3.58642L15.8522 4.58561L16.8924 4.62746V3.58642H15.8924ZM15.0925 3.58304L15.0742 2.58317L15.0666 2.58337L15.0925 3.58304ZM27.5451 9.70227C27.573 9.76083 27.5893 9.81066 27.5984 9.84128C27.6029 9.85644 27.606 9.86841 27.6075 9.87444C27.6087 9.87899 27.61 9.88449 27.6088 9.87952C27.6082 9.87729 27.6059 9.86774 27.6028 9.8561C27.5996 9.84389 27.5947 9.82625 27.588 9.80529C27.5744 9.76282 27.5527 9.70377 27.5179 9.63726L25.7462 10.5653C25.714 10.5038 25.6943 10.4499 25.6824 10.4126C25.6766 10.3943 25.6724 10.3792 25.6699 10.3696C25.6686 10.3647 25.6676 10.3608 25.6669 10.3582C25.6663 10.3558 25.6659 10.354 25.6659 10.354C25.6658 10.3539 25.6658 10.3539 25.6659 10.354C25.6659 10.354 25.6659 10.3541 25.6659 10.3542C25.6659 10.3543 25.666 10.3544 25.666 10.3545C25.6661 10.3549 25.6663 10.3558 25.6666 10.3568C25.6671 10.3588 25.6679 10.3624 25.6691 10.3668C25.6712 10.3754 25.675 10.39 25.6803 10.4077C25.6908 10.4435 25.709 10.4985 25.7393 10.5621L27.5451 9.70227ZM27.4895 9.58677C27.4487 9.51874 27.4069 9.46683 27.3754 9.43122C27.3598 9.41365 27.3462 9.3995 27.3365 9.38969C27.3272 9.38025 27.3195 9.37282 27.3172 9.37059C27.3124 9.36593 27.317 9.37039 27.3194 9.37276C27.3234 9.37668 27.332 9.38513 27.3426 9.39636C27.364 9.419 27.3991 9.45835 27.4361 9.51242L25.7855 10.6418C25.8256 10.7005 25.8642 10.7439 25.8893 10.7704C25.9018 10.7836 25.9122 10.7939 25.9181 10.7997C25.9211 10.8027 25.9235 10.805 25.9247 10.8062C25.9253 10.8068 25.9259 10.8073 25.926 10.8075C25.9263 10.8077 25.9262 10.8076 25.926 10.8074C25.9256 10.807 25.9198 10.8015 25.9124 10.7939C25.9046 10.786 25.8928 10.7738 25.879 10.7582C25.851 10.7266 25.8125 10.679 25.7746 10.6158L27.4895 9.58677ZM27.4747 9.57342C26.9491 8.672 26.3271 7.83301 25.6204 7.07219L24.155 8.43332C24.761 9.08576 25.2952 9.80601 25.7469 10.5808L27.4747 9.57342ZM25.5946 8.46002L26.6328 7.42231L25.219 6.00776L24.1808 7.04548L25.5946 8.46002ZM25.2188 7.42214L25.9022 8.10558L27.3164 6.69136L26.633 6.00793L25.2188 7.42214ZM27.3165 8.10549L29.3668 6.05471L27.9525 4.64066L25.9022 6.69145L27.3165 8.10549ZM29.3667 4.64058L27.3164 2.59028L25.9022 4.00449L27.9525 6.05479L29.3667 4.64058ZM25.9023 2.5902L23.8515 4.6405L25.2656 6.05488L27.3164 4.00458L25.9023 2.5902ZM23.8514 6.05479L24.5354 6.73871L25.9496 5.3245L25.2657 4.64058L23.8514 6.05479ZM24.5355 5.32433L23.4973 6.36205L24.9112 7.77659L25.9494 6.73887L24.5355 5.32433ZM24.8848 6.33663C24.1243 5.63023 23.2858 5.00761 22.3834 4.48174L21.3765 6.20977C22.1512 6.6612 22.8709 7.19567 23.5237 7.80201L24.8848 6.33663ZM22.4446 4.52045C22.4987 4.55745 22.538 4.59257 22.5607 4.61399C22.5719 4.6246 22.5804 4.63314 22.5843 4.63713C22.5867 4.63954 22.5911 4.64416 22.5865 4.63934C22.5842 4.63704 22.5768 4.62936 22.5674 4.62005C22.5575 4.61039 22.5434 4.59678 22.5258 4.5812C22.4902 4.54962 22.4383 4.50782 22.3703 4.46699L21.3413 6.18198C21.278 6.14405 21.2304 6.10558 21.1988 6.07755C21.1832 6.06374 21.171 6.05197 21.1631 6.04416C21.1556 6.03671 21.15 6.03093 21.1496 6.03053C21.1494 6.03034 21.1493 6.03022 21.1495 6.03048C21.1497 6.03062 21.1502 6.03119 21.1508 6.03179C21.152 6.033 21.1544 6.03546 21.1573 6.03845C21.1631 6.04434 21.1734 6.05475 21.1866 6.0672C21.2131 6.09229 21.2566 6.13091 21.3152 6.17106L22.4446 4.52045ZM22.3519 4.45624C22.2779 4.41396 22.211 4.38788 22.1618 4.37161C22.1377 4.36365 22.1174 4.35792 22.1035 4.35419C22.0904 4.35065 22.0795 4.34803 22.0775 4.34753C22.0724 4.34628 22.0791 4.3479 22.0852 4.34948C22.093 4.35146 22.1076 4.35533 22.126 4.36098C22.1636 4.37251 22.2218 4.39293 22.2888 4.42802L21.3608 6.19968C21.4329 6.23744 21.4963 6.25979 21.539 6.2729C21.56 6.27934 21.5772 6.28392 21.5876 6.28657C21.5928 6.28792 21.5971 6.28898 21.5996 6.28958C21.6008 6.28989 21.6018 6.29014 21.6024 6.29028C21.6026 6.29034 21.6029 6.29041 21.603 6.29043C21.6031 6.29046 21.6031 6.29046 21.6031 6.29045C21.6031 6.29044 21.601 6.28993 21.5981 6.28922C21.5952 6.28847 21.5905 6.28729 21.5848 6.28576C21.5735 6.28272 21.5558 6.27774 21.5343 6.27064C21.5126 6.26345 21.486 6.2538 21.4563 6.24099C21.4264 6.2281 21.3938 6.21226 21.3596 6.19273L22.3519 4.45624ZM22.324 4.44737C20.7145 3.52003 18.9051 2.90188 16.9761 2.67541L16.7429 4.66176C18.3955 4.85579 19.9453 5.38508 21.3256 6.18033L22.324 4.44737ZM17.8595 3.66859V3.09294H15.8595V3.66859H17.8595ZM16.8595 4.09294H17.5845V2.09294H16.8595V4.09294ZM17.5845 4.09294C18.8033 4.09294 19.7929 3.1034 19.7929 1.8846H17.7929C17.7929 1.99883 17.6988 2.09294 17.5845 2.09294V4.09294ZM19.7929 1.8846C19.7929 0.665281 18.8023 -0.32373 17.5841 -0.32373V1.67627C17.6988 1.67627 17.7929 1.77089 17.7929 1.8846H19.7929ZM17.5841 -0.32373H13.2341V1.67627H17.5841V-0.32373ZM13.2341 -0.32373C12.0153 -0.32373 11.0257 0.665801 11.0257 1.8846H13.0257C13.0257 1.77037 13.1198 1.67627 13.2341 1.67627V-0.32373ZM11.0257 1.8846C11.0257 3.1034 12.0153 4.09294 13.2341 4.09294V2.09294C13.1198 2.09294 13.0257 1.99883 13.0257 1.8846H11.0257ZM13.2341 4.09294H13.9591V2.09294H13.2341V4.09294ZM12.9591 3.09294V3.65167H14.9591V3.09294H12.9591ZM13.8532 2.65729C13.2941 2.71682 12.7338 2.80816 12.1777 2.93546L12.6239 4.88504C13.0982 4.77647 13.58 4.69768 14.0649 4.64605L13.8532 2.65729ZM12.1779 2.93541C11.3795 3.11795 10.8791 3.91436 11.0634 4.71388L13.0123 4.26469C13.0767 4.54414 12.9021 4.82145 12.6237 4.8851L12.1779 2.93541ZM11.063 4.71216C11.2451 5.5089 12.0408 6.01274 12.8432 5.82632L12.3905 3.87822C12.6728 3.81263 12.9494 3.98974 13.0127 4.26641L11.063 4.71216ZM12.8404 5.82696C13.2488 5.73329 13.6613 5.66269 14.0747 5.61518L13.8463 3.62826C13.3597 3.68418 12.8742 3.76728 12.3933 3.87758L12.8404 5.82696ZM14.0376 5.61874L14.5562 5.57862L14.402 3.58458L13.8834 3.6247L14.0376 5.61874ZM14.5551 5.57871C14.7032 5.56742 14.8397 5.55928 14.9733 5.55292L14.8782 3.55518C14.7276 3.56236 14.5721 3.57162 14.4031 3.58449L14.5551 5.57871ZM13.9257 4.55405V5.5096H15.9257V4.55405H13.9257ZM13.9257 5.5096C13.9257 6.32917 14.5895 6.99294 15.4091 6.99294V4.99294C15.6941 4.99294 15.9257 5.2246 15.9257 5.5096H13.9257ZM15.4091 6.99294C16.2286 6.99294 16.8924 6.32917 16.8924 5.5096H14.8924C14.8924 5.2246 15.1241 4.99294 15.4091 4.99294V6.99294ZM16.8924 5.5096V4.55744H14.8924V5.5096H16.8924ZM15.8464 5.55638C17.5132 5.63305 19.083 6.08039 20.4796 6.81702L21.4127 5.04802C19.7633 4.17805 17.9072 3.64906 15.9383 3.55849L15.8464 5.55638ZM20.0802 5.43234L19.6036 6.25739L21.3355 7.25775L21.812 6.4327L20.0802 5.43234ZM19.6031 6.25832C19.1944 6.96759 19.4369 7.87415 20.1464 8.28381L21.1465 6.5518C21.3939 6.69465 21.4779 7.01058 21.336 7.25682L19.6031 6.25832ZM20.145 8.28298C20.3788 8.41853 20.636 8.48257 20.8876 8.48257V6.48257C20.975 6.48257 21.0658 6.50505 21.1479 6.55263L20.145 8.28298ZM20.8876 8.48257C21.3967 8.48257 21.8974 8.21857 22.1731 7.74024L20.4403 6.74157C20.5371 6.57354 20.7131 6.48257 20.8876 6.48257V8.48257ZM22.1728 7.74082L22.6479 6.9177L20.9157 5.91787L20.4406 6.74099L22.1728 7.74082ZM21.2461 7.2622C22.6341 8.14271 23.8134 9.32198 24.6939 10.7099L26.3827 9.63856C25.3444 8.00182 23.9542 6.6117 22.3175 5.57337L21.2461 7.2622ZM25.0384 9.30818L24.2152 9.78329L25.2151 11.5154L26.0382 11.0403L25.0384 9.30818ZM24.2143 9.78382C23.5059 10.1938 23.2632 11.1007 23.6735 11.8102L25.4049 10.809C25.5475 11.0555 25.4634 11.3718 25.216 11.5149L24.2143 9.78382ZM23.674 11.811C23.9493 12.2861 24.4477 12.5513 24.9583 12.5513V10.5513C25.1344 10.5513 25.3089 10.6434 25.4045 10.8082L23.674 11.811ZM24.9583 12.5513C25.21 12.5513 25.4671 12.4872 25.7009 12.3517L24.698 10.6213C24.7801 10.5737 24.8709 10.5513 24.9583 10.5513V12.5513ZM25.6996 12.3524L26.5247 11.8759L25.5243 10.144L24.6993 10.6206L25.6996 12.3524ZM25.1399 11.4763C25.8866 12.8925 26.3354 14.488 26.4023 16.1819L28.4007 16.103C28.3217 14.1032 27.7913 12.2168 26.9091 10.5436L25.1399 11.4763ZM27.4015 15.1425H26.4469V17.1425H27.4015V15.1425ZM26.4469 15.1425C25.6274 15.1425 24.9636 15.8062 24.9636 16.6258H26.9636C26.9636 16.9108 26.7319 17.1425 26.4469 17.1425V15.1425ZM24.9636 16.6258C24.9636 17.4454 25.6274 18.1091 26.4469 18.1091V16.1091C26.7319 16.1091 26.9636 16.3408 26.9636 16.6258H24.9636ZM26.4469 18.1091H27.4015V16.1091H26.4469V18.1091ZM26.4023 17.0696C26.3354 18.7635 25.8866 20.359 25.1399 21.7753L26.9091 22.708C27.7913 21.0348 28.3217 19.1483 28.4007 17.1486L26.4023 17.0696ZM26.5247 21.3757L25.6996 20.8991L24.6993 22.631L25.5243 23.1076L26.5247 21.3757ZM25.6995 20.8991C24.9925 20.4909 24.0831 20.7292 23.6723 21.4435L25.4061 22.4404C25.2622 22.6908 24.9443 22.7725 24.6994 22.6311L25.6995 20.8991ZM23.6728 21.4427C23.2641 22.152 23.5066 23.0586 24.2161 23.4682L25.2162 21.7362C25.4636 21.879 25.5476 22.195 25.4057 22.4412L23.6728 21.4427ZM24.2162 23.4683L25.0393 23.9434L26.0392 22.2112L25.216 21.7361L24.2162 23.4683ZM24.6948 22.5416C23.8143 23.9296 22.635 25.1089 21.2471 25.9894L22.3185 27.6782C23.9552 26.6399 25.3453 25.2498 26.3837 23.613L24.6948 22.5416ZM22.6488 26.3339L22.1737 25.5108L20.4416 26.5106L20.9167 27.3337L22.6488 26.3339ZM22.1738 25.5108C21.7641 24.8009 20.8547 24.5561 20.1445 24.9695L21.1504 26.6981C20.9002 26.8437 20.5834 26.7564 20.4415 26.5105L22.1738 25.5108ZM20.1482 24.9673C19.4379 25.3766 19.1937 26.2851 19.6053 26.9954L21.3357 25.9926C21.4796 26.2409 21.3939 26.5578 21.1467 26.7002L20.1482 24.9673ZM19.6046 26.9942L20.0812 27.8192L21.813 26.8189L21.3364 25.9938L19.6046 26.9942ZM20.4806 26.4345C19.084 27.1712 17.5142 27.6185 15.8474 27.6952L15.9393 29.6931C17.9081 29.6025 19.7643 29.0735 21.4136 28.2036L20.4806 26.4345ZM16.8934 28.6941V27.7429H14.8934V28.6941H16.8934ZM16.8934 27.7429C16.8934 26.9234 16.2296 26.2596 15.41 26.2596V28.2596C15.125 28.2596 14.8934 28.0279 14.8934 27.7429H16.8934ZM15.41 26.2596C14.5905 26.2596 13.9267 26.9234 13.9267 27.7429H15.9267C15.9267 28.0279 15.695 28.2596 15.41 28.2596V26.2596ZM13.9267 27.7429V28.698H15.9267V27.7429H13.9267ZM14.9611 27.6986C14.2494 27.6741 13.5387 27.5851 12.842 27.4251L12.3946 29.3744C13.2223 29.5645 14.0602 29.6688 14.8923 29.6974L14.9611 27.6986ZM12.8515 27.4273C12.0378 27.2323 11.245 27.7501 11.0644 28.5399L13.0141 28.9856C12.9524 29.2554 12.6787 29.4426 12.3851 29.3722L12.8515 27.4273ZM11.0648 28.5382C10.8805 29.3377 11.3809 30.1341 12.1794 30.3166L12.6251 28.367C12.9035 28.4306 13.0781 28.7079 13.0137 28.9874L11.0648 28.5382ZM12.1777 30.3163C13.2156 30.5555 14.2764 30.6763 15.3303 30.6763V28.6763C14.4286 28.6763 13.5184 28.5728 12.6268 28.3673L12.1777 30.3163ZM15.3303 30.6763C15.3613 30.6763 15.388 30.6753 15.4018 30.6748C15.4118 30.6745 15.4121 30.6744 15.4177 30.6742C15.421 30.6741 15.4216 30.6741 15.4208 30.6741L15.38 28.6745C15.3673 28.6748 15.3561 28.6752 15.3478 28.6755C15.3436 28.6756 15.3397 28.6757 15.3366 28.6759C15.3332 28.676 15.3311 28.6761 15.3289 28.6761C15.3194 28.6765 15.3229 28.6763 15.3303 28.6763V30.6763ZM15.4004 30.6743C15.3528 30.6743 15.3088 30.6709 15.2691 30.6656C15.2295 30.6603 15.1951 30.6533 15.167 30.6465C15.1392 30.6397 15.1167 30.633 15.1019 30.6283C15.0944 30.6259 15.0882 30.6238 15.084 30.6224C15.08 30.6211 15.0769 30.62 15.0762 30.6198C15.0761 30.6197 15.076 30.6197 15.076 30.6197C15.0759 30.6196 15.0759 30.6196 15.0759 30.6196C15.0758 30.6196 15.076 30.6197 15.0762 30.6197C15.0766 30.6199 15.0775 30.6202 15.0788 30.6206C15.0812 30.6215 15.0859 30.6231 15.0919 30.6251C15.1036 30.6289 15.1248 30.6358 15.1518 30.6429C15.2064 30.6573 15.2964 30.6763 15.4091 30.6763V28.6763C15.5203 28.6763 15.6088 28.695 15.6621 28.7091C15.6884 28.716 15.7089 28.7226 15.7199 28.7262C15.7256 28.7281 15.73 28.7296 15.732 28.7303C15.7331 28.7307 15.7339 28.731 15.7341 28.731C15.7348 28.7313 15.7337 28.7309 15.7335 28.7308C15.7325 28.7305 15.7291 28.7293 15.7247 28.7278C15.7202 28.7263 15.7137 28.7241 15.7058 28.7216C15.6902 28.7167 15.667 28.7097 15.6384 28.7028C15.6096 28.6958 15.5744 28.6886 15.5341 28.6832C15.4935 28.6778 15.4487 28.6743 15.4004 28.6743V30.6743ZM15.4091 30.6763C15.5141 30.6763 15.5985 30.6598 15.6507 30.647C15.6769 30.6405 15.6978 30.6343 15.7104 30.6303C15.7169 30.6283 15.7222 30.6266 15.7255 30.6255C15.7271 30.625 15.7285 30.6245 15.7294 30.6242C15.7302 30.624 15.7309 30.6237 15.7309 30.6237C15.7315 30.6235 15.7294 30.6242 15.7268 30.6251C15.724 30.626 15.7192 30.6276 15.7132 30.6294C15.7014 30.6331 15.6814 30.6391 15.6562 30.6453C15.6058 30.6577 15.5233 30.6739 15.4202 30.6739V28.6739C15.3151 28.6739 15.2307 28.6903 15.1785 28.7032C15.1524 28.7096 15.1315 28.7159 15.1188 28.7198C15.1123 28.7218 15.107 28.7235 15.1038 28.7246C15.1021 28.7251 15.1007 28.7256 15.0999 28.7259C15.0991 28.7262 15.0984 28.7264 15.0983 28.7264C15.0977 28.7266 15.0999 28.7259 15.1024 28.725C15.1052 28.7241 15.11 28.7226 15.1161 28.7207C15.1278 28.717 15.1478 28.711 15.1731 28.7048C15.2234 28.6924 15.3059 28.6763 15.4091 28.6763V30.6763ZM15.427 30.6738C17.9283 30.6567 20.2768 29.9808 22.3076 28.814L21.3112 27.0798C19.57 28.0803 17.5588 28.6591 15.4133 28.6739L15.427 30.6738ZM22.2209 28.8583C22.1936 28.8706 22.1723 28.8785 22.1652 28.8811C22.1616 28.8825 22.1591 28.8833 22.1609 28.8827C22.1613 28.8826 22.167 28.8805 22.1728 28.8784C22.1939 28.8708 22.2761 28.8414 22.3693 28.7855L21.3403 27.0706C21.3814 27.0459 21.4174 27.0287 21.4433 27.0174C21.4682 27.0065 21.4873 26.9996 21.4917 26.998C21.4936 26.9973 21.4956 26.9966 21.4921 26.9978C21.4901 26.9985 21.4837 27.0008 21.4763 27.0035C21.4616 27.0089 21.4326 27.0198 21.3978 27.0355L22.2209 28.8583ZM22.3693 28.7855C22.4373 28.7447 22.4892 28.7029 22.5248 28.6714C22.5424 28.6558 22.5566 28.6422 22.5664 28.6325C22.5758 28.6232 22.5832 28.6155 22.5855 28.6132C22.5901 28.6084 22.5857 28.613 22.5833 28.6154C22.5794 28.6194 22.5709 28.628 22.5597 28.6386C22.5371 28.66 22.4977 28.6951 22.4436 28.7321L21.3143 27.0815C21.2556 27.1216 21.2122 27.1602 21.1856 27.1853C21.1725 27.1978 21.1621 27.2082 21.1563 27.2141C21.1534 27.2171 21.151 27.2195 21.1499 27.2207C21.1493 27.2213 21.1487 27.2219 21.1486 27.222C21.1483 27.2223 21.1485 27.2222 21.1486 27.222C21.149 27.2216 21.1546 27.2158 21.1622 27.2084C21.1701 27.2006 21.1823 27.1888 21.1979 27.175C21.2295 27.1469 21.2771 27.1085 21.3403 27.0706L22.3693 28.7855ZM22.3825 28.7708C24.4836 27.5462 26.2388 25.7931 27.4659 23.6936L25.7392 22.6844C24.686 24.4863 23.1787 25.9918 21.3754 27.0428L22.3825 28.7708ZM27.4204 23.7645C27.4013 23.7916 27.3851 23.8113 27.3785 23.8192C27.3752 23.8232 27.3728 23.826 27.3733 23.8254C27.3756 23.8228 27.3719 23.827 27.3752 23.8233C27.3762 23.822 27.3779 23.82 27.3799 23.8177C27.3931 23.8021 27.449 23.7371 27.5016 23.6443L25.7616 22.6583C25.7846 22.6175 25.807 22.5854 25.8237 22.5629C25.8397 22.5416 25.8527 22.5263 25.8549 22.5237C25.8555 22.523 25.8573 22.521 25.8539 22.5249C25.8519 22.5272 25.847 22.533 25.8411 22.54C25.8295 22.554 25.8085 22.5798 25.7848 22.6135L27.4204 23.7645ZM27.4998 23.6474C27.5421 23.5734 27.5685 23.5059 27.5853 23.4548C27.6007 23.4076 27.6096 23.3685 27.611 23.3623C27.6131 23.3535 27.6111 23.362 27.6106 23.3641C27.6093 23.3696 27.6062 23.3822 27.6017 23.3983C27.5925 23.4309 27.5753 23.4858 27.5446 23.5503L25.7389 22.6904C25.7057 22.7599 25.6867 22.8199 25.6761 22.8578C25.6709 22.8764 25.6672 22.8916 25.6652 22.8997C25.6643 22.9038 25.6635 22.9072 25.6632 22.9086C25.6625 22.9113 25.663 22.9093 25.663 22.9093C25.6634 22.9078 25.6655 22.8985 25.6687 22.8862C25.672 22.8735 25.6772 22.8548 25.6846 22.8324C25.6996 22.7864 25.7239 22.7241 25.7633 22.6551L27.4998 23.6474ZM27.508 23.62C28.6965 21.5593 29.3803 19.1712 29.3803 16.6263H27.3803C27.3803 18.8083 26.7949 20.8533 25.7755 22.6207L27.508 23.62ZM29.3803 16.6263C29.3803 14.0814 28.6965 11.6933 27.5085 9.63274L25.7759 10.6317C26.7948 12.3991 27.3803 14.4442 27.3803 16.6263H29.3803ZM25.9018 5.37136L26.5852 6.05479L27.9994 4.64058L27.316 3.95715L25.9018 5.37136ZM26.5849 4.64083L25.9015 5.32475L27.3162 6.73846L27.9996 6.05454L26.5849 4.64083ZM27.316 5.3245L26.632 4.64058L25.2178 6.05479L25.9018 6.73871L27.316 5.3245ZM26.6318 6.05504L27.3157 5.37161L25.902 3.9569L25.2181 4.64033L26.6318 6.05504ZM15.9257 3.58642V2.12627H13.9257V3.58642H15.9257ZM14.9257 1.12627H13.2341V3.12627H14.9257V1.12627ZM13.2341 1.12627C13.6534 1.12627 13.9924 1.46523 13.9924 1.8846H11.9924C11.9924 2.5698 12.5489 3.12627 13.2341 3.12627V1.12627ZM13.9924 1.8846C13.9924 2.30397 13.6534 2.64294 13.2341 2.64294V0.642936C12.5489 0.642936 11.9924 1.1994 11.9924 1.8846H13.9924ZM13.2341 2.64294H17.5841V0.642936H13.2341V2.64294ZM17.5841 2.64294C17.1647 2.64294 16.8257 2.30397 16.8257 1.8846H18.8257C18.8257 1.1994 18.2693 0.642936 17.5841 0.642936V2.64294ZM16.8257 1.8846C16.8257 1.46523 17.1647 1.12627 17.5841 1.12627V3.12627C18.2693 3.12627 18.8257 2.5698 18.8257 1.8846H16.8257ZM17.5841 1.12627H15.8924V3.12627H17.5841V1.12627ZM14.8924 2.12627V3.58642H16.8924V2.12627H14.8924ZM15.9326 2.58723C15.7522 2.57997 15.5783 2.57627 15.4091 2.57627V4.57627C15.5491 4.57627 15.6961 4.57933 15.8522 4.58561L15.9326 2.58723ZM15.4091 2.57627C15.3943 2.57627 15.3817 2.57653 15.3732 2.57674C15.365 2.57695 15.3574 2.57721 15.3545 2.57731C15.3501 2.57745 15.3505 2.57743 15.3516 2.57741C15.3529 2.57737 15.3585 2.57724 15.3665 2.57724V4.57724C15.3813 4.57724 15.3939 4.57698 15.4024 4.57676C15.4106 4.57655 15.4182 4.57629 15.4211 4.5762C15.4254 4.57605 15.4251 4.57607 15.424 4.5761C15.4227 4.57613 15.4171 4.57627 15.4091 4.57627V2.57627ZM15.3665 2.57724C15.3766 2.57724 15.3841 2.57743 15.3874 2.57753C15.3902 2.57762 15.3922 2.57771 15.3884 2.57755C15.3862 2.57746 15.3782 2.57714 15.3693 2.57687C15.3599 2.57659 15.3463 2.57627 15.3303 2.57627V4.57627C15.3202 4.57627 15.3127 4.57607 15.3094 4.57597C15.3065 4.57589 15.3046 4.5758 15.3084 4.57595C15.3106 4.57604 15.3186 4.57637 15.3275 4.57664C15.3369 4.57692 15.3504 4.57724 15.3665 4.57724V2.57724ZM15.3303 2.57627C15.2701 2.57627 15.2141 2.57828 15.1733 2.57983C15.1271 2.5816 15.1011 2.58271 15.0742 2.5832L15.1108 4.58287C15.2836 4.57971 15.2346 4.57627 15.3303 4.57627V2.57627ZM15.0666 2.58337C15.0469 2.58388 15.0297 2.58402 14.9966 2.58445C14.9671 2.58484 14.9278 2.58546 14.8841 2.58729L14.9674 4.58555C15.0283 4.58301 15.0045 4.58564 15.1183 4.5827L15.0666 2.58337Z" fill="black" mask="url(#path-2-inside-1)"/>
<mask id="path-4-inside-2" fill="white">
<path d="M11.0589 7.44299H8.64227C8.37499 7.44299 8.15894 7.65904 8.15894 7.92633C8.15894 8.19361 8.37499 8.40966 8.64227 8.40966H11.0589C11.3262 8.40966 11.5423 8.19361 11.5423 7.92633C11.5423 7.65904 11.3262 7.44299 11.0589 7.44299Z"/>
</mask>
<path d="M11.0589 7.44299H8.64227C8.37499 7.44299 8.15894 7.65904 8.15894 7.92633C8.15894 8.19361 8.37499 8.40966 8.64227 8.40966H11.0589C11.3262 8.40966 11.5423 8.19361 11.5423 7.92633C11.5423 7.65904 11.3262 7.44299 11.0589 7.44299Z" fill="#2B2A2F"/>
<path d="M11.0589 6.44299H8.64227V8.44299H11.0589V6.44299ZM8.64227 6.44299C7.8227 6.44299 7.15894 7.10676 7.15894 7.92633H9.15894C9.15894 8.21133 8.92727 8.44299 8.64227 8.44299V6.44299ZM7.15894 7.92633C7.15894 8.74589 7.8227 9.40966 8.64227 9.40966V7.40966C8.92727 7.40966 9.15894 7.64133 9.15894 7.92633H7.15894ZM8.64227 9.40966H11.0589V7.40966H8.64227V9.40966ZM11.0589 9.40966C11.8785 9.40966 12.5423 8.74589 12.5423 7.92633H10.5423C10.5423 7.64132 10.7739 7.40966 11.0589 7.40966V9.40966ZM12.5423 7.92633C12.5423 7.10676 11.8785 6.44299 11.0589 6.44299V8.44299C10.7739 8.44299 10.5423 8.21133 10.5423 7.92633H12.5423Z" fill="black" mask="url(#path-4-inside-2)"/>
<mask id="path-6-inside-3" fill="white">
<path d="M11.0591 10.8263H6.22576C5.95848 10.8263 5.74243 11.0423 5.74243 11.3096C5.74243 11.5769 5.95848 11.793 6.22576 11.793H11.0591C11.3264 11.793 11.5424 11.5769 11.5424 11.3096C11.5424 11.0423 11.3264 10.8263 11.0591 10.8263Z"/>
</mask>
<path d="M11.0591 10.8263H6.22576C5.95848 10.8263 5.74243 11.0423 5.74243 11.3096C5.74243 11.5769 5.95848 11.793 6.22576 11.793H11.0591C11.3264 11.793 11.5424 11.5769 11.5424 11.3096C11.5424 11.0423 11.3264 10.8263 11.0591 10.8263Z" fill="#2B2A2F"/>
<path d="M11.0591 9.82629H6.22576V11.8263H11.0591V9.82629ZM6.22576 9.82629C5.4062 9.82629 4.74243 10.4901 4.74243 11.3096H6.74243C6.74243 11.5946 6.51077 11.8263 6.22576 11.8263V9.82629ZM4.74243 11.3096C4.74243 12.1292 5.4062 12.793 6.22576 12.793V10.793C6.51077 10.793 6.74243 11.0246 6.74243 11.3096H4.74243ZM6.22576 12.793H11.0591V10.793H6.22576V12.793ZM11.0591 12.793C11.8787 12.793 12.5424 12.1292 12.5424 11.3096H10.5424C10.5424 11.0246 10.7741 10.793 11.0591 10.793V12.793ZM12.5424 11.3096C12.5424 10.4901 11.8787 9.82629 11.0591 9.82629V11.8263C10.7741 11.8263 10.5424 11.5946 10.5424 11.3096H12.5424Z" fill="black" mask="url(#path-6-inside-3)"/>
<mask id="path-8-inside-4" fill="white">
<path d="M11.059 14.2096H3.80902C3.54173 14.2096 3.32568 14.4256 3.32568 14.6929C3.32568 14.9602 3.54173 15.1763 3.80902 15.1763H11.059C11.3263 15.1763 11.5423 14.9602 11.5423 14.6929C11.5423 14.4256 11.3263 14.2096 11.059 14.2096Z"/>
</mask>
<path d="M11.059 14.2096H3.80902C3.54173 14.2096 3.32568 14.4256 3.32568 14.6929C3.32568 14.9602 3.54173 15.1763 3.80902 15.1763H11.059C11.3263 15.1763 11.5423 14.9602 11.5423 14.6929C11.5423 14.4256 11.3263 14.2096 11.059 14.2096Z" fill="#2B2A2F"/>
<path d="M11.059 13.2096H3.80902V15.2096H11.059V13.2096ZM3.80902 13.2096C2.98945 13.2096 2.32568 13.8734 2.32568 14.6929H4.32568C4.32568 14.9779 4.09402 15.2096 3.80902 15.2096V13.2096ZM2.32568 14.6929C2.32568 15.5125 2.98945 16.1763 3.80902 16.1763V14.1763C4.09402 14.1763 4.32568 14.4079 4.32568 14.6929H2.32568ZM3.80902 16.1763H11.059V14.1763H3.80902V16.1763ZM11.059 16.1763C11.8786 16.1763 12.5423 15.5125 12.5423 14.6929H10.5423C10.5423 14.4079 10.774 14.1763 11.059 14.1763V16.1763ZM12.5423 14.6929C12.5423 13.8734 11.8786 13.2096 11.059 13.2096V15.2096C10.774 15.2096 10.5423 14.9779 10.5423 14.6929H12.5423Z" fill="black" mask="url(#path-8-inside-4)"/>
<mask id="path-10-inside-5" fill="white">
<path d="M11.059 17.5929H1.87567C1.60838 17.5929 1.39233 17.8089 1.39233 18.0762C1.39233 18.3435 1.60838 18.5596 1.87567 18.5596H11.059C11.3263 18.5596 11.5423 18.3435 11.5423 18.0762C11.5423 17.8089 11.3263 17.5929 11.059 17.5929Z"/>
</mask>
<path d="M11.059 17.5929H1.87567C1.60838 17.5929 1.39233 17.8089 1.39233 18.0762C1.39233 18.3435 1.60838 18.5596 1.87567 18.5596H11.059C11.3263 18.5596 11.5423 18.3435 11.5423 18.0762C11.5423 17.8089 11.3263 17.5929 11.059 17.5929Z" fill="#2B2A2F"/>
<path d="M11.059 16.5929H1.87567V18.5929H11.059V16.5929ZM1.87567 16.5929C1.0561 16.5929 0.392334 17.2567 0.392334 18.0762H2.39233C2.39233 18.3612 2.16067 18.5929 1.87567 18.5929V16.5929ZM0.392334 18.0762C0.392334 18.8958 1.0561 19.5596 1.87567 19.5596V17.5596C2.16067 17.5596 2.39233 17.7912 2.39233 18.0762H0.392334ZM1.87567 19.5596H11.059V17.5596H1.87567V19.5596ZM11.059 19.5596C11.8786 19.5596 12.5423 18.8958 12.5423 18.0762H10.5423C10.5423 17.7912 10.774 17.5596 11.059 17.5596V19.5596ZM12.5423 18.0762C12.5423 17.2567 11.8786 16.5929 11.059 16.5929V18.5929C10.774 18.5929 10.5423 18.3612 10.5423 18.0762H12.5423Z" fill="black" mask="url(#path-10-inside-5)"/>
<mask id="path-12-inside-6" fill="white">
<path d="M11.0589 20.9763H4.77557C4.50829 20.9763 4.29224 21.1924 4.29224 21.4597C4.29224 21.7269 4.50829 21.943 4.77557 21.943H11.0589C11.3262 21.943 11.5422 21.7269 11.5422 21.4597C11.5422 21.1924 11.3262 20.9763 11.0589 20.9763Z"/>
</mask>
<path d="M11.0589 20.9763H4.77557C4.50829 20.9763 4.29224 21.1924 4.29224 21.4597C4.29224 21.7269 4.50829 21.943 4.77557 21.943H11.0589C11.3262 21.943 11.5422 21.7269 11.5422 21.4597C11.5422 21.1924 11.3262 20.9763 11.0589 20.9763Z" fill="#2B2A2F"/>
<path d="M11.0589 19.9763H4.77557V21.9763H11.0589V19.9763ZM4.77557 19.9763C3.956 19.9763 3.29224 20.6401 3.29224 21.4597H5.29224C5.29224 21.7447 5.06057 21.9763 4.77557 21.9763V19.9763ZM3.29224 21.4597C3.29224 22.2792 3.956 22.943 4.77557 22.943V20.943C5.06057 20.943 5.29224 21.1747 5.29224 21.4597H3.29224ZM4.77557 22.943H11.0589V20.943H4.77557V22.943ZM11.0589 22.943C11.8785 22.943 12.5422 22.2792 12.5422 21.4597H10.5422C10.5422 21.1747 10.7739 20.943 11.0589 20.943V22.943ZM12.5422 21.4597C12.5422 20.6401 11.8785 19.9763 11.0589 19.9763V21.9763C10.7739 21.9763 10.5422 21.7447 10.5422 21.4597H12.5422Z" fill="black" mask="url(#path-12-inside-6)"/>
<mask id="path-14-inside-7" fill="white">
<path d="M11.059 24.3596H7.67572C7.40843 24.3596 7.19238 24.5757 7.19238 24.843C7.19238 25.1102 7.40843 25.3263 7.67572 25.3263H11.059C11.3263 25.3263 11.5424 25.1102 11.5424 24.843C11.5424 24.5757 11.3263 24.3596 11.059 24.3596Z"/>
</mask>
<path d="M11.059 24.3596H7.67572C7.40843 24.3596 7.19238 24.5757 7.19238 24.843C7.19238 25.1102 7.40843 25.3263 7.67572 25.3263H11.059C11.3263 25.3263 11.5424 25.1102 11.5424 24.843C11.5424 24.5757 11.3263 24.3596 11.059 24.3596Z" fill="#2B2A2F"/>
<path d="M11.059 23.3596H7.67572V25.3596H11.059V23.3596ZM7.67572 23.3596C6.85615 23.3596 6.19238 24.0234 6.19238 24.843H8.19238C8.19238 25.128 7.96072 25.3596 7.67572 25.3596V23.3596ZM6.19238 24.843C6.19238 25.6625 6.85615 26.3263 7.67572 26.3263V24.3263C7.96072 24.3263 8.19238 24.558 8.19238 24.843H6.19238ZM7.67572 26.3263H11.059V24.3263H7.67572V26.3263ZM11.059 26.3263C11.8786 26.3263 12.5424 25.6625 12.5424 24.843H10.5424C10.5424 24.558 10.774 24.3263 11.059 24.3263V26.3263ZM12.5424 24.843C12.5424 24.0234 11.8786 23.3596 11.059 23.3596V25.3596C10.774 25.3596 10.5424 25.128 10.5424 24.843H12.5424Z" fill="black" mask="url(#path-14-inside-7)"/>
</g>
<defs>
<clipPath id="clip0">
<rect width="29" height="29" fill="white" transform="translate(0.525635 0.67627)"/>
</clipPath>
</defs>
</svg>
