<svg width="32" height="31" viewBox="0 0 32 31" fill="none" xmlns="http://www.w3.org/2000/svg">
<g clip-path="url(#clip0)">
<path d="M29.459 6.38672C28.3192 6.38672 27.3923 7.28373 27.3923 8.3867C27.3923 9.48967 28.3192 10.3867 29.459 10.3867C30.5987 10.3867 31.5256 9.48973 31.5256 8.3867C31.5256 7.28373 30.5987 6.38672 29.459 6.38672ZM29.459 9.38672C28.8891 9.38672 28.4256 8.93825 28.4256 8.3867C28.4256 7.83522 28.8891 7.38668 29.459 7.38668C30.0289 7.38668 30.4923 7.83516 30.4923 8.3867C30.4923 8.93825 30.0288 9.38672 29.459 9.38672Z" fill="#2B2A2F"/>
<path d="M2.59228 22.8867C1.45255 22.8867 0.525635 23.7837 0.525635 24.8867C0.525635 25.9897 1.45255 26.8867 2.59228 26.8867C3.73208 26.8867 4.65893 25.9897 4.65893 24.8867C4.65893 23.7837 3.73208 22.8867 2.59228 22.8867ZM2.59228 25.8867C2.02241 25.8867 1.55893 25.4382 1.55893 24.8867C1.55893 24.3352 2.02235 23.8867 2.59228 23.8867C3.16215 23.8867 3.62563 24.3352 3.62563 24.8867C3.62563 25.4382 3.16221 25.8867 2.59228 25.8867Z" fill="#2B2A2F"/>
<path d="M28.4572 7.01871L24 4.93623C23.7426 4.8157 23.4342 4.9207 23.3102 5.16926C23.1862 5.41775 23.2942 5.71676 23.551 5.83676L28.0083 7.91924C28.0806 7.95323 28.1571 7.96922 28.2325 7.96922C28.4247 7.96922 28.6092 7.86522 28.698 7.68621C28.822 7.43772 28.714 7.13871 28.4572 7.01871Z" fill="#2B2A2F"/>
<path d="M23.7756 26.3867C22.6358 26.3867 21.709 27.2837 21.709 28.3867C21.709 29.4897 22.6358 30.3868 23.7756 30.3868C24.9154 30.3868 25.8423 29.4897 25.8423 28.3868C25.8423 27.2838 24.9154 26.3867 23.7756 26.3867ZM23.7756 29.3867C23.2058 29.3867 22.7423 28.9383 22.7423 28.3867C22.7423 27.8352 23.2058 27.3867 23.7756 27.3867C24.3455 27.3867 24.809 27.8352 24.809 28.3868C24.809 28.9383 24.3455 29.3867 23.7756 29.3867Z" fill="#2B2A2F"/>
<path d="M22.7739 27.0188L18.3166 24.9363C18.0593 24.8158 17.7509 24.9203 17.6269 25.1693C17.5029 25.4178 17.6108 25.7168 17.8677 25.8368L22.3249 27.9193C22.3973 27.9533 22.4738 27.9693 22.5492 27.9693C22.7413 27.9693 22.9258 27.8653 23.0147 27.6863C23.1386 27.4377 23.0307 27.1388 22.7739 27.0188Z" fill="#2B2A2F"/>
<path d="M16.0256 13.8867C14.8858 13.8867 13.959 14.7837 13.959 15.8867C13.959 16.9897 14.8859 17.8867 16.0256 17.8867C17.1654 17.8867 18.0923 16.9897 18.0923 15.8867C18.0923 14.7837 17.1654 13.8867 16.0256 13.8867ZM16.0256 16.8867C15.4558 16.8867 14.9923 16.4382 14.9923 15.8867C14.9923 15.3352 15.4557 14.8867 16.0256 14.8867C16.5955 14.8867 17.059 15.3352 17.059 15.8867C17.059 16.4382 16.5955 16.8867 16.0256 16.8867Z" fill="#2B2A2F"/>
<path d="M15.1174 14.5747L11.6934 11.9922C11.4681 11.8236 11.1437 11.8611 10.968 12.0792C10.7929 12.2972 10.8326 12.6111 11.0579 12.7812L14.4819 15.3637C14.5764 15.4347 14.688 15.4692 14.7991 15.4692C14.9531 15.4692 15.105 15.4032 15.2073 15.2767C15.3824 15.0587 15.3427 14.7447 15.1174 14.5747Z" fill="#2B2A2F"/>
<path d="M25.3257 13.3867C22.1921 13.3867 19.6423 15.8542 19.6423 18.8867C19.6423 21.9193 22.1921 24.3868 25.3257 24.3868C28.4593 24.3868 31.009 21.9193 31.009 18.8867C31.009 15.8542 28.4593 13.3867 25.3257 13.3867ZM25.3257 23.3867C22.7615 23.3867 20.6757 21.3682 20.6757 18.8867C20.6757 16.4052 22.7615 14.3867 25.3257 14.3867C27.8899 14.3867 29.9757 16.4052 29.9757 18.8867C29.9757 21.3682 27.8899 23.3867 25.3257 23.3867Z" fill="#2B2A2F"/>
<path d="M25.3257 15.3867C24.1859 15.3867 23.259 16.2837 23.259 17.3867C23.259 18.4897 24.1859 19.3867 25.3257 19.3867C26.4655 19.3867 27.3923 18.4897 27.3923 17.3867C27.3923 16.2837 26.4655 15.3867 25.3257 15.3867ZM25.3257 18.3867C24.7558 18.3867 24.2923 17.9382 24.2923 17.3867C24.2923 16.8352 24.7558 16.3867 25.3257 16.3867C25.8955 16.3867 26.359 16.8352 26.359 17.3867C26.359 17.9382 25.8955 18.3867 25.3257 18.3867Z" fill="#2B2A2F"/>
<path d="M26.8244 20.3867H23.8267C22.9438 20.3867 22.2256 21.0632 22.2256 21.8942V23.2122C22.2256 23.3907 22.3237 23.5557 22.4834 23.6452C23.3493 24.1302 24.332 24.3867 25.3256 24.3867C26.3192 24.3867 27.3018 24.1302 28.1678 23.6452C28.3274 23.5562 28.4256 23.3907 28.4256 23.2128V21.8947C28.4256 21.0632 27.7074 20.3867 26.8244 20.3867ZM27.3922 22.9142C26.1063 23.5342 24.5449 23.5342 23.2589 22.9142V21.8947C23.2589 21.6147 23.5136 21.3867 23.8267 21.3867H26.8244C27.1375 21.3867 27.3922 21.6147 27.3922 21.8947V22.9142H27.3922Z" fill="#2B2A2F"/>
<path d="M12.9255 19.3867C9.79194 19.3867 7.24219 21.8542 7.24219 24.8867C7.24219 27.9193 9.79194 30.3867 12.9255 30.3867C16.0591 30.3867 18.6089 27.9192 18.6089 24.8867C18.6089 21.8542 16.0591 19.3867 12.9255 19.3867ZM12.9255 29.3867C10.3613 29.3867 8.27554 27.3682 8.27554 24.8867C8.27554 22.4052 10.3613 20.3867 12.9255 20.3867C15.4898 20.3867 17.5755 22.4052 17.5755 24.8867C17.5755 27.3682 15.4898 29.3867 12.9255 29.3867Z" fill="#2B2A2F"/>
<path d="M12.9258 21.3867C11.786 21.3867 10.8591 22.2837 10.8591 23.3867C10.8591 24.4897 11.786 25.3867 12.9258 25.3867C14.0655 25.3867 14.9924 24.4897 14.9924 23.3867C14.9924 22.2837 14.0656 21.3867 12.9258 21.3867ZM12.9258 24.3867C12.3559 24.3867 11.8924 23.9382 11.8924 23.3867C11.8924 22.8352 12.3558 22.3867 12.9258 22.3867C13.4956 22.3867 13.9591 22.8352 13.9591 23.3867C13.9591 23.9382 13.4956 24.3867 12.9258 24.3867Z" fill="#2B2A2F"/>
<path d="M14.4245 26.3867H11.4268C10.5439 26.3867 9.82568 27.0632 9.82568 27.8942V29.2122C9.82568 29.3907 9.92383 29.5557 10.0835 29.6452C10.9494 30.1302 11.9321 30.3868 12.9257 30.3868C13.9193 30.3868 14.9019 30.1302 15.7679 29.6452C15.9275 29.5562 16.0257 29.3908 16.0257 29.2128V27.8948C16.0257 27.0632 15.3075 26.3867 14.4245 26.3867ZM14.9923 28.9142C13.7063 29.5342 12.145 29.5342 10.859 28.9142V27.8948C10.859 27.6147 11.1137 27.3867 11.4268 27.3867H14.4245C14.7375 27.3867 14.9923 27.6147 14.9923 27.8948V28.9142H14.9923Z" fill="#2B2A2F"/>
<path d="M6.20899 6.88672C3.07538 6.88672 0.525635 9.35422 0.525635 12.3867C0.525635 15.4193 3.07538 17.8867 6.20899 17.8867C9.34259 17.8867 11.8923 15.4193 11.8923 12.3867C11.8923 9.35422 9.34253 6.88672 6.20899 6.88672ZM6.20899 16.8867C3.64477 16.8867 1.55899 14.8682 1.55899 12.3867C1.55899 9.90523 3.64477 7.88674 6.20899 7.88674C8.77321 7.88674 10.859 9.90523 10.859 12.3867C10.859 14.8682 8.77321 16.8867 6.20899 16.8867Z" fill="#2B2A2F"/>
<path d="M6.20898 8.88672C5.06919 8.88672 4.14233 9.78373 4.14233 10.8867C4.14233 11.9897 5.06925 12.8867 6.20898 12.8867C7.34878 12.8867 8.27563 11.9897 8.27563 10.8867C8.27563 9.78373 7.34872 8.88672 6.20898 8.88672ZM6.20898 11.8867C5.63911 11.8867 5.17563 11.4382 5.17563 10.8867C5.17563 10.3352 5.63905 9.88668 6.20898 9.88668C6.77885 9.88668 7.24234 10.3352 7.24234 10.8867C7.24234 11.4382 6.77885 11.8867 6.20898 11.8867Z" fill="#2B2A2F"/>
<path d="M7.70773 13.8867H4.71005C3.82709 13.8867 3.10889 14.5632 3.10889 15.3942V16.7122C3.10889 16.8907 3.20703 17.0557 3.3667 17.1452C4.23264 17.6302 5.21531 17.8867 6.20889 17.8867C7.20246 17.8867 8.18514 17.6302 9.05108 17.1452C9.21074 17.0562 9.30889 16.8907 9.30889 16.7128V15.3947C9.30889 14.5632 8.59068 13.8867 7.70773 13.8867ZM8.27554 16.4142C6.98958 17.0342 5.4282 17.0342 4.14218 16.4142V15.3947C4.14218 15.1147 4.3969 14.8867 4.70999 14.8867H7.70767C8.02075 14.8867 8.27548 15.1147 8.27548 15.3947V16.4142H8.27554Z" fill="#2B2A2F"/>
<path d="M18.6089 0.386719C15.4753 0.386719 12.9255 2.85422 12.9255 5.88674C12.9255 8.91926 15.4753 11.3868 18.6089 11.3868C21.7425 11.3868 24.2922 8.91926 24.2922 5.88674C24.2922 2.85422 21.7424 0.386719 18.6089 0.386719ZM18.6089 10.3867C16.0447 10.3867 13.9589 8.36824 13.9589 5.88674C13.9589 3.40523 16.0447 1.38674 18.6089 1.38674C21.1731 1.38674 23.2589 3.40523 23.2589 5.88674C23.2589 8.36824 21.1731 10.3867 18.6089 10.3867Z" fill="#2B2A2F"/>
<path d="M18.6091 2.38672C17.4693 2.38672 16.5425 3.28373 16.5425 4.3867C16.5425 5.48967 17.4694 6.38668 18.6091 6.38668C19.7489 6.38668 20.6758 5.48973 20.6758 4.38676C20.6758 3.28379 19.7489 2.38672 18.6091 2.38672ZM18.6091 5.38672C18.0393 5.38672 17.5758 4.93824 17.5758 4.3867C17.5758 3.83521 18.0392 3.38668 18.6091 3.38668C19.1791 3.38668 19.6425 3.83516 19.6425 4.3867C19.6424 4.93824 19.179 5.38672 18.6091 5.38672Z" fill="#2B2A2F"/>
<path d="M20.1079 7.38672H17.1102C16.2272 7.38672 15.509 8.06324 15.509 8.89422V10.2122C15.509 10.3907 15.6072 10.5557 15.7668 10.6452C16.6328 11.1302 17.6155 11.3867 18.609 11.3867C19.6026 11.3867 20.5853 11.1302 21.4512 10.6452C21.6109 10.5562 21.709 10.3907 21.709 10.2128V8.89474C21.709 8.06318 20.9908 7.38672 20.1079 7.38672ZM20.6757 9.91422C19.3897 10.5342 17.8283 10.5342 16.5423 9.91422V8.89474C16.5423 8.61473 16.797 8.38674 17.1101 8.38674H20.1078C20.4209 8.38674 20.6756 8.61473 20.6756 8.89474V9.91422H20.6757Z" fill="#2B2A2F"/>
<path d="M13.8356 5.56107C13.6502 5.35206 13.3241 5.32704 13.1071 5.50657L9.52662 8.4716C9.30962 8.65107 9.28431 8.9666 9.46977 9.1766C9.57209 9.29209 9.71674 9.35162 9.86241 9.35162C9.98127 9.35162 10.1006 9.31213 10.1983 9.23109L13.7788 6.26607C13.9958 6.08659 14.0211 5.77107 13.8356 5.56107Z" fill="#2B2A2F"/>
<path d="M25.2224 13.5873L22.1224 9.58725C21.9513 9.36576 21.6274 9.32223 21.399 9.48723C21.1706 9.65275 21.1247 9.96623 21.2957 10.1867L24.3957 14.1867C24.4974 14.3177 24.6524 14.3867 24.8095 14.3867C24.917 14.3867 25.026 14.3542 25.119 14.2867C25.3474 14.1212 25.3934 13.8077 25.2224 13.5873Z" fill="#2B2A2F"/>
<path d="M20.9821 20.5402C20.8111 20.3192 20.4871 20.2747 20.2587 20.4402L17.3727 22.5347C17.1443 22.7002 17.0983 23.0137 17.2693 23.2342C17.3711 23.3652 17.5261 23.4341 17.6831 23.4341C17.7911 23.4341 17.8996 23.4011 17.9927 23.3341L20.8787 21.2396C21.1071 21.0742 21.1531 20.7607 20.9821 20.5402Z" fill="#2B2A2F"/>
<path d="M7.75909 24.3867H4.14238C3.8572 24.3867 3.62573 24.6102 3.62573 24.8867C3.62573 25.1632 3.8572 25.3867 4.14238 25.3867H7.75903C8.0442 25.3867 8.27567 25.1632 8.27567 24.8867C8.27567 24.6102 8.04426 24.3867 7.75909 24.3867Z" fill="#2B2A2F"/>
<path d="M6.20904 0.386719C5.06925 0.386719 4.14233 1.28373 4.14233 2.3867C4.14233 3.48973 5.06925 4.38668 6.20898 4.38668C7.34878 4.38668 8.27563 3.48967 8.27563 2.3867C8.27569 1.28373 7.34878 0.386719 6.20904 0.386719ZM6.20904 3.38672C5.63917 3.38672 5.17569 2.93824 5.17569 2.3867C5.17569 1.83521 5.63911 1.38668 6.20904 1.38668C6.77891 1.38668 7.24239 1.83516 7.24239 2.3867C7.24233 2.93824 6.77891 3.38672 6.20904 3.38672Z" fill="#2B2A2F"/>
<path d="M6.20903 3.38672C5.92385 3.38672 5.69238 3.6102 5.69238 3.8867V7.38668C5.69238 7.66318 5.92385 7.88666 6.20903 7.88666C6.4942 7.88666 6.72568 7.66318 6.72568 7.38668V3.8867C6.72568 3.6102 6.4942 3.38672 6.20903 3.38672Z" fill="#2B2A2F"/>
</g>
<defs>
<clipPath id="clip0">
<rect width="31" height="30" fill="white" transform="translate(0.525635 0.386719)"/>
</clipPath>
</defs>
</svg>
