<svg width="29" height="27" viewBox="0 0 29 27" fill="none" xmlns="http://www.w3.org/2000/svg">
<path d="M14.0254 18.6986C13.2426 18.6986 12.5864 19.3548 12.5864 20.1376C12.5864 20.9204 13.2426 21.5765 14.0254 21.5765C14.7794 21.5765 15.4643 20.9204 15.4298 20.1721C15.4643 19.349 14.8139 18.6986 14.0254 18.6986Z" fill="black"/>
<path d="M27.3443 23.7983C28.248 22.2385 28.2537 20.3794 27.3558 18.8253L18.3422 3.21546C17.45 1.64412 15.8384 0.71167 14.031 0.71167C12.2237 0.71167 10.6121 1.64987 9.71992 3.2097L0.694778 18.8368C-0.203132 20.4081 -0.197376 22.2788 0.712045 23.8386C1.60996 25.3812 3.21583 26.3079 5.01165 26.3079H23.0159C24.8175 26.3079 26.4349 25.3697 27.3443 23.7983ZM25.3873 22.6702C24.8865 23.5335 24.0001 24.0458 23.0101 24.0458H5.0059C4.02741 24.0458 3.14676 23.5451 2.65752 22.699C2.16252 21.8413 2.15676 20.8168 2.65176 19.9534L11.6769 4.33209C12.1662 3.47447 13.041 2.96796 14.031 2.96796C15.0153 2.96796 15.8959 3.48023 16.3852 4.33785L25.4046 19.9592C25.8881 20.7995 25.8823 21.8126 25.3873 22.6702Z" fill="black"/>
<path d="M13.6685 8.59714C12.9835 8.79284 12.5576 9.41447 12.5576 10.1685C12.5922 10.6232 12.6209 11.0837 12.6555 11.5384C12.7533 13.2709 12.8512 14.9688 12.949 16.7014C12.9835 17.2885 13.4383 17.7144 14.0254 17.7144C14.6124 17.7144 15.0729 17.2597 15.1017 16.6668C15.1017 16.31 15.1017 15.9819 15.1362 15.6193C15.1995 14.5084 15.2686 13.3975 15.3319 12.2866C15.3665 11.5672 15.4298 10.8477 15.4643 10.1282C15.4643 9.86918 15.4298 9.63895 15.3319 9.40871C15.0384 8.76406 14.3534 8.43598 13.6685 8.59714Z" fill="black"/>
</svg>
