<svg width="35" height="25" viewBox="0 0 35 25" fill="none" xmlns="http://www.w3.org/2000/svg">
<path d="M30.1473 2.31836H3.90407C3.44058 2.31836 3.06348 2.70587 3.06348 3.18223V19.1269C3.06348 19.6033 3.44058 19.9908 3.90407 19.9908H30.1473C30.6108 19.9908 30.9879 19.6033 30.9879 19.1269V3.1823C30.9879 2.70594 30.6108 2.31836 30.1473 2.31836ZM30.2601 19.1269C30.2601 19.1908 30.2096 19.2428 30.1473 19.2428H3.90407C3.84185 19.2428 3.7912 19.1908 3.7912 19.1269V3.1823C3.7912 3.11835 3.84178 3.06637 3.90407 3.06637H30.1473C30.2095 3.06637 30.2601 3.11843 30.2601 3.1823V19.1269Z" fill="black"/>
<path d="M33.4798 20.5518H32.6252V2.7722C32.6252 1.59405 31.6926 0.635498 30.5462 0.635498H3.50509C2.35871 0.635498 1.42614 1.59398 1.42614 2.7722V20.5517H0.571427C0.269931 20.5517 0.0256348 20.8029 0.0256348 21.1127V22.6538C0.0256348 23.6548 0.818052 24.4692 1.79196 24.4692H32.2592C33.2332 24.4692 34.0256 23.6548 34.0256 22.6538V21.1127C34.0256 20.8029 33.7813 20.5518 33.4798 20.5518ZM2.51765 2.7722C2.51765 2.21267 2.96061 1.7574 3.50502 1.7574H30.5462C31.0906 1.7574 31.5335 2.2126 31.5335 2.7722V20.5517H2.51765V2.7722ZM15.4246 21.6737H18.6266V21.967C18.6266 22.0983 18.5227 22.2052 18.3949 22.2052H15.6562C15.5285 22.2052 15.4245 22.0984 15.4245 21.967V21.6737H15.4246ZM32.9341 22.6539C32.9341 23.0363 32.6315 23.3474 32.2594 23.3474H1.79204C1.41995 23.3474 1.11729 23.0362 1.11729 22.6539V21.6737H1.97193H14.697V21.967C14.697 22.5108 15.1273 22.9531 15.6564 22.9531H18.395C18.9241 22.9531 19.3545 22.5108 19.3545 21.967V21.6737H32.0795H32.9341V22.6539Z" fill="black"/>
</svg>
