<svg width="37" height="37" viewBox="0 0 37 37" fill="none" xmlns="http://www.w3.org/2000/svg">
<g clip-path="url(#clip0)">
<path d="M32.4351 19.3064C32.7531 18.8348 32.9391 18.2669 32.9391 17.6565V17.0925C32.9391 15.4611 31.6117 14.1337 29.9802 14.1337C29.1662 14.1337 28.4279 14.4642 27.8924 14.998C26.5069 10.8772 22.6074 7.90063 18.0256 7.90063C13.4439 7.90063 9.5444 10.8772 8.15882 14.998C7.62332 14.4642 6.88511 14.1337 6.07103 14.1337C4.43957 14.1337 3.11221 15.4611 3.11221 17.0925V17.6565C3.11221 18.2669 3.29812 18.8348 3.61621 19.3064C1.56808 19.738 0.0256348 21.5588 0.0256348 23.7334V25.1491C0.0256348 25.5373 0.340494 25.8522 0.72876 25.8522H4.38501C4.77328 25.8522 5.08813 25.5373 5.08813 25.1491C5.08813 24.7608 4.77328 24.4459 4.38501 24.4459H1.43188V23.7334C1.43188 22.014 2.83068 20.6152 4.55003 20.6152H7.87785C8.14771 21.8022 8.62071 22.9128 9.25886 23.9081L10.1061 25.0495C12.0163 27.2898 14.8577 28.7131 18.0256 28.7131C22.9706 28.7131 27.1206 25.246 28.1734 20.6152H31.5012C33.2206 20.6152 34.6194 22.014 34.6194 23.7334V24.4459H28.01C27.6217 24.4459 27.3069 24.7608 27.3069 25.1491C27.3069 25.5373 27.6217 25.8522 28.01 25.8522H35.3225C35.7108 25.8522 36.0256 25.5373 36.0256 25.1491V23.7334C36.0256 21.5588 34.4832 19.738 32.4351 19.3064ZM7.6236 17.6566C7.6236 18.5126 6.92716 19.2091 6.07103 19.2091C5.21491 19.2091 4.51846 18.5126 4.51846 17.6566V17.0926C4.51846 16.2365 5.21491 15.54 6.07103 15.54C6.92716 15.54 7.6236 16.2365 7.6236 17.0926V17.6566ZM18.0256 27.3069C13.063 27.3069 9.02563 23.2695 9.02563 18.3069C9.02563 13.3443 13.063 9.30688 18.0256 9.30688C22.9882 9.30688 27.0256 13.3443 27.0256 18.3069C27.0256 23.2695 22.9882 27.3069 18.0256 27.3069ZM31.5327 17.6566C31.5327 18.5126 30.8363 19.2091 29.9802 19.2091C29.124 19.2091 28.4276 18.5126 28.4276 17.6566V17.0926C28.4276 16.2365 29.124 15.54 29.9802 15.54C30.8363 15.54 31.5327 16.2365 31.5327 17.0926V17.6566Z" fill="black"/>
<path d="M18.0256 10.7131C13.8384 10.7131 10.4319 14.1196 10.4319 18.3069C10.4319 20.4802 11.3499 22.443 12.8182 23.8285C12.8433 23.8557 12.8702 23.8813 12.8997 23.9045C14.2515 25.1434 16.0518 25.9006 18.0256 25.9006C19.9995 25.9006 21.7997 25.1434 23.1516 23.9045C23.1811 23.8813 23.208 23.8557 23.2331 23.8285C24.7014 22.443 25.6194 20.4802 25.6194 18.3069C25.6194 14.1197 22.2129 10.7131 18.0256 10.7131ZM18.0256 24.4944C16.5798 24.4944 15.2484 23.9958 14.1938 23.1617C14.9409 21.7481 16.3968 20.8587 18.0256 20.8587C19.6545 20.8587 21.1104 21.7481 21.8575 23.1617C20.8029 23.9958 19.4715 24.4944 18.0256 24.4944ZM16.5439 17.9708V17.4245C16.5439 16.6075 17.2086 15.9428 18.0256 15.9428C18.8427 15.9428 19.5073 16.6075 19.5073 17.4245V17.9708C19.5073 18.7878 18.8427 19.4525 18.0256 19.4525C17.2086 19.4525 16.5439 18.7878 16.5439 17.9708ZM22.886 22.1318C22.2419 21.1041 21.299 20.3203 20.1955 19.8734C20.642 19.3648 20.9136 18.6992 20.9136 17.9709V17.4246C20.9136 15.8322 19.618 14.5367 18.0256 14.5367C16.4333 14.5367 15.1377 15.8322 15.1377 17.4246V17.9709C15.1377 18.6992 15.4092 19.3648 15.8557 19.8734C14.7522 20.3204 13.8095 21.1041 13.1653 22.1318C12.3345 21.0784 11.8381 19.7496 11.8381 18.3069C11.8381 14.8951 14.6139 12.1194 18.0256 12.1194C21.4374 12.1194 24.2131 14.8951 24.2131 18.3069C24.2131 19.7496 23.7168 21.0784 22.886 22.1318Z" fill="black"/>
<path d="M18.0398 0.428833C17.6515 0.428833 17.3367 0.743692 17.3367 1.13196V3.52427C17.3367 3.91261 17.6515 4.2274 18.0398 4.2274C18.4281 4.2274 18.7429 3.91254 18.7429 3.52427V1.13196C18.7429 0.743692 18.4281 0.428833 18.0398 0.428833Z" fill="black"/>
<path d="M18.5368 5.34579C18.4061 5.215 18.2254 5.13977 18.0398 5.13977C17.8548 5.13977 17.6735 5.21493 17.5427 5.34579C17.4119 5.47664 17.3367 5.65797 17.3367 5.8429C17.3367 6.02782 17.4118 6.20922 17.5427 6.33993C17.6735 6.47072 17.8548 6.54602 18.0398 6.54602C18.2254 6.54602 18.4061 6.47079 18.5368 6.33993C18.6676 6.20922 18.7429 6.02782 18.7429 5.8429C18.7429 5.65797 18.6677 5.47657 18.5368 5.34579Z" fill="black"/>
<path d="M24.0006 3.18708C23.726 2.91258 23.2809 2.91258 23.0062 3.18708L21.7704 4.42289C21.4958 4.69746 21.4958 5.14268 21.7704 5.41732C21.9078 5.55457 22.0876 5.62326 22.2676 5.62326C22.4476 5.62326 22.6275 5.55457 22.7648 5.41732L24.0006 4.18151C24.2752 3.90694 24.2752 3.46172 24.0006 3.18708Z" fill="black"/>
<path d="M14.2925 4.43123L13.0448 3.18354C12.7702 2.90904 12.3251 2.90904 12.0504 3.18354C11.7758 3.45811 11.7758 3.90333 12.0504 4.17797L13.2982 5.42566C13.4355 5.56291 13.6154 5.63161 13.7954 5.63161C13.9753 5.63161 14.1552 5.56291 14.2925 5.42566C14.5671 5.15109 14.5671 4.70587 14.2925 4.43123Z" fill="black"/>
</g>
<defs>
<clipPath id="clip0">
<rect width="36" height="36" fill="white" transform="translate(0.0256348 0.428223)"/>
</clipPath>
</defs>
</svg>
