<svg width="53" height="17" viewBox="0 0 53 17" fill="none" xmlns="http://www.w3.org/2000/svg">
<path opacity="0.3" d="M0.91376 9.66079C0.72642 9.70842 0.613162 9.8989 0.660791 10.0862L1.43695 13.1391C1.48458 13.3265 1.67506 13.4397 1.8624 13.3921C2.04974 13.3445 2.16299 13.154 2.11537 12.9666L1.42545 10.253L4.13912 9.56305C4.32646 9.51542 4.43972 9.32494 4.39209 9.1376C4.34446 8.95026 4.15398 8.83701 3.96664 8.88463L0.91376 9.66079ZM52.1983 0.822543C42.3259 17.6056 19.5666 20.6324 1.17888 9.69916L0.821124 10.3008C19.4334 21.3676 42.6741 18.3944 52.8017 1.17746L52.1983 0.822543Z" fill="#69559B"/>
</svg>
