<svg width="24" height="25" viewBox="0 0 24 25" fill="none" xmlns="http://www.w3.org/2000/svg">
<g clip-path="url(#clip0)">
<path d="M17.1594 13.3684C17.2213 13.5268 17.2494 13.6903 17.2494 13.8528C17.2494 14.1799 17.1364 14.4976 16.9468 14.757C16.7593 15.0133 16.4937 15.2122 16.1811 15.2997H16.1817C16.1791 15.3008 16.1765 15.3008 16.1752 15.3018C16.1739 15.3018 16.1718 15.3029 16.1708 15.3029C16.0244 15.3529 15.8744 15.3763 15.7255 15.3763C15.3765 15.3763 15.0338 15.2505 14.7598 15.0361C14.488 14.8227 14.2822 14.5159 14.2176 14.152H14.2171C14.2171 14.1509 14.2171 14.1497 14.2166 14.1482C14.2166 14.1471 14.2166 14.146 14.2155 14.1445H14.2166C14.1963 14.0507 14.1858 13.957 14.1858 13.8644C14.1858 13.5493 14.2931 13.2467 14.4702 12.9966C14.6468 12.7482 14.8958 12.5508 15.1871 12.4492C15.1882 12.4492 15.1893 12.4486 15.1893 12.4486C15.1908 12.4486 15.1908 12.4471 15.1921 12.4471C15.3569 12.3862 15.5309 12.3557 15.7031 12.3557C16.0166 12.3557 16.3254 12.4508 16.5859 12.6247C16.8431 12.7958 17.052 13.0466 17.1567 13.3581C17.1577 13.3601 17.1577 13.362 17.1587 13.3638C17.1587 13.3659 17.1598 13.367 17.1608 13.3685H17.1594V13.3684ZM16.1999 17.2346C16.0771 17.1549 15.9348 17.1067 15.7844 17.1067C15.663 17.1067 15.5369 17.1414 15.4247 17.2158C14.3643 17.8487 13.1172 18.1955 11.8789 18.1955C10.9498 18.1955 10.0264 17.9994 9.18984 17.5885L9.18554 17.5864L9.18135 17.5849C9.05519 17.5333 8.91145 17.4237 8.75466 17.3193C8.67498 17.2676 8.59178 17.2164 8.49944 17.1786C8.40832 17.1398 8.3071 17.1127 8.1989 17.1127C8.10935 17.1127 8.01521 17.1327 7.92231 17.1749C7.91751 17.1768 7.91294 17.1785 7.90825 17.1804H7.90875C7.76278 17.2361 7.64873 17.3382 7.57541 17.459C7.49885 17.5835 7.46124 17.7283 7.46124 17.8726C7.46124 18.0028 7.49199 18.133 7.5556 18.2512C7.61614 18.3632 7.70927 18.4611 7.83113 18.5267C9.02685 19.3333 10.4348 19.6986 11.8482 19.6973C13.1225 19.6973 14.4046 19.4023 15.546 18.8653L15.552 18.8617L15.5577 18.8586C15.7082 18.7695 15.9082 18.6896 16.0968 18.5732C16.19 18.5138 16.2811 18.4451 16.3593 18.3557C16.4374 18.2669 16.5001 18.1576 16.5356 18.0279V18.0273C16.5504 17.9701 16.5574 17.9144 16.5574 17.8586C16.5574 17.7526 16.5314 17.6521 16.4882 17.5618C16.4249 17.4257 16.3213 17.3143 16.1999 17.2346ZM7.8048 15.295C7.80686 15.295 7.8096 15.2958 7.81194 15.2971C7.96455 15.3528 8.12185 15.3804 8.27758 15.3804C8.66611 15.3804 9.0437 15.2212 9.32956 14.9619C9.61497 14.7017 9.81043 14.3337 9.81043 13.9143C9.81043 13.9033 9.81043 13.8924 9.80993 13.8794C9.81099 13.8606 9.81149 13.84 9.81149 13.8189C9.81149 13.4028 9.61865 13.0333 9.33597 12.7721C9.05223 12.5106 8.67554 12.3507 8.28556 12.3507C8.18138 12.3507 8.07525 12.3629 7.97152 12.3872C7.96996 12.3872 7.96879 12.3877 7.96723 12.3877C7.96723 12.3877 7.96617 12.3877 7.96567 12.3877C7.44942 12.4957 6.99627 12.8788 6.82904 13.4059V13.4064C6.82904 13.4075 6.82854 13.4085 6.82854 13.4085C6.7805 13.5528 6.75812 13.7017 6.75812 13.8491C6.75812 14.172 6.86487 14.4866 7.04889 14.7454C7.2313 14.9999 7.48937 15.1999 7.79927 15.2933C7.80151 15.2934 7.80257 15.294 7.8048 15.295ZM23.9953 11.5289V11.531C23.9989 11.5834 23.9999 11.6358 23.9999 11.6878C23.9999 12.2707 23.813 12.8313 23.501 13.3068C23.2099 13.7519 22.8084 14.1242 22.3458 14.3769C22.3755 14.6089 22.3927 14.8427 22.3927 15.0758C22.3922 16.331 21.9594 17.5648 21.2058 18.5537V18.5542H21.2042C19.811 20.4076 17.6714 21.5006 15.511 22.0519H15.5104L15.5089 22.0532C14.3569 22.3329 13.1688 22.4758 11.9812 22.4758C10.2107 22.4758 8.44169 22.1565 6.79088 21.4946L6.79038 21.493H6.78881C5.07735 20.7875 3.44663 19.6662 2.44661 18.0232C1.9086 17.1466 1.61325 16.1182 1.61325 15.0849C1.61325 14.8511 1.62905 14.6169 1.66029 14.3854C1.20989 14.1318 0.819796 13.7722 0.530088 13.3427C0.220852 12.8815 0.0247747 12.3411 0 11.7699V11.7677V11.7656V11.761C0.000502189 10.961 0.348017 10.2032 0.888038 9.64447C1.428 9.08587 2.16561 8.72078 2.95678 8.72078C2.96771 8.72078 2.97865 8.72078 2.98959 8.72078C3.07256 8.71515 3.15626 8.71191 3.24001 8.71191C3.63741 8.71191 4.0357 8.77625 4.41396 8.92127L4.41603 8.92283L4.41815 8.9235C4.74105 9.05948 5.0619 9.22353 5.34787 9.45074C5.44055 9.40214 5.5416 9.34746 5.65498 9.30427C7.38832 8.27785 9.40304 7.8819 11.3664 7.76768C11.3835 6.79505 11.503 5.77678 11.9774 4.88568C12.3724 4.14528 13.0581 3.56888 13.8745 3.36912L13.8779 3.36745L13.8823 3.36695C14.1933 3.30679 14.5068 3.27906 14.8183 3.27906C15.648 3.27906 16.4678 3.47553 17.235 3.7822C17.5745 3.26969 18.0594 2.86967 18.6283 2.6453L18.6337 2.64217L18.6392 2.64011C18.973 2.5361 19.3257 2.47528 19.6796 2.47528C20.053 2.47528 20.4294 2.54352 20.782 2.70104V2.69976C20.7825 2.70104 20.783 2.70104 20.783 2.70104C20.7857 2.70194 20.7877 2.7035 20.7895 2.7035C21.295 2.89818 21.7229 3.25797 22.0262 3.70509C22.3299 4.15415 22.5086 4.69205 22.5086 5.24508C22.5086 5.34702 22.5028 5.44913 22.4909 5.55136L22.4898 5.55342C22.4898 5.55498 22.4898 5.55721 22.4893 5.55878C22.4299 6.2735 22.0679 6.90057 21.5554 7.34785C21.0398 7.79692 20.3721 8.06816 19.6867 8.06816C19.5768 8.06816 19.4658 8.06202 19.3554 8.04729C18.6757 7.99534 18.0419 7.66641 17.5762 7.17711C17.109 6.68859 16.808 6.03586 16.808 5.33128C16.808 5.29719 16.8111 5.26226 16.8121 5.22845C16.1741 4.94432 15.4965 4.70863 14.8231 4.70918C14.7257 4.70918 14.6283 4.71454 14.5309 4.72442H14.5298C14.0257 4.77302 13.5569 5.09079 13.3298 5.54784V5.54834V5.5499C12.985 6.22139 12.9163 7.00631 12.9059 7.78543C14.8387 7.91148 16.7829 8.37528 18.4881 9.35549H18.4908L18.5152 9.36994C18.5475 9.38908 18.6074 9.42189 18.6616 9.4508C18.7788 9.35572 18.9027 9.25796 19.0441 9.1737C19.561 8.82942 20.1735 8.65823 20.7863 8.65823C21.0582 8.65823 21.3303 8.69288 21.5943 8.76057H21.5954L21.6063 8.7638C21.6103 8.76436 21.6131 8.76564 21.6163 8.76564V8.76615C22.2403 8.92489 22.8048 9.28323 23.2298 9.76645C23.6546 10.2504 23.9402 10.8628 23.9959 11.5275V11.5289H23.9953V11.5289ZM18.3021 5.20345C18.3021 5.22962 18.3026 5.25646 18.3052 5.2838V5.28536V5.28849C18.3177 5.62428 18.4763 5.93681 18.7172 6.16765C18.9594 6.39866 19.2808 6.54162 19.6067 6.5429H19.6112H19.6156C19.639 6.54474 19.663 6.54474 19.6859 6.54474C20.0151 6.54524 20.3417 6.40346 20.587 6.1734C20.8328 5.94217 20.9948 5.62769 21.0078 5.28905L21.0083 5.28748V5.28542C21.0104 5.25953 21.0115 5.23503 21.0115 5.20858C21.0115 4.86001 20.8484 4.52773 20.5932 4.28165C20.339 4.0358 19.9968 3.88347 19.6594 3.88437C19.5506 3.88437 19.4427 3.89921 19.337 3.93202L19.3334 3.9323L19.3303 3.93358C19.0522 4.00584 18.7915 4.17731 18.6042 4.40503C18.4161 4.63168 18.3021 4.9119 18.3021 5.20345ZM4.03487 10.3841C3.77652 10.2638 3.50935 10.1779 3.24531 10.179C3.20101 10.179 3.1562 10.1816 3.11195 10.1864H3.10582L3.09968 10.1872C2.72053 10.1976 2.33786 10.3629 2.05061 10.6279C1.76313 10.892 1.57302 11.2485 1.5584 11.6416V11.6453L1.55773 11.6485C1.55517 11.6803 1.55411 11.7119 1.55411 11.7424C1.55411 11.9848 1.62849 12.2192 1.75459 12.4325C1.84794 12.5914 1.97037 12.7361 2.1088 12.8622C2.5519 11.892 3.2442 11.0686 4.03487 10.3841ZM20.8724 15.1302C20.8724 14.2653 20.5603 13.3966 20.0551 12.6971C19.0478 11.2955 17.4853 10.3814 15.8598 9.87169L15.8484 9.86767C15.5363 9.77197 15.2213 9.68722 14.9035 9.61468C13.9535 9.3984 12.9796 9.29071 12.0066 9.29071C10.7001 9.29071 9.39372 9.48405 8.14283 9.86985C6.51769 10.3856 4.94997 11.2933 3.94492 12.6994V12.7005C3.43553 13.4028 3.13723 14.2744 3.13723 15.1424C3.13723 15.4619 3.17718 15.7814 3.26166 16.0924L3.26272 16.0929C3.44563 16.7908 3.80336 17.4137 4.26649 17.9562C4.72934 18.5 5.2972 18.9638 5.89447 19.3422C6.02677 19.4242 6.15957 19.5023 6.2955 19.5786C8.0305 20.5471 10.0283 20.9716 12.0118 20.9716C12.3473 20.9716 12.6847 20.9596 13.018 20.9356C15.0155 20.7705 17.0211 20.181 18.6425 18.9763L18.6431 18.975C19.1592 18.5935 19.6373 18.1317 20.0155 17.6065C20.3952 17.081 20.6733 16.4935 20.7968 15.8554V15.8536L20.7973 15.853C20.8479 15.6148 20.8724 15.3729 20.8724 15.1302ZM22.4489 11.6882C22.4484 11.4783 22.4005 11.2693 22.2953 11.0744L22.2927 11.072L22.2916 11.0688C22.1509 10.7793 21.9301 10.5605 21.664 10.4114C21.3978 10.2613 21.0864 10.1851 20.7739 10.1851C20.4914 10.1851 20.2103 10.2483 19.9609 10.3737C20.7541 11.0624 21.45 11.8902 21.8997 12.8643C22.0445 12.7382 22.168 12.5843 22.2604 12.4132C22.3807 12.1887 22.4489 11.9368 22.4489 11.6882Z" fill="black"/>
</g>
<defs>
<clipPath id="clip0">
<rect width="24" height="24" fill="white" transform="matrix(1 0 0 -1 0 24.4756)"/>
</clipPath>
</defs>
</svg>
