<svg width="24" height="25" viewBox="0 0 24 25" fill="none" xmlns="http://www.w3.org/2000/svg">
<g clip-path="url(#clip0)">
<path d="M22.2879 8.76798C22.1908 8.03841 22.1771 6.78183 22.8548 6.35988C22.8669 6.35215 22.8759 6.34097 22.8865 6.33138C23.4405 6.15418 23.8239 5.90549 23.523 5.57086L15.3504 3.1084L2.11727 4.94823C2.11727 4.94823 0.601904 5.16482 0.737274 7.51913C0.810761 8.8005 1.21265 9.4298 1.56411 9.73951L0.478208 10.0668C0.176811 10.4014 0.560146 10.6501 1.11423 10.8271C1.12476 10.8369 1.13365 10.848 1.14596 10.8558C1.82318 11.2781 1.81014 12.5345 1.71273 13.2642C-0.720145 13.9551 0.153175 14.1802 0.153175 14.1802L0.68685 14.3093C0.311465 14.6485 -0.0613411 15.2918 0.00849295 16.5118C0.143935 18.8657 1.38863 19.0281 1.38863 19.0281L10.0483 21.8428L23.1191 18.6769C23.1191 18.6769 23.9927 18.4514 21.5592 17.7605C21.4614 17.0319 21.4478 15.7756 22.1266 15.3522C22.139 15.3447 22.1481 15.3333 22.1582 15.3239C22.7123 15.1467 23.0954 14.8982 22.7943 14.5636L22.2262 14.392C22.6051 14.1636 23.1742 13.5664 23.2634 12.0153C23.3249 10.9484 23.0466 10.3235 22.7244 9.95567L23.8473 9.68392C23.8474 9.68435 24.721 9.45888 22.2879 8.76798ZM11.3549 8.73783L13.5529 8.28609L20.981 6.75962L22.0877 6.532C21.7341 7.1792 21.7489 8.06491 21.8074 8.63419C21.8202 8.76297 21.835 8.88058 21.8493 8.96997L20.638 9.27115L11.2625 11.6035L11.3549 8.73783ZM1.91314 11.0286L3.01967 11.2562L10.1533 12.7227L10.7765 12.8503L12.6454 13.2344L12.7376 16.1002L3.10161 13.7028L2.15165 13.4667C2.16561 13.3772 2.18037 13.2597 2.19376 13.1306C2.25192 12.5617 2.26703 11.6758 1.91314 11.0286ZM1.48325 7.40582C1.46985 6.77961 1.58144 6.32672 1.80699 6.09652C1.95052 5.94954 2.11992 5.91896 2.23609 5.91896C2.29747 5.91896 2.34167 5.92748 2.34468 5.92748L8.0465 7.78636L10.8912 8.71384L10.7979 11.5995L2.81733 9.36211L2.39617 9.24415C2.3807 9.23978 2.35972 9.23677 2.34353 9.23605C2.31065 9.23369 1.52164 9.16106 1.48325 7.40582ZM10.069 20.5926L1.66746 18.2372C1.65192 18.2326 1.63115 18.2296 1.61496 18.2288C1.58151 18.2266 0.792139 18.1541 0.753963 16.3993C0.740354 15.7723 0.852518 15.3198 1.07763 15.0894C1.22153 14.9424 1.39099 14.9118 1.50695 14.9118C1.56848 14.9118 1.61253 14.9201 1.61575 14.9201C1.61575 14.9201 1.61611 14.9201 1.61575 14.9201L10.1617 17.7068L10.069 20.5926ZM21.078 17.6268C21.0913 17.7561 21.106 17.8734 21.1204 17.963L10.5334 20.5967L10.6259 17.731L12.8893 17.2656L13.2236 17.3465L14.4765 16.9393L20.2516 15.7526L21.3587 15.5248C21.0048 16.1719 21.0195 17.058 21.078 17.6268ZM21.6612 13.7322C21.6419 13.7327 21.6227 13.7352 21.6046 13.741L20.8061 13.9645L13.2033 16.0964L13.1103 13.2107L15.6047 12.3971L21.6446 10.4273C21.6454 10.427 21.9623 10.3566 22.195 10.5931C22.4201 10.8233 22.5319 11.2762 22.5187 11.9024C22.4793 13.6571 21.6899 13.73 21.6612 13.7322Z" fill="black"/>
</g>
<defs>
<clipPath id="clip0">
<rect width="24" height="24" fill="white" transform="translate(0 0.475586)"/>
</clipPath>
</defs>
</svg>
