<svg width="29" height="29" viewBox="0 0 29 29" fill="none" xmlns="http://www.w3.org/2000/svg">
<g clip-path="url(#clip0)">
<path d="M18.0824 3.51931C12.2536 2.79444 4.17087 3.76755 1.65867 10.063C0.60612 12.6844 0.377737 16.408 2.77079 18.4933C5.58089 20.936 9.28466 20.4494 12.76 20.5884C12.8395 22.1872 13.3161 23.8851 13.8027 25.3745C13.9715 25.9008 14.5871 25.9207 14.8949 25.5135C15.5107 24.6993 15.7787 23.6467 16.0368 22.6736C16.1659 22.1771 16.5233 21.4026 16.4936 20.8167C16.5631 20.8167 16.6227 20.8167 16.7022 20.7869C21.3692 19.0691 28.0418 20.7473 28.8362 14.1837C29.6008 7.93801 23.4544 4.1845 18.0824 3.51931ZM27.0687 16.1895C25.609 19.4861 19.2739 18.4733 16.3744 19.5755C16.0666 19.6947 15.9475 19.9727 15.9575 20.231C15.2325 20.36 15.1531 21.2635 15.0042 21.8694C14.8651 22.4155 14.7361 22.9914 14.5474 23.5474C14.2296 22.2764 13.9615 20.9855 13.4452 19.8138C13.326 19.5457 12.9984 19.5954 12.8395 19.784C10.8238 19.3173 8.86761 19.2875 6.8221 18.9996C0.755065 18.1656 1.64874 11.4828 4.46876 8.09679C7.69591 4.22422 14.2495 4.11499 18.7875 4.87958C23.9409 5.75349 29.6605 10.331 27.0687 16.1895Z" fill="black"/>
<path d="M9.87055 9.61599C9.71168 9.18901 9.13576 9.05992 8.87759 9.4869C8.3811 10.3111 8.52012 11.6218 8.47047 12.5452C8.44068 13.0517 8.40096 13.5978 8.37117 14.1439C7.86476 14.2234 7.36828 14.2631 6.85193 14.3028C6.85193 13.8957 6.842 13.4886 6.842 13.0814C6.842 12.4162 6.87179 11.7409 6.90158 11.0756C6.91151 10.7877 6.9413 10.4997 6.99095 10.2118C7.07039 9.78479 7.16968 9.90395 6.90158 10.033C7.23919 9.86423 7.25905 9.27838 6.90158 9.10957C4.78656 8.15632 5.6703 15.7922 5.73981 16.7554C5.78946 17.4505 6.78243 17.4505 6.81222 16.7554C6.842 16.2489 6.842 15.7524 6.842 15.2461C7.33849 15.2759 7.8449 15.2858 8.35131 15.266C8.37117 15.8121 8.44068 16.3384 8.59956 16.8249C8.65913 17.0135 8.81801 17.2121 9.02653 17.2519C9.23505 17.2915 9.46344 17.2817 9.63224 17.1526C9.7514 17.0632 9.76133 16.9342 9.71168 16.8447C9.82091 16.4575 9.74147 16.0702 9.72161 15.6334C9.70175 14.7893 9.73154 13.9354 9.77126 13.0914C9.85069 12.0488 10.2479 10.609 9.87055 9.61599Z" fill="black"/>
<path d="M13.326 9.71531C13.3161 9.69545 13.2962 9.67559 13.2863 9.65573C13.1175 9.42735 12.9288 9.36777 12.6607 9.39756C12.343 9.43728 12.0153 9.44721 11.6876 9.46706C11.5288 9.3777 11.3004 9.42735 11.2209 9.60608C11.072 9.73517 11.0422 9.95362 11.1117 10.1224C10.7542 12.3566 10.7244 14.7 10.7046 16.944C10.7046 17.3114 10.9926 17.5299 11.3202 17.5597C12.1643 17.649 13.2863 17.4901 13.2168 16.3979C13.1969 16.0604 12.8494 15.822 12.5316 16.0007C12.2933 16.1397 12.1345 16.239 11.9557 16.2887C11.9657 15.8915 11.9756 15.4943 11.9954 15.0971C12.1345 15.117 12.2735 15.1269 12.4026 15.1467C12.6806 15.1865 12.8693 15.117 13.0381 14.8886L13.048 14.8785C13.1473 14.7495 13.1473 14.4714 13.048 14.3424L13.0381 14.3325C12.8693 14.1141 12.6806 14.0346 12.4026 14.0743C12.2834 14.0942 12.1543 14.1041 12.0252 14.1141C12.065 12.8728 12.0749 11.6316 11.9359 10.4202C12.1742 10.4301 12.4224 10.4401 12.6508 10.4798C12.9189 10.5195 13.1175 10.45 13.2764 10.2216C13.2863 10.2018 13.3062 10.1819 13.3161 10.162C13.4055 10.0529 13.4055 9.83446 13.326 9.71531Z" fill="black"/>
<path d="M16.3247 15.8717C16.0666 15.7923 15.7985 15.7525 15.5304 15.7029C15.4907 13.7866 15.3617 11.8404 15.1332 9.94368C15.0736 9.42734 14.3884 9.42734 14.3289 9.94368C14.1005 12.019 14.2693 14.1539 14.2693 16.2292C14.2693 16.517 14.4679 16.7653 14.736 16.8447C15.2722 16.9937 15.7687 17.1128 16.3148 16.954C16.8709 16.7952 16.8511 16.0307 16.3247 15.8717Z" fill="black"/>
<path d="M19.135 16.2987C19.0058 16.3584 18.8967 16.4377 18.7875 16.4874C18.7974 14.3227 18.8569 12.1282 18.3406 10.0132C18.2413 9.59617 17.5859 9.68554 17.5959 10.1125C17.6653 12.4559 17.5562 14.7795 17.5164 17.1229C17.5164 17.4208 17.715 17.6391 17.9831 17.7384C18.7774 18.0363 19.5222 17.8676 19.8797 17.0433C20.0981 16.5469 19.6613 16.0505 19.135 16.2987Z" fill="black"/>
<path d="M22.8189 10.3508C22.4317 9.82454 21.6274 10.1522 21.6472 10.6686C21.6274 10.6686 21.6174 10.6686 21.5876 10.6686C21.3095 10.6586 21.1804 10.9069 21.0613 11.1055C20.6741 11.7708 20.4854 12.6148 20.3066 13.3496C20.0187 14.5312 19.6811 16.5072 20.9521 17.2419C22.4216 18.096 23.3948 16.1695 23.5536 15.0474C23.7623 13.6574 23.6927 11.5324 22.8189 10.3508ZM22.2331 15.3554C22.1735 15.6036 21.7665 16.4874 21.4586 16.0008C20.9621 15.2064 21.4686 13.5979 21.6572 12.7737C21.7565 12.3467 21.8658 11.9197 21.9848 11.4927C21.9848 11.4828 21.9848 11.4729 21.9949 11.4629C22.2729 12.158 22.3424 13.002 22.3722 13.6971C22.4019 14.2433 22.3623 14.8092 22.2331 15.3554Z" fill="black"/>
</g>
<defs>
<clipPath id="clip0">
<rect width="28" height="28" fill="white" transform="translate(0.900879 0.555176)"/>
</clipPath>
</defs>
</svg>
