<svg width="24" height="25" viewBox="0 0 24 25" fill="none" xmlns="http://www.w3.org/2000/svg">
<path d="M14.1632 15.8433C15.6141 15.2317 16.7591 14.3992 17.5983 13.3455C18.4375 12.292 18.8572 11.1447 18.8572 9.90362C18.8572 8.66247 18.4375 7.51525 17.5983 6.46156C16.7591 5.40801 15.6141 4.5754 14.1632 3.96365C12.7122 3.35199 11.1341 3.04628 9.42864 3.04628C7.72328 3.04628 6.14519 3.35218 4.69417 3.96384C3.24334 4.5755 2.09823 5.4081 1.25906 6.4617C0.419702 7.51525 0 8.66243 0 9.90362C0 10.966 0.317298 11.9665 0.951143 12.9038C1.58499 13.8413 2.45559 14.6317 3.56266 15.2744C3.47344 15.4889 3.38192 15.6851 3.28814 15.8639C3.19432 16.0424 3.08282 16.2142 2.95325 16.3795C2.82378 16.5448 2.72344 16.6742 2.65195 16.7677C2.58051 16.8614 2.46445 16.9933 2.30369 17.1627C2.14289 17.3324 2.04015 17.444 1.99564 17.4974C1.99564 17.4885 1.97767 17.5087 1.94202 17.5578C1.90623 17.6069 1.88615 17.6291 1.88165 17.6249C1.87724 17.6201 1.85932 17.6424 1.82812 17.6916C1.79688 17.7407 1.78121 17.7652 1.78121 17.7652L1.74767 17.832C1.73435 17.8586 1.72534 17.8853 1.72093 17.9123C1.71643 17.9389 1.71418 17.9681 1.71418 17.9993C1.71418 18.0304 1.71859 18.0593 1.72759 18.0863C1.74556 18.2022 1.79688 18.2958 1.88165 18.3675C1.96651 18.4388 2.05789 18.4744 2.15626 18.4744H2.19646C2.64281 18.4119 3.02681 18.3406 3.34819 18.2601C4.72321 17.9029 5.9644 17.3314 7.07151 16.5458C7.87499 16.6887 8.66082 16.7601 9.42864 16.7601C11.134 16.7606 12.7123 16.455 14.1632 15.8433ZM6.66983 14.7253L6.08045 15.1402C5.83042 15.3097 5.55379 15.4841 5.25015 15.6628L5.71901 14.5376L4.41989 13.7876C3.56257 13.2877 2.89748 12.6984 2.42425 12.0198C1.95098 11.3413 1.71446 10.6359 1.71446 9.90366C1.71446 8.99281 2.06506 8.14013 2.7659 7.34548C3.46664 6.55083 4.41088 5.92139 5.59841 5.45693C6.78583 4.99276 8.06267 4.76046 9.42873 4.76046C10.7948 4.76046 12.0717 4.99276 13.2591 5.45693C14.4465 5.92134 15.3908 6.55083 16.0919 7.34548C16.7927 8.14009 17.1431 8.99277 17.1431 9.90366C17.1431 10.8144 16.7927 11.667 16.0919 12.4617C15.3908 13.2565 14.4466 13.8858 13.2591 14.3501C12.0717 14.8143 10.7949 15.0465 9.42873 15.0465C8.75924 15.0465 8.07618 14.9839 7.37966 14.859L6.66983 14.7253Z" fill="black"/>
<path d="M23.0489 16.3384C23.683 15.4051 23.9999 14.4032 23.9999 13.3316C23.9999 12.2334 23.665 11.2064 22.9956 10.2512C22.3258 9.29604 21.415 8.50125 20.2633 7.86731C20.4685 8.5369 20.5712 9.21545 20.5712 9.9031C20.5712 11.0994 20.2725 12.2334 19.6738 13.305C19.0756 14.3762 18.2185 15.3226 17.1024 16.1441C16.0667 16.8941 14.8881 17.4699 13.5665 17.8718C12.2453 18.2734 10.8658 18.4745 9.42822 18.4745C9.16046 18.4745 8.76755 18.4568 8.24976 18.4211C10.0443 19.5995 12.1516 20.1889 14.5711 20.1889C15.3391 20.1889 16.1247 20.1174 16.9284 19.9745C18.0355 20.7605 19.2767 21.3317 20.6516 21.689C20.9731 21.7696 21.357 21.8409 21.8035 21.9033C21.9105 21.9125 22.009 21.881 22.0982 21.8097C22.1875 21.7381 22.2456 21.6402 22.2722 21.5153C22.268 21.4617 22.2722 21.4323 22.2857 21.428C22.2989 21.4238 22.2966 21.3946 22.2789 21.3411C22.2613 21.2875 22.2523 21.2607 22.2523 21.2607L22.2189 21.1939C22.2096 21.1763 22.1945 21.1515 22.172 21.1204C22.1497 21.0894 22.1319 21.0669 22.1184 21.0534C22.1053 21.0401 22.0853 21.0177 22.0584 20.9866C22.0317 20.9557 22.0137 20.9354 22.0047 20.9265C21.9601 20.8728 21.8575 20.7613 21.6968 20.5916C21.536 20.4221 21.4201 20.2904 21.3487 20.1967C21.2772 20.1029 21.1767 19.9735 21.0473 19.8082C20.9179 19.6431 20.8062 19.4712 20.7124 19.2926C20.6187 19.114 20.5272 18.9175 20.4379 18.7034C21.5447 18.06 22.4154 17.2721 23.0489 16.3384Z" fill="black"/>
</svg>
