<svg width="24" height="25" viewBox="0 0 24 25" fill="none" xmlns="http://www.w3.org/2000/svg">
<g clip-path="url(#clip0)">
<path d="M15.9844 21.7427L19.7344 24.5552V21.7427H24V9.03955H15.5156V0.555176H0V13.2583H4.26562V16.0708L8.01562 13.2583H8.48438V21.7427H15.9844ZM22.5938 20.3364H18.3281V21.7427L16.4531 20.3364H9.89062V10.4458H22.5938V20.3364ZM7.54688 11.8521L5.67188 13.2583V11.8521H1.40625V1.96143H14.1094V9.03955H11.0283L7.78125 2.54553L4.33978 9.42828L5.59753 10.0573L6.45795 8.33643H9.10455L9.45612 9.03955H8.48438V11.8521H7.54688ZM8.40143 6.93018H7.16107L7.78125 5.68982L8.40143 6.93018Z" fill="black"/>
<path d="M15.2327 16.5117C14.4787 17.1467 13.7668 17.4771 13.4062 17.4771V18.8833C14.3123 18.8833 15.4006 18.2203 16.2188 17.5177C17.0369 18.2203 18.1252 18.8833 19.0312 18.8833V17.4771C18.6707 17.4771 17.9588 17.1467 17.2048 16.5117C17.6131 16.0153 18.0427 15.3655 18.2303 14.6646H19.7344V13.2583H16.9219V11.8521H15.5156V13.2583H12.7031V14.6646H14.2072C14.3948 15.3655 14.8244 16.0153 15.2327 16.5117ZM16.2188 15.4949C15.997 15.2097 15.8205 14.9268 15.6998 14.664H16.7377C16.617 14.9268 16.4405 15.2097 16.2188 15.4949Z" fill="black"/>
</g>
<defs>
<clipPath id="clip0">
<rect width="24" height="24" fill="white" transform="translate(0 0.555176)"/>
</clipPath>
</defs>
</svg>
