<svg width="25" height="25" viewBox="0 0 25 25" fill="none" xmlns="http://www.w3.org/2000/svg">
<g clip-path="url(#clip0)">
<path d="M17.3699 12.4756C17.3699 10.0115 15.3651 8.00671 12.901 8.00671C10.437 8.00671 8.43213 10.0115 8.43213 12.4756C8.43213 14.0554 9.25629 15.4463 10.4972 16.2411C9.25629 17.036 8.43213 18.4271 8.43213 20.0067V23.7725C8.43213 24.1608 8.74707 24.4756 9.13525 24.4756H16.6667C17.0549 24.4756 17.3699 24.1608 17.3699 23.7725V20.0067C17.3699 18.4271 16.5457 17.036 15.3048 16.2411C16.5457 15.4463 17.3699 14.0554 17.3699 12.4756Z" fill="black"/>
<path d="M12.9008 4.24115C8.36029 4.24115 4.6665 7.93512 4.6665 12.4756C4.6665 14.7631 5.61829 16.915 7.23657 18.4509C7.36163 17.9957 7.54071 17.5555 7.77234 17.1424C7.79047 17.1098 7.80933 17.0776 7.828 17.0453C6.71564 15.809 6.07275 14.188 6.07275 12.4756C6.07275 8.71057 9.13574 5.64758 12.9008 5.64758C16.6658 5.64758 19.7288 8.71057 19.7288 12.4756C19.7289 14.188 19.0859 15.8092 17.9735 17.0453C17.9922 17.0776 18.011 17.1098 18.0292 17.1424C18.2608 17.5555 18.4399 17.9957 18.5649 18.4509C20.1832 16.915 21.1352 14.7631 21.135 12.4756C21.135 7.93512 17.4412 4.24115 12.9008 4.24115Z" fill="black"/>
<path d="M21.3862 3.9903C19.1197 1.72382 16.1063 0.475586 12.9009 0.475586C9.69543 0.475586 6.68207 1.72382 4.41559 3.9903C2.14911 6.25677 0.900879 9.27032 0.900879 12.4756C0.900879 16.8573 3.29498 20.8441 7.02576 22.9415V21.2928C4.12903 19.3582 2.30713 16.0672 2.30713 12.4756C2.30713 6.63416 7.05945 1.88184 12.9009 1.88184C18.7423 1.88184 23.4946 6.63416 23.4946 12.4756C23.4946 16.0672 21.6727 19.3582 18.776 21.2928V22.9415C22.5068 20.8441 24.9009 16.8573 24.9009 12.4756C24.9009 9.27032 23.6526 6.25677 21.3862 3.9903Z" fill="black"/>
</g>
<defs>
<clipPath id="clip0">
<rect width="24" height="24" fill="white" transform="translate(0.900879 0.475586)"/>
</clipPath>
</defs>
</svg>
