<svg width="25" height="25" viewBox="0 0 25 25" fill="none" xmlns="http://www.w3.org/2000/svg">
<g clip-path="url(#clip0)">
<path d="M19.9321 11.7466C17.9937 11.7466 16.4165 13.3238 16.4165 15.2622C16.4165 17.2006 17.9937 18.7778 19.9321 18.7778C21.8706 18.7778 23.4478 17.2006 23.4478 15.2622C23.4478 13.3238 21.8706 11.7466 19.9321 11.7466Z" fill="black"/>
<path d="M23.3658 18.7778C22.478 19.645 21.268 20.1841 19.9321 20.1841C18.5963 20.1841 17.3862 19.645 16.4985 18.7778C15.5829 19.6722 15.0103 20.9157 15.0103 22.2935V23.7466C15.0103 24.1352 15.3247 24.4497 15.7134 24.4497H24.1978C24.5864 24.4497 24.9009 24.1352 24.9009 23.7466V22.2935C24.9009 20.9157 24.2813 19.6722 23.3658 18.7778Z" fill="black"/>
<path d="M5.86963 0.449707C3.93121 0.449707 2.354 2.07379 2.354 4.01221C2.354 5.95063 3.93121 7.52783 5.86963 7.52783C7.80805 7.52783 9.38525 5.95063 9.38525 4.01221C9.38525 2.07379 7.80805 0.449707 5.86963 0.449707Z" fill="black"/>
<path d="M9.30327 7.52783C8.4155 8.39497 7.20547 8.93408 5.86963 8.93408C4.53379 8.93408 3.32371 8.39497 2.43599 7.52783C1.52043 8.42221 0.900879 9.66571 0.900879 11.0435V12.4497C0.900879 12.8383 1.21536 13.1528 1.604 13.1528H10.0884C10.477 13.1528 10.7915 12.8383 10.7915 12.4497V11.0435C10.7915 9.66571 10.2188 8.42221 9.30327 7.52783Z" fill="black"/>
<path d="M12.901 3.30908C12.1688 3.30908 11.4502 3.41586 10.7486 3.58579C10.7611 3.72861 10.7916 3.86619 10.7916 4.01221C10.7916 4.36616 10.7503 4.70999 10.679 5.04294C11.3951 4.82854 12.1421 4.71533 12.901 4.71533C16.4489 4.71533 19.4388 7.11964 20.3463 10.3822C20.8834 10.4279 21.4016 10.5391 21.8761 10.7441C21.0741 6.51725 17.3576 3.30908 12.901 3.30908Z" fill="black"/>
<path d="M12.9007 20.1841C9.36795 20.1841 6.38745 17.8005 5.46617 14.5591H4.01562C4.97169 18.584 8.58777 21.5903 12.9007 21.5903C13.162 21.5903 13.4202 21.5726 13.6778 21.551C13.7369 21.0493 13.8452 20.5613 14.0196 20.0943C13.6512 20.1476 13.2792 20.1841 12.9007 20.1841Z" fill="black"/>
</g>
<defs>
<clipPath id="clip0">
<rect width="24" height="24" fill="white" transform="translate(0.900879 0.449707)"/>
</clipPath>
</defs>
</svg>
