<svg width="25" height="25" viewBox="0 0 25 25" fill="none" xmlns="http://www.w3.org/2000/svg">
<g clip-path="url(#clip0)">
<path d="M17.4226 10.7622C17.4226 10.2444 17.0029 9.82471 16.4851 9.82471H6.82886C6.31108 9.82471 5.89136 10.2444 5.89136 10.7622C5.89136 11.28 6.31108 11.6997 6.82886 11.6997H16.4851C17.0029 11.6997 17.4226 11.28 17.4226 10.7622Z" fill="black"/>
<path d="M6.82886 13.5747C6.31108 13.5747 5.89136 13.9944 5.89136 14.5122C5.89136 15.03 6.31108 15.4497 6.82886 15.4497H12.6934C13.2112 15.4497 13.6309 15.03 13.6309 14.5122C13.6309 13.9944 13.2112 13.5747 12.6934 13.5747H6.82886Z" fill="black"/>
<path d="M9.03191 22.5747H5.89648C4.86261 22.5747 4.02148 21.7336 4.02148 20.6997V4.19971C4.02148 3.16583 4.86261 2.32471 5.89648 2.32471H17.4225C18.4564 2.32471 19.2975 3.16583 19.2975 4.19971V9.96533C19.2975 10.4831 19.7173 10.9028 20.235 10.9028C20.7528 10.9028 21.1725 10.4831 21.1725 9.96533V4.19971C21.1725 2.13196 19.4903 0.449707 17.4225 0.449707H5.89648C3.82873 0.449707 2.14648 2.13196 2.14648 4.19971V20.6997C2.14648 22.7675 3.82873 24.4497 5.89648 24.4497H9.03191C9.54969 24.4497 9.96941 24.03 9.96941 23.5122C9.96941 22.9944 9.54969 22.5747 9.03191 22.5747Z" fill="black"/>
<path d="M22.833 14.0234C21.7364 12.9268 19.9522 12.9268 18.8563 14.0226L13.7093 19.1583C13.5999 19.2673 13.5193 19.4017 13.4744 19.5494L12.3535 23.2397C12.2541 23.5668 12.3407 23.9221 12.5795 24.1668C12.7583 24.3502 13.0013 24.4497 13.2506 24.4497C13.334 24.4497 13.4182 24.4385 13.5008 24.4156L17.2848 23.3674C17.4405 23.3243 17.5824 23.2417 17.6968 23.1275L22.833 18.0009C23.9296 16.9043 23.9296 15.1201 22.833 14.0234ZM16.5467 21.6263L14.643 22.1537L15.2001 20.3195L18.673 16.8543L19.9991 18.1804L16.5467 21.6263ZM21.5079 16.6745L21.3263 16.8558L20.0004 15.53L20.1814 15.3493C20.547 14.9838 21.1417 14.9838 21.5072 15.3493C21.8728 15.7148 21.8728 16.3096 21.5079 16.6745Z" fill="black"/>
<path d="M16.4851 6.07471H6.82886C6.31108 6.07471 5.89136 6.49443 5.89136 7.01221C5.89136 7.52999 6.31108 7.94971 6.82886 7.94971H16.4851C17.0029 7.94971 17.4226 7.52999 17.4226 7.01221C17.4226 6.49443 17.0029 6.07471 16.4851 6.07471Z" fill="black"/>
</g>
<defs>
<clipPath id="clip0">
<rect width="24" height="24" fill="white" transform="translate(0.900879 0.449707)"/>
</clipPath>
</defs>
</svg>
