<svg width="24" height="25" viewBox="0 0 24 25" fill="none" xmlns="http://www.w3.org/2000/svg">
<g clip-path="url(#clip0)">
<path d="M15.694 11.8953L10.3918 8.9942C10.087 8.8274 9.72662 8.83362 9.42779 9.01068C9.12878 9.18793 8.95044 9.50104 8.95044 9.84858V15.601C8.95044 15.9469 9.12768 16.2595 9.42468 16.4369C9.57977 16.5295 9.7517 16.5761 9.92401 16.5761C10.0818 16.5761 10.24 16.5371 10.3856 16.4587L15.6879 13.6075C16.0027 13.4382 16.1992 13.111 16.2006 12.7534C16.2019 12.3958 16.0078 12.0671 15.694 11.8953ZM10.3569 14.8774V10.5781L14.3196 12.7464L10.3569 14.8774Z" fill="black"/>
<path d="M23.8234 7.6817L23.8223 7.67072C23.802 7.47754 23.5996 5.75928 22.7643 4.88531C21.7988 3.85736 20.7042 3.73248 20.1778 3.67261C20.1342 3.66766 20.0943 3.66309 20.0586 3.65833L20.0166 3.65393C16.8438 3.42322 12.0521 3.39172 12.0042 3.39154L12 3.39136L11.9957 3.39154C11.9478 3.39172 7.1561 3.42322 3.9547 3.65393L3.9124 3.65833C3.87834 3.6629 3.84081 3.66711 3.79997 3.67188C3.27959 3.73193 2.19671 3.85699 1.22845 4.92212C0.43286 5.78674 0.20288 7.4682 0.17926 7.65717L0.176513 7.6817C0.169372 7.76208 0 9.67572 0 11.5969V13.3928C0 15.3139 0.169372 17.2275 0.176513 17.3081L0.177795 17.3202C0.198119 17.5103 0.400267 19.197 1.23175 20.0714C2.13958 21.0649 3.28746 21.1964 3.90489 21.267C4.00249 21.2782 4.08653 21.2877 4.14384 21.2978L4.19932 21.3055C6.03129 21.4798 11.7751 21.5657 12.0186 21.5692L12.026 21.5693L12.0333 21.5692C12.0813 21.569 16.8727 21.5375 20.0456 21.3068L20.0875 21.3024C20.1276 21.2971 20.1726 21.2923 20.2221 21.2872C20.7395 21.2322 21.8166 21.1182 22.7715 20.0675C23.567 19.2027 23.7972 17.5212 23.8206 17.3325L23.8234 17.3079C23.8305 17.2274 24.0001 15.3139 24.0001 13.3928V11.5969C23.9999 9.67572 23.8305 7.76227 23.8234 7.6817ZM22.5935 13.3928C22.5935 15.1709 22.4382 17.0021 22.4236 17.1702C22.3639 17.6333 22.1213 18.6971 21.7336 19.1185C21.136 19.776 20.522 19.8412 20.0738 19.8886C20.0196 19.8943 19.9694 19.8998 19.924 19.9055C16.8552 20.1274 12.2444 20.1614 12.032 20.1627C11.7938 20.1592 6.13401 20.0726 4.35789 19.9077C4.26689 19.8928 4.16856 19.8815 4.06493 19.8698C3.53923 19.8095 2.81963 19.7271 2.26629 19.1185L2.25329 19.1046C1.87243 18.7078 1.63677 17.713 1.5769 17.1757C1.56573 17.0486 1.40643 15.1958 1.40643 13.3928V11.5969C1.40643 9.82074 1.56133 7.99152 1.57635 7.81995C1.64758 7.27448 1.89477 6.27509 2.26629 5.87115C2.88225 5.19366 3.53172 5.11859 3.96129 5.06897C4.0023 5.06421 4.04057 5.05981 4.07591 5.05524C7.18942 4.83221 11.8333 4.79907 12 4.79779C12.1666 4.79889 16.8088 4.83221 19.8947 5.05524C19.9326 5.06 19.974 5.06476 20.0185 5.06989C20.4603 5.12024 21.1281 5.19641 21.7409 5.8501L21.7466 5.85614C22.1275 6.25293 22.3631 7.26514 22.423 7.81317C22.4336 7.93311 22.5935 9.78998 22.5935 11.5969V13.3928Z" fill="black"/>
</g>
<defs>
<clipPath id="clip0">
<rect width="24" height="24" fill="white" transform="matrix(1 0 0 -1 0 24.4756)"/>
</clipPath>
</defs>
</svg>
