<svg width="54" height="44" viewBox="0 0 54 44" fill="none" xmlns="http://www.w3.org/2000/svg"><path d="M31.867 29.577c3.264-1.376 5.841-3.249 7.73-5.62 1.887-2.37 2.831-4.951 2.831-7.744 0-2.792-.944-5.374-2.832-7.744s-4.465-4.244-7.73-5.62C28.603 1.471 25.052.783 21.215.783c-3.837 0-7.388.689-10.652 2.064-3.265 1.377-5.841 3.25-7.73 5.62C.945 10.84 0 13.422 0 16.214c0 2.39.714 4.642 2.14 6.751 1.427 2.109 3.385 3.887 5.876 5.333-.2.483-.406.924-.617 1.327a7.637 7.637 0 0 1-.754 1.16c-.291.372-.517.663-.678.873-.16.211-.422.508-.783.889-.362.382-.593.633-.694.753 0-.02-.04.025-.12.136-.08.11-.126.16-.136.151-.01-.01-.05.04-.12.15l-.106.166-.075.15c-.03.06-.05.12-.06.18a1.18 1.18 0 0 0-.016.196c0 .07.01.135.03.196.04.26.156.471.347.633.19.16.397.24.618.24h.09a25.275 25.275 0 0 0 2.592-.482c3.093-.803 5.886-2.09 8.377-3.857a30.31 30.31 0 0 0 5.303.482c3.838.001 7.389-.686 10.653-2.063z" fill="#442A82"/><path d="M51.86 30.692C53.287 28.593 54 26.34 54 23.928c0-2.471-.754-4.783-2.26-6.932-1.507-2.15-3.557-3.938-6.148-5.364.462 1.506.693 3.033.693 4.58 0 2.692-.672 5.243-2.02 7.654-1.345 2.41-3.274 4.54-5.785 6.388-2.33 1.688-4.982 2.983-7.955 3.888-2.973.903-6.077 1.356-9.312 1.356-.602 0-1.486-.04-2.651-.12 4.038 2.65 8.779 3.977 14.223 3.977 1.728 0 3.495-.16 5.304-.482 2.49 1.768 5.283 3.053 8.377 3.857.723.182 1.587.342 2.591.482a.91.91 0 0 0 .663-.21c.201-.161.332-.382.392-.663-.01-.12 0-.186.03-.196.03-.01.025-.075-.015-.195l-.06-.181-.075-.15a1.441 1.441 0 0 0-.105-.166c-.05-.07-.09-.12-.121-.15-.03-.03-.074-.081-.135-.151a21.134 21.134 0 0 0-.813-.889 11.928 11.928 0 0 1-.784-.888c-.16-.211-.387-.502-.678-.875a7.622 7.622 0 0 1-.753-1.16 16.61 16.61 0 0 1-.618-1.325c2.491-1.448 4.45-3.22 5.875-5.32z" fill="#FFD22E"/></svg>