<svg width="46" height="46" viewBox="0 0 46 46" fill="none" xmlns="http://www.w3.org/2000/svg"><path d="M40.25 22.317l-.108-1.474.934-.934c4.133-4.133 4.133-10.889 0-14.986C36.945.79 30.224.79 26.09 4.923l-.934.935a9.8 9.8 0 0 0-1.473-.108L25.3 4.133c4.564-4.564 12.003-4.6 16.567 0 4.564 4.564 4.564 12.003 0 16.567l-1.617 1.617zM20.88 5.894l-.935-.935C15.812.826 9.056.826 4.96 4.96.791 9.056.791 15.812 4.96 19.945l.935.934a9.8 9.8 0 0 0-.108 1.474L4.17 20.736c-4.564-4.564-4.6-12.003 0-16.567 4.564-4.564 12.003-4.564 16.567 0l1.617 1.617a9.78 9.78 0 0 0-1.473.108zM5.75 23.683l.108 1.473-.935.934C.791 30.223.791 36.98 4.887 41.076c4.133 4.133 10.854 4.133 14.986 0l.935-.934a9.8 9.8 0 0 0 1.473.108l-1.617 1.617c-4.564 4.564-12.003 4.6-16.567.036S-.467 29.9 4.133 25.336l1.617-1.653zm19.37 16.423l.935.934c4.132 4.133 10.889 4.133 14.986 0 4.132-4.132 4.132-10.853-.036-14.985l-.935-.935a9.8 9.8 0 0 0 .108-1.473l1.617 1.617c4.564 4.564 4.6 12.003.036 16.567s-12.003 4.564-16.567-.036l-1.617-1.617c.503.036 1.006 0 1.473-.072z" fill="#E4E7E7"/><path d="M23 0C10.314 0 0 10.314 0 23s10.278 23 23 23c12.686 0 23-10.314 23-23S35.686 0 23 0zm0 34.5c-6.36 0-11.5-5.14-11.5-11.5 0-6.361 5.14-11.5 11.5-11.5S34.5 16.639 34.5 23c0 6.36-5.14 11.5-11.5 11.5z" fill="#442A82"/><path d="M17.645 33.17c-2.084-1.078-3.773-2.803-4.851-4.851l-8.302 8.337c1.366 1.833 2.983 3.486 4.852 4.852l8.301-8.338zM28.32 12.794a11.293 11.293 0 0 1 4.851 4.851l8.338-8.301a23.873 23.873 0 0 0-4.852-4.852l-8.337 8.302zM4.492 9.344l8.302 8.301a11.294 11.294 0 0 1 4.851-4.851L9.344 4.492a23.874 23.874 0 0 0-4.852 4.852zm37.016 27.312l-8.302-8.301a11.294 11.294 0 0 1-4.851 4.851l8.301 8.302a23.873 23.873 0 0 0 4.852-4.852z" fill="#FFD22E"/><path d="M30.367 10.781l-2.012 2.013a11.294 11.294 0 0 1 4.851 4.851l2.013-2.012c-1.222-1.977-2.875-3.666-4.852-4.852zM12.794 28.32l-2.013 2.048c1.186 1.977 2.875 3.63 4.852 4.852l2.012-2.013a11.99 11.99 0 0 1-4.851-4.887zm15.56 4.887l2.013 2.013c1.977-1.186 3.63-2.875 4.852-4.852l-2.013-2.012a12.122 12.122 0 0 1-4.851 4.851zM17.682 12.83l-2.048-2.049a14.904 14.904 0 0 0-4.852 4.852l2.013 2.012a11.693 11.693 0 0 1 4.887-4.815z" fill="#E4BD2E"/><path d="M7.834 33.314l-1.042 1.042c1.33 1.869 2.947 3.522 4.852 4.852l1.042-1.042c-1.905-1.33-3.558-2.947-4.852-4.852zm30.332 0a18.323 18.323 0 0 1-4.852 4.852l1.042 1.042a20.725 20.725 0 0 0 4.852-4.852l-1.042-1.042zM7.834 12.686a18.322 18.322 0 0 1 4.852-4.852L11.68 6.828a20.725 20.725 0 0 0-4.852 4.852l1.006 1.006zm30.332 0l1.042-1.042a20.724 20.724 0 0 0-4.852-4.852l-1.042 1.042c1.905 1.294 3.522 2.947 4.852 4.852z" fill="#F1F1F1"/></svg>