<svg width="25" height="25" viewBox="0 0 25 25" fill="none" xmlns="http://www.w3.org/2000/svg"><g clip-path="url(#a)"><path d="M23.098 8.459a9.622 9.622 0 0 1-5.123-2.664A9.597 9.597 0 0 1 15.313.673c1.92-1.204 4.705-.777 6.634 1.15 1.927 1.929 2.353 4.714 1.151 6.636zm-1.325 1.325a11.21 11.21 0 0 1-4.933-2.855 11.18 11.18 0 0 1-2.852-4.931c-1.202 1.921-.776 4.705 1.15 6.633 1.93 1.927 4.712 2.354 6.635 1.153zm-7.63 8.54c-2.396 0-4.109 1.497-5.62 2.818-1.671 1.46-3.12 2.727-5.25 2.07-.42-.31-.433-.564-.438-.65-.03-.577.67-1.35 1.012-1.636.043-.034.067-.081.1-.124a1.594 1.594 0 0 0 1.66-.366l10.91-8.982a7.894 7.894 0 0 1-2.511-1.689 7.902 7.902 0 0 1-1.687-2.512L3.34 18.166c-.4.399-.516.952-.408 1.466-.033.02-.07.03-.102.055-.172.14-1.671 1.416-1.597 2.95.027.54.262 1.318 1.236 1.97l.192.094A5.512 5.512 0 0 0 4.414 25c2.134 0 3.726-1.391 5.165-2.65 1.425-1.245 2.772-2.422 4.566-2.422 4.135 0 7.336 4.431 7.369 4.475a.798.798 0 0 0 1.117.19.801.801 0 0 0 .191-1.117c-.149-.21-3.707-5.152-8.677-5.152z" fill="#69559B"/></g><defs><clipPath id="a"><path fill="#fff" transform="matrix(-1 0 0 1 25 0)" d="M0 0h25v25H0z"/></clipPath></defs></svg>