<svg width="25" height="25" viewBox="0 0 25 25" fill="none" xmlns="http://www.w3.org/2000/svg"><g clip-path="url(#a)" fill="#69559B"><path d="M17.155 12.5A4.66 4.66 0 0 0 12.5 7.845 4.66 4.66 0 0 0 7.845 12.5c0 1.646.858 3.095 2.151 3.922a4.656 4.656 0 0 0-2.151 3.923v3.923c0 .404.328.732.732.732h7.846a.732.732 0 0 0 .732-.732v-3.923a4.656 4.656 0 0 0-2.151-3.922 4.655 4.655 0 0 0 2.151-3.923z"/><path d="M12.5 3.922c-4.73 0-8.577 3.848-8.577 8.578 0 2.383.991 4.624 2.677 6.224.13-.474.317-.933.558-1.363l.058-.1A7.118 7.118 0 0 1 5.387 12.5 7.12 7.12 0 0 1 12.5 5.387a7.12 7.12 0 0 1 7.113 7.113c0 1.784-.67 3.472-1.829 4.76.02.034.04.067.058.101.241.43.428.889.558 1.363a8.583 8.583 0 0 0 2.677-6.224c0-4.73-3.847-8.578-8.577-8.578z"/><path d="M21.339 3.661A12.418 12.418 0 0 0 12.5 0C9.161 0 6.022 1.3 3.661 3.661A12.418 12.418 0 0 0 0 12.5c0 4.564 2.494 8.717 6.38 10.902v-1.717A11.06 11.06 0 0 1 1.465 12.5c0-6.085 4.95-11.035 11.035-11.035S23.535 6.415 23.535 12.5c0 3.741-1.898 7.17-4.915 9.185v1.717A12.528 12.528 0 0 0 25 12.5c0-3.339-1.3-6.478-3.661-8.839z"/></g><defs><clipPath id="a"><path fill="#fff" d="M0 0h25v25H0z"/></clipPath></defs></svg>