<svg width="30" height="28" viewBox="0 0 30 28" fill="none" xmlns="http://www.w3.org/2000/svg"><path d="M29.183 17.032v10.514h-6.096v-9.809c0-2.463-.88-4.145-3.087-4.145-1.684 0-2.684 1.133-3.126 2.23-.16.39-.202.935-.202 1.485v10.238h-6.096s.082-16.612 0-18.332h6.097v2.598c-.013.02-.03.04-.04.06h.04v-.06c.81-1.246 2.254-3.028 5.493-3.028 4.01 0 7.017 2.62 7.017 8.25zM4.2.377C2.115.376.75 1.746.75 3.543c0 1.76 1.325 3.169 3.37 3.169h.04c2.125 0 3.447-1.409 3.447-3.169C7.567 1.745 6.285.376 4.2.376zm-3.087 27.17h6.093V9.213H1.113v18.333z" fill="#F1F2F2"/></svg>