<svg width="14" height="14" viewBox="0 0 14 14" fill="none" xmlns="http://www.w3.org/2000/svg"><g clip-path="url(#a)" fill="#69559B" stroke="#69559B" stroke-width=".2"><path d="M9.625-.1h-5.25A4.475 4.475 0 0 0-.1 4.375v5.25A4.475 4.475 0 0 0 4.375 14.1h5.25A4.475 4.475 0 0 0 14.1 9.625v-5.25A4.475 4.475 0 0 0 9.625-.1zm2.963 9.725a2.966 2.966 0 0 1-2.963 2.963h-5.25a2.966 2.966 0 0 1-2.962-2.963v-5.25a2.966 2.966 0 0 1 2.962-2.962h5.25a2.966 2.966 0 0 1 2.963 2.962v5.25z"/><path d="M7 3.4a3.6 3.6 0 1 0 0 7.2 3.6 3.6 0 0 0 0-7.2zm0 5.688A2.09 2.09 0 0 1 4.912 7 2.09 2.09 0 0 1 7 4.912 2.09 2.09 0 0 1 9.088 7 2.09 2.09 0 0 1 7 9.088zM3.237 3.804a.566.566 0 1 0 0-1.133.566.566 0 0 0 0 1.133z"/></g><defs><clipPath id="a"><path fill="#fff" transform="matrix(-1 0 0 1 14 0)" d="M0 0h14v14H0z"/></clipPath></defs></svg>