<svg width="181" height="47" viewBox="0 0 181 47" fill="none" xmlns="http://www.w3.org/2000/svg"><path d="M38.011 2.73l-7.779 23.82h-5.91L19.09 10.42l-5.4 16.13H7.813L0 2.73h5.707l5.367 16.742 5.605-16.741h5.095l5.435 16.877 5.537-16.877h5.265zm19.241 14.734c0 .069-.034.545-.102 1.43H43.324c.25 1.134.838 2.03 1.767 2.688.928.657 2.083.986 3.465.986.95 0 1.789-.136 2.513-.408a6.314 6.314 0 0 0 2.072-1.361l2.82 3.063c-1.721 1.973-4.235 2.96-7.541 2.96-2.061 0-3.884-.397-5.47-1.191-1.585-.817-2.808-1.94-3.668-3.369-.86-1.429-1.29-3.05-1.29-4.866 0-1.792.418-3.402 1.256-4.832a8.923 8.923 0 0 1 3.499-3.368c1.495-.817 3.159-1.225 4.993-1.225 1.79 0 3.408.386 4.858 1.157a8.298 8.298 0 0 1 3.397 3.334c.838 1.43 1.257 3.097 1.257 5.002zm-9.478-5.478c-1.2 0-2.208.34-3.023 1.02-.815.681-1.313 1.611-1.495 2.791h9.002c-.181-1.157-.68-2.076-1.494-2.756-.816-.703-1.812-1.055-2.99-1.055zM71.582 7.97c1.698 0 3.238.398 4.62 1.192 1.404.771 2.502 1.871 3.295 3.3.792 1.407 1.189 3.052 1.189 4.934 0 1.883-.397 3.54-1.19 4.968a8.541 8.541 0 0 1-3.294 3.3c-1.382.772-2.922 1.158-4.62 1.158-2.514 0-4.427-.794-5.74-2.382v2.11H60.78V1.302h5.299v8.88c1.336-1.474 3.17-2.211 5.503-2.211zm-.917 14.496c1.359 0 2.468-.453 3.329-1.36.883-.93 1.325-2.167 1.325-3.71 0-1.542-.442-2.767-1.325-3.675-.86-.93-1.97-1.395-3.33-1.395-1.358 0-2.48.465-3.362 1.395-.86.908-1.291 2.133-1.291 3.675 0 1.543.43 2.78 1.29 3.71.884.907 2.005 1.36 3.364 1.36zm35.75-19.736v23.82h-5.503v-9.766H90.109v9.766h-5.502V2.73h5.502v9.392h10.803V2.731h5.503zm23.154 14.734c0 .069-.034.545-.102 1.43h-13.826c.25 1.134.838 2.03 1.767 2.688.928.657 2.083.986 3.464.986.952 0 1.79-.136 2.514-.408a6.31 6.31 0 0 0 2.073-1.361l2.819 3.063c-1.721 1.973-4.235 2.96-7.541 2.96-2.061 0-3.884-.397-5.469-1.191-1.586-.817-2.808-1.94-3.669-3.369-.86-1.429-1.291-3.05-1.291-4.866 0-1.792.419-3.402 1.257-4.832a8.928 8.928 0 0 1 3.499-3.368c1.494-.817 3.159-1.225 4.993-1.225 1.789 0 3.408.386 4.858 1.157a8.298 8.298 0 0 1 3.397 3.334c.838 1.43 1.257 3.097 1.257 5.002zm-9.478-5.478c-1.2 0-2.208.34-3.023 1.02-.815.681-1.313 1.611-1.494 2.791h9.001c-.181-1.157-.679-2.076-1.494-2.756-.816-.703-1.812-1.055-2.99-1.055zm18.067-1.327c.634-.885 1.483-1.554 2.548-2.008 1.087-.453 2.332-.68 3.736-.68v4.9a19.042 19.042 0 0 0-1.189-.068c-1.517 0-2.706.43-3.566 1.293-.861.839-1.291 2.11-1.291 3.81v8.644h-5.299V8.243h5.061v2.416zm17.966 16.163c-1.925 0-3.658-.397-5.198-1.191-1.517-.817-2.706-1.94-3.567-3.369-.86-1.429-1.29-3.05-1.29-4.866 0-1.814.43-3.436 1.29-4.866.861-1.429 2.05-2.54 3.567-3.334 1.54-.817 3.273-1.225 5.198-1.225 1.924 0 3.645.408 5.163 1.225 1.517.794 2.706 1.905 3.567 3.335.86 1.429 1.29 3.05 1.29 4.865 0 1.815-.43 3.437-1.29 4.866-.861 1.43-2.05 2.552-3.567 3.369-1.518.794-3.239 1.19-5.163 1.19zm0-4.356c1.358 0 2.468-.453 3.329-1.36.883-.93 1.324-2.167 1.324-3.71 0-1.542-.441-2.767-1.324-3.675-.861-.93-1.971-1.395-3.329-1.395-1.359 0-2.48.465-3.363 1.395-.883.908-1.325 2.133-1.325 3.675 0 1.543.442 2.78 1.325 3.71.883.907 2.004 1.36 3.363 1.36z" fill="#FFD22E"/><path d="M98.183 44.196l-.017-11.786H95.91l-4.344 7.324-4.411-7.324h-2.256v11.786h2.559v-6.92l3.468 5.674h1.212l3.469-5.809.017 7.055h2.559zm11.952 0h2.862l-5.27-11.786h-2.694L99.78 44.196h2.795l1.044-2.526h5.472l1.044 2.526zm-5.64-4.597l1.868-4.512 1.869 4.512h-3.737zm15.166-7.189h-5.101v11.786h2.727v-3.25h2.374c3.149 0 5.119-1.633 5.119-4.26 0-2.643-1.97-4.276-5.119-4.276zm-.151 6.314h-2.223v-4.091h2.223c1.667 0 2.508.757 2.508 2.054 0 1.28-.841 2.037-2.508 2.037zm15.501 5.472h2.862l-5.269-11.786h-2.694l-5.253 11.786h2.795l1.044-2.526h5.471l1.044 2.526zm-5.64-4.597l1.869-4.512 1.869 4.512h-3.738zm23.858-1.329c0-3.082-2.188-4.934-6.162-5.17v-1.195h-2.508v1.212c-3.991.236-6.179 2.054-6.179 5.152 0 3.081 2.188 4.916 6.179 5.152v1.297h2.508v-1.28c3.99-.202 6.162-2.07 6.162-5.169zm-6.162 3.03v-6.044c2.34.202 3.536 1.178 3.536 2.996 0 1.836-1.162 2.829-3.536 3.048zm-6.044-3.03c0-1.836 1.145-2.796 3.536-3.015V41.3c-2.273-.236-3.536-1.212-3.536-3.03zm19.87 6.128c3.704 0 6.449-2.576 6.449-6.095 0-3.519-2.745-6.095-6.449-6.095-3.721 0-6.448 2.593-6.448 6.095s2.727 6.095 6.448 6.095zm0-2.324c-2.104 0-3.687-1.532-3.687-3.771 0-2.24 1.583-3.771 3.687-3.771 2.105 0 3.687 1.532 3.687 3.77 0 2.24-1.582 3.772-3.687 3.772zm16.631-9.664v4.647h-5.354V32.41h-2.727v11.786h2.727v-4.832h5.354v4.832h2.728V32.41h-2.728z" fill="#fff"/></svg>