<svg width="178" height="48" viewBox="0 0 178 48" fill="none" xmlns="http://www.w3.org/2000/svg"><path d="M41.213 2.016l-8.27 25.441H26.66L21.1 10.23l-5.742 17.227H9.11L.805 2.016h6.067l5.705 17.882 5.958-17.882h5.417l5.778 18.027 5.886-18.027h5.597zm20.453 15.737c0 .073-.036.582-.108 1.527H46.86c.264 1.211.89 2.168 1.877 2.871.987.703 2.215 1.054 3.684 1.054 1.01 0 1.901-.145 2.672-.436.794-.315 1.528-.8 2.202-1.454l2.998 3.271c-1.83 2.108-4.502 3.162-8.017 3.162-2.19 0-4.129-.424-5.814-1.272-1.685-.872-2.985-2.072-3.9-3.598-.915-1.527-1.372-3.259-1.372-5.197 0-1.915.445-3.635 1.336-5.161a9.506 9.506 0 0 1 3.72-3.599c1.589-.872 3.358-1.308 5.308-1.308 1.902 0 3.623.412 5.164 1.236 1.54.824 2.744 2.01 3.61 3.562.892 1.526 1.337 3.307 1.337 5.342zM51.59 11.902c-1.276 0-2.347.363-3.214 1.09-.866.727-1.396 1.72-1.589 2.98h9.57c-.193-1.235-.723-2.217-1.59-2.944-.866-.75-1.925-1.126-3.177-1.126zM76.9 7.613c1.805 0 3.442.424 4.91 1.272 1.493.824 2.66 1.999 3.503 3.525.843 1.503 1.264 3.26 1.264 5.27 0 2.012-.421 3.78-1.264 5.307a9.1 9.1 0 0 1-3.503 3.525c-1.468.824-3.105 1.236-4.91 1.236-2.673 0-4.707-.848-6.103-2.544v2.253h-5.38V.49h5.632v9.486c1.42-1.575 3.37-2.362 5.85-2.362zm-.976 15.483c1.445 0 2.624-.485 3.539-1.454.94-.993 1.408-2.314 1.408-3.962 0-1.647-.469-2.956-1.408-3.925-.915-.993-2.094-1.49-3.539-1.49-1.444 0-2.636.497-3.575 1.49-.914.97-1.372 2.278-1.372 3.925 0 1.648.458 2.969 1.372 3.962.94.97 2.131 1.454 3.575 1.454zm38.004-21.08v25.441h-5.85v-10.43H96.595v10.43h-5.85V2.016h5.85v10.031h11.483V2.016h5.85zm24.613 15.737c0 .073-.036.582-.108 1.527h-14.697c.265 1.211.891 2.168 1.878 2.871.987.703 2.215 1.054 3.683 1.054 1.011 0 1.902-.145 2.672-.436.795-.315 1.529-.8 2.203-1.454l2.997 3.271c-1.829 2.108-4.501 3.162-8.016 3.162-2.191 0-4.129-.424-5.814-1.272-1.685-.872-2.985-2.072-3.9-3.598-.915-1.527-1.372-3.259-1.372-5.197 0-1.915.445-3.635 1.336-5.161a9.514 9.514 0 0 1 3.719-3.599c1.589-.872 3.359-1.308 5.309-1.308 1.901 0 3.623.412 5.163 1.236 1.541.824 2.745 2.01 3.611 3.562.891 1.526 1.336 3.307 1.336 5.342zm-10.074-5.851c-1.276 0-2.348.363-3.214 1.09-.867.727-1.397 1.72-1.589 2.98h9.569c-.192-1.235-.722-2.217-1.589-2.944-.866-.75-1.925-1.126-3.177-1.126zm19.205-1.418c.674-.945 1.577-1.66 2.709-2.144 1.155-.485 2.479-.727 3.972-.727v5.234a20.244 20.244 0 0 0-1.264-.073c-1.613 0-2.877.46-3.791 1.381-.915.897-1.373 2.254-1.373 4.07v9.232h-5.633V7.904h5.38v2.58zm19.098 17.264c-2.046 0-3.888-.424-5.525-1.272-1.613-.872-2.876-2.072-3.791-3.598-.915-1.527-1.373-3.259-1.373-5.197 0-1.939.458-3.671 1.373-5.198.915-1.526 2.178-2.713 3.791-3.562 1.637-.872 3.479-1.308 5.525-1.308 2.046 0 3.876.436 5.489 1.308 1.613.849 2.877 2.036 3.792 3.562.914 1.527 1.372 3.26 1.372 5.198 0 1.938-.458 3.67-1.372 5.197-.915 1.526-2.179 2.726-3.792 3.598-1.613.848-3.443 1.272-5.489 1.272zm0-4.652c1.445 0 2.624-.485 3.539-1.454.939-.993 1.408-2.314 1.408-3.961 0-1.648-.469-2.957-1.408-3.926-.915-.993-2.094-1.49-3.539-1.49-1.444 0-2.636.497-3.575 1.49-.938.97-1.408 2.278-1.408 3.926 0 1.647.47 2.968 1.408 3.961.939.97 2.131 1.454 3.575 1.454z" fill="#FFD22E"/><path d="M114.903 47.875c-1.087 0-2.139-.167-3.157-.499-1.004-.346-1.795-.789-2.373-1.329l.763-1.62c.551.499 1.252.907 2.105 1.226a7.972 7.972 0 0 0 2.662.456c1.197 0 2.091-.2 2.683-.602.591-.415.887-.962.887-1.64 0-.499-.165-.9-.495-1.205a3.074 3.074 0 0 0-1.197-.727c-.468-.166-1.135-.353-2.002-.56-1.086-.264-1.967-.527-2.641-.79a4.503 4.503 0 0 1-1.713-1.205c-.468-.553-.701-1.294-.701-2.222 0-.775.199-1.475.598-2.098.413-.623 1.032-1.121 1.857-1.495.826-.374 1.85-.56 3.075-.56.853 0 1.692.11 2.517.332.826.221 1.534.54 2.126.955l-.681 1.662a7.205 7.205 0 0 0-1.94-.873 6.975 6.975 0 0 0-2.022-.311c-1.169 0-2.05.214-2.641.643-.578.43-.867.984-.867 1.662 0 .499.165.907.495 1.225.33.305.736.547 1.218.727a21.87 21.87 0 0 0 2.001.54c1.087.263 1.96.527 2.621.79a4.33 4.33 0 0 1 1.692 1.204c.481.54.722 1.267.722 2.18 0 .762-.206 1.462-.619 2.098-.413.623-1.039 1.122-1.878 1.496-.839.36-1.871.54-3.095.54zm13.084-.042c-1.114 0-2.111-.242-2.992-.727a5.36 5.36 0 0 1-2.043-1.994c-.495-.858-.743-1.827-.743-2.907s.248-2.042.743-2.887a5.172 5.172 0 0 1 2.043-1.994c.881-.484 1.878-.727 2.992-.727.991 0 1.871.201 2.641.603.785.401 1.39.983 1.816 1.744l-1.506.976a3.375 3.375 0 0 0-1.279-1.184 3.632 3.632 0 0 0-1.692-.394 3.95 3.95 0 0 0-1.94.478 3.462 3.462 0 0 0-1.341 1.37c-.317.582-.475 1.253-.475 2.015 0 .775.158 1.46.475 2.056a3.5 3.5 0 0 0 1.341 1.35 3.95 3.95 0 0 0 1.94.477c.619 0 1.183-.13 1.692-.394.509-.263.935-.658 1.279-1.184l1.506.956a4.385 4.385 0 0 1-1.816 1.765c-.77.401-1.65.602-2.641.602zm12.721-11.236c1.389 0 2.49.409 3.301 1.225.826.804 1.238 1.987 1.238 3.552v6.334h-1.981v-6.105c0-1.067-.254-1.87-.763-2.41s-1.238-.81-2.188-.81c-1.073 0-1.918.319-2.537.956-.62.623-.929 1.523-.929 2.7v5.67h-1.981v-15.41h1.981v5.96a4.107 4.107 0 0 1 1.609-1.226c.675-.29 1.424-.436 2.25-.436zm12.95 11.236c-1.087 0-2.064-.242-2.93-.727a5.346 5.346 0 0 1-2.043-1.994c-.482-.858-.722-1.827-.722-2.907s.24-2.042.722-2.887a5.16 5.16 0 0 1 2.043-1.994c.866-.484 1.843-.727 2.93-.727 1.086 0 2.056.243 2.909.727a5.018 5.018 0 0 1 2.022 1.994c.495.845.743 1.807.743 2.887s-.248 2.049-.743 2.907a5.196 5.196 0 0 1-2.022 1.994c-.853.485-1.823.727-2.909.727zm0-1.745c.701 0 1.327-.159 1.877-.477a3.497 3.497 0 0 0 1.321-1.371c.317-.595.474-1.274.474-2.035 0-.762-.157-1.433-.474-2.015a3.32 3.32 0 0 0-1.321-1.37c-.55-.319-1.176-.478-1.877-.478a3.8 3.8 0 0 0-1.899.478c-.55.318-.99.775-1.32 1.37-.317.582-.475 1.253-.475 2.015 0 .761.158 1.44.475 2.035.33.581.77 1.039 1.32 1.371a3.794 3.794 0 0 0 1.899.477zm13.098 1.745c-1.087 0-2.064-.242-2.93-.727a5.346 5.346 0 0 1-2.043-1.994c-.482-.858-.723-1.827-.723-2.907s.241-2.042.723-2.887a5.16 5.16 0 0 1 2.043-1.994c.866-.484 1.843-.727 2.93-.727 1.087 0 2.056.243 2.909.727a5.018 5.018 0 0 1 2.022 1.994c.496.845.743 1.807.743 2.887s-.247 2.049-.743 2.907a5.196 5.196 0 0 1-2.022 1.994c-.853.485-1.822.727-2.909.727zm0-1.745c.701 0 1.327-.159 1.878-.477a3.508 3.508 0 0 0 1.32-1.371c.316-.595.475-1.274.475-2.035 0-.762-.159-1.433-.475-2.015a3.33 3.33 0 0 0-1.32-1.37c-.551-.319-1.177-.478-1.878-.478a3.8 3.8 0 0 0-1.899.478c-.55.318-.99.775-1.32 1.37-.317.582-.475 1.253-.475 2.015 0 .761.158 1.44.475 2.035.33.581.77 1.039 1.32 1.371a3.794 3.794 0 0 0 1.899.477zm8.414-13.79h1.981v15.41h-1.981v-15.41z" fill="#fff"/></svg>