<svg width="325" height="400" viewBox="0 0 325 400" fill="none" xmlns="http://www.w3.org/2000/svg"><mask id="b" maskUnits="userSpaceOnUse" x="0" y="0" width="325" height="400"><path d="M.52 8.02a8 8 0 0 1 8-8.02h307.5a8 8 0 0 1 8 7.98l.96 384a8 8 0 0 1-8 8.02H9.48a8 8 0 0 1-8-7.98l-.96-384z" fill="#FFD22E"/></mask><g clip-path="url(#a)" opacity=".1" mask="url(#b)"><path d="M415.888 405.938c-24.641-29.155-68.793-51.384-122.155-60.459-5.219-31.25-14.537-45.85-14.781-46.256 4.063-1.905 8.966-2.555 14.564-1.318 6.826 1.535 11.485 5.155 14.311 9.742.822 1.336 2.916.885 3.16-.668.352-2.275.244-4.758-.532-7.512-1.951-6.853-7.287-12.551-14.239-14.05a18.954 18.954 0 0 0-12.867 1.806c3.53-3.052 7.928-5.544 13.282-7.286 11.557-3.702 21.634-1.896 29.471 3.106 1.327.839 2.953-.379 2.528-1.896-1.309-4.705-3.9-9.318-8.704-13.553-8.09-7.115-19.349-10.203-29.579-6.817a30.042 30.042 0 0 0-8.903 4.731c.189-.244.397-.497.587-.731 7.539-8.858 16.595-12.686 25.525-12.903 1.941-.045 2.808-2.564 1.318-3.819-3.169-2.637-7.069-4.713-12.135-5.797-11.395-2.429-23.385.984-30.627 10.104a29.981 29.981 0 0 0-5.453 10.726 29.877 29.877 0 0 0-10.691-5.544c-11.196-3.178-22.925 1.048-30.762 9.653-3.386 3.711-5.345 7.584-6.384 11.458-.541 1.995 1.752 3.611 3.477 2.474 7.34-4.912 16.83-7.007 27.999-4.244.307.09.605.171.912.244a29.744 29.744 0 0 0-10.004 1.345c-10.285 3.205-17.634 12.271-20.063 22.771-1.391 6.05-.885 11.188.686 15.666.569 1.625 2.808 1.661 3.476.072 3.531-8.469 10.6-15.629 21.977-19.286 5.355-1.725 10.384-2.257 15.025-1.842a18.793 18.793 0 0 0-11.503 6.041c-4.786 5.273-5.788 12.993-3.377 19.71.966 2.709 2.356 4.804 3.982 6.456 1.083 1.111 3.033.262 2.916-1.282-.406-5.391 1.282-10.989 5.932-16.225 3.585-4.018 7.666-6.601 11.801-7.179-.009 0 6.546 16.099 7.458 39.331a329.283 329.283 0 0 0-33.579-1.742c-28.036 0-54.699 3.494-78.825 9.823 5.003-109.009 72.089-181.224 72.17-181.585v-.009c8.262 5.463 15.242 13.833 19.756 25.58 5.878 15.259 4.867 29.083-.451 40.496-1.526 3.268 2.049 6.726 5.336 5.2 4.912-2.275 9.652-5.715 14.004-10.817 10.772-12.649 14.952-30.365 8.84-45.804-3.991-10.077-11.296-17.869-20.153-22.664 10.473 2.908 21.029 8.208 31.313 16.361 21.832 17.345 31.376 38.835 32.125 60.188.145 4.009 5.066 5.806 7.639 2.718 7.106-8.487 12.46-19.304 14.383-33.669 3.341-24.93-5.236-50.762-25.055-66.247a69.41 69.41 0 0 0-20.74-11.187c.731.072 1.453.153 2.194.225 26.654 3.115 45.669 15.485 57.66 32.252 2.799 3.91 9.146 2.24 9.598-2.537.93-9.318-.19-19.376-4.524-30.284-10.022-25.245-32.162-44.098-59.24-46.391a69.822 69.822 0 0 0-27.909 3.304c.858-9.173-.099-18.627-3.088-27.89-8.334-25.86-31.692-43.169-58.545-47.26-11.909-1.805-22.194-.505-31.241 2.673-4.28 1.5-4.478 7.72-.28 9.418 19.341 7.801 35.963 23.584 45.137 49.154.253.696.488 1.391.713 2.077a69.347 69.347 0 0 0-15.584-17.67c-19.566-15.81-46.672-18.329-70.193-9.453C131 52.24 121.538 60.22 114.829 69.395c-2.167 2.962.379 6.962 3.964 6.212 21.254-4.433 44.712-.144 66.888 17.499 10.275 8.162 17.832 17.236 23.033 26.798-6.663-7.566-15.918-12.912-26.636-14.51-16.424-2.465-32.74 5.598-42.626 18.97-3.964 5.346-6.222 10.7-7.341 15.964-.759 3.576 3.458 6.302 6.347 4.054 9.914-7.711 23.106-11.783 39.259-9.508 13.264 1.869 23.44 7.314 30.735 14.817-1.3 1.111-82.237 61.507-135.265 246.424a120.007 120.007 0 0 0-9.002 9.535c-5.436 6.437-.84 16.351 7.566 16.351h336.48c8.28.045 13.011-9.724 7.657-16.063z" fill="#442A82"/></g><defs><clipPath id="a"><path fill="#fff" transform="translate(34 10)" d="M0 0h412v412H0z"/></clipPath></defs></svg>