<svg width="372" height="418" viewBox="0 0 372 418" fill="none" xmlns="http://www.w3.org/2000/svg"><path d="M373.46 85.066L209.421 20.038l-10.983 27.706a151.393 151.393 0 0 0 1.777 116.613l24.465 56.599 56.601-24.464a151.395 151.395 0 0 0 81.195-83.721l10.984-27.705zM240.404 196.68a8.018 8.018 0 0 1-10.544-4.179l-14.914-34.505a135.447 135.447 0 0 1-1.596-104.34 8.022 8.022 0 0 1 14.913 5.911 119.49 119.49 0 0 0 1.406 92.065l14.913 34.508a8.02 8.02 0 0 1-4.178 10.54zm2.158 218.576a151.393 151.393 0 0 0-1.777-116.613l-24.465-56.599-56.601 24.464a151.396 151.396 0 0 0-81.196 83.721L67.54 377.934l164.039 65.028 10.983-27.706zm-25.324-1.411a8.021 8.021 0 0 1-4.501-10.412 119.49 119.49 0 0 0-1.406-92.065l-14.913-34.508a8.022 8.022 0 0 1 8.276-11.271 8.022 8.022 0 0 1 6.446 4.911l14.914 34.504a135.449 135.449 0 0 1 1.596 104.341 8.022 8.022 0 0 1-10.412 4.5zM435.933 58.064L182.418-42.433a8.021 8.021 0 0 0-5.911 14.912l29.825 11.823L200.42-.786l193.864 76.851 5.912-14.912 29.825 11.823a8.02 8.02 0 0 0 5.912-14.912zm-171.44 432.457l-29.825-11.823 5.912-14.912-193.864-76.851-5.912 14.912-29.825-11.823a8.02 8.02 0 0 0-5.912 14.912l253.515 100.497a8.02 8.02 0 1 0 5.911-14.912z" opacity=".3" fill="#fff"/></svg>