<svg width="375" height="400" viewBox="0 0 375 400" fill="none" xmlns="http://www.w3.org/2000/svg"><mask id="a" maskUnits="userSpaceOnUse" x="0" y="0" width="375" height="400"><path d="M.98 7.98a8 8 0 0 1 8-7.98h358a8 8 0 0 1 8 8.02l-.96 384a8 8 0 0 1-8 7.98h-358a8 8 0 0 1-8-8.02l.96-384z" fill="#FFD22E"/></mask><g opacity=".1" fill="#442A82" mask="url(#a)"><path d="M37.076 118.841c-7.347 6.038-9.435 16.537-5.127 25.48a6.788 6.788 0 0 1-1.83 8.208c-2.418 2.012-5.908 2.109-8.396.233-7.962-5.934-18.667-5.901-25.994.174l-6.978 5.745c-9.212 7.562-9.555 22.394-1.763 31.051 2.164 2.433 4.218 5.019 6.29 7.548 3.048 3.729 6.135 7.439 9.184 11.168 4.063 4.91 8.09 9.84 12.152 14.749 4.808 5.852 9.672 11.721 14.48 17.573 5.41 6.534 10.784 13.087 16.196 19.622 5.745 6.977 11.51 13.992 17.291 20.95 5.902 7.181 11.84 14.342 17.722 21.486 5.861 7.106 11.703 14.175 17.565 21.283l16.763 20.322c5.101 6.222 10.219 12.386 15.319 18.607 4.417 5.391 8.871 10.762 13.268 16.115 3.536 4.283 7.072 8.565 10.629 12.884l7.326 8.86c1.114 1.367 2.265 2.713 3.379 4.079.04.075.118.129.158.204a21.384 21.384 0 0 0-11.153 7.692c-6.101 8.099-5.663 19.114.475 26.647 1.818 2.234 2.341 5.448.612 7.762l-5.464 7.232c-1.729 2.313-4.986 2.668-7.641 1.552-.498-.213-267.683-202.247-268.033-202.634-1.818-2.234-2.342-5.448-.612-7.762l5.464-7.232c1.729-2.313 4.985-2.668 7.641-1.552 8.906 3.85 19.634 1.268 25.734-6.832 6.1-8.099 5.663-19.113-.475-26.647-1.818-2.233-2.341-5.448-.612-7.761l5.464-7.232c1.73-2.314 4.986-2.669 7.641-1.553 8.906 3.85 19.634 1.268 25.734-6.831 6.1-8.099 5.663-19.114-.475-26.647-1.818-2.234-2.341-5.449-.612-7.762l5.464-7.232c1.73-2.314 4.986-2.669 7.642-1.553 8.905 3.851 19.633 1.268 25.734-6.831 6.1-8.1 5.662-19.114-.475-26.647-1.818-2.234-2.342-5.448-.613-7.762l6.067-7.985c1.73-2.314 4.983-2.763 7.297-1.033l39.94 30.177-2.378 2.085z"/><path d="M210.683 437.061c-.462-.327-213.494-258.77-213.753-259.254-1.243-2.59-.994-5.882 1.203-7.68l6.977-5.745c2.235-1.818 5.492-1.455 7.806.275 7.789 5.788 18.796 5.785 26.642-.664 7.845-6.449 9.942-17.288 5.734-26.045-1.242-2.59-.994-5.883 1.203-7.681l5.113-4.22 1.902-1.545c2.234-1.818 5.492-1.454 7.805.275 7.79 5.788 18.797 5.785 26.642-.664 7.846-6.449 9.943-17.288 5.735-26.045-1.243-2.59-.994-5.882 1.203-7.68l6.977-5.745c2.235-1.818 5.492-1.455 7.806.275 7.789 5.788 18.796 5.784 26.642-.665 7.845-6.448 9.942-17.287 5.734-26.045-1.242-2.59-.994-5.882 1.203-7.68l7.734-6.388c2.234-1.819 5.509-1.513 7.327.721 0 0 214.05 259.718 214.209 260.016a5.23 5.23 0 0 1-1.274 6.473l-7.734 6.389c-2.234 1.818-5.492 1.455-7.805-.274-7.789-5.788-18.797-5.785-26.642.664-7.846 6.448-9.943 17.287-5.735 26.045 1.243 2.59.994 5.882-1.203 7.68l-6.977 5.745c-2.235 1.818-5.492 1.455-7.806-.275-7.788-5.788-18.796-5.785-26.642.664-7.845 6.449-9.942 17.288-5.734 26.045 1.242 2.59.994 5.883-1.203 7.681l-6.978 5.744c-2.234 1.818-5.492 1.455-7.805-.274-7.789-5.788-18.797-5.785-26.642.664-7.846 6.448-9.943 17.288-5.735 26.045 1.243 2.59.994 5.882-1.203 7.68l-6.978 5.745c-2.214 1.856-5.434 1.473-7.748-.257zM173.327 138.02c4.485-3.693 5.131-10.357 1.438-14.843-3.693-4.485-10.357-5.131-14.842-1.438l-54.527 44.977-33.614 27.707a10.55 10.55 0 0 0-2.6 13.119c.318.595.731 1.188 1.161 1.723 3.693 4.486 10.357 5.132 14.843 1.439l37.489-30.929 50.652-41.755zm123.445 149.719c4.486-3.693 5.132-10.357 1.439-14.842-3.693-4.486-10.357-5.132-14.843-1.439l-18.828 15.533-21.357 17.604-17.203 14.185-30.772 25.324a10.551 10.551 0 0 0-2.601 13.12c.319.595.732 1.188 1.162 1.723.177.24.39.461.584.645 3.809 3.896 9.994 4.273 14.238.756l6.222-5.1L230.891 342l65.881-54.261z"/></g></svg>