<svg width="46" height="46" viewBox="0 0 46 46" fill="none" xmlns="http://www.w3.org/2000/svg">
<path d="M40.25 22.317L40.1421 20.8435L41.0765 19.9091C45.2092 15.7764 45.2092 9.02012 41.0765 4.92321C36.9437 0.790431 30.2233 0.790431 26.0905 4.92321L25.1562 5.85758C24.689 5.78568 24.1859 5.74973 23.6827 5.74973L25.2999 4.13255C29.8639 -0.431463 37.303 -0.467415 41.867 4.13255C46.431 8.69656 46.431 16.1357 41.867 20.6997L40.25 22.317ZM20.8797 5.89362L19.9453 4.95925C15.8125 0.826473 9.0563 0.826473 4.95939 4.95925C0.79066 9.05608 0.79066 15.8124 4.95939 19.9452L5.89376 20.8795C5.82186 21.3467 5.78591 21.8499 5.78591 22.353L4.16873 20.7358C-0.395282 16.1718 -0.431233 8.7327 4.16873 4.16868C8.73274 -0.395329 16.1719 -0.395329 20.7359 4.16868L22.3531 5.78586C21.8499 5.78577 21.3469 5.82172 20.8797 5.89362ZM5.74996 23.6827L5.85781 25.1561L4.92344 26.0905C0.790661 30.2233 0.790661 36.9795 4.88749 41.0763C9.02026 45.2091 15.7406 45.2091 19.8734 41.0763L20.8078 40.142C21.275 40.2139 21.7781 40.2498 22.2812 40.2498L20.6641 41.867C16.1001 46.431 8.66093 46.467 4.09692 41.9029C-0.467094 37.3389 -0.467185 29.8998 4.13278 25.3357L5.74996 23.6827ZM25.1202 40.106L26.0546 41.0404C30.1874 45.1732 36.9436 45.1732 41.0405 41.0404C45.1733 36.9076 45.1733 30.1872 41.0046 26.0545L40.0702 25.1201C40.1421 24.6529 40.1781 24.1498 40.1781 23.6466L41.7952 25.2638C46.3592 29.8278 46.3952 37.2669 41.8312 41.831C37.2672 46.395 29.828 46.395 25.264 41.795L23.6469 40.1778C24.15 40.2139 24.653 40.1779 25.1202 40.106Z" fill="#E4E7E7"/>
<path d="M23 0C10.3141 0 0 10.3141 0 23C0 35.6859 10.2781 46 23 46C35.6859 46 46 35.6859 46 23C46 10.3141 35.6859 0 23 0ZM23 34.4999C16.6391 34.4999 11.5 29.3609 11.5 22.9999C11.5 16.639 16.6391 11.4999 23 11.4999C29.3609 11.4999 34.5 16.639 34.5 22.9999C34.5 29.3609 29.3609 34.4999 23 34.4999Z" fill="#442A82"/>
<path d="M17.6452 33.1702C15.5609 32.0922 13.8718 30.3671 12.7937 28.3187L4.49219 36.6562C5.8578 38.489 7.47497 40.1421 9.34372 41.5077L17.6452 33.1702ZM28.3187 12.7937C30.4031 13.8718 32.0922 15.5609 33.1702 17.6452L41.5077 9.34372C40.1421 7.51092 38.489 5.8578 36.6562 4.49219L28.3187 12.7937ZM4.49219 9.34372L12.7937 17.6452C13.8718 15.5609 15.5609 13.8718 17.6452 12.7937L9.34372 4.49219C7.51092 5.8578 5.8578 7.51092 4.49219 9.34372ZM41.5077 36.6562L33.2062 28.3547C32.1281 30.439 30.439 32.1281 28.3547 33.2062L36.6562 41.5077C38.489 40.1421 40.1421 38.489 41.5077 36.6562Z" fill="#FFD22E"/>
<path d="M30.3671 10.7812L28.3547 12.7937C30.439 13.8718 32.1281 15.5609 33.2062 17.6452L35.2187 15.6328C33.9968 13.6563 32.3437 11.9672 30.3671 10.7812ZM12.7937 28.3187L10.7812 30.3671C11.9672 32.3437 13.6563 33.9968 15.6328 35.2187L17.6452 33.2062C15.5968 32.0922 13.9078 30.4031 12.7937 28.3187ZM28.3547 33.2062L30.3671 35.2187C32.3437 34.0327 33.9968 32.3436 35.2187 30.3671L33.2062 28.3547C32.0922 30.4031 30.4031 32.0922 28.3547 33.2062ZM17.6812 12.8297L15.6328 10.7812C13.6562 12.0031 12.0031 13.6563 10.7812 15.6328L12.7937 17.6452C13.9078 15.5968 15.5968 13.9078 17.6812 12.8297Z" fill="#E4BD2E"/>
<path d="M7.83434 33.314L6.79211 34.3562C8.12177 36.225 9.73895 37.8781 11.6436 39.2078L12.6859 38.1656C10.7813 36.8359 9.12814 35.2187 7.83434 33.314ZM38.1656 33.314C36.8719 35.2187 35.2188 36.8718 33.3141 38.1656L34.3563 39.2078C36.225 37.8781 37.8782 36.225 39.2078 34.3562L38.1656 33.314ZM7.83434 12.686C9.12805 10.7813 10.7812 9.12817 12.6859 7.83446L11.6797 6.82819C9.81094 8.15785 8.15781 9.81097 6.82816 11.6797L7.83434 12.686ZM38.1656 12.686L39.2078 11.6438C37.8782 9.77502 36.225 8.12189 34.3563 6.79224L33.3141 7.83446C35.2187 9.12817 36.8359 10.7813 38.1656 12.686Z" fill="#F1F1F1"/>
</svg>
