<svg width="25" height="25" viewBox="0 0 25 25" fill="none" xmlns="http://www.w3.org/2000/svg">
<g clip-path="url(#clip0)">
<path d="M23.0983 8.4585C21.2012 8.1202 19.4053 7.22315 17.9748 5.79491C16.5459 4.36524 15.6498 2.57035 15.3128 0.672811C17.2336 -0.530574 20.0182 -0.10435 21.9469 1.82371C23.8743 3.75177 24.3003 6.53684 23.0983 8.4585ZM21.7728 9.78426C19.9508 9.27502 18.2427 8.33025 16.8404 6.92936C15.4396 5.52704 14.4947 3.81907 13.988 1.99778C12.7862 3.91944 13.2124 6.70307 15.1389 8.63103C17.0677 10.5582 19.8504 10.9852 21.7728 9.78426ZM14.1438 18.3238C11.7474 18.3238 10.034 19.8214 8.52211 21.1422C6.85176 22.6025 5.40394 23.8687 3.27383 23.2122C2.85237 22.9018 2.83988 22.6482 2.83517 22.562C2.80533 21.9852 3.50413 21.2114 3.84735 20.9261C3.88967 20.8916 3.91375 20.8447 3.94687 20.8024C4.50933 20.9983 5.15554 20.8851 5.60616 20.4357L16.5177 11.4536C15.6152 11.0705 14.7552 10.5159 14.0056 9.76526C13.2547 9.01472 12.7018 8.15375 12.3193 7.25294L3.33806 18.1655C2.9385 18.565 2.82258 19.1179 2.93146 19.6318C2.89776 19.6523 2.86009 19.6616 2.82877 19.6868C2.65714 19.8278 1.15773 21.1032 1.23217 22.6371C1.25884 23.1764 1.49391 23.9549 2.46767 24.6068L2.65968 24.7006C3.28414 24.909 3.86613 24.9998 4.41309 24.9998C6.54712 24.9998 8.13906 23.6087 9.57826 22.3504C11.0033 21.1046 12.3499 19.928 14.1439 19.928C18.2791 19.928 21.48 24.3591 21.5128 24.4028C21.7681 24.768 22.2714 24.8492 22.6302 24.5927C22.9922 24.3371 23.0766 23.8371 22.8213 23.4756C22.6723 23.2655 19.1141 18.3238 14.1438 18.3238Z" fill="#69559B"/>
</g>
<defs>
<clipPath id="clip0">
<rect width="25" height="25" fill="white" transform="matrix(-1 0 0 1 25 0)"/>
</clipPath>
</defs>
</svg>
