<svg width="25" height="25" viewBox="0 0 25 25" fill="none" xmlns="http://www.w3.org/2000/svg">
<g clip-path="url(#clip0)">
<path d="M17.1551 12.5C17.1551 9.93333 15.0668 7.84497 12.5 7.84497C9.93333 7.84497 7.84497 9.93333 7.84497 12.5C7.84497 14.1457 8.70347 15.5945 9.99608 16.4225C8.70347 17.2505 7.84497 18.6995 7.84497 20.345V24.2676C7.84497 24.6722 8.17303 25 8.57739 25H16.4227C16.8271 25 17.1551 24.6722 17.1551 24.2676V20.345C17.1551 18.6995 16.2966 17.2505 15.004 16.4225C16.2966 15.5945 17.1551 14.1457 17.1551 12.5Z" fill="#69559B"/>
<path d="M12.5 3.92236C7.7703 3.92236 3.92261 7.77025 3.92261 12.4999C3.92261 14.8827 4.91405 17.1243 6.59976 18.7241C6.73003 18.25 6.91657 17.7915 7.15785 17.3612C7.17673 17.3272 7.19638 17.2936 7.21584 17.2601C6.05712 15.9722 5.38745 14.2836 5.38745 12.4999C5.38745 8.57801 8.57806 5.3874 12.5 5.3874C16.4218 5.3874 19.6125 8.57801 19.6125 12.4999C19.6126 14.2836 18.9428 15.9724 17.7841 17.2601C17.8035 17.2936 17.8232 17.3272 17.8421 17.3612C18.0833 17.7915 18.2699 18.25 18.4001 18.7241C20.0859 17.1243 21.0775 14.8827 21.0773 12.4999C21.0773 7.77025 17.2296 3.92236 12.5 3.92236Z" fill="#69559B"/>
<path d="M21.3388 3.66116C18.9779 1.30024 15.839 0 12.5 0C9.161 0 6.02207 1.30024 3.66116 3.66116C1.30024 6.02207 0 9.16119 0 12.5C0 17.0643 2.49386 21.2172 6.38008 23.402V21.6846C3.36266 19.6693 1.46484 16.2413 1.46484 12.5C1.46484 6.41518 6.41518 1.46484 12.5 1.46484C18.5848 1.46484 23.5352 6.41518 23.5352 12.5C23.5352 16.2413 21.6373 19.6693 18.6199 21.6846V23.402C22.5061 21.2172 25 17.0643 25 12.5C25 9.16119 23.6998 6.02207 21.3388 3.66116Z" fill="#69559B"/>
</g>
<defs>
<clipPath id="clip0">
<rect width="25" height="25" fill="white"/>
</clipPath>
</defs>
</svg>
