<svg width="30" height="28" viewBox="0 0 30 28" fill="none" xmlns="http://www.w3.org/2000/svg">
<path d="M29.1827 17.0325V27.5456H23.0874V17.7371C23.0874 15.2743 22.2074 13.5924 20.0005 13.5924C18.3164 13.5924 17.3159 14.7247 16.874 15.8211C16.7136 16.2129 16.6722 16.7571 16.6722 17.3066V27.5452H10.5765C10.5765 27.5452 10.6584 10.9328 10.5765 9.21315H16.6727V11.811C16.6604 11.8314 16.6431 11.8514 16.6322 11.871H16.6727V11.811C17.4827 10.5646 18.9273 8.78268 22.166 8.78268C26.1762 8.78268 29.1827 11.4028 29.1827 17.0325ZM4.19995 0.376465C2.11487 0.376465 0.750732 1.74515 0.750732 3.5434C0.750732 5.30346 2.07532 6.71169 4.11994 6.71169H4.15949C6.28548 6.71169 7.60734 5.30346 7.60734 3.5434C7.56688 1.74515 6.28547 0.376465 4.19995 0.376465ZM1.11302 27.5456H7.20642V9.21315H1.11302V27.5456Z" fill="#F1F2F2"/>
</svg>
