<svg width="14" height="14" viewBox="0 0 14 14" fill="none" xmlns="http://www.w3.org/2000/svg">
<g clip-path="url(#clip0)">
<path d="M9.625 -0.1H4.375C1.9039 -0.1 -0.1 1.9039 -0.1 4.375V9.625C-0.1 12.0961 1.9039 14.1 4.375 14.1H9.625C12.0961 14.1 14.1 12.0961 14.1 9.625V4.375C14.1 1.9039 12.0961 -0.1 9.625 -0.1ZM12.5875 9.625C12.5875 11.2585 11.2585 12.5875 9.625 12.5875H4.375C2.74148 12.5875 1.4125 11.2585 1.4125 9.625V4.375C1.4125 2.74148 2.74148 1.4125 4.375 1.4125H9.625C11.2585 1.4125 12.5875 2.74148 12.5875 4.375V9.625Z" fill="#69559B" stroke="#69559B" stroke-width="0.2"/>
<path d="M7 3.4C5.0119 3.4 3.4 5.0119 3.4 7C3.4 8.9881 5.0119 10.6 7 10.6C8.9881 10.6 10.6 8.9881 10.6 7C10.6 5.0119 8.9881 3.4 7 3.4ZM7 9.0875C5.84948 9.0875 4.9125 8.15052 4.9125 7C4.9125 5.84863 5.84945 4.9125 7 4.9125C8.15055 4.9125 9.0875 5.84863 9.0875 7C9.0875 8.15052 8.15052 9.0875 7 9.0875Z" fill="#69559B" stroke="#69559B" stroke-width="0.2"/>
<path d="M3.23749 3.80374C3.55029 3.80374 3.80387 3.55017 3.80387 3.23737C3.80387 2.92457 3.55029 2.671 3.23749 2.671C2.92469 2.671 2.67112 2.92457 2.67112 3.23737C2.67112 3.55017 2.92469 3.80374 3.23749 3.80374Z" fill="#69559B" stroke="#69559B" stroke-width="0.2"/>
</g>
<defs>
<clipPath id="clip0">
<rect width="14" height="14" fill="white" transform="matrix(-1 0 0 1 14 0)"/>
</clipPath>
</defs>
</svg>
