<svg width="181" height="47" viewBox="0 0 181 47" fill="none" xmlns="http://www.w3.org/2000/svg">
<path d="M38.0115 2.73074L30.2325 26.5496H24.3219L19.0906 10.4208L13.6896 26.5496H7.8129L0 2.73074H5.7068L11.0739 19.472L16.6788 2.73074H21.7742L27.2093 19.6081L32.7463 2.73074H38.0115Z" fill="#FFD22E"/>
<path d="M57.2517 17.4644C57.2517 17.5325 57.2177 18.0088 57.1497 18.8935H43.3243C43.5733 20.0278 44.1622 20.9238 45.0906 21.5816C46.019 22.2395 47.1742 22.5685 48.5555 22.5685C49.5067 22.5685 50.3446 22.4323 51.0693 22.1601C51.8164 21.8652 52.5071 21.4115 53.1413 20.799L55.9608 23.8615C54.2397 25.835 51.726 26.8218 48.4195 26.8218C46.3587 26.8218 44.5356 26.4248 42.9506 25.6309C41.3652 24.8142 40.1423 23.6913 39.282 22.2622C38.4213 20.833 37.9911 19.2111 37.9911 17.3963C37.9911 15.6043 38.41 13.9937 39.248 12.5645C40.1083 11.1127 41.2748 9.98981 42.7469 9.19583C44.2415 8.37921 45.9058 7.97089 47.7401 7.97089C49.5292 7.97089 51.1485 8.35651 52.5979 9.12778C54.0473 9.89909 55.1793 11.0106 55.9948 12.4624C56.8327 13.8916 57.2517 15.5589 57.2517 17.4644ZM47.7741 11.9861C46.574 11.9861 45.566 12.3263 44.7509 13.0069C43.9358 13.6874 43.4376 14.6175 43.2563 15.7971H52.2582C52.0769 14.6402 51.5787 13.7214 50.7636 13.0409C49.9481 12.3377 48.9517 11.9861 47.7741 11.9861Z" fill="#FFD22E"/>
<path d="M71.5818 7.97088C73.2804 7.97088 74.8203 8.36784 76.2016 9.16182C77.6057 9.93309 78.7041 11.0333 79.4968 12.4624C80.2892 13.8689 80.6857 15.5135 80.6857 17.3963C80.6857 19.2792 80.2892 20.9352 79.4968 22.3643C78.7041 23.7707 77.6057 24.8709 76.2016 25.6649C74.8203 26.4362 73.2804 26.8218 71.5818 26.8218C69.0681 26.8218 67.1545 26.0279 65.8412 24.4399V26.5496H60.7797V1.30159H66.0789V10.1826C67.415 8.70811 69.2493 7.97088 71.5818 7.97088ZM70.6647 22.4664C72.0236 22.4664 73.1332 22.0127 73.9936 21.1053C74.8771 20.1752 75.3185 18.9389 75.3185 17.3963C75.3185 15.8538 74.8771 14.6288 73.9936 13.7214C73.1332 12.7913 72.0236 12.3263 70.6647 12.3263C69.3061 12.3263 68.1849 12.7913 67.3018 13.7214C66.4414 14.6288 66.0109 15.8538 66.0109 17.3963C66.0109 18.9389 66.4414 20.1752 67.3018 21.1053C68.1849 22.0127 69.3061 22.4664 70.6647 22.4664Z" fill="#FFD22E"/>
<path d="M106.415 2.73074V26.5496H100.912V16.7839H90.1095V26.5496H84.6066V2.73074H90.1095V12.1222H100.912V2.73074H106.415Z" fill="#FFD22E"/>
<path d="M129.569 17.4644C129.569 17.5325 129.535 18.0088 129.467 18.8935H115.641C115.891 20.0278 116.479 20.9238 117.408 21.5816C118.336 22.2395 119.491 22.5685 120.872 22.5685C121.824 22.5685 122.662 22.4323 123.386 22.1601C124.134 21.8652 124.824 21.4115 125.459 20.799L128.278 23.8615C126.557 25.835 124.043 26.8218 120.737 26.8218C118.676 26.8218 116.853 26.4248 115.268 25.6309C113.682 24.8142 112.46 23.6913 111.599 22.2622C110.739 20.833 110.308 19.2111 110.308 17.3963C110.308 15.6043 110.727 13.9937 111.565 12.5645C112.426 11.1127 113.592 9.98981 115.064 9.19583C116.558 8.37921 118.223 7.97089 120.057 7.97089C121.846 7.97089 123.465 8.35651 124.915 9.12778C126.364 9.89909 127.497 11.0106 128.312 12.4624C129.15 13.8916 129.569 15.5589 129.569 17.4644ZM120.091 11.9861C118.891 11.9861 117.883 12.3263 117.068 13.0069C116.253 13.6874 115.755 14.6175 115.574 15.7971H124.575C124.394 14.6402 123.896 13.7214 123.081 13.0409C122.265 12.3377 121.269 11.9861 120.091 11.9861Z" fill="#FFD22E"/>
<path d="M138.158 10.659C138.792 9.77431 139.641 9.10511 140.706 8.65143C141.793 8.19772 143.038 7.97089 144.442 7.97089V12.8708C143.854 12.8254 143.457 12.8027 143.253 12.8027C141.736 12.8027 140.547 13.2337 139.687 14.0957C138.826 14.935 138.396 16.2054 138.396 17.9067V26.5496H133.097V8.2431H138.158V10.659Z" fill="#FFD22E"/>
<path d="M156.124 26.8218C154.199 26.8218 152.466 26.4248 150.926 25.6309C149.409 24.8142 148.22 23.6913 147.359 22.2622C146.499 20.833 146.069 19.2111 146.069 17.3963C146.069 15.5816 146.499 13.9596 147.359 12.5305C148.22 11.1014 149.409 9.98981 150.926 9.19583C152.466 8.37921 154.199 7.97089 156.124 7.97089C158.048 7.97089 159.769 8.37921 161.287 9.19583C162.804 9.98981 163.993 11.1014 164.854 12.5305C165.714 13.9596 166.144 15.5816 166.144 17.3963C166.144 19.2111 165.714 20.833 164.854 22.2622C163.993 23.6913 162.804 24.8142 161.287 25.6309C159.769 26.4248 158.048 26.8218 156.124 26.8218ZM156.124 22.4664C157.482 22.4664 158.592 22.0127 159.453 21.1053C160.336 20.1752 160.777 18.9389 160.777 17.3963C160.777 15.8538 160.336 14.6288 159.453 13.7214C158.592 12.7913 157.482 12.3263 156.124 12.3263C154.765 12.3263 153.644 12.7913 152.761 13.7214C151.878 14.6288 151.436 15.8538 151.436 17.3963C151.436 18.9389 151.878 20.1752 152.761 21.1053C153.644 22.0127 154.765 22.4664 156.124 22.4664Z" fill="#FFD22E"/>
<path d="M98.1828 44.1957L98.1659 32.4102H95.9098L91.566 39.734L87.1549 32.4102H84.8988V44.1957H87.4579V37.2759L90.9262 42.9498H92.1385L95.6068 37.1412L95.6236 44.1957H98.1828Z" fill="white"/>
<path d="M110.135 44.1957H112.997L107.727 32.4102H105.033L99.7804 44.1957H102.575L103.619 41.6702H109.091L110.135 44.1957ZM104.495 39.5993L106.363 35.0871L108.232 39.5993H104.495Z" fill="white"/>
<path d="M119.661 32.4102H114.56V44.1957H117.287V40.9462H119.661C122.81 40.9462 124.78 39.3131 124.78 36.6866C124.78 34.0433 122.81 32.4102 119.661 32.4102ZM119.51 38.7238H117.287V34.6326H119.51C121.177 34.6326 122.018 35.3902 122.018 36.6866C122.018 37.9662 121.177 38.7238 119.51 38.7238Z" fill="white"/>
<path d="M135.011 44.1957H137.873L132.604 32.4102H129.91L124.657 44.1957H127.452L128.496 41.6702H133.967L135.011 44.1957ZM129.371 39.5993L131.24 35.0871L133.109 39.5993H129.371Z" fill="white"/>
<path d="M153.229 38.2692C153.229 35.1882 151.041 33.3362 147.067 33.1004V31.9051H144.559V33.1173C140.568 33.353 138.38 35.1713 138.38 38.2692C138.38 41.3503 140.568 43.1855 144.559 43.4212V44.7176H147.067V43.438C151.057 43.236 153.229 41.3671 153.229 38.2692ZM147.067 41.2998V35.2555C149.407 35.4575 150.603 36.4341 150.603 38.2524C150.603 40.0876 149.441 41.0809 147.067 41.2998ZM141.023 38.2692C141.023 36.4341 142.168 35.4744 144.559 35.2555V41.2998C142.286 41.0641 141.023 40.0876 141.023 38.2692Z" fill="white"/>
<path d="M160.893 44.3977C164.597 44.3977 167.342 41.8217 167.342 38.3029C167.342 34.7841 164.597 32.2081 160.893 32.2081C157.172 32.2081 154.445 34.8009 154.445 38.3029C154.445 41.8049 157.172 44.3977 160.893 44.3977ZM160.893 42.0743C158.789 42.0743 157.206 40.5422 157.206 38.3029C157.206 36.0637 158.789 34.5315 160.893 34.5315C162.998 34.5315 164.58 36.0637 164.58 38.3029C164.58 40.5422 162.998 42.0743 160.893 42.0743Z" fill="white"/>
<path d="M177.524 32.4102V37.057H172.17V32.4102H169.443V44.1957H172.17V39.3636H177.524V44.1957H180.252V32.4102H177.524Z" fill="white"/>
</svg>
