<svg width="178" height="48" viewBox="0 0 178 48" fill="none" xmlns="http://www.w3.org/2000/svg">
<path d="M41.2129 2.01587L32.9436 27.4574H26.6604L21.0994 10.2298L15.3578 27.4574H9.11069L0.805298 2.01587H6.87184L12.5773 19.8976L18.5355 2.01587H23.9521L29.7298 20.043L35.6158 2.01587H41.2129Z" fill="#FFD22E"/>
<path d="M61.6659 17.7533C61.6659 17.826 61.6298 18.3348 61.5575 19.2798H46.8606C47.1252 20.4913 47.7513 21.4484 48.7382 22.151C49.7251 22.8537 50.9532 23.2051 52.4216 23.2051C53.4327 23.2051 54.3234 23.0597 55.0938 22.7689C55.888 22.4539 56.6222 21.9693 57.2964 21.3151L60.2936 24.5861C58.4641 26.6942 55.7919 27.7482 52.277 27.7482C50.0863 27.7482 48.1483 27.3241 46.4633 26.4761C44.778 25.6038 43.478 24.4044 42.5634 22.8779C41.6485 21.3514 41.1912 19.619 41.1912 17.6806C41.1912 15.7664 41.6365 14.0461 42.5273 12.5196C43.4419 10.9689 44.6818 9.7695 46.2468 8.92143C47.8356 8.04918 49.6048 7.61304 51.5547 7.61304C53.4566 7.61304 55.178 8.02493 56.7188 8.84874C58.2595 9.67259 59.4629 10.8599 60.3298 12.4106C61.2205 13.9371 61.6659 15.718 61.6659 17.7533ZM51.5908 11.9017C50.3151 11.9017 49.2436 12.2652 48.3771 12.9921C47.5106 13.719 46.981 14.7124 46.7883 15.9724H56.3576C56.1649 14.7366 55.6353 13.7553 54.7688 13.0284C53.9019 12.2773 52.8427 11.9017 51.5908 11.9017Z" fill="#FFD22E"/>
<path d="M76.8992 7.61289C78.7049 7.61289 80.3418 8.03689 81.8102 8.88496C83.3029 9.70877 84.4705 10.8839 85.3132 12.4104C86.1555 13.9127 86.577 15.6694 86.577 17.6805C86.577 19.6915 86.1555 21.4603 85.3132 22.9868C84.4705 24.4891 83.3029 25.6642 81.8102 26.5123C80.3418 27.3361 78.7049 27.748 76.8992 27.748C74.227 27.748 72.1929 26.9 70.7967 25.2039V27.4573H65.4161V0.489258H71.0494V9.97532C72.4698 8.40034 74.4197 7.61289 76.8992 7.61289ZM75.9243 23.0959C77.3688 23.0959 78.5484 22.6113 79.463 21.642C80.4022 20.6486 80.8714 19.3281 80.8714 17.6805C80.8714 16.0328 80.4022 14.7244 79.463 13.7552C78.5484 12.7617 77.3688 12.2651 75.9243 12.2651C74.4801 12.2651 73.2882 12.7617 72.3494 13.7552C71.4348 14.7244 70.9771 16.0328 70.9771 17.6805C70.9771 19.3281 71.4348 20.6486 72.3494 21.642C73.2882 22.6113 74.4801 23.0959 75.9243 23.0959Z" fill="#FFD22E"/>
<path d="M113.928 2.01587V27.4574H108.078V17.0264H96.5948V27.4574H90.745V2.01587H96.5948V12.0471H108.078V2.01587H113.928Z" fill="#FFD22E"/>
<path d="M138.541 17.7533C138.541 17.826 138.505 18.3348 138.433 19.2798H123.736C124.001 20.4913 124.627 21.4484 125.614 22.151C126.601 22.8537 127.829 23.2051 129.297 23.2051C130.308 23.2051 131.199 23.0597 131.969 22.7689C132.764 22.4539 133.498 21.9693 134.172 21.3151L137.169 24.5861C135.34 26.6942 132.668 27.7482 129.153 27.7482C126.962 27.7482 125.024 27.3241 123.339 26.4761C121.654 25.6038 120.354 24.4044 119.439 22.8779C118.524 21.3514 118.067 19.619 118.067 17.6806C118.067 15.7664 118.512 14.0461 119.403 12.5196C120.318 10.9689 121.558 9.7695 123.122 8.92143C124.711 8.04918 126.481 7.61304 128.431 7.61304C130.332 7.61304 132.054 8.02493 133.594 8.84874C135.135 9.67259 136.339 10.8599 137.205 12.4106C138.096 13.9371 138.541 15.718 138.541 17.7533ZM128.467 11.9017C127.191 11.9017 126.119 12.2652 125.253 12.9921C124.386 13.719 123.856 14.7124 123.664 15.9724H133.233C133.041 14.7366 132.511 13.7553 131.644 13.0284C130.778 12.2773 129.719 11.9017 128.467 11.9017Z" fill="#FFD22E"/>
<path d="M147.672 10.4843C148.346 9.53932 149.249 8.82452 150.381 8.33994C151.536 7.85533 152.86 7.61304 154.353 7.61304V12.8467C153.727 12.7983 153.306 12.774 153.089 12.774C151.476 12.774 150.212 13.2344 149.298 14.1551C148.383 15.0516 147.925 16.4085 147.925 18.2258V27.4574H142.292V7.9038H147.672V10.4843Z" fill="#FFD22E"/>
<path d="M166.77 27.7482C164.724 27.7482 162.882 27.3241 161.245 26.4761C159.632 25.6038 158.369 24.4044 157.454 22.8779C156.539 21.3514 156.081 19.619 156.081 17.6806C156.081 15.7422 156.539 14.0097 157.454 12.4833C158.369 10.9568 159.632 9.7695 161.245 8.92143C162.882 8.04918 164.724 7.61304 166.77 7.61304C168.816 7.61304 170.646 8.04918 172.259 8.92143C173.872 9.7695 175.136 10.9568 176.051 12.4833C176.965 14.0097 177.423 15.7422 177.423 17.6806C177.423 19.619 176.965 21.3514 176.051 22.8779C175.136 24.4044 173.872 25.6038 172.259 26.4761C170.646 27.3241 168.816 27.7482 166.77 27.7482ZM166.77 23.096C168.215 23.096 169.394 22.6114 170.309 21.6422C171.248 20.6488 171.717 19.3282 171.717 17.6806C171.717 16.033 171.248 14.7245 170.309 13.7553C169.394 12.7619 168.215 12.2652 166.77 12.2652C165.326 12.2652 164.134 12.7619 163.195 13.7553C162.257 14.7245 161.787 16.033 161.787 17.6806C161.787 19.3282 162.257 20.6488 163.195 21.6422C164.134 22.6114 165.326 23.096 166.77 23.096Z" fill="#FFD22E"/>
<path d="M114.903 47.8746C113.816 47.8746 112.764 47.7084 111.746 47.3761C110.742 47.0303 109.951 46.587 109.373 46.047L110.136 44.427C110.687 44.9256 111.388 45.3339 112.241 45.6525C113.108 45.9572 113.995 46.1095 114.903 46.1095C116.1 46.1095 116.994 45.9085 117.586 45.507C118.177 45.0917 118.473 44.5448 118.473 43.8663C118.473 43.3681 118.308 42.9663 117.978 42.6619C117.661 42.3434 117.262 42.1012 116.781 41.935C116.313 41.7688 115.646 41.5819 114.779 41.3743C113.693 41.111 112.812 40.8481 112.138 40.5848C111.478 40.3219 110.907 39.9205 110.425 39.3805C109.957 38.8267 109.724 38.0859 109.724 37.1579C109.724 36.3827 109.923 35.6834 110.322 35.0605C110.735 34.4374 111.354 33.939 112.179 33.5652C113.005 33.1913 114.029 33.0044 115.254 33.0044C116.107 33.0044 116.946 33.1152 117.771 33.3367C118.597 33.5582 119.305 33.8767 119.897 34.2921L119.216 35.9536C118.61 35.5659 117.964 35.2751 117.276 35.0813C116.588 34.8736 115.914 34.7697 115.254 34.7697C114.085 34.7697 113.204 34.9844 112.613 35.4135C112.035 35.8427 111.746 36.3965 111.746 37.075C111.746 37.5736 111.911 37.9819 112.241 38.3005C112.571 38.6048 112.977 38.8474 113.459 39.0274C113.954 39.1936 114.621 39.3736 115.46 39.5674C116.547 39.8303 117.42 40.0936 118.081 40.3565C118.741 40.6194 119.305 41.0212 119.773 41.5612C120.254 42.1012 120.495 42.8281 120.495 43.7419C120.495 44.5034 120.289 45.2026 119.876 45.8394C119.463 46.4623 118.837 46.9608 117.998 47.3346C117.159 47.6946 116.127 47.8746 114.903 47.8746Z" fill="white"/>
<path d="M127.987 47.8331C126.873 47.8331 125.876 47.5909 124.995 47.1062C124.129 46.6215 123.448 45.9571 122.952 45.1124C122.457 44.2539 122.209 43.2848 122.209 42.2048C122.209 41.1248 122.457 40.1626 122.952 39.3179C123.448 38.4597 124.129 37.795 124.995 37.3241C125.876 36.8397 126.873 36.5972 127.987 36.5972C128.978 36.5972 129.858 36.7983 130.628 37.1997C131.413 37.6012 132.018 38.1826 132.444 38.9441L130.938 39.9204C130.594 39.3942 130.168 38.9997 129.659 38.7364C129.15 38.4735 128.586 38.3419 127.967 38.3419C127.251 38.3419 126.605 38.5012 126.027 38.8197C125.463 39.1379 125.016 39.595 124.686 40.1902C124.369 40.7717 124.211 41.4433 124.211 42.2048C124.211 42.9801 124.369 43.6655 124.686 44.2608C125.016 44.8426 125.463 45.2924 126.027 45.611C126.605 45.9295 127.251 46.0884 127.967 46.0884C128.586 46.0884 129.15 45.9571 129.659 45.6939C130.168 45.431 130.594 45.0364 130.938 44.5102L132.444 45.4655C132.018 46.227 131.413 46.8153 130.628 47.2309C129.858 47.6324 128.978 47.8331 127.987 47.8331Z" fill="white"/>
<path d="M140.708 36.597C142.097 36.597 143.198 37.0058 144.009 37.8225C144.835 38.6257 145.247 39.8094 145.247 41.3741V47.7083H143.266V41.6025C143.266 40.5363 143.012 39.7334 142.503 39.1934C141.994 38.6534 141.265 38.3832 140.315 38.3832C139.242 38.3832 138.397 38.7017 137.778 39.3385C137.158 39.9617 136.849 40.8617 136.849 42.0385V47.7083H134.868V32.2981H136.849V38.2588C137.262 37.7327 137.798 37.3239 138.458 37.0334C139.133 36.7425 139.882 36.597 140.708 36.597Z" fill="white"/>
<path d="M153.658 47.8331C152.571 47.8331 151.594 47.5909 150.728 47.1062C149.861 46.6215 149.18 45.9571 148.685 45.1124C148.203 44.2539 147.963 43.2848 147.963 42.2048C147.963 41.1248 148.203 40.1626 148.685 39.3179C149.18 38.4597 149.861 37.795 150.728 37.3241C151.594 36.8397 152.571 36.5972 153.658 36.5972C154.744 36.5972 155.714 36.8397 156.567 37.3241C157.434 37.795 158.108 38.4597 158.589 39.3179C159.084 40.1626 159.332 41.1248 159.332 42.2048C159.332 43.2848 159.084 44.2539 158.589 45.1124C158.108 45.9571 157.434 46.6215 156.567 47.1062C155.714 47.5909 154.744 47.8331 153.658 47.8331ZM153.658 46.0884C154.359 46.0884 154.985 45.9295 155.535 45.611C156.1 45.2786 156.54 44.8215 156.856 44.24C157.173 43.6448 157.33 42.9662 157.33 42.2048C157.33 41.4433 157.173 40.7717 156.856 40.1902C156.54 39.595 156.1 39.1379 155.535 38.8197C154.985 38.5012 154.359 38.3419 153.658 38.3419C152.956 38.3419 152.323 38.5012 151.759 38.8197C151.209 39.1379 150.769 39.595 150.439 40.1902C150.122 40.7717 149.964 41.4433 149.964 42.2048C149.964 42.9662 150.122 43.6448 150.439 44.24C150.769 44.8215 151.209 45.2786 151.759 45.611C152.323 45.9295 152.956 46.0884 153.658 46.0884Z" fill="white"/>
<path d="M166.756 47.8331C165.669 47.8331 164.692 47.5909 163.826 47.1062C162.959 46.6215 162.278 45.9571 161.783 45.1124C161.301 44.2539 161.06 43.2848 161.06 42.2048C161.06 41.1248 161.301 40.1626 161.783 39.3179C162.278 38.4597 162.959 37.795 163.826 37.3241C164.692 36.8397 165.669 36.5972 166.756 36.5972C167.843 36.5972 168.812 36.8397 169.665 37.3241C170.532 37.795 171.206 38.4597 171.687 39.3179C172.183 40.1626 172.43 41.1248 172.43 42.2048C172.43 43.2848 172.183 44.2539 171.687 45.1124C171.206 45.9571 170.532 46.6215 169.665 47.1062C168.812 47.5909 167.843 47.8331 166.756 47.8331ZM166.756 46.0884C167.457 46.0884 168.083 45.9295 168.634 45.611C169.197 45.2786 169.638 44.8215 169.954 44.24C170.27 43.6448 170.429 42.9662 170.429 42.2048C170.429 41.4433 170.27 40.7717 169.954 40.1902C169.638 39.595 169.197 39.1379 168.634 38.8197C168.083 38.5012 167.457 38.3419 166.756 38.3419C166.054 38.3419 165.421 38.5012 164.857 38.8197C164.307 39.1379 163.867 39.595 163.537 40.1902C163.22 40.7717 163.062 41.4433 163.062 42.2048C163.062 42.9662 163.22 43.6448 163.537 44.24C163.867 44.8215 164.307 45.2786 164.857 45.611C165.421 45.9295 166.054 46.0884 166.756 46.0884Z" fill="white"/>
<path d="M175.17 32.2981H177.151V47.7083H175.17V32.2981Z" fill="white"/>
</svg>
