<svg width="80" height="112" viewBox="0 0 80 112" fill="none" xmlns="http://www.w3.org/2000/svg"><path d="M50.325 98.208h-24.65v11.561h24.65v-11.56z" fill="#69559B"/><path d="M42.472 103.879h-8.726v5.89h8.726v-5.89zm-8.726-77.654v26.612h-8.07v45.371h24.648V26.225H33.746z" fill="#FFD22E"/><path d="M42.035 2.231h-8.289v15.05h8.29V2.232z" fill="#69559B"/><path d="M42.035 17.282h-8.289v8.943h8.29v-8.943z" fill="#FFD22E"/><path d="M43.822 2.231A2.231 2.231 0 0 0 41.59 0H33.3a2.231 2.231 0 0 0-2.23 2.231v48.375h-5.84A2.231 2.231 0 0 0 23 52.837v56.932c0 1.232.999 2.231 2.231 2.231H49.88a2.231 2.231 0 0 0 2.23-2.231l-.053-92.367a2.231 2.231 0 0 0-4.462 0v6.592h-3.773V2.231zm-16.36 93.746v-4.481h3.609v4.481h-3.609zM39.36 41.663h-3.827v-4.045h3.827v4.045zm4.462-4.045h3.826v4.045h-3.826v-4.045zm-4.462 8.507v4.48h-3.827v-4.48h3.827zm4.462 0h3.826v4.48h-3.826v-4.48zm3.826 8.943v4.481h-3.826v-4.48h3.826zm0 8.944v4.699h-3.826v-4.7h3.826zm0 9.161v4.7h-3.826v-4.7h3.826zm-8.288 4.7h-3.827v-4.7h3.827v4.7zm-8.29 0h-3.608v-4.7h3.609v4.7zm-3.608 4.462h3.609v4.699h-3.609v-4.7zm8.07 0h3.828v4.699h-3.827v-4.7zm8.29 0h3.826v4.699h-3.826v-4.7zm3.826-49.18h-3.826v-4.699h3.826v4.7zm-8.288 0h-3.827v-4.699h3.827v4.7zm-3.827 21.913h3.827v4.481h-3.827v-4.48zm3.827 8.944v4.699h-3.827v-4.7h3.827zm-8.29 4.699h-3.608v-4.7h3.609v4.7zm4.463 22.785h3.827v4.48h-3.827v-4.48zm8.289 0h3.826v4.48h-3.826v-4.48zm-8.29-67.502v-4.481h3.828v4.481h-3.827zm0-19.532h3.828v10.589h-3.827V4.462zm-4.461 50.606v4.481h-3.609v-4.48h3.609zm4.462 52.47v-1.427h4.263v1.427h-4.263zm12.115 0h-3.39v-3.658a2.231 2.231 0 0 0-2.231-2.232h-8.725a2.231 2.231 0 0 0-2.231 2.232v3.658h-3.609v-7.099h20.186v7.099z" fill="#424A60"/><path d="M47.826 12.494a2.231 2.231 0 0 0 2.231-2.231V9.37a2.231 2.231 0 1 0-4.462 0v.893c0 1.232 1 2.231 2.231 2.231z" fill="#424A60"/><path d="M56.515 100.302h20.908v9.806H56.515v-9.806z" fill="#69559B"/><path d="M63.176 105.112h7.4v4.996h-7.4v-4.996zm7.401-65.867v22.572h6.846v38.485H56.515V39.245h14.062z" fill="#FFD22E"/><path d="M63.546 18.893h7.03v12.766h-7.03V18.893z" fill="#69559B"/><path d="M63.546 31.659h7.03v7.586h-7.03v-7.586z" fill="#FFD22E"/><path d="M62.031 18.892c0-1.045.847-1.892 1.892-1.892h7.031c1.045 0 1.893.847 1.893 1.892v41.033H77.8c1.045 0 1.892.847 1.892 1.892v48.291A1.892 1.892 0 0 1 77.8 112H56.893A1.892 1.892 0 0 1 55 110.108l.045-78.347a1.892 1.892 0 1 1 3.785 0v5.591h3.201v-18.46zM75.907 98.41v-3.8h-3.06v3.8h3.06zM65.816 52.34h3.246v-3.431h-3.246v3.43zm-3.785-3.431h-3.246v3.43h3.246v-3.43zm3.785 7.216v3.8h3.246v-3.8h-3.246zm-3.785 0h-3.246v3.8h3.246v-3.8zm-3.246 7.586v3.8h3.246v-3.8h-3.246zm0 7.586v3.986h3.246v-3.986h-3.246zm0 7.77v3.986h3.246v-3.986h-3.246zm7.03 3.986h3.247v-3.986h-3.246v3.986zm7.032 0h3.06v-3.986h-3.06v3.986zm3.06 3.785h-3.06v3.986h3.06v-3.986zm-6.845 0h-3.246v3.986h3.246v-3.986zm-7.031 0h-3.246v3.986h3.246v-3.986zm-3.246-41.714h3.246v-3.986h-3.246v3.986zm7.03 0h3.247v-3.986h-3.246v3.986zm3.247 18.587h-3.246v3.8h3.246v-3.8zm-3.246 7.586v3.986h3.246v-3.986h-3.246zm7.03 3.986h3.061v-3.986h-3.06v3.986zm-3.784 19.326h-3.246v3.801h3.246v-3.801zm-7.031 0h-3.246v3.801h3.246v-3.801zm7.03-57.256v-3.8h-3.245v3.8h3.246zm0-16.567h-3.245v8.981h3.246v-8.981zm3.786 42.925v3.8h3.06v-3.8h-3.06zm-3.785 44.505v-1.21h-3.616v1.21h3.616zm-10.277 0h2.876v-3.103c0-1.045.847-1.892 1.892-1.892h7.401c1.045 0 1.893.847 1.893 1.892v3.103h3.06v-6.021H58.785v6.021z" fill="#424A60"/><path d="M58.634 27.598a1.892 1.892 0 0 1-1.892-1.893v-.757a1.892 1.892 0 0 1 3.785 0v.757a1.892 1.892 0 0 1-1.893 1.893z" fill="#424A60"/><path d="M18.773 102.525H1.838v7.942h16.935v-7.942z" fill="#69559B"/><path d="M13.378 106.421H7.383v4.046h5.995v-4.046zM7.383 53.07v18.284H1.838v31.171h16.935V53.071H7.383z" fill="#FFD22E"/><path d="M13.078 36.586H7.383v10.34h5.695v-10.34z" fill="#69559B"/><path d="M13.078 46.926H7.383v6.144h5.695v-6.144z" fill="#FFD22E"/><path d="M14.305 36.586c0-.847-.686-1.533-1.533-1.533H7.078c-.847 0-1.533.686-1.533 1.533V69.82H1.533C.686 69.82 0 70.507 0 71.353v39.114C0 111.314.686 112 1.533 112h16.934c.847 0 1.533-.686 1.533-1.533l-.037-63.458a1.533 1.533 0 1 0-3.065 0v4.528h-2.593V36.586zm-11.24 64.406v-3.079h2.48v3.079h-2.48zm8.175-37.316H8.61v-2.779h2.63v2.78zm3.065-2.779h2.63v2.78h-2.63v-2.78zm-3.066 5.845v3.078H8.61v-3.078h2.63zm3.066 0h2.63v3.078h-2.63v-3.078zm2.63 6.144v3.079h-2.63v-3.079h2.63zm0 6.145v3.228h-2.63v-3.228h2.63zm0 6.294v3.228h-2.63v-3.228h2.63zm-5.695 3.228H8.61v-3.228h2.63v3.228zm-5.695 0h-2.48v-3.228h2.48v3.228zm-2.48 3.066h2.48v3.228h-2.48V91.62zm5.545 0h2.63v3.228H8.61V91.62zm5.695 0h2.63v3.228h-2.63V91.62zm2.63-33.787h-2.63v-3.229h2.63v3.229zm-5.695 0H8.61v-3.229h2.63v3.229zM8.61 72.886h2.63v3.079H8.61v-3.079zm2.63 6.145v3.228H8.61v-3.228h2.63zm-5.695 3.228h-2.48v-3.228h2.48v3.228zM8.61 97.913h2.63v3.079H8.61v-3.079zm5.695 0h2.63v3.079h-2.63v-3.079zM8.61 51.537V48.46h2.63v3.078H8.61zm0-13.419h2.63v7.275H8.61v-7.275zM5.545 72.886v3.079h-2.48v-3.079h2.48zm3.065 36.048v-.98h2.93v.98H8.61zm8.324 0h-2.33v-2.513c0-.847-.685-1.533-1.532-1.533H7.078c-.847 0-1.533.686-1.533 1.533v2.513h-2.48v-4.877h13.869v4.877z" fill="#424A60"/><path d="M17.056 43.636c.847 0 1.533-.686 1.533-1.532v-.613a1.533 1.533 0 1 0-3.065 0v.613c0 .846.686 1.532 1.532 1.532z" fill="#424A60"/></svg>