<svg width="130" height="130" viewBox="0 0 130 130" fill="none" xmlns="http://www.w3.org/2000/svg"><path d="M117.812 24.125H12.188v65h105.624v-65z" fill="#fff"/><path d="M117.812 24.125H12.188v16.25h105.624v-16.25z" fill="#442A82"/><path d="M116.577 16H13.42c-5.16 0-9.357 4.188-9.357 9.335v73.946a2.03 2.03 0 0 0 2.03 2.031h117.813a2.03 2.03 0 0 0 2.032-2.03V25.334c0-5.147-4.2-9.335-9.361-9.335zM12.187 87.094V26.156c0-1.121.91-2.031 2.032-2.031H115.78c1.122 0 2.031.91 2.031 2.031v60.938a2.031 2.031 0 0 1-2.031 2.031H14.219a2.031 2.031 0 0 1-2.031-2.031z" fill="#424A60"/><path d="M127.969 97.25H2.031A2.03 2.03 0 0 0 0 99.281c0 4.485 3.648 8.133 8.133 8.133h113.734c4.485 0 8.133-3.648 8.133-8.133a2.03 2.03 0 0 0-2.031-2.031z" fill="#B9BBC1"/><path d="M36.563 34.281h-14.22a2.03 2.03 0 0 1-2.03-2.031 2.03 2.03 0 0 1 2.03-2.031h14.22a2.03 2.03 0 0 1 2.03 2.031 2.03 2.03 0 0 1-2.03 2.031z" fill="#FFD22E"/><path d="M73.125 34.281h-2.031a2.03 2.03 0 0 1-2.031-2.031 2.03 2.03 0 0 1 2.03-2.031h2.032a2.03 2.03 0 0 1 2.031 2.031 2.03 2.03 0 0 1-2.031 2.031zm10.156 0H81.25a2.03 2.03 0 0 1-2.031-2.031 2.03 2.03 0 0 1 2.031-2.031h2.031a2.03 2.03 0 0 1 2.031 2.031 2.03 2.03 0 0 1-2.03 2.031zm10.157 0h-2.032a2.03 2.03 0 0 1-2.031-2.031 2.03 2.03 0 0 1 2.031-2.031h2.031a2.03 2.03 0 0 1 2.032 2.031 2.03 2.03 0 0 1-2.031 2.031zm10.156 0h-2.032a2.03 2.03 0 0 1-2.03-2.031 2.03 2.03 0 0 1 2.03-2.031h2.032a2.03 2.03 0 0 1 2.031 2.031 2.03 2.03 0 0 1-2.031 2.031z" fill="#fff"/><path d="M56.875 83.031H22.344A2.031 2.031 0 0 1 20.312 81V48.5c0-1.122.91-2.031 2.032-2.031h34.531c1.122 0 2.031.91 2.031 2.031V81c0 1.122-.91 2.031-2.031 2.031z" fill="#FFD22E"/><path d="M105.625 50.531H67.031A2.03 2.03 0 0 1 65 48.5a2.03 2.03 0 0 1 2.031-2.031h38.594a2.03 2.03 0 0 1 2.031 2.031 2.03 2.03 0 0 1-2.031 2.031z" fill="#442A82"/><path d="M83.281 66.781h-16.25A2.03 2.03 0 0 1 65 64.75a2.03 2.03 0 0 1 2.031-2.031h16.25a2.03 2.03 0 0 1 2.031 2.031 2.03 2.03 0 0 1-2.03 2.031zm0 8.125h-16.25A2.03 2.03 0 0 1 65 72.875a2.03 2.03 0 0 1 2.031-2.031h16.25a2.03 2.03 0 0 1 2.031 2.031 2.03 2.03 0 0 1-2.03 2.031zm0 8.125h-16.25A2.03 2.03 0 0 1 65 81a2.03 2.03 0 0 1 2.031-2.031h16.25A2.03 2.03 0 0 1 85.312 81a2.03 2.03 0 0 1-2.03 2.031zm24.375-16.25h-16.25a2.03 2.03 0 0 1-2.031-2.031 2.03 2.03 0 0 1 2.031-2.031h16.25a2.03 2.03 0 1 1 0 4.062zm0 8.125h-16.25a2.03 2.03 0 0 1-2.031-2.031 2.03 2.03 0 0 1 2.031-2.031h16.25a2.03 2.03 0 1 1 0 4.062zm0 8.125h-16.25A2.03 2.03 0 0 1 89.375 81a2.03 2.03 0 0 1 2.031-2.031h16.25a2.03 2.03 0 1 1 0 4.062z" fill="#B9BBC1"/><path d="M93.438 58.656H67.03A2.03 2.03 0 0 1 65 56.625a2.03 2.03 0 0 1 2.031-2.031h26.406a2.03 2.03 0 0 1 2.032 2.031 2.03 2.03 0 0 1-2.031 2.031z" fill="#442A82"/><path d="M56.875 101.312h16.25a4.062 4.062 0 0 0 4.063-4.062H52.811a4.062 4.062 0 0 0 4.063 4.062z" fill="#8B8996"/></svg>