<svg width="89" height="102" viewBox="0 0 89 102" fill="none" xmlns="http://www.w3.org/2000/svg"><path fill="#69559B" d="M11 13h66v74H11z"/><path d="M.01 3.377l6.607 84.69a3.131 3.131 0 0 0 2.172 2.742l34.766 11.045a3.125 3.125 0 0 0 1.89 0L80.21 90.809a3.131 3.131 0 0 0 2.172-2.741L88.99 3.377A3.13 3.13 0 0 0 85.874 0H3.127A3.13 3.13 0 0 0 .01 3.377zm72.037 26.276h-43.06l1.3 12.007h40.824L68.44 75.89 44.5 83.495 20.56 75.89l-1.395-17.883h12.566v8.772l13.105 3.524 13.027-3.524 1.01-13.98H18.76l-2.663-34.14h56.808l-.857 10.994z" fill="#FFD22E"/></svg>