<svg width="94" height="94" viewBox="0 0 94 94" fill="none" xmlns="http://www.w3.org/2000/svg"><path d="M76.566 20.322V91.11a2.89 2.89 0 0 1-2.889 2.889H2.889A2.89 2.89 0 0 1 0 91.109V20.323a2.89 2.89 0 0 1 2.889-2.89h70.788a2.89 2.89 0 0 1 2.889 2.89z" fill="#424A60"/><path d="M8.704 20.297V91.11c0 1.595-.294 2.89-.657 2.89H0V17.407h8.047c.363 0 .657 1.295.657 2.89z" fill="#FFD22E"/><path d="M94 2.889v70.788a2.89 2.89 0 0 1-2.889 2.889H20.323a2.89 2.89 0 0 1-2.889-2.889V2.889A2.89 2.89 0 0 1 20.323 0H91.11A2.89 2.89 0 0 1 94 2.889z" fill="#69559B"/><path d="M76.626 18.144h-5.974a3.008 3.008 0 1 0 0 6.017h5.974a3.008 3.008 0 1 0 0-6.017zm-14.67 3.01a3.007 3.007 0 0 1-3.007 3.008H34.807a3.009 3.009 0 0 1 0-6.018h24.142a3.009 3.009 0 0 1 3.008 3.01z" fill="#FFEB99"/><path d="M52.71 24.162H31.8v-6.018h20.91a3.009 3.009 0 0 1 0 6.018z" fill="#FFD22E"/><path d="M76.626 35.276h-5.974a3.009 3.009 0 0 0 0 6.017h5.974a3.009 3.009 0 0 0 0-6.017zm-14.67 3.004a3.009 3.009 0 0 1-3.007 3.01H34.807a3.009 3.009 0 0 1 0-6.017h24.142a3.007 3.007 0 0 1 3.008 3.008z" fill="#FFEB99"/><path d="M55.717 38.28a3.009 3.009 0 0 1-3.008 3.01H31.8v-6.017h20.91a3.007 3.007 0 0 1 3.008 3.008z" fill="#FFD22E"/><path d="M76.626 52.404h-5.974a3.008 3.008 0 1 0 0 6.017h5.974a3.008 3.008 0 1 0 0-6.017zm-14.67 3.008a3.009 3.009 0 0 1-3.007 3.01H34.807a3.009 3.009 0 0 1 0-6.017h24.142a3.008 3.008 0 0 1 3.008 3.007z" fill="#FFEB99"/><path d="M55.717 55.412a3.009 3.009 0 0 1-3.008 3.01H31.8v-6.017h20.91a3.008 3.008 0 0 1 3.008 3.007z" fill="#FFD22E"/></svg>