<svg width="130" height="130" viewBox="0 0 130 130" fill="none" xmlns="http://www.w3.org/2000/svg"><path d="M123.276 15.69H6.724A6.724 6.724 0 0 0 0 22.414v85.172a6.724 6.724 0 0 0 6.724 6.724h116.552a6.724 6.724 0 0 0 6.724-6.724V22.414a6.725 6.725 0 0 0-6.724-6.724zm-11.207 4.482h2.241a2.242 2.242 0 1 1 0 4.483h-2.241a2.242 2.242 0 1 1 0-4.483zm-62.759 0h53.793a2.242 2.242 0 1 1 0 4.483H49.31a2.242 2.242 0 0 1 0-4.483zm-11.207 0h2.242a2.242 2.242 0 0 1 0 4.483h-2.242a2.242 2.242 0 0 1 0-4.483zm-8.965 0h2.241a2.242 2.242 0 0 1 0 4.483h-2.241a2.242 2.242 0 0 1 0-4.483zm-8.966 0a2.242 2.242 0 1 1 0 4.484 2.242 2.242 0 0 1 0-4.484zm-6.724 0a2.242 2.242 0 1 1 0 4.484 2.242 2.242 0 0 1 0-4.484zm-6.724 0a2.242 2.242 0 1 1 0 4.484 2.242 2.242 0 0 1 0-4.484zm118.793 22.414v65a2.241 2.241 0 0 1-2.241 2.242H6.724a2.242 2.242 0 0 1-2.241-2.242V31.379a2.242 2.242 0 0 1 2.241-2.241h116.552a2.241 2.241 0 0 1 2.241 2.241v11.207zm-2.241-17.93h-2.242a2.242 2.242 0 0 1 0-4.484h2.242a2.241 2.241 0 0 1 0 4.483z" fill="#424A60"/><path d="M65 109.828h58.276a2.241 2.241 0 0 0 2.241-2.242v-65H65v67.242zm33.62-56.035v-2.241a2.242 2.242 0 0 1 2.242-2.242h15.69a2.241 2.241 0 0 1 2.241 2.242v20.172a2.241 2.241 0 0 1-2.241 2.242h-15.69a2.242 2.242 0 0 1-2.241-2.242v-17.93zm-26.896 0v-2.241a2.242 2.242 0 0 1 2.242-2.242h15.69a2.242 2.242 0 0 1 2.24 2.242v20.172a2.242 2.242 0 0 1-2.24 2.242h-15.69a2.242 2.242 0 0 1-2.242-2.242v-17.93zm2.241 26.897h42.587a2.241 2.241 0 0 1 2.241 2.241v17.931a2.241 2.241 0 0 1-2.241 2.242H73.965a2.242 2.242 0 0 1-2.241-2.242v-17.93a2.242 2.242 0 0 1 2.241-2.242z" fill="#fff"/><path d="M6.724 24.655a2.241 2.241 0 1 0 0-4.483 2.241 2.241 0 0 0 0 4.483z" fill="#69559B"/><path d="M13.448 24.655a2.241 2.241 0 1 0 0-4.483 2.241 2.241 0 0 0 0 4.483z" fill="#FFE169"/><path d="M20.172 24.655a2.241 2.241 0 1 0 0-4.483 2.241 2.241 0 0 0 0 4.483z" fill="#69559B"/><path d="M29.138 24.655h2.242a2.242 2.242 0 0 0 0-4.483h-2.242a2.242 2.242 0 0 0 0 4.483zm8.965 0h2.242a2.242 2.242 0 0 0 0-4.483h-2.242a2.242 2.242 0 0 0 0 4.483zm73.966 0h2.242a2.241 2.241 0 0 0 0-4.483h-2.242a2.242 2.242 0 0 0 0 4.483zm11.207-4.483h-2.241a2.242 2.242 0 1 0 0 4.483h2.241a2.242 2.242 0 1 0 0-4.483zM49.31 24.655h53.794a2.242 2.242 0 0 0 0-4.483H49.311a2.242 2.242 0 0 0 0 4.483z" fill="#E4EAF6"/><path d="M123.276 29.138H65v13.448h60.517V31.38a2.24 2.24 0 0 0-2.241-2.242zM80.69 38.103h-8.966a2.242 2.242 0 0 1 0-4.483h8.966a2.242 2.242 0 0 1 0 4.483zm17.93 0h-8.965a2.242 2.242 0 0 1 0-4.483h8.966a2.242 2.242 0 0 1 0 4.483zm17.932 0h-8.966a2.241 2.241 0 0 1 0-4.483h8.966a2.242 2.242 0 0 1 0 4.483z" fill="#69559B"/><path d="M80.69 33.62h-8.966a2.242 2.242 0 0 0 0 4.484h8.966a2.242 2.242 0 0 0 0-4.483zm17.93 0h-8.965a2.242 2.242 0 0 0 0 4.484h8.966a2.242 2.242 0 0 0 0-4.483zm17.932 0h-8.966a2.241 2.241 0 0 0 0 4.484h8.966a2.242 2.242 0 0 0 0-4.483z" fill="#FFE169"/><path d="M73.966 73.966h15.69a2.242 2.242 0 0 0 2.24-2.242V53.793a2.242 2.242 0 0 1-2.24 2.241h-15.69a2.242 2.242 0 0 1-2.242-2.241v17.931a2.242 2.242 0 0 0 2.242 2.242zm26.896 0h15.69a2.241 2.241 0 0 0 2.241-2.242V53.793a2.241 2.241 0 0 1-2.241 2.241h-15.69a2.242 2.242 0 0 1-2.241-2.241v17.931a2.242 2.242 0 0 0 2.241 2.242z" fill="#DEE3ED"/><path d="M73.966 56.035h15.69a2.242 2.242 0 0 0 2.24-2.242v-2.242a2.242 2.242 0 0 0-2.24-2.24h-15.69a2.242 2.242 0 0 0-2.242 2.24v2.242a2.242 2.242 0 0 0 2.242 2.242z" fill="#FFE169"/><path d="M100.862 56.035h15.689a2.242 2.242 0 0 0 2.242-2.242v-2.242a2.242 2.242 0 0 0-2.242-2.24h-15.689a2.242 2.242 0 0 0-2.242 2.24v2.242a2.242 2.242 0 0 0 2.242 2.242z" fill="#69559B"/><path d="M78.448 82.931v17.931a2.242 2.242 0 0 1-2.241 2.242h40.345a2.241 2.241 0 0 0 2.241-2.242v-17.93a2.241 2.241 0 0 0-2.241-2.242H76.207a2.242 2.242 0 0 1 2.242 2.241z" fill="#DEE3ED"/><path d="M73.966 103.103h2.241a2.241 2.241 0 0 0 2.242-2.241V82.931a2.242 2.242 0 0 0-2.242-2.242h-2.241a2.242 2.242 0 0 0-2.242 2.242v17.931a2.241 2.241 0 0 0 2.242 2.241z" fill="#69559B"/><path d="M65 29.138H6.724a2.242 2.242 0 0 0-2.241 2.241v76.207a2.242 2.242 0 0 0 2.241 2.242H65v-80.69zm-42.586 6.724h35.862a2.242 2.242 0 0 1 0 4.483H22.414a2.242 2.242 0 0 1 0-4.483zm-11.207 0h2.241a2.242 2.242 0 0 1 0 4.483h-2.241a2.242 2.242 0 0 1 0-4.483zM33.62 49.31h-6.725a2.242 2.242 0 0 1 0-4.483h6.725a2.242 2.242 0 0 1 0 4.483zm2.24 6.725a2.242 2.242 0 0 1-2.24 2.241h-6.725a2.242 2.242 0 0 1 0-4.483h6.724a2.241 2.241 0 0 1 2.242 2.242zm-24.654 15.69h2.241a2.242 2.242 0 0 1 0 4.482h-2.241a2.242 2.242 0 0 1 0-4.483zM8.965 65a2.242 2.242 0 0 1 2.242-2.242h2.241a2.242 2.242 0 0 1 0 4.483h-2.241A2.242 2.242 0 0 1 8.965 65zm6.725 15.69h2.241a2.242 2.242 0 0 1 0 4.483H15.69a2.242 2.242 0 0 1 0-4.483zm2.241-22.414H15.69a2.242 2.242 0 0 1 0-4.483h2.241a2.242 2.242 0 0 1 0 4.483zm0-8.966H15.69a2.242 2.242 0 0 1 0-4.483h2.241a2.242 2.242 0 0 1 0 4.483zm-4.483 53.793h-2.241a2.241 2.241 0 1 1 0-4.482h2.241a2.242 2.242 0 0 1 0 4.482zm4.483-8.965H15.69a2.242 2.242 0 0 1 0-4.483h2.241a2.242 2.242 0 0 1 0 4.483zm40.345 8.965H22.414a2.241 2.241 0 1 1 0-4.482h35.862a2.242 2.242 0 0 1 0 4.482zm-31.38-13.448h6.725a2.242 2.242 0 0 1 0 4.483h-6.725a2.242 2.242 0 0 1 0-4.483zm-2.241-6.724a2.242 2.242 0 0 1 2.241-2.241h6.725a2.242 2.242 0 0 1 0 4.483h-6.725a2.242 2.242 0 0 1-2.241-2.242zm33.62 11.207H42.587a2.242 2.242 0 0 1 0-4.483h15.69a2.242 2.242 0 0 1 0 4.483zm0-8.966H42.587a2.242 2.242 0 0 1 0-4.483h15.69a2.242 2.242 0 0 1 0 4.483zm0-8.965h-35.86a2.242 2.242 0 0 1 0-4.483h35.862a2.242 2.242 0 0 1 0 4.483zm0-8.965h-35.86a2.242 2.242 0 0 1 0-4.484h35.862a2.242 2.242 0 0 1 0 4.483zm0-8.966H42.587a2.242 2.242 0 0 1 0-4.483h15.69a2.242 2.242 0 0 1 0 4.483zm0-8.966H42.587a2.242 2.242 0 0 1 0-4.483h15.69a2.242 2.242 0 0 1 0 4.483z" fill="#464655"/><path d="M22.414 40.345h35.862a2.242 2.242 0 0 0 0-4.483H22.414a2.242 2.242 0 0 0 0 4.483z" fill="#FFE169"/><path d="M33.62 44.828h-6.723a2.242 2.242 0 0 0 0 4.483h6.724a2.242 2.242 0 0 0 0-4.483zm0 8.965h-6.723a2.242 2.242 0 0 0 0 4.483h6.724a2.242 2.242 0 0 0 0-4.483z" fill="#69559B"/><path d="M58.276 62.758H22.414a2.242 2.242 0 0 0 0 4.483h35.862a2.242 2.242 0 0 0 0-4.483z" fill="#FFE169"/><path d="M58.276 71.724H22.414a2.242 2.242 0 0 0 0 4.483h35.862a2.242 2.242 0 0 0 0-4.483zm0-26.896h-15.69a2.242 2.242 0 0 0 0 4.483h15.69a2.242 2.242 0 0 0 0-4.483zm0 8.965h-15.69a2.242 2.242 0 0 0 0 4.483h15.69a2.242 2.242 0 0 0 0-4.483zm0 26.897h-15.69a2.242 2.242 0 0 0 0 4.483h15.69a2.242 2.242 0 0 0 0-4.483zm0 8.965h-15.69a2.242 2.242 0 0 0 0 4.483h15.69a2.242 2.242 0 0 0 0-4.483z" fill="#fff"/><path d="M26.896 85.172h6.725a2.242 2.242 0 0 0 0-4.483h-6.725a2.242 2.242 0 0 0 0 4.483zm0 8.966h6.725a2.242 2.242 0 0 0 0-4.483h-6.725a2.242 2.242 0 0 0 0 4.483z" fill="#69559B"/><path d="M58.276 98.62H22.414a2.242 2.242 0 0 0 0 4.484h35.862a2.242 2.242 0 0 0 0-4.483zM11.207 40.345h2.241a2.242 2.242 0 0 0 0-4.483h-2.241a2.242 2.242 0 0 0 0 4.483zm6.723 4.483h-2.24a2.242 2.242 0 0 0 0 4.482h2.24a2.242 2.242 0 0 0 0-4.483zm0 8.965h-2.24a2.242 2.242 0 0 0 0 4.483h2.24a2.242 2.242 0 0 0 0-4.483zm-6.723 13.448h2.241a2.242 2.242 0 0 0 0-4.483h-2.241a2.242 2.242 0 0 0 0 4.483zm0 8.966h2.241a2.242 2.242 0 0 0 0-4.483h-2.241a2.242 2.242 0 0 0 0 4.483zm4.483 8.965h2.24a2.242 2.242 0 0 0 0-4.483h-2.24a2.242 2.242 0 0 0 0 4.483zm2.24 4.483h-2.24a2.242 2.242 0 0 0 0 4.483h2.24a2.242 2.242 0 0 0 0-4.483zm-4.482 8.965h-2.241a2.242 2.242 0 0 0 0 4.484h2.241a2.242 2.242 0 0 0 0-4.483z" fill="#FFE169"/></svg>