<svg width="76" height="94" viewBox="0 0 76 94" fill="none" xmlns="http://www.w3.org/2000/svg">
<path opacity="0.65" d="M1.28415 14.5065C2.12884 14.6734 2.94845 14.8543 3.74377 15.0488L3.50625 16.0202C2.7259 15.8294 1.92089 15.6516 1.09036 15.4876L1.28415 14.5065ZM8.44002 16.4487C10.0626 17.0291 11.5626 17.6774 12.9502 18.3874L12.4947 19.2776C11.1476 18.5883 9.68738 17.9569 8.10323 17.3903L8.44002 16.4487ZM17.1384 20.9489C18.5222 21.9558 19.7582 23.0406 20.8643 24.1918L20.1431 24.8847C19.0778 23.7758 17.8863 22.7297 16.5501 21.7575L17.1384 20.9489ZM23.9545 28.0471C24.8743 29.4281 25.6632 30.8699 26.3447 32.3571L25.4356 32.7737C24.7739 31.3297 24.0102 29.9346 23.1222 28.6015L23.9545 28.0471ZM28.0957 36.953C28.5842 38.5099 28.9901 40.0971 29.3366 41.6994L28.3592 41.9108C28.0178 40.3325 27.6194 38.7753 27.1415 37.2524L28.0957 36.953ZM30.2172 46.5084C30.4679 48.1207 30.6829 49.7353 30.8847 51.3363L29.8926 51.4613C29.6913 49.8644 29.4776 48.2606 29.229 46.6621L30.2172 46.5084ZM31.483 56.1654C31.6904 57.7972 31.9081 59.3979 32.162 60.9536L31.175 61.1146C30.9184 59.542 30.699 57.9281 30.491 56.2914L31.483 56.1654ZM33.1108 65.6883C33.5082 67.2924 33.9821 68.8155 34.5662 70.2383L33.6411 70.6181C33.0344 69.14 32.5464 67.5686 32.1401 65.9289L33.1108 65.6883ZM36.8272 74.3894C37.7365 75.6538 38.8117 76.7819 40.0953 77.7504L39.493 78.5486C38.1239 77.5156 36.9793 76.3136 36.0153 74.9733L36.8272 74.3894ZM44.1985 79.9991C45.565 80.5248 47.0958 80.9356 48.8146 81.216L48.6536 82.2029C46.8748 81.9128 45.2768 81.4853 43.8395 80.9325L44.1985 79.9991ZM53.5711 81.6373C55.0584 81.6732 56.654 81.6335 58.3663 81.5126L58.4368 82.5101C56.6964 82.633 55.0691 82.6737 53.547 82.637L53.5711 81.6373ZM63.1814 80.9984C64.6923 80.7874 66.2793 80.5234 67.9465 80.2037L68.1348 81.1858C66.4524 81.5085 64.8487 81.7753 63.3197 81.9888L63.1814 80.9984ZM72.6186 79.2095C73.418 79.0238 74.2335 78.8267 75.0657 78.6182L75.3088 79.5883C74.4712 79.7981 73.6501 79.9965 72.845 80.1836L72.6186 79.2095Z" fill="#2B2A2F"/>
</svg>
