<svg width="25" height="25" viewBox="0 0 25 25" fill="none" xmlns="http://www.w3.org/2000/svg">
<g opacity="0.65" clip-path="url(#clip0)">
<path d="M4.2632 5.60557C2.98916 5.07442 1.75509 4.87521 0.959091 5.07313C0.701761 5.13897 0.513475 5.24131 0.38827 5.37734C0.372535 5.39229 0.331669 5.43269 0.296956 5.49457C0.260162 5.55667 0.245061 5.60795 0.242168 5.61895C0.176782 5.80266 0.177057 6.01766 0.241921 6.27531C0.443012 7.0684 1.20257 8.06144 2.27505 8.93209C3.14214 9.63579 4.27417 10.2729 5.84164 11.1546C6.10749 11.3042 6.38706 11.4617 6.68071 11.6287L6.56923 14.1291L6.56081 14.1238C6.43883 14.0518 6.29069 14.0306 6.15907 14.0652C6.01943 14.0989 5.89932 14.189 5.82711 14.3103L5.51227 14.8361C5.43904 14.9576 5.4168 15.1057 5.45169 15.2443C5.48693 15.3842 5.57381 15.5013 5.69703 15.5741L6.48366 16.044L6.46809 16.4016C6.35906 16.3528 6.23546 16.3418 6.12383 16.3713C5.98218 16.4056 5.86433 16.4934 5.79143 16.6162L5.47576 17.1443C5.40338 17.265 5.38161 17.4122 5.41684 17.5521C5.45191 17.6914 5.53905 17.808 5.66167 17.8799L6.38296 18.3114L6.26998 20.8536C6.26766 20.9105 6.27344 20.9686 6.28854 21.0286C6.33283 21.196 6.43432 21.336 6.57556 21.4212L7.61621 22.043C7.73426 22.1136 7.87522 22.1345 7.99592 22.103C8.17495 22.0611 8.31473 21.921 8.3596 21.7418L9.88525 16.0714C9.89277 16.0436 9.92708 15.9602 9.94653 15.9277L11.0067 14.1537C12.737 15.1277 14.3869 15.9682 15.7953 16.5923C15.9262 16.6508 16.0533 16.7053 16.1791 16.7586L16.7981 20.6924C16.8004 20.7117 16.804 20.7331 16.8108 20.7598C16.8588 20.9351 16.9719 21.0899 17.1277 21.1867L17.6125 21.4768C17.7302 21.5488 17.8704 21.5709 17.9924 21.5388C18.1797 21.4948 18.3239 21.3384 18.3568 21.1497L18.9607 18.1207C18.9665 18.0945 18.9942 18.023 19.0089 17.9984L19.1753 17.7176C19.3909 17.7381 19.5715 17.7306 19.7227 17.6947C19.9244 17.6446 20.0807 17.5361 20.1737 17.3805L20.1796 17.3688L20.1809 17.3656C20.2724 17.2069 20.2938 17.0257 20.2423 16.8211C20.2029 16.6744 20.1251 16.5133 20.0051 16.3323L20.1754 16.047C20.1896 16.0247 20.2382 15.9674 20.2591 15.9505L22.6358 13.9886C22.7884 13.8669 22.8575 13.6698 22.8112 13.4859L22.8105 13.4832C22.7785 13.3559 22.6969 13.2471 22.5802 13.1777L22.082 12.881C21.9285 12.7946 21.7401 12.7683 21.5591 12.8111C21.5372 12.8166 21.5204 12.8219 21.5112 12.8249L17.7395 14.1469C17.6337 14.0615 17.5252 13.9755 17.4123 13.8873C16.1939 12.9411 14.6713 11.8857 12.9968 10.825L14.0593 9.04936C14.0755 9.02083 14.1323 8.94948 14.1577 8.92642L18.4221 4.90529C18.5611 4.7803 18.619 4.59242 18.5735 4.4118C18.5411 4.28283 18.4592 4.17305 18.3409 4.10289L17.2937 3.47641C17.1528 3.39636 16.9831 3.37424 16.8141 3.41503C16.7575 3.42928 16.7045 3.4511 16.6565 3.47878L14.4702 4.78221L13.748 4.35138C13.6272 4.27866 13.4794 4.25737 13.3418 4.29201C13.2035 4.32683 13.0871 4.41322 13.0126 4.53576L12.6968 5.0646C12.6242 5.18564 12.6025 5.33322 12.6372 5.47082C12.6665 5.58745 12.7342 5.69157 12.8269 5.76287L12.5206 5.94526L11.7335 5.47475C11.6122 5.40254 11.4644 5.38125 11.3264 5.41599C11.1875 5.45097 11.0707 5.53744 10.9977 5.65998L10.683 6.18644C10.6091 6.30817 10.5874 6.45679 10.6222 6.5951C10.6572 6.73404 10.7474 6.85451 10.8683 6.92506L10.8733 6.92839L8.72404 8.21013C8.43421 8.02723 8.15846 7.85395 7.8979 7.68742C6.38412 6.72782 5.29118 6.0349 4.2632 5.60557Z" fill="black"/>
</g>
<defs>
<clipPath id="clip0">
<rect width="20.126" height="20.126" fill="white" transform="translate(4.91357 24.8315) rotate(-104.131)"/>
</clipPath>
</defs>
</svg>
