<svg width="54" height="44" viewBox="0 0 54 44" fill="none" xmlns="http://www.w3.org/2000/svg">
<path d="M31.8671 29.5774C35.1313 28.2013 37.708 26.3282 39.5963 23.9573C41.4843 21.587 42.4284 19.0056 42.4284 16.2132C42.4284 13.4207 41.4843 10.8391 39.5955 8.46869C37.7075 6.09824 35.1311 4.2249 31.8666 2.84848C28.6021 1.47227 25.0514 0.784424 21.2141 0.784424C17.3771 0.784424 13.8264 1.47269 10.5617 2.84848C7.29723 4.2248 4.72075 6.09813 2.83264 8.46869C0.944319 10.8396 0 13.4207 0 16.2133C0 18.6037 0.714229 20.8547 2.14047 22.964C3.56661 25.073 5.52543 26.8512 8.01631 28.2974C7.81556 28.7799 7.60964 29.2213 7.39866 29.6237C7.18757 30.0254 6.93668 30.4118 6.64517 30.7837C6.35386 31.1558 6.1281 31.4469 5.96725 31.6571C5.8065 31.868 5.54538 32.165 5.18357 32.546C4.82186 32.9278 4.59072 33.1789 4.49045 33.2991C4.49045 33.2789 4.45023 33.3244 4.36981 33.4349C4.28928 33.5454 4.2441 33.5954 4.23418 33.586C4.22405 33.5751 4.18384 33.6253 4.11354 33.7358C4.04325 33.8465 4.008 33.9017 4.008 33.9017L3.93253 34.0518C3.90277 34.1125 3.88229 34.1719 3.87237 34.2325C3.86224 34.2924 3.85717 34.3581 3.85717 34.4282C3.85717 34.4983 3.86709 34.5633 3.88757 34.6239C3.92778 34.8847 4.04325 35.0953 4.23408 35.2568C4.4248 35.4172 4.63051 35.4973 4.85173 35.4973H4.94218C5.94645 35.3567 6.81045 35.1961 7.53355 35.0151C10.6273 34.2119 13.4199 32.9256 15.9109 31.1579C17.7188 31.4794 19.4867 31.64 21.2143 31.64C25.0516 31.6414 28.6027 30.9538 31.8671 29.5774Z" fill="#442A82"/>
<path d="M51.8603 30.6923C53.2871 28.5931 54 26.3388 54 23.9278C54 21.4566 53.2457 19.1449 51.7396 16.9956C50.2327 14.8464 48.1833 13.0582 45.5921 11.6318C46.0537 13.1384 46.2848 14.6651 46.2848 16.2123C46.2848 18.9041 45.6127 21.4554 44.2658 23.8664C42.9199 26.2766 40.9912 28.4059 38.4802 30.2544C36.1497 31.9419 33.4979 33.2373 30.5245 34.1416C27.5519 35.0453 24.4479 35.4977 21.2134 35.4977C20.611 35.4977 19.7269 35.4579 18.5619 35.3776C22.5997 38.0289 27.3409 39.3551 32.7848 39.3551C34.5127 39.3551 36.2804 39.1941 38.0886 38.8727C40.5795 40.6411 43.3722 41.9262 46.4658 42.7303C47.189 42.9116 48.0529 43.0719 49.0574 43.2124C49.2983 43.2326 49.5198 43.1622 49.7205 43.0014C49.9214 42.8408 50.0521 42.6204 50.1121 42.3394C50.1027 42.2188 50.1121 42.1526 50.1424 42.143C50.172 42.1335 50.167 42.0679 50.1272 41.9476C50.0875 41.8268 50.0672 41.7665 50.0672 41.7665L49.9921 41.6162C49.9712 41.5766 49.9372 41.5209 49.8866 41.4509C49.8364 41.3812 49.7964 41.3302 49.766 41.3002C49.7364 41.2703 49.6916 41.2197 49.6309 41.1499C49.5709 41.0803 49.5305 41.0347 49.5103 41.0145C49.4099 40.8939 49.1789 40.6429 48.8174 40.261C48.4555 39.8797 48.1948 39.5834 48.0341 39.3726C47.8733 39.1616 47.6473 38.8705 47.3561 38.4984C47.065 38.1271 46.8136 37.7403 46.6026 37.3384C46.3917 36.9367 46.1858 36.4945 45.9849 36.0127C48.476 34.565 50.4343 32.7922 51.8603 30.6923Z" fill="#FFD22E"/>
</svg>
