<svg width="51" height="10" viewBox="0 0 51 10" fill="none" xmlns="http://www.w3.org/2000/svg">
<path opacity="0.56" d="M50.4752 4.09184C50.6283 3.86208 50.5662 3.55165 50.3365 3.39847L46.5923 0.9023C46.3625 0.749122 46.0521 0.811208 45.8989 1.04097C45.7457 1.27073 45.8078 1.58117 46.0376 1.73435L49.3658 3.95316L47.1469 7.28135C46.9938 7.51112 47.0559 7.82155 47.2856 7.97473C47.5154 8.12791 47.8258 8.06582 47.979 7.83606L50.4752 4.09184ZM30.5196 9.29461L30.6104 8.80294L30.5196 9.29461ZM0.588537 4.29881C1.47449 4.07117 2.32453 3.87458 3.14092 3.70666L2.93945 2.72716C2.10638 2.89851 1.24053 3.09881 0.339685 3.33027L0.588537 4.29881ZM8.27484 2.97403C10.2119 2.83517 11.9144 2.88867 13.4368 3.07879L13.5607 2.0865C11.9692 1.88775 10.2011 1.83338 8.20334 1.97659L8.27484 2.97403ZM18.4084 4.32387C20.1288 4.98551 21.6175 5.80236 23.0607 6.61808L23.5528 5.74751C22.1057 4.92963 20.562 4.0807 18.7674 3.39051L18.4084 4.32387ZM27.8118 9.03571C28.6372 9.35476 29.5009 9.6148 30.4287 9.78628L30.6104 8.80294C29.7523 8.64433 28.9486 8.40302 28.1723 8.10297L27.8118 9.03571ZM30.4287 9.78628C31.2795 9.94354 32.1828 9.96076 33.1144 9.87724L33.0251 8.88123C32.1604 8.95875 31.3513 8.93987 30.6104 8.80294L30.4287 9.78628ZM38.2079 8.69622C39.82 8.15577 41.4541 7.49712 43.0228 6.85399L42.6435 5.92872C41.0746 6.57192 39.4677 7.21918 37.89 7.74809L38.2079 8.69622ZM47.7643 4.98837C48.6355 4.68596 49.4383 4.44856 50.1572 4.30478L49.9611 3.3242C49.1801 3.48038 48.3299 3.73351 47.4364 4.04367L47.7643 4.98837Z" fill="url(#paint0_linear)"/>
<defs>
<linearGradient id="paint0_linear" x1="54.1038" y1="0.259891" x2="29.5096" y2="35.364" gradientUnits="userSpaceOnUse">
<stop stop-color="#592982"/>
<stop offset="1" stop-color="#00297F"/>
</linearGradient>
</defs>
</svg>
