<svg width="14" height="15" viewBox="0 0 14 15" fill="none" xmlns="http://www.w3.org/2000/svg">
<path d="M8.36639 7.96923L13.7188 2.61876C14.0937 2.24183 14.0937 1.62905 13.7188 1.25218C13.3418 0.875249 12.7271 0.875249 12.3522 1.25218L6.99981 6.60265L1.64928 1.25218C1.27235 0.875249 0.659572 0.875249 0.282701 1.25218C-0.0941701 1.62912 -0.0942337 2.24189 0.282701 2.61876L5.63317 7.96923L0.282701 13.3216C-0.0942337 13.6966 -0.0942337 14.3113 0.282701 14.6882C0.659636 15.0631 1.27241 15.0631 1.64928 14.6882L6.99974 9.33581L12.3521 14.6882C12.7271 15.0631 13.3418 15.0631 13.7187 14.6882C14.0937 14.3112 14.0937 13.6966 13.7187 13.3216L8.36639 7.96923Z" fill="#DA0000"/>
</svg>
