<svg width="27" height="20" viewBox="0 0 27 20" fill="none" xmlns="http://www.w3.org/2000/svg">
<path d="M25.5351 6.46251C25.5391 6.53752 25.5339 6.61386 25.5159 6.68969L23.9121 13.4164C23.8313 13.7553 23.5416 13.9936 23.2086 13.9955L13.5862 14.0464C13.5849 14.0464 13.5838 14.0464 13.5825 14.0464H3.95997C3.62523 14.0464 3.33354 13.8073 3.25268 13.4667L1.64894 6.71446C1.63047 6.63659 1.62513 6.55811 1.62979 6.48116C1.00939 6.2762 0.558105 5.66743 0.558105 4.95001C0.558105 4.06483 1.2448 3.34476 2.08895 3.34476C2.9331 3.34476 3.61979 4.06483 3.61979 4.95001C3.61979 5.4485 3.40197 5.89451 3.06091 6.18916L5.06879 8.31053C5.57625 8.84674 6.28044 9.15413 7.00086 9.15413C7.85268 9.15413 8.66486 8.72994 9.1763 8.01924L12.4761 3.43445C12.1989 3.14398 12.0273 2.74261 12.0273 2.30007C12.0273 1.41489 12.714 0.694824 13.5581 0.694824C14.4023 0.694824 15.0889 1.41489 15.0889 2.30007C15.0889 2.72936 14.9264 3.119 14.6637 3.40734C14.6646 3.40856 14.6657 3.40958 14.6665 3.41091L17.9424 8.00834C18.4537 8.72586 19.2688 9.15423 20.123 9.15423C20.8501 9.15423 21.5337 8.85734 22.0478 8.31818L24.0683 6.19945C23.7201 5.9049 23.4964 5.45462 23.4964 4.95001C23.4964 4.06483 24.1831 3.34476 25.0273 3.34476C25.8714 3.34476 26.5581 4.06483 26.5581 4.95001C26.5581 5.64827 26.13 6.24216 25.5351 6.46251ZM23.7556 16.4416C23.7556 16.0194 23.4293 15.6771 23.0267 15.6771H4.1706C3.76801 15.6771 3.44163 16.0194 3.44163 16.4416V18.2761C3.44163 18.6983 3.76801 19.0405 4.1706 19.0405H23.0267C23.4293 19.0405 23.7556 18.6983 23.7556 18.2761V16.4416Z" fill="#FFD22E"/>
</svg>
