<svg width="230" height="117" viewBox="0 0 230 117" fill="none" xmlns="http://www.w3.org/2000/svg">
<path opacity="0.65" d="M223.854 42.7241C224.13 42.7397 224.341 42.9758 224.325 43.2516L224.071 47.7444C224.055 48.0201 223.819 48.2309 223.544 48.2153C223.268 48.1997 223.057 47.9636 223.073 47.6879L223.299 43.6943L219.305 43.4683C219.029 43.4527 218.818 43.2165 218.834 42.9408C218.85 42.6651 219.086 42.4542 219.361 42.4699L223.854 42.7241ZM1.21133 54.0756C1.98262 53.6878 2.75592 53.3291 3.53133 52.9983L3.92369 53.9182C3.16762 54.2407 2.41324 54.5906 1.66045 54.969L1.21133 54.0756ZM8.27947 51.3215C9.91223 50.8605 11.5541 50.5121 13.2058 50.2665L13.3528 51.2557C11.742 51.4951 10.1419 51.8348 8.55117 52.2839L8.27947 51.3215ZM18.2237 49.8283C19.8907 49.7805 21.5678 49.8254 23.2557 49.9533L23.1802 50.9504C21.5244 50.825 19.8822 50.7812 18.2524 50.8279L18.2237 49.8283ZM28.2485 50.5592C29.8794 50.8275 31.5212 51.1627 33.1747 51.5565L32.943 52.5293C31.3102 52.1404 29.6916 51.81 28.0862 51.5459L28.2485 50.5592ZM38.0263 52.8622C39.6009 53.3316 41.1868 53.8456 42.7847 54.3974L42.4583 55.3426C40.8722 54.7949 39.3 54.2853 37.7407 53.8206L38.0263 52.8622ZM47.4767 56.107C49.0133 56.6935 50.5615 57.3081 52.1219 57.9452L51.7438 58.871C50.1894 58.2363 48.6484 57.6245 47.1201 57.0412L47.4767 56.107ZM56.7346 59.8732C58.2535 60.5207 59.7844 61.1838 61.3276 61.8573L60.9275 62.7738C59.386 62.101 57.8579 61.4391 56.3424 60.7931L56.7346 59.8732ZM65.8936 63.8601C67.4014 64.5231 68.921 65.1912 70.4534 65.8603L70.0532 66.7767C68.5195 66.1071 66.9988 65.4385 65.4911 64.7756L65.8936 63.8601ZM75.0294 67.8403C76.55 68.4909 78.0829 69.1381 79.6287 69.7779L79.2463 70.7019C77.6962 70.0603 76.1596 69.4116 74.6361 68.7597L75.0294 67.8403ZM84.2397 71.6448C85.7748 72.2514 87.3225 72.8469 88.8833 73.4277L88.5346 74.3649C86.9668 73.7816 85.4128 73.1836 83.8722 72.5748L84.2397 71.6448ZM93.5698 75.1095C95.1322 75.6485 96.7077 76.1695 98.2966 76.6688L97.9969 77.6228C96.3985 77.1205 94.8142 76.5966 93.2437 76.0548L93.5698 75.1095ZM103.055 78.0844C104.644 78.5297 106.247 78.9506 107.863 79.3436L107.627 80.3152C105.999 79.9194 104.385 79.4956 102.786 79.0473L103.055 78.0844ZM112.721 80.4287C114.333 80.7562 115.957 81.0536 117.596 81.3177L117.437 82.305C115.784 82.0386 114.146 81.7388 112.522 81.4087L112.721 80.4287ZM122.511 82.0017C124.15 82.1933 125.802 82.3495 127.469 82.4674L127.399 83.4649C125.716 83.3459 124.049 83.1882 122.395 82.995L122.511 82.0017ZM132.408 82.7003C134.047 82.7387 135.701 82.7384 137.368 82.6966L137.393 83.6963C135.709 83.7385 134.04 83.7388 132.384 83.7L132.408 82.7003ZM142.342 82.4489C143.965 82.3278 145.602 82.1661 147.252 81.9612L147.375 82.9536C145.709 83.1605 144.056 83.3238 142.416 83.4461L142.342 82.4489ZM152.173 81.2272C153.78 80.9473 155.399 80.6256 157.031 80.2599L157.25 81.2357C155.602 81.6049 153.967 81.9297 152.345 82.2124L152.173 81.2272ZM161.836 79.0647C163.418 78.632 165.013 78.1573 166.619 77.6387L166.926 78.5903C165.305 79.1136 163.697 79.5926 162.1 80.0293L161.836 79.0647ZM171.272 76.0252C172.818 75.452 174.375 74.8378 175.943 74.1808L176.329 75.1032C174.748 75.7654 173.178 76.3848 171.619 76.9628L171.272 76.0252ZM180.426 72.1996C181.925 71.5029 183.434 70.7668 184.953 69.9901L185.409 70.8805C183.878 71.6628 182.358 72.4043 180.848 73.1064L180.426 72.1996ZM189.27 67.6883C190.713 66.8872 192.166 66.0491 193.628 65.173L194.142 66.0308C192.671 66.9125 191.209 67.756 189.756 68.5626L189.27 67.6883ZM197.799 62.5862C199.18 61.7001 200.571 60.7799 201.969 59.8248L202.533 60.6506C201.127 61.6111 199.729 62.5366 198.338 63.428L197.799 62.5862ZM206.027 56.9723C207.344 56.0197 208.669 55.0361 210.001 54.0206L210.607 54.8159C209.268 55.8364 207.937 56.825 206.613 57.7826L206.027 56.9723ZM213.984 50.9063C215.236 49.9036 216.494 48.8728 217.758 47.8134L218.4 48.5799C217.13 49.6439 215.867 50.6793 214.61 51.6867L213.984 50.9063ZM221.572 44.5484C222.21 43.9897 222.851 43.4237 223.493 42.8503L224.159 43.5963C223.514 44.1719 222.871 44.7402 222.23 45.3012L221.572 44.5484Z" fill="#2B2A2F"/>
</svg>
