<svg width="386" height="498" viewBox="0 0 386 498" fill="none" xmlns="http://www.w3.org/2000/svg">
<path d="M385.385 402.749C385.659 404.237 384.872 410.487 384.119 412.08C382.619 417.171 377.918 421.995 370.159 425.538C353.141 433.32 327.931 432.017 313.845 422.619C307.279 418.241 304.295 412.876 304.7 407.607C304.632 407.117 305.151 400.577 305.151 400.577C305.756 398.75 306.783 396.956 308.215 395.257C310.605 391.892 314.513 388.806 319.91 386.338C336.928 378.556 362.138 379.86 376.223 389.257C382.156 393.224 385.157 397.986 385.385 402.749Z" fill="#A8C4E5"/>
<path d="M378.237 406.197C378.505 407.657 377.729 413.812 376.993 415.383C375.516 420.391 370.889 425.143 363.256 428.63C346.512 436.29 321.695 435.003 307.832 425.756C301.368 421.444 298.43 416.163 298.83 410.983C298.761 410.498 299.275 404.064 299.275 404.064C299.874 402.265 300.878 400.504 302.293 398.828C304.643 395.519 308.494 392.483 313.8 390.054C330.544 382.394 355.36 383.681 369.223 392.928C375.059 396.822 378.009 401.507 378.237 406.197Z" fill="#F1A32F"/>
<path d="M338.565 426.791C360.305 426.791 377.929 417.057 377.929 405.05C377.929 393.042 360.305 383.308 338.565 383.308C316.825 383.308 299.201 393.042 299.201 405.05C299.201 417.057 316.825 426.791 338.565 426.791Z" fill="#FFD22D"/>
<path d="M338.565 420.976C354.486 420.976 367.392 413.845 367.392 405.05C367.392 396.254 354.486 389.123 338.565 389.123C322.644 389.123 309.738 396.254 309.738 405.05C309.738 413.845 322.644 420.976 338.565 420.976Z" fill="white"/>
<path d="M321.981 408.938C320.001 407.323 318.387 405.05 318.358 403.011L324.925 402.632C325.313 404.671 326.174 406.17 328.022 407.373C330.179 408.777 332.096 408.938 334.001 408.019C338.268 405.958 328.022 399.385 335.484 395.78C339.546 393.82 344.601 393.909 349.005 395.881L353.272 393.82L357.004 396.248L352.816 398.27C354.904 400.053 355.349 401.847 355.155 403.646L348.823 403.473C348.806 401.914 348.315 400.794 346.7 399.741C344.852 398.538 343.066 398.27 341.201 399.173C337.264 401.078 347.756 407.523 339.837 411.35C335.855 413.272 330.749 413.428 325.872 411.289L321.559 413.372L317.828 410.943L321.981 408.938Z" fill="#353559"/>
<path d="M352.396 357.084C352.67 358.571 351.883 364.821 351.13 366.414C349.63 371.506 344.929 376.33 337.17 379.873C320.152 387.655 294.942 386.351 280.856 376.954C274.29 372.576 271.306 367.211 271.711 361.941C271.643 361.451 272.162 354.911 272.162 354.911C272.767 353.084 273.794 351.29 275.226 349.586C277.616 346.221 281.524 343.135 286.921 340.667C303.939 332.885 329.149 334.189 343.234 343.586C349.167 347.553 352.168 352.315 352.396 357.084Z" fill="#A8C4E5"/>
<path d="M346.104 358.26C346.372 359.719 345.596 365.875 344.86 367.446C343.382 372.453 338.756 377.205 331.122 380.692C314.378 388.352 289.562 387.065 275.699 377.818C269.235 373.506 266.297 368.225 266.696 363.045C266.628 362.56 267.141 356.126 267.141 356.126C267.74 354.327 268.745 352.567 270.159 350.89C272.51 347.581 276.361 344.545 281.666 342.116C298.41 334.457 323.227 335.744 337.09 344.991C342.926 348.884 345.875 353.569 346.104 358.26Z" fill="#F1A32F"/>
<path d="M306.432 378.854C328.172 378.854 345.796 369.12 345.796 357.112C345.796 345.104 328.172 335.37 306.432 335.37C284.691 335.37 267.067 345.104 267.067 357.112C267.067 369.12 284.691 378.854 306.432 378.854Z" fill="#FFD22D"/>
<path d="M306.431 373.038C322.352 373.038 335.258 365.908 335.258 357.112C335.258 348.316 322.352 341.186 306.431 341.186C290.511 341.186 277.604 348.316 277.604 357.112C277.604 365.908 290.511 373.038 306.431 373.038Z" fill="white"/>
<path d="M289.847 361C287.867 359.385 286.253 357.112 286.224 355.073L292.791 354.694C293.178 356.733 294.04 358.232 295.888 359.435C298.045 360.839 299.962 361 301.867 360.081C306.134 358.02 295.888 351.447 303.35 347.843C307.412 345.882 312.467 345.971 316.871 347.943L321.138 345.882L324.869 348.311L320.682 350.333C322.77 352.115 323.215 353.909 323.021 355.708L316.689 355.536C316.671 353.976 316.181 352.856 314.566 351.803C312.718 350.6 310.932 350.333 309.067 351.235C305.13 353.14 315.622 359.585 307.703 363.412C303.721 365.334 298.615 365.49 293.738 363.351L289.425 365.435L285.694 363.006L289.847 361Z" fill="#353559"/>
<path d="M346.954 345.275C347.222 346.734 346.446 352.89 345.71 354.46C344.233 359.468 339.606 364.22 331.973 367.707C315.229 375.367 290.412 374.08 276.549 364.833C270.085 360.521 267.147 355.24 267.547 350.06C267.478 349.575 267.992 343.141 267.992 343.141C268.591 341.342 269.595 339.582 271.01 337.905C273.36 334.596 277.211 331.56 282.517 329.131C299.261 321.472 324.077 322.758 337.94 332.006C343.776 335.899 346.732 340.584 346.954 345.275Z" fill="#F1A32F"/>
<path d="M307.282 365.869C329.022 365.869 346.646 356.135 346.646 344.127C346.646 332.119 329.022 322.385 307.282 322.385C285.542 322.385 267.918 332.119 267.918 344.127C267.918 356.135 285.542 365.869 307.282 365.869Z" fill="#FFD22D"/>
<path d="M307.282 360.053C323.203 360.053 336.109 352.923 336.109 344.127C336.109 335.331 323.203 328.201 307.282 328.201C291.361 328.201 278.455 335.331 278.455 344.127C278.455 352.923 291.361 360.053 307.282 360.053Z" fill="white"/>
<path d="M290.697 348.015C288.718 346.4 287.103 344.127 287.075 342.088L293.641 341.709C294.029 343.748 294.89 345.247 296.739 346.45C298.895 347.854 300.812 348.015 302.718 347.096C306.985 345.035 296.739 338.462 304.201 334.858C308.263 332.897 313.317 332.986 317.722 334.958L321.989 332.897L325.72 335.326L321.532 337.348C323.62 339.13 324.065 340.924 323.872 342.723L317.539 342.551C317.522 340.991 317.031 339.871 315.417 338.818C313.568 337.615 311.783 337.348 309.917 338.25C305.981 340.155 316.472 346.6 308.554 350.427C304.572 352.349 299.466 352.505 294.588 350.366L290.275 352.45L286.544 350.021L290.697 348.015Z" fill="#353559"/>
<path d="M348.003 329.293C348.271 330.752 347.496 336.908 346.76 338.478C345.282 343.486 340.655 348.238 333.022 351.725C316.278 359.385 291.462 358.098 277.599 348.851C271.135 344.539 268.197 339.258 268.596 334.078C268.528 333.593 269.041 327.159 269.041 327.159C269.64 325.36 270.644 323.599 272.059 321.923C274.409 318.614 278.26 315.578 283.566 313.149C300.31 305.49 325.126 306.776 338.99 316.024C344.826 319.917 347.781 324.602 348.003 329.293Z" fill="#F1A32F"/>
<path d="M308.331 349.887C330.071 349.887 347.695 340.153 347.695 328.145C347.695 316.137 330.071 306.403 308.331 306.403C286.591 306.403 268.967 316.137 268.967 328.145C268.967 340.153 286.591 349.887 308.331 349.887Z" fill="#FFD22D"/>
<path d="M308.331 344.071C324.252 344.071 337.158 336.941 337.158 328.145C337.158 319.349 324.252 312.219 308.331 312.219C292.41 312.219 279.504 319.349 279.504 328.145C279.504 336.941 292.41 344.071 308.331 344.071Z" fill="white"/>
<path d="M291.746 332.039C289.767 330.424 288.152 328.151 288.124 326.112L294.69 325.733C295.078 327.772 295.94 329.27 297.788 330.474C299.944 331.877 301.861 332.039 303.767 331.12C308.034 329.059 297.788 322.486 305.25 318.881C309.312 316.921 314.367 317.01 318.771 318.982L323.038 316.921L326.769 319.349L322.582 321.371C324.67 323.154 325.115 324.948 324.921 326.747L318.588 326.574C318.571 325.015 318.081 323.895 316.466 322.842C314.618 321.639 312.832 321.371 310.966 322.274C307.03 324.179 317.521 330.624 309.603 334.451C305.621 336.373 300.515 336.529 295.637 334.39L291.324 336.473L287.593 334.044L291.746 332.039Z" fill="#353559"/>
<path opacity="0.29" d="M178.483 349.35L94.7058 403.981C92.8231 405.206 92.3097 407.719 93.5705 409.552C94.8256 411.39 97.3985 411.891 99.2754 410.66L186.265 353.929L178.483 349.35Z" fill="#45446C"/>
<path opacity="0.29" d="M142.804 335.58L134.857 331.101L57.7033 381.415C55.8207 382.64 55.3072 385.152 56.568 386.985C57.8231 388.823 60.3961 389.325 62.273 388.094L142.804 335.58Z" fill="#45446C"/>
<path d="M181.124 316.172L264.2 269.034L263.943 357.645L180.867 404.789L181.124 316.172Z" fill="#4E2D2B"/>
<path d="M88.5273 263.97L171.603 216.832L264.2 269.034L181.124 316.172L88.5273 263.97Z" fill="#7D4845"/>
<path d="M181.124 316.172L180.868 404.789L88.2705 352.587L88.5272 263.97L181.124 316.172Z" fill="#70403E"/>
<path d="M143.038 261.102L127.019 262.16L127.041 241.816L143.061 240.763L143.038 261.102Z" fill="#DB9628"/>
<path d="M229.291 276.588L213.272 277.64L213.295 257.302L229.314 256.244L229.291 276.588Z" fill="#DB9628"/>
<path d="M228.806 280.418C232.584 264.823 212.961 246.941 184.978 240.477C156.995 234.013 131.247 241.415 127.469 257.01C123.691 272.604 143.313 290.486 171.296 296.95C199.28 303.414 225.027 296.012 228.806 280.418Z" fill="#F1A32F"/>
<path d="M228.846 256.261C227.951 247.359 220.334 237.75 206.876 230.313C190.15 221.072 168.95 217.701 152.4 220.637C165.647 221.06 179.955 224.659 191.969 231.293C205.433 238.73 213.044 248.339 213.939 257.241L214.031 257.236L214.008 277.579H214.002C213.996 283.367 211.053 288.759 204.931 292.943C200.436 296.012 194.708 298.101 188.273 299.243C200.641 299.639 212.085 297.26 219.838 291.962C225.96 287.779 228.898 282.387 228.909 276.599H228.915L228.938 256.255L228.846 256.261Z" fill="#DB9628"/>
<path d="M228.825 261.869C232.603 246.274 212.981 228.392 184.998 221.928C157.014 215.465 131.266 222.866 127.488 238.461C123.71 254.056 143.332 271.938 171.316 278.401C199.299 284.865 225.047 277.463 228.825 261.869Z" fill="#FFDD4D"/>
<path d="M221.684 255.756C224.929 242.362 208.076 227.003 184.042 221.451C160.007 215.9 137.893 222.257 134.648 235.651C131.403 249.045 148.256 264.404 172.29 269.956C196.325 275.508 218.439 269.15 221.684 255.756Z" fill="#FFD22D"/>
<path opacity="0.29" d="M157.369 238.368C165.527 249.142 178.255 254.79 191.741 253.698C207.995 252.378 227.796 249.693 224.111 244.535C219.365 237.889 210.328 230.252 193.185 224.085C176.766 218.18 163.496 218.303 153.621 220.442C146.883 221.901 151.225 230.257 157.369 238.368Z" fill="#DB9628"/>
<path d="M181.957 257.665L177.901 257.676C169.315 257.692 162.338 250.913 162.321 242.529L162.195 185.732L193.812 185.665L193.949 245.911C193.96 252.389 188.592 257.653 181.957 257.665Z" fill="#F1A32F"/>
<path d="M106.658 67.1625L95.9836 72.3097L119.328 86.4589L123.122 78.7771L106.658 67.1625Z" fill="#DB9628"/>
<path d="M113.241 67.6749L132.638 80.5485L131.776 92.7313C131.736 92.709 131.662 92.6589 131.662 92.6589L119.254 84.4256C115.694 82.0358 112.59 83.8852 112.516 88.4642C112.294 101.661 113.903 126.923 128.593 135.903L119.676 151.345C96.7136 137.307 98.5962 98.3353 98.9442 77.7019C99.0583 70.5382 107.673 63.9426 113.241 67.6749Z" fill="#F1A32F"/>
<path d="M102.584 73.602L121.981 86.4755L121.119 98.6583C121.08 98.6361 121.005 98.5859 121.005 98.5859L108.597 90.3526C105.037 87.9629 101.934 89.8123 101.86 94.3913C101.637 107.588 106.498 135.168 121.188 144.148L123.128 158.631C93.6901 146.838 91.6991 100.558 92.0528 79.9246C92.1669 72.7608 97.0161 69.8697 102.584 73.602Z" fill="#F7C22D"/>
<path d="M113.281 77.6407L121.736 150.894C125.37 177.85 141.96 200.316 164.255 208.482L179.681 214.131C210.853 225.545 242.761 202.666 247.781 165.294L253.902 103.299L113.281 77.6407Z" fill="#FFD22D"/>
<path d="M132.701 151.857L123.647 79.3954L113.281 77.6351L121.736 151.852C125.37 178.808 141.96 201.274 164.255 209.44H175.214C152.925 201.285 136.335 178.813 132.701 151.857Z" fill="#FFDD4D"/>
<path d="M230.626 103.304L224.111 157.3C219.456 191.971 190.652 214.559 161.762 208.465C164.711 210.109 168.317 211.1 168.317 211.1L173.959 213.167C205.131 224.581 237.039 201.703 242.059 164.33L248.916 107.499L230.626 103.304Z" fill="#EFB430"/>
<path d="M253.277 107.214C258.641 86.2425 231.795 61.6347 193.315 52.2511C154.836 42.8674 119.293 52.2613 113.929 73.2329C108.566 94.2045 135.411 118.812 173.891 128.196C212.371 137.58 247.913 128.186 253.277 107.214Z" fill="#FFDD4D"/>
<path d="M238.709 103.788C242.988 87.0577 221.575 67.4275 190.881 59.9424C160.187 52.4574 131.836 59.9521 127.557 76.6822C123.278 93.4123 144.691 113.043 175.385 120.528C206.079 128.013 234.43 120.518 238.709 103.788Z" fill="#F1A32F"/>
<path d="M212.347 91.127C187.731 76.3817 152.514 73.2455 133.688 84.1248C131.611 85.3225 129.82 86.6427 128.313 88.0632C131.046 95.628 138.058 103.41 149.04 109.989C173.656 124.734 208.873 127.87 227.699 116.991C229.776 115.793 231.567 114.473 233.073 113.053C230.341 105.482 223.329 97.7059 212.347 91.127Z" fill="#BF7E1F"/>
<path d="M263.082 139.129L238.511 124.233L237.815 137.92C237.86 137.953 237.957 138.009 237.957 138.009L253.674 147.54C258.193 150.253 261.57 156.62 261.017 161.405C259.425 175.204 253.982 198.656 235.481 186.584L234.643 200.171C263.572 219.038 272.073 182.378 274.56 160.809C275.422 153.322 270.139 143.368 263.082 139.129Z" fill="#F1A32F"/>
<path d="M235.475 186.579L224.887 191.731L241.055 202.678L236.4 189.693L235.475 186.579Z" fill="#DB9628"/>
<path d="M252.493 144.276L227.922 129.38L227.226 143.067C227.272 143.1 227.369 143.156 227.369 143.156L243.086 152.687C247.604 155.4 250.982 161.767 250.428 166.552C248.837 180.351 243.394 203.803 224.893 191.731L224.054 205.318C252.984 224.185 261.484 187.526 263.972 165.956C264.833 158.47 259.55 148.515 252.493 144.276Z" fill="#FFDD4D"/>
<path d="M238.59 124.233L227.917 129.38L251.267 143.535L255.061 135.848L238.59 124.233Z" fill="#F1A32F"/>
<path d="M122.09 121.759C122.09 121.759 127.173 122.383 128.473 112.072C128.473 112.072 129.061 122.885 134.532 125.993C134.532 125.993 128.234 125.302 127.703 134.761C127.709 134.767 127.777 124.584 122.09 121.759Z" fill="white"/>
<path d="M30.9302 190.177C30.9302 190.177 18.539 196.076 22.2073 207.847C25.8699 219.618 22.7264 224.932 22.7264 224.932C22.7264 224.932 24.7631 227.5 28.8136 220.537C32.8641 213.574 27.1934 205.535 32.3165 199.441C37.4395 193.341 30.9302 190.177 30.9302 190.177Z" fill="#915151"/>
<path opacity="0.4" d="M42.5265 349.846C57.1303 349.768 68.9319 343.032 68.8862 334.799C68.8404 326.566 56.9647 319.955 42.3609 320.032C27.7571 320.109 15.9555 326.846 16.0012 335.079C16.047 343.312 27.9227 349.923 42.5265 349.846Z" fill="#A8C4E5"/>
<path d="M36.6408 218.42C39.6701 215.49 45.0442 214.359 49.1517 214.403C50.5038 214.42 50.5038 212.365 49.1517 212.348C44.4794 212.292 38.5748 213.651 35.1518 216.966C34.1877 217.902 35.6767 219.356 36.6408 218.42Z" fill="#BC4073"/>
<path d="M69.8894 228.358C69.3132 232.419 68.1837 236.413 65.993 239.945C64.8177 241.839 62.8837 244.668 60.3165 244.59C56.2546 244.468 56.2603 250.629 60.3165 250.751C70.1918 251.047 74.9098 237.499 75.9766 229.996C76.5243 226.118 70.4428 224.442 69.8894 228.358Z" fill="#FFAA82"/>
<path d="M51.8672 215.774C52.7173 226.486 54.3204 236.936 56.8248 247.398C58.0571 252.545 66.1753 250.367 64.9373 245.214C62.5983 235.46 61.0693 225.768 60.2763 215.774C59.8713 210.538 51.4508 210.493 51.8672 215.774Z" fill="#91B8DB"/>
<path d="M47.3891 336.872L47.9197 336.605C48.222 336.449 48.3361 336.087 48.1821 335.792C48.0224 335.496 47.6515 335.385 47.3492 335.535L46.8186 335.803C46.5162 335.959 46.4022 336.321 46.5562 336.616C46.7102 336.911 47.0867 337.028 47.3891 336.872Z" fill="#514677"/>
<path d="M48.2562 336.048V333.313C48.2562 332.978 47.9767 332.711 47.6401 332.711C47.2978 332.711 47.0239 332.984 47.0239 333.313V336.048C47.0239 336.382 47.3035 336.649 47.6401 336.649C47.9767 336.649 48.2562 336.382 48.2562 336.048Z" fill="#423A66"/>
<path d="M45.1698 328.723C45.7974 331.825 46.482 336.438 46.482 336.438L47.6344 336.655L47.4518 333.43C47.5887 332.951 48.433 333.474 48.7925 333.981C50.909 336.995 49.5569 338.883 51.6278 340.27C51.6278 340.27 56.4542 342.41 61.3034 341.529C61.3034 341.529 63.5854 340.699 62.6042 339.34C60.6702 336.661 53.5219 329.218 52.1242 327.464L51.7419 327.347L49.1861 323.341C48.222 323.069 46.4192 324.472 45.7346 325.765C45.1698 326.361 44.9131 327.436 45.1698 328.723Z" fill="#424268"/>
<path d="M49.8536 322.996L52.0043 324.734C52.0043 324.734 57.3955 332.973 58.4167 334.622C59.5976 336.532 52.5121 339.83 47.64 328.578C44.0859 322.634 49.8536 322.996 49.8536 322.996Z" fill="#EF9A78"/>
<path d="M51.5935 258.545C51.7989 272.594 51.662 286.682 50.3613 300.686C49.5968 308.925 48.3075 316.746 46.8812 324.974C45.9856 330.143 54.0923 332.366 54.9937 327.157C56.4827 318.567 57.8918 309.972 58.719 301.293C60.0768 287.088 60.2194 272.794 60.0083 258.545C59.9284 253.258 51.5137 253.247 51.5935 258.545Z" fill="#EF9A78"/>
<path d="M40.5884 264.934C39.9837 276.209 41.9063 287.278 42.0831 298.514C42.1459 302.357 41.9747 306.368 40.4572 309.972C38.7457 314.039 35.3342 316.796 31.5005 318.891C26.7768 321.475 31.0098 328.572 35.7449 325.987C40.4515 323.414 44.7302 319.865 47.2347 315.119C49.5338 310.763 50.3553 305.911 50.4865 301.048C50.8117 288.982 48.3529 277.045 48.9975 264.934C49.2828 259.648 40.868 259.664 40.5884 264.934Z" fill="#FFAA82"/>
<path d="M32.3849 267.474C33.2406 279.016 40.7997 280.186 48.4329 275.88C56.0661 271.58 60.3106 261.787 60.3106 253.18C60.3106 253.18 56.0661 240.412 48.4329 244.718C40.8054 249.019 31.3979 254.071 32.3849 267.474Z" fill="#BC4073"/>
<path d="M58.4053 219.774C58.4053 219.774 63.4599 227.528 62.8837 232.207C62.5186 235.187 60.3165 238.53 59.997 239.488C57.367 247.287 58.8218 249.649 58.5365 251.81C58.5365 251.81 56.7851 259.23 38.0272 252.217L30.1487 229.617L58.4053 219.774Z" fill="#D0E7F4"/>
<path d="M32.5503 236.574C31.86 236.162 29.19 228.196 29.19 228.196C28.7108 224.169 27.9293 227.194 32.419 220.297C33.1379 219.189 42.9618 214.22 50.3383 212.916C53.9153 212.287 57.4524 214.231 58.8957 217.49C59.74 219.395 60.5559 223.16 60.5559 223.166C60.9096 230.564 57.5493 220.849 57.0188 224.938C57.0359 224.837 57.0644 224.737 57.0758 224.642C57.0758 224.642 56.163 231.544 55.467 236.886C55.0392 240.218 54.7311 242.63 54.7026 242.969C54.7026 242.986 54.7026 243.008 54.7026 243.008L41.9007 252.863L35.1688 240.981L32.5503 236.574Z" fill="#D0E7F4"/>
<path d="M49.8763 212.81C49.8763 212.81 56.2772 219.261 50.7263 223.835C45.1754 228.408 35.728 218.186 35.728 218.186C40.6856 215.156 45.455 213.1 49.8763 212.81Z" fill="#FFAA82"/>
<path d="M60.3163 253.18L62.8835 293.082C62.8835 293.623 62.7238 294.152 62.4214 294.625C60.5331 297.589 57.0531 307.649 38.027 303.293C35.8363 302.792 35.0034 302.574 35.1004 300.708L32.5503 266.717L43.886 266.572L60.3163 253.18Z" fill="#BC4073"/>
<path d="M24.0613 326.138L24.6261 326.327C24.9456 326.433 25.2993 326.266 25.4134 325.954C25.5218 325.642 25.3506 325.297 25.0311 325.185L24.4663 324.996C24.1469 324.89 23.7932 325.057 23.6791 325.369C23.565 325.687 23.7418 326.032 24.0613 326.138Z" fill="#514677"/>
<path d="M25.2709 326.182L27.3075 324.3C27.5529 324.071 27.5643 323.687 27.3304 323.447C27.0965 323.208 26.7028 323.197 26.4575 323.425L24.4208 325.308C24.1755 325.536 24.1641 325.921 24.398 326.16C24.6319 326.4 25.0199 326.411 25.2709 326.182Z" fill="#423A66"/>
<path d="M28.5975 318.964C26.7205 321.537 23.7654 325.197 23.7654 325.197L24.3986 326.161L26.6749 323.816C27.1256 323.582 27.3196 324.54 27.1884 325.147C26.4011 328.718 24.0677 329.063 24.4614 331.486C24.4614 331.486 26.1843 336.377 30.1777 339.213C30.1777 339.213 32.3627 340.266 32.6993 338.628C33.3611 335.414 33.983 325.231 34.3253 323.036L34.1541 322.685L35.375 318.117C34.9129 317.248 32.6309 316.931 31.1989 317.332C30.3546 317.337 29.3791 317.894 28.5975 318.964Z" fill="#424268"/>
<path d="M36.0759 318.345L36.2585 321.063C36.2585 321.063 33.8339 330.55 33.309 332.405C32.6986 334.561 25.3792 331.798 30.3995 320.606C32.3791 314.005 36.0759 318.345 36.0759 318.345Z" fill="#FFAA82"/>
<path d="M30.177 231.037C30.8045 232.43 35.0718 235.288 36.1444 236.719C38.8999 240.401 43.6578 242.061 48.2046 240.997C54.8794 239.438 61.6398 236.129 61.6398 236.129C61.6398 236.129 58.7531 245.186 59.7572 250.467C60.225 252.913 59.8884 252.462 59.8884 252.462C59.7458 254.801 55.7979 254.161 55.7979 254.161C47.3489 256.723 38.0213 252.211 38.0213 252.211L32.5503 236.574L30.177 231.037Z" fill="#A8C4E5"/>
<path d="M60.8583 251.832C60.961 252.367 60.7499 252.913 60.3049 253.247C58.7132 254.456 54.4631 257.03 47.7769 256.322C42.0548 255.715 38.706 254.489 37.0972 253.732C36.4012 253.403 36.0703 252.623 36.3384 251.916L36.4982 251.481C36.7891 250.701 37.6905 250.317 38.4721 250.64C41.4957 251.882 48.7011 254.434 53.7556 252.957C56.089 252.272 57.5837 251.548 58.5478 250.902C59.4435 250.295 60.6643 250.796 60.8583 251.832Z" fill="#46466B"/>
<path d="M51.3025 256.851L54.5429 256.227C55.6212 256.021 56.4997 254.991 56.4997 253.938C56.4997 252.885 55.6155 252.194 54.5429 252.4L51.3025 253.024C50.2243 253.23 49.3457 254.261 49.3457 255.314C49.34 256.367 50.2243 257.057 51.3025 256.851Z" fill="white"/>
<path d="M50.1214 213.702C50.2013 214.844 50.5493 215.98 50.7946 217.094C51.3366 219.551 52.4662 221.668 49.3969 222.91C44.7816 224.776 39.9096 220.314 36.8175 217.456C35.8362 216.548 34.3415 217.997 35.3285 218.91C39.1337 222.425 44.5648 227.127 50.2298 224.837C55.8891 222.548 52.5289 218.063 52.2323 213.707C52.1353 212.387 50.0301 212.381 50.1214 213.702Z" fill="#BC4073"/>
<path d="M47.463 213.574L47.3603 202.015L40.2234 205.803L40.1835 214.833C39.9667 217.573 46.8241 219.618 47.463 213.574Z" fill="#FFAA82"/>
<path d="M46.6987 189.537C48.1078 191.726 50.23 193.146 51.9586 195.057C52.5462 195.703 53.2993 196.578 53.4819 197.441C53.6473 198.238 53.2308 199.185 53.1624 199.959C53.0483 201.352 53.1966 202.399 53.75 203.697C54.2634 204.9 56.3001 204.371 55.7809 203.151C54.5373 200.243 56.4313 197.82 54.5601 194.985C52.9171 192.5 50.133 191.013 48.5185 188.501C47.7997 187.386 45.9798 188.411 46.6987 189.537Z" fill="#915151"/>
<path d="M48.2504 211.869L50.5952 211.022C54.2064 209.719 56.0662 205.764 54.7312 202.238L50.3156 190.595C48.9807 187.069 44.9301 185.253 41.3189 186.556L38.9742 187.403C35.3629 188.707 33.5031 192.662 34.8381 196.188L39.2537 207.83C40.5887 211.357 44.6392 213.173 48.2504 211.869Z" fill="#FFAA82"/>
<path d="M40.4289 197.876C41.7582 193.564 48.3531 195.441 50.6122 193.358C53.0654 191.102 50.8519 188.573 47.891 187.002C46.2993 186.161 44.508 185.626 41.3988 185.71C32.6987 185.938 26.4404 192.066 29.6408 200.499C29.6408 200.499 33.7256 212.17 41.2276 211.139L40.9709 209.295C40.9709 209.295 37.0972 206.872 40.2349 202.756C40.9652 201.792 40.0124 201.719 39.345 200.371C38.6661 199.001 39.9782 199.324 40.4289 197.876Z" fill="#915151"/>
<path d="M39.8776 208.361C40.7545 207.629 40.5878 206.033 39.5052 204.796C38.4227 203.558 36.8342 203.148 35.9574 203.879C35.0805 204.61 35.2472 206.207 36.3298 207.444C37.4123 208.682 39.0008 209.092 39.8776 208.361Z" fill="#FFAA82"/>
<path d="M52.4606 202.639L49.1575 205.909C49.0205 206.042 48.9863 206.254 49.089 206.415C49.4427 207 50.4411 208.131 52.3066 206.499C53.613 205.352 53.4362 203.73 53.1966 202.822C53.1053 202.511 52.6945 202.405 52.4606 202.639Z" fill="white"/>
<path d="M46.4078 202.187C46.6132 202.678 46.9783 202.99 47.2293 202.895C47.4746 202.795 47.5146 202.321 47.3092 201.831C47.1038 201.341 46.7387 201.029 46.4877 201.123C46.2367 201.224 46.2024 201.697 46.4078 202.187Z" fill="#492817"/>
<path d="M50.7093 198.143C50.9146 198.633 51.2798 198.945 51.5308 198.851C51.7761 198.75 51.816 198.277 51.6106 197.787C51.4053 197.296 51.0402 196.984 50.7891 197.079C50.5438 197.174 50.5096 197.653 50.7093 198.143Z" fill="#492817"/>
<path d="M45.5977 199.753C44.7248 200.121 43.8006 201.09 43.4526 201.953C43.2073 202.572 42.2375 202.171 42.4828 201.558C42.9335 200.444 44.0745 199.28 45.1983 198.806C45.8202 198.539 46.2195 199.491 45.5977 199.753Z" fill="#915151"/>
<path d="M51.1201 194.723C50.2244 195.024 49.2032 195.898 48.7924 196.734C48.4958 197.33 47.5259 196.934 47.8226 196.338C48.3532 195.263 49.5626 194.166 50.7264 193.77C51.3597 193.559 51.759 194.506 51.1201 194.723Z" fill="#915151"/>
<path d="M37.5252 197.196C38.8145 200.449 40.3662 204.711 39.4877 208.192C39.0769 209.825 38.1698 211.368 38.4208 213.106C38.6661 214.788 40.0467 215.746 40.8055 217.183C41.4273 218.359 43.2415 217.323 42.6197 216.147C42.2546 215.456 41.5414 214.883 41.2163 214.203C40.4974 212.71 40.6286 211.446 41.1079 209.975C41.5643 208.566 41.8723 207.351 41.8039 205.858C41.667 202.722 40.7085 199.558 39.5561 196.645C39.0712 195.43 37.0345 195.965 37.5252 197.196Z" fill="#915151"/>
<path d="M47.7198 212.22C46.7728 212.415 44.3539 212.17 43.3213 211.691C43.3213 211.691 45.318 213.796 47.5315 214.03L47.7198 212.22Z" fill="#EA8A6C"/>
<path d="M88.8588 221.934C89.902 220.124 89.973 218.231 89.0174 217.706C88.0618 217.181 86.4415 218.222 85.3984 220.032C84.3552 221.842 84.2842 223.735 85.2397 224.26C86.1953 224.785 87.8156 223.743 88.8588 221.934Z" fill="#8585FF"/>
<path d="M71.7718 233.522L71.4752 233.533C69.8607 233.605 68.4915 232.385 68.4173 230.809L67.7898 217.217C67.7156 215.64 68.965 214.303 70.5795 214.231L70.8761 214.22C72.4906 214.147 73.8598 215.367 73.934 216.944L74.5615 230.536C74.6357 232.112 73.3863 233.449 71.7718 233.522Z" fill="#45446C"/>
<path d="M74.7613 231.255H74.7042C72.7246 231.255 71.1101 229.672 71.1101 227.745V222.876C71.1101 220.943 72.7303 219.367 74.7042 219.367H74.7613C76.7409 219.367 78.3554 220.949 78.3554 222.876V227.745C78.3554 229.672 76.7409 231.255 74.7613 231.255Z" fill="#FFAA82"/>
<path d="M68.7597 226.263H67.7956C67.0653 226.263 66.4663 225.678 66.4663 224.965V223.89C66.4663 223.177 67.0653 222.592 67.7956 222.592H68.7597C69.4899 222.592 70.0889 223.177 70.0889 223.89V224.965C70.0889 225.678 69.4899 226.263 68.7597 226.263Z" fill="#FFAA82"/>
<path d="M71.1672 212.387C71.0417 212.292 67.1053 210.365 66.9455 210.32C66.4949 209.986 65.8217 209.953 65.0344 210.309C63.5112 211 62.1477 212.883 61.9994 214.515C61.9024 215.54 62.3074 216.225 62.9977 216.42C63.1232 216.515 67.0596 218.442 67.2194 218.487C67.6701 218.821 68.3433 218.854 69.1305 218.498C70.6538 217.807 72.0172 215.924 72.1656 214.292C72.2626 213.267 71.8575 212.588 71.1672 212.387Z" fill="#EF487C"/>
<path d="M71.635 212.571C71.5095 212.476 67.5731 210.549 67.4133 210.504C66.9626 210.17 66.2895 210.136 65.5022 210.493C63.979 211.184 62.6155 213.067 62.4671 214.699C62.3702 215.724 62.7752 216.409 63.4655 216.604C63.591 216.699 67.5274 218.626 67.6872 218.671C68.1379 219.005 68.811 219.038 69.5983 218.682C71.1216 217.991 72.485 216.108 72.6334 214.476C72.7304 213.451 72.3253 212.766 71.635 212.571Z" fill="#D84177"/>
<path d="M76.8549 213.546C76.6723 213.406 70.8476 210.554 70.6137 210.487C69.9462 209.992 68.9478 209.947 67.7897 210.471C65.5306 211.49 63.5224 214.275 63.2999 216.693C63.1573 218.214 63.7563 219.222 64.7775 219.512C64.9601 219.651 70.7848 222.503 71.0187 222.57C71.6862 223.066 72.6846 223.11 73.8427 222.587C76.1018 221.567 78.11 218.782 78.3325 216.364C78.4751 214.849 77.8818 213.835 76.8549 213.546Z" fill="#EF487C"/>
<path d="M64.9147 212.766C64.2358 213.807 63.7737 214.966 63.671 216.052C63.5284 217.573 64.1274 218.581 65.1486 218.871C65.3311 219.01 71.1559 221.862 71.3898 221.929C72.0573 222.425 73.0557 222.47 74.2138 221.946C75.8511 221.205 77.0776 220.108 77.8706 218.325L64.9147 212.766Z" fill="#D84177"/>
<path d="M76.8607 213.512L93.2796 214.66L81.6928 235.739L69.4329 221.45C70.0718 216.899 73.2324 212.56 76.8607 213.512Z" fill="#DCF1FF"/>
<path d="M88.613 223.166L82.1207 234.441C82.1207 234.441 69.547 220.776 69.6212 220.442C70.0091 218.687 70.7622 217.027 71.7491 215.752L88.613 223.166Z" fill="#D0E7F4"/>
<path d="M93.0861 227.915C96.2594 221.94 95.9681 215.645 92.4356 213.857C88.9031 212.068 83.467 215.463 80.2938 221.438C77.1205 227.414 77.4118 233.708 80.9443 235.496C84.4768 237.285 89.9129 233.891 93.0861 227.915Z" fill="#EF487C"/>
<path d="M94.7675 228.85C97.9408 222.875 97.6495 216.581 94.117 214.792C90.5845 213.003 85.1484 216.398 81.9752 222.373C78.8019 228.349 79.0932 234.643 82.6257 236.431C86.1582 238.22 91.5943 234.826 94.7675 228.85Z" fill="#D84177"/>
<path d="M93.6352 228.1C96.5779 222.558 96.3083 216.722 93.0331 215.064C89.7579 213.405 84.7173 216.553 81.7747 222.094C78.832 227.636 79.1016 233.472 82.3768 235.13C85.652 236.789 90.6926 233.641 93.6352 228.1Z" fill="white"/>
<path d="M82.4458 220.877C84.0774 218.219 86.2909 216.526 87.2836 215.902C91.6821 213.156 95.436 215.061 95.6756 220.152C95.7441 221.612 95.6813 223.25 94.3578 226.648C92.4808 220.91 87.3407 219.84 82.4458 220.877Z" fill="#DCF1FF"/>
<path d="M80.4549 226.475C80.3522 224.258 81.9553 221.484 84.0376 220.281C85.0359 219.701 85.9601 219.595 86.6676 219.879L86.6961 219.891C86.7246 219.902 86.7588 219.918 86.7874 219.935L89.3831 221.116C89.4858 221.155 89.5885 221.2 89.6798 221.25C90.3187 221.612 90.7295 222.342 90.7808 223.383C90.8835 225.6 89.2804 228.375 87.1981 229.578C86.2169 230.146 85.3098 230.263 84.6081 229.996H84.6024C84.5225 229.968 84.4483 229.929 84.3799 229.89L81.9895 228.787C81.7841 228.731 81.5902 228.642 81.419 228.525C80.8599 228.135 80.5005 227.439 80.4549 226.475Z" fill="#D0E7F4"/>
<path d="M85.0073 217.718C85.0358 217.729 89.3316 219.896 89.3316 219.896C89.4286 219.935 89.5199 219.98 89.6055 220.03C90.1988 220.392 90.581 221.127 90.6267 222.163C90.7294 224.38 89.2575 227.149 87.3463 228.341C86.4449 228.904 85.6063 229.021 84.9559 228.748H84.9502C84.8761 228.72 84.8076 228.681 84.7449 228.642C84.7449 228.642 80.3406 226.358 80.1809 226.235C80.6886 224.258 81.8296 220.943 85.0073 217.718Z" fill="#6D64FF"/>
<path d="M80.1809 226.247C80.1809 226.247 80.4662 224.068 82.1662 221.322C83.0049 219.969 83.6895 219.005 85.0073 217.718L85.806 218.119C85.806 218.119 82.2632 221.528 81.2363 226.815L80.1809 226.247Z" fill="#5555E5"/>
<path d="M75.6512 213.858L85.6463 214.598L82.7482 216.927L74.4817 215.094L75.6512 213.858Z" fill="white"/>
<path opacity="0.43" d="M67.6357 211.379L72.8444 214.058L74.1679 213.245L68.8623 210.616L67.6357 211.379Z" fill="white"/>
<path d="M5.15511 182.311C12.8853 195.542 20.7639 208.705 28.2088 222.091C30.1485 225.578 35.5967 222.47 33.657 218.983C26.2178 205.596 18.3335 192.433 10.6033 179.203C8.58949 175.755 3.13555 178.858 5.15511 182.311Z" fill="#FFAA82"/>
<path d="M38.5235 226.141C33.9196 219.155 30.006 211.685 26.3605 204.187C24.0386 199.413 16.7819 203.58 19.0924 208.332C22.7379 215.83 26.6515 223.3 31.2554 230.285C34.1763 234.719 41.4615 230.603 38.5235 226.141Z" fill="#D0E7F4"/>
<path d="M11.3507 184.005C12.5602 182.128 11.9783 179.621 10.0557 178.44L6.44448 176.217C4.52191 175.036 1.95468 175.605 0.745233 177.482C-0.464216 179.359 0.117689 181.86 2.04026 183.047L5.65149 185.27C7.57406 186.451 10.1356 185.882 11.3507 184.005Z" fill="#FFAA82"/>
<path d="M153.062 361.454C162.886 355.845 162.785 337.827 152.835 321.208C142.885 304.59 126.855 295.665 117.03 301.273C107.205 306.881 107.307 324.9 117.256 341.518C127.206 358.137 143.237 367.062 153.062 361.454Z" fill="#DB9628"/>
<path d="M134.361 310.819L139.473 325.247C139.621 325.67 139.912 326.071 140.248 326.316L151.635 334.561C152.48 335.173 152.822 336.533 152.212 336.856L143.991 341.24C143.746 341.368 143.637 341.691 143.694 342.098L145.662 355.907C145.811 356.932 144.926 357.16 144.168 356.286L133.973 344.565C133.671 344.22 133.311 344.019 133.015 344.025L122.854 344.315C122.095 344.337 121.211 343.117 121.354 342.253L123.27 330.628C123.328 330.282 123.213 329.837 122.974 329.436L114.719 315.804C114.103 314.791 114.439 313.816 115.289 314.15L126.671 318.684C127.007 318.818 127.298 318.746 127.446 318.489L132.512 309.777C132.889 309.131 133.979 309.744 134.361 310.819Z" fill="#FFDD4D"/>
<path d="M212.986 60.9513C215.662 53.5926 213.888 45.4095 212.553 37.9672C210.67 27.4611 209.255 17.0832 210.311 6.39884C210.756 1.90897 203.568 1.93682 203.123 6.39884C202.084 16.8993 203.368 27.2439 205.216 37.5828C206.454 44.4848 208.542 52.239 206.055 59.0852C204.503 63.3467 211.446 65.185 212.986 60.9513Z" fill="#FFAA82"/>
<path opacity="0.45" d="M206.563 101.466L195.421 109.989L197.418 111.097C196.442 112.011 195.541 113.036 194.725 114.217C191.416 119.002 190.463 123.86 189.853 129.503C189.031 137.19 188.649 145.022 189.436 152.732C188.986 152.648 188.524 152.966 188.478 153.467L188.101 157.461C188.073 157.751 188.198 158.035 188.432 158.202C188.912 158.542 189.864 159.127 191.422 159.678C191.479 159.868 191.547 160.052 191.627 160.224C187.189 161.494 182.716 163.75 182.716 163.75L180.126 165.494L177.656 167.154C177.268 167.41 177.028 167.772 176.948 168.173C176.925 168.302 176.92 168.43 176.925 168.563C176.606 168.948 176.469 169.432 176.549 169.956C176.771 171.326 178.38 172.496 180.035 172.474C182.87 172.435 184.279 172.942 188.706 171.571C188.969 171.488 191.707 169.794 191.952 169.716C192.329 169.599 196.071 168.24 196.665 168.001C197.475 167.666 198.964 167.494 199.688 166.369L199.317 167.627C199.232 167.928 199.295 168.24 199.488 168.457C199.745 168.736 200.173 169.159 200.812 169.644C200.995 170.162 201.263 170.636 201.594 171.059C201.594 171.081 201.594 171.098 201.588 171.12C200.652 171.989 199.768 173.092 198.929 174.234C198.211 175.215 196.533 177.287 195.9 177.955C195.438 178.44 194.577 180.156 194.326 180.768L193.356 183.359C193.264 183.598 193.259 183.81 193.304 183.999L193.133 184.523C192.859 185.147 193.282 185.977 193.829 186.478L194.166 186.657C196.453 187.682 197.994 187.436 199.26 186.606C201.434 185.186 202.25 185.13 204.851 181.922C205.005 181.732 207.293 178.969 208.086 177.276C208.24 176.953 208.799 175.382 208.89 174.83C208.982 174.279 209.101 173.839 208.982 173.315C209.016 173.098 209.039 172.886 209.044 172.68C209.233 172.574 209.415 172.463 209.592 172.329C211.303 171.889 212.479 170.886 212.918 170.452C213.043 170.329 213.129 170.173 213.169 169.995L214.099 165.934C214.281 165.143 213.409 164.53 212.695 165.182C212.581 165.115 212.69 165.176 212.576 165.11C214.236 159.149 216.158 153.272 218.132 147.401C218.766 145.512 219.256 143.591 219.81 141.674C220.095 140.688 220.391 139.702 220.728 138.733C220.893 138.254 221.07 137.78 221.247 137.307C221.287 137.207 221.316 137.129 221.338 137.062C221.367 137.006 221.401 136.945 221.441 136.861C223.004 133.736 224.858 131.859 227.802 129.815C230.603 127.865 233.513 126.054 236.462 124.311C239.754 122.361 239.549 117.626 236.109 115.938L206.563 101.466ZM212.056 131.001C210.014 135.012 209.13 139.318 207.761 143.557C205.667 150.019 203.499 156.431 201.685 162.965C201.251 162.742 200.681 162.998 200.521 163.533L200.093 164.981C200.105 164.803 200.099 164.608 200.088 164.402C200.498 163.717 200.635 162.742 200.156 161.288C199.979 160.748 199.654 160.341 199.232 160.046C200.738 159.35 201.645 158.269 201.982 157.812C202.079 157.678 202.136 157.517 202.141 157.35L202.25 153.428C202.267 152.793 201.594 152.392 201.035 152.698C200.858 152.793 200.687 152.871 200.515 152.96C199.488 145.646 200.105 137.892 200.823 130.6C201.086 127.926 201.166 126.951 201.742 124.311C201.748 124.294 201.748 124.289 201.753 124.277C201.833 124.11 201.907 123.943 201.987 123.776C202.21 123.33 202.421 122.885 202.649 122.445C203.145 121.492 203.699 120.584 204.292 119.682C204.338 119.609 204.378 119.548 204.412 119.498C204.429 119.481 204.446 119.464 204.469 119.442C204.76 119.141 205.068 118.846 205.342 118.54C205.473 118.395 205.872 118.088 205.998 117.988C206.175 117.871 206.357 117.754 206.54 117.654C206.996 117.398 207.453 117.158 207.915 116.924L210.265 118.228L218.8 123.041C216.078 125.28 213.677 127.826 212.056 131.001Z" fill="#45446C"/>
<path d="M193.595 182.629C193.749 182.44 196.037 179.677 196.83 177.983C196.984 177.66 197.543 176.089 197.635 175.538C197.834 174.307 198.216 173.627 195.569 171.321C191.245 167.55 183.064 181.632 183.064 181.632L181.883 185.219C181.609 185.843 182.031 186.673 182.579 187.175L182.916 187.353C185.203 188.378 186.744 188.133 188.01 187.303C190.178 185.893 191 185.838 193.595 182.629Z" fill="#15253D"/>
<path d="M193.732 181.426C193.886 181.231 200.533 173.282 196.471 170.792C192.888 168.597 190.115 171.616 187.674 174.942C186.955 175.922 185.278 177.994 184.644 178.663C184.182 179.147 183.321 180.863 183.07 181.476L182.408 184.328C182.157 184.935 183.23 184.573 183.8 185.069L184.952 182.657C186.054 183.609 186.356 186.98 187.662 186.15C189.904 184.712 191.12 184.668 193.732 181.426Z" fill="#894E4E"/>
<path d="M190.515 184.534C189.91 184.88 188.621 185.632 187.925 186.077C186.618 186.907 185.021 186.623 183.498 185.949C182.756 185.62 181.712 185.063 182.094 184.066L183.064 181.476C184.348 181.203 187.622 182.423 190.515 184.534Z" fill="#915350"/>
<path d="M191.176 166.887C192.825 169.271 197.166 169.878 199.311 167.722C199.043 169.098 198.752 170.463 198.427 171.828C197.104 177.37 189.122 175.755 190.452 170.19C190.714 169.093 190.954 167.99 191.176 166.887Z" fill="#E1EAF4"/>
<path d="M218.018 61.7924L215.816 43.2703C213.934 38.1398 202.01 41.9166 203.157 46.2449L206.854 63.8535C207.601 66.6165 210.368 68.3823 213.26 67.9311C216.273 67.4576 218.366 64.7559 218.018 61.7924Z" fill="#424268"/>
<path d="M214.96 45.2813C211.418 45.2033 208.154 46.4065 205.49 48.6737C204.332 49.6597 206.021 51.2919 207.173 50.3171C209.369 48.4454 212.056 47.5429 214.966 47.6042C216.489 47.6376 216.489 45.3147 214.96 45.2813Z" fill="#FCFEFF"/>
<path d="M221.47 97.5165C214.31 100.168 207.053 102.524 199.802 104.92C195.923 106.201 191.798 107.46 188.461 109.844C185.203 112.167 182.967 115.303 181.261 118.841C179.099 123.314 178.768 128.088 178.34 132.979C177.633 141.078 177.41 149.273 178.694 157.328C179.156 160.219 182.864 161.817 185.512 161.11C188.672 160.263 189.842 157.35 189.385 154.453C188.524 149.027 188.792 142.092 189.185 136.148C189.368 133.374 189.625 130.611 189.973 127.854C190.115 126.723 189.87 128.4 190.041 127.403C190.115 126.968 190.178 126.534 190.264 126.099C190.384 125.497 190.846 124.133 190.258 125.536C190.914 123.954 191.747 122.372 192.688 120.93C192.899 120.606 193.133 120.295 193.356 119.971C193.533 119.715 192.523 120.785 193.282 120.088C193.761 119.648 194.234 119.175 194.702 118.724C195.278 118.167 193.681 119.281 194.691 118.751C194.97 118.607 195.233 118.406 195.507 118.25C196.214 117.838 196.95 117.509 197.686 117.158C198.679 116.685 197.463 117.231 197.811 117.103C198.211 116.952 198.61 116.796 199.015 116.651C200.082 116.261 201.16 115.894 202.238 115.537C209.661 113.069 217.088 110.68 224.425 107.967C227.22 106.931 229.143 104.318 228.299 101.31C227.551 98.6807 224.282 96.4748 221.47 97.5165Z" fill="#E8C4A6"/>
<path d="M177.45 172.274C177.713 172.19 180.451 170.497 180.696 170.419C181.073 170.302 184.815 168.942 185.409 168.703C186.664 168.19 189.556 168.068 188.7 164.18C187.445 158.492 171.597 165.6 171.597 165.6L166.155 168.853C165.493 169.249 165.173 169.923 165.293 170.664C165.516 172.034 167.124 173.204 168.779 173.182C171.62 173.143 173.023 173.644 177.45 172.274Z" fill="#15253D"/>
<path d="M177.907 170.63C178.158 170.541 180.697 168.77 180.936 168.681C181.301 168.547 185.597 167.138 186.162 166.876C187.354 166.319 190.133 165.712 188.906 161.996C187.109 156.559 171.466 164.453 171.466 164.453L166.406 167.856C165.79 168.268 165.539 168.937 165.732 169.65C166.086 170.965 167.792 172.017 169.424 171.917C172.225 171.744 173.662 172.162 177.907 170.63Z" fill="#894E4E"/>
<path d="M172.407 171.828C171.677 171.845 170.125 171.867 169.258 171.917C167.627 172.017 166.08 170.959 165.732 169.644C165.539 168.931 165.79 168.268 166.406 167.851L168.876 166.191C170.781 166.725 172.082 168.686 172.407 171.828Z" fill="#915350"/>
<path d="M180.474 155.061C182.385 157.3 186.881 157.539 188.86 155.211C188.718 156.604 188.558 157.991 188.358 159.372C187.548 165.004 179.242 164.068 180.058 158.414C180.217 157.3 180.354 156.18 180.474 155.061Z" fill="#E1EAF4"/>
<path d="M191 154.136L190.891 158.057C190.886 158.224 190.834 158.386 190.732 158.52C190.144 159.322 187.822 162.007 183.617 161.271C179.926 160.625 177.947 159.461 177.188 158.915C176.954 158.748 176.829 158.464 176.857 158.174L177.234 154.18C177.291 153.584 177.941 153.233 178.449 153.539C180.326 154.654 184.502 156.302 189.79 153.411C190.344 153.099 191.017 153.501 191 154.136Z" fill="#F2D0B6"/>
<path d="M229.588 109.905C223.05 113.71 216.278 117.325 210.151 121.748C206.391 124.461 202.929 127.547 200.812 131.692C198.741 135.747 197.868 140.103 196.465 144.382C193.972 151.985 191.416 159.539 189.459 167.299C187.753 174.061 198.439 176.947 200.15 170.179C202.033 162.714 204.418 155.406 206.871 148.103C207.532 146.136 208.029 144.136 208.611 142.148C208.913 141.1 209.233 140.064 209.603 139.034C209.746 138.638 209.9 138.243 210.048 137.847C210.453 136.794 209.529 138.727 210.208 137.502C210.607 136.783 210.961 136.054 211.418 135.363C211.503 135.235 212.399 134.004 211.868 134.689C211.332 135.374 212.33 134.171 212.439 134.059C213.106 133.341 213.825 132.672 214.578 132.032C214.932 131.731 215.297 131.441 215.662 131.151C214.783 131.842 216.21 130.762 216.392 130.633C222.36 126.428 228.869 122.924 235.179 119.253C241.306 115.688 235.738 106.329 229.588 109.905Z" fill="#E8C4A6"/>
<path d="M202.837 166.653L201.907 170.714C201.867 170.886 201.782 171.048 201.656 171.171C200.909 171.9 198.062 174.285 194.074 172.764C190.577 171.432 188.872 169.867 188.238 169.165C188.039 168.948 187.976 168.63 188.067 168.335L189.277 164.246C189.459 163.634 190.172 163.389 190.612 163.795C192.226 165.288 195.991 167.75 201.805 165.678C202.409 165.455 202.991 165.99 202.837 166.653Z" fill="#F2D0B6"/>
<path d="M220.654 119.47L207.937 112.301C204.902 110.591 203.858 106.769 205.61 103.811C207.361 100.848 211.275 99.8282 214.304 101.538L227.021 108.708C230.056 110.418 231.1 114.239 229.348 117.203C227.602 120.155 223.689 121.18 220.654 119.47Z" fill="#E8C4A6"/>
<path d="M206.563 99.3158C207.396 100.72 211.828 87.25 210.18 61.2911L244.147 76.3706C241.648 93.411 244.854 93.5113 238.602 114.518L206.563 99.3158Z" fill="#56547F"/>
<path d="M225.863 107.282C226.633 108.585 238.054 102.068 238.105 80.788C238.111 78.0807 238.459 77.8356 241.106 78.6322L247.849 72.8054C246.737 86.6204 245.607 94.3134 242.692 107.438C241.694 111.922 236.388 114.033 232.457 111.515L225.863 107.282Z" fill="#424268"/>
<path d="M230.432 118.256C220.78 115.209 211.566 111.827 205.992 105.638C203.317 104.257 203.551 101.644 206.506 99.8284C209.461 98.0124 213.7 95.3998 216.37 96.7813L239.669 110.073C242.344 111.454 240.758 113.265 237.803 115.075L237.683 113.421C234.722 115.242 233.102 119.637 230.432 118.256Z" fill="#56547F"/>
<path d="M242.698 107.438L233.159 101.761C218.303 120.879 209.238 106.998 205.718 105.187C210.978 110.741 219.804 113.933 228.361 117.298C230.928 118.857 235.549 118.818 238.63 117.208C241.716 115.599 241.694 113.342 242.698 107.438Z" fill="#424268"/>
<path d="M236.919 63.9649L220.203 58.7119L223.244 50.7181C228.373 50.9688 231.864 52.8071 235.977 55.9545L236.919 63.9649Z" fill="#424268"/>
<path d="M212.336 55.2805C210.14 57.687 210.265 59.2746 210.117 62.7507C209.974 66.1487 212.119 69.2459 215.405 70.3879L238.077 78.2702C245.619 80.894 252.054 71.8752 246.634 66.1208C246.246 65.7086 245.818 65.341 245.328 65.0179C241.842 62.6894 236.439 58.9794 232.201 56.0548C225.977 51.7544 217.413 49.7211 212.336 55.2805Z" fill="#56547F"/>
<path d="M225.064 60.149C225.064 60.149 226.262 60.6448 227.363 60.4889L230.837 67.2682L230.62 67.4688C229.941 68.0927 228.789 67.9423 228.418 67.1847L225.064 60.149Z" fill="#383554"/>
<path d="M229.057 61.7147C229.057 61.7147 227.876 61.5364 227.146 60.9014L220.654 64.4665L220.699 64.7228C220.848 65.5138 221.795 65.9372 222.502 65.5305L229.057 61.7147Z" fill="#383554"/>
<path d="M226.331 66.6222C226.296 67.0902 225.948 67.2517 225.549 66.9899C225.15 66.7281 224.853 66.1376 224.887 65.6697C224.921 65.2017 225.269 65.0402 225.669 65.302C226.068 65.5638 226.365 66.1543 226.331 66.6222Z" fill="#383554"/>
<path d="M226.096 69.9479C226.062 70.4159 225.714 70.5774 225.315 70.3156C224.916 70.0538 224.619 69.4633 224.653 68.9954C224.687 68.5274 225.035 68.3659 225.435 68.6277C225.834 68.8951 226.131 69.4856 226.096 69.9479Z" fill="#383554"/>
<path d="M225.862 73.279C225.828 73.7469 225.48 73.9085 225.081 73.6466C224.682 73.3848 224.385 72.7943 224.419 72.3264C224.453 71.8585 224.801 71.6969 225.201 71.9588C225.6 72.2206 225.897 72.8111 225.862 73.279Z" fill="#383554"/>
<path d="M228.276 60.7231C228.276 60.7231 224.088 60.4278 223.809 53.2585L221.047 52.6903C220.642 52.9633 219.849 52.707 219.307 55.0634C218.982 56.4671 218.982 57.9155 219.239 59.3304L219.986 63.4582C220.152 64.3829 221.264 64.8731 222.086 64.3885L228.276 60.7231Z" fill="#6F6F9E"/>
<path d="M228.384 60.7509C228.384 60.7509 227.203 60.5727 226.473 59.9376L219.981 63.5028L220.026 63.759C220.175 64.5501 221.122 64.9734 221.829 64.5668L228.384 60.7509Z" fill="#FCFEFF"/>
<path d="M226.114 59.4084L223.358 45.0308L232.229 48.4455L234.466 60.1883C234.985 62.1045 228.316 66.8061 226.114 59.4084Z" fill="#FFAA82"/>
<path d="M226.148 55.9657L223.324 55.9044C218.971 55.8097 215.491 52.2613 215.582 48.0109L215.896 33.9787C215.993 29.7284 219.627 26.3303 223.98 26.4194L226.804 26.4807C231.157 26.5754 234.637 30.1239 234.545 34.3742L234.232 48.4064C234.135 52.6568 230.5 56.0604 226.148 55.9657Z" fill="#FFAA82"/>
<path d="M227.192 37.5605C224.162 38.7582 220.237 38.708 217.031 37.2987C213.557 35.7724 211.349 31.5443 214.276 29.1601C215.862 27.8733 219.952 26.4639 223.233 25.3665C232.537 22.2526 241.956 26.9486 241.728 37.1093C241.728 37.1093 241.779 51.0524 233.37 52.6512L232.948 50.59C232.948 50.59 236.457 47.7546 232.897 44.9248C231.818 44.0669 230.843 42.0727 231.048 40.3959C231.259 38.6969 228.818 36.9143 227.192 37.5605Z" fill="#492817"/>
<path d="M235.333 48.802C234.106 49.8772 232.646 49.5819 232.064 48.1336C231.482 46.6852 232.007 44.6408 233.233 43.5657C234.46 42.4906 235.92 42.7858 236.502 44.2342C237.078 45.6769 236.554 47.7213 235.333 48.802Z" fill="#FFAA82"/>
<path d="M218.326 47.493L222.913 50.1167C223.102 50.2225 223.199 50.4454 223.141 50.6515C222.93 51.3924 222.183 52.9131 219.656 51.6653C217.881 50.7907 217.591 48.9692 217.579 47.9107C217.579 47.532 217.996 47.3036 218.326 47.493Z" fill="white"/>
<path d="M224.516 46.3397C224.528 46.9358 224.288 47.4204 223.986 47.426C223.683 47.4316 223.432 46.9525 223.421 46.3565C223.409 45.7604 223.649 45.2758 223.951 45.2702C224.248 45.2646 224.505 45.7437 224.516 46.3397Z" fill="#492817"/>
<path d="M218.84 43.1868C218.862 43.7828 218.64 44.273 218.338 44.2842C218.035 44.2953 217.773 43.8218 217.744 43.2258C217.721 42.6297 217.944 42.1395 218.246 42.1284C218.549 42.1172 218.811 42.5963 218.84 43.1868Z" fill="#492817"/>
<path d="M223.638 43.4431C224.556 43.5099 225.395 44.1617 225.96 44.8302C226.444 45.4095 227.283 44.5795 226.798 44.0113C226.022 43.0922 224.87 42.3735 223.632 42.2844C222.873 42.2287 222.879 43.3874 223.638 43.4431Z" fill="#633820"/>
<path d="M217.271 39.9168C218.052 39.9948 218.834 40.4237 219.313 41.0309C219.775 41.6158 220.808 41.0365 220.34 40.446C219.581 39.4823 218.52 38.8807 217.271 38.7581C216.506 38.6802 216.512 39.8444 217.271 39.9168Z" fill="#633820"/>
<path d="M225.594 57.0018C225.754 57.3583 229.987 55.6537 229.822 55.2025C229.822 55.2025 228.139 58.0324 226.039 59.0295L225.594 57.0018Z" fill="#EA8A6C"/>
<path d="M226.142 60.2494C226.142 60.2494 230.797 62.1713 235.977 55.949L238.818 59.9264C239.052 60.5224 239.081 60.5948 238.562 61.0683L231.83 67.2851C231.042 68.0148 229.69 67.8366 229.274 66.9453L226.142 60.2494Z" fill="#6F6F9E"/>
<path d="M226.028 60.2104C226.028 60.2104 227.226 60.7062 228.327 60.5503L231.801 67.3296L231.585 67.5302C230.906 68.1541 229.753 68.0037 229.383 67.2461L226.028 60.2104Z" fill="#FCFEFF"/>
<path d="M244.37 73.485C247.764 66.3046 247.051 58.3498 246.406 50.6792C245.516 40.0728 244.912 29.5277 246.96 19.0049C247.815 14.5931 240.895 12.6991 240.028 17.1388C238.009 27.5168 238.145 37.8613 239.024 48.3395C239.595 55.1412 241.215 63.4859 238.163 69.9477C236.24 74.0198 242.43 77.5905 244.37 73.485Z" fill="#FFAA82"/>
<path d="M243.417 10.1979C241.152 9.97509 239.109 11.6017 238.881 13.8132L238.613 16.4147C238.385 18.6262 240.051 20.6204 242.315 20.8433C244.58 21.0661 246.623 19.4395 246.851 17.228L247.119 14.6265C247.353 12.4206 245.681 10.4263 243.417 10.1979Z" fill="#FFAA82"/>
<path d="M208.211 0.0763281C205.947 -0.146494 203.904 1.48011 203.676 3.69162L203.408 6.29307C203.18 8.50459 204.846 10.4988 207.11 10.7217C209.375 10.9445 211.418 9.31789 211.646 7.10638L211.914 4.50492C212.148 2.29341 210.482 0.299151 208.211 0.0763281Z" fill="#FFAA82"/>
<path d="M248.363 74.1257L249.413 55.3641C248.437 49.9606 235.943 51.7209 236.32 56.2052L236.907 74.304C237.164 77.1728 239.606 79.3843 242.555 79.4178C245.642 79.4623 248.198 77.1227 248.363 74.1257Z" fill="#56547F"/>
<path d="M247.524 56.4337C244.016 55.7708 240.558 56.3278 237.495 58.1438C236.177 58.9237 237.381 60.9458 238.704 60.166C241.203 58.6898 244.01 58.1494 246.885 58.6953C248.397 58.9739 249.042 56.7234 247.524 56.4337Z" fill="#FCFEFF"/>
<path d="M128.302 284.102C126.1 282.71 123.71 283.629 122.985 286.141L119.311 298.92L93.4963 282.286L97.2331 269.301C97.9576 266.789 96.7481 263.597 94.546 262.205C92.3439 260.812 89.9536 261.731 89.229 264.243L55.5869 381.203C54.8624 383.715 56.0719 386.907 58.274 388.3C60.4761 389.692 62.8665 388.773 63.591 386.261L68.4744 369.276L94.2893 385.91L89.3431 403.101C88.6186 405.613 89.8281 408.805 92.0302 410.198C94.2323 411.59 96.6226 410.671 97.3472 408.159L130.989 291.199C131.708 288.687 130.499 285.495 128.302 284.102ZM117.103 306.574L113.601 318.757L87.7857 302.123L91.2885 289.94L117.103 306.574ZM107.896 338.588L82.0807 321.954L85.5836 309.772L111.398 326.405L107.896 338.588ZM102.191 358.425L76.3758 341.791L79.8786 329.608L105.694 346.242L102.191 358.425ZM70.6708 361.622L74.1737 349.44L99.9886 366.073L96.4857 378.256L70.6708 361.622Z" fill="#4E2D2B"/>
<path d="M59.4928 282.601C55.9215 287.47 53.708 293.33 51.7055 298.945C49.8571 304.137 48.2826 309.429 46.8963 314.76C46.6395 315.746 46.2858 316.766 46.1375 317.78C45.915 319.311 46.4969 320.409 46.9761 321.84C49.3779 328.987 50.8897 336.43 51.4945 343.922C51.8253 347.994 58.3746 348.028 58.038 343.922C57.4219 336.335 56.0299 328.798 53.7308 321.523C53.4456 320.615 53.2002 319.64 52.8066 318.771C52.7153 318.571 52.6868 318.225 52.5385 318.052C51.9737 317.367 54.655 317.451 52.4415 319.484C52.8751 319.083 53.0177 317.172 53.1489 316.649C55.8302 306.31 58.6827 294.617 65.1293 285.832C67.5995 282.479 61.9288 279.287 59.4928 282.601Z" fill="#FFAA82"/>
<path d="M45.9834 316.47C45.3387 324.943 49.0812 336.641 50.9809 346.936C51.2377 349.899 52.9663 351.888 54.5465 351.025L60.3428 349.214C61.6435 348.501 62.8016 344.479 62.3965 342.084L57.6843 319.011C56.9597 314.721 54.7918 308.599 52.3501 309.151L51.8139 309.312C50.7356 308.109 46.6109 310.382 45.9834 316.47Z" fill="#6D64FF"/>
<path d="M63.0356 279.32L60.2345 281.443C58.4488 282.796 58.1236 285.325 59.5042 287.069C60.8905 288.813 63.4806 289.13 65.2662 287.782L68.0674 285.66C69.853 284.306 70.1782 281.777 68.7976 280.033C67.4113 278.29 64.8213 277.967 63.0356 279.32Z" fill="#FFAA82"/>
<path d="M106.929 368.444L107.722 371.82C108.224 373.97 110.444 375.323 112.646 374.833C114.848 374.337 116.234 372.176 115.726 370.031L114.933 366.656C114.431 364.505 112.212 363.152 110.01 363.642C107.814 364.132 106.427 366.294 106.929 368.444Z" fill="#FFAA82"/>
<path opacity="0.33" d="M104.19 482.201C104.237 473.663 91.9979 466.678 76.8522 466.597C61.7065 466.517 49.3901 473.373 49.3427 481.91C49.2953 490.448 61.5348 497.434 76.6805 497.514C91.8262 497.594 104.143 490.738 104.19 482.201Z" fill="#A8C4E5"/>
<path d="M70.5431 477.27C70.3435 477.443 67.3712 478.897 67.1829 479.058C66.8977 479.304 66.0419 479.972 65.5285 480.334C64.4446 481.097 62.1512 484.005 58.4087 481.961C52.932 478.969 65.9963 470.446 65.9963 470.446L71.7754 467.505C72.4771 467.149 73.3272 467.149 74.0631 467.505C75.4152 468.168 75.9571 469.8 75.2212 471.042C73.9661 473.17 73.892 474.418 70.5431 477.27Z" fill="#15253D"/>
<path d="M69.9272 475.671C69.7275 475.844 66.7552 477.298 66.567 477.46C66.2817 477.705 65.426 478.373 64.9125 478.735C63.8286 479.498 61.5352 482.406 57.7927 480.362C52.316 477.37 65.3803 468.848 65.3803 468.848L71.1595 465.906C71.8612 465.55 72.7112 465.55 73.4471 465.906C74.7992 466.569 75.3412 468.201 74.6052 469.444C73.3502 471.577 73.276 472.819 69.9272 475.671Z" fill="url(#paint0_linear)"/>
<path opacity="0.46" d="M79.9164 320.002L80.1503 321.189C80.1503 321.189 80.8748 324.765 76.9555 323.445C73.0362 322.125 72.4429 317.618 72.4429 317.618C72.4429 317.618 75.1527 316.888 79.9164 320.002Z" fill="white"/>
<path d="M76.9497 323.551C82.0556 325.244 81.2284 321.072 81.2284 321.072L81.2684 321.083L80.9032 319.674C74.9301 316.036 71.6099 316.749 71.6099 316.749C71.6099 316.749 71.8438 321.857 76.9497 323.551ZM72.6596 317.757C72.6596 317.757 75.3295 317.217 79.9106 320.047L80.1045 321.077C80.1045 321.077 80.715 324.18 76.9155 322.916C73.116 321.657 72.6596 317.757 72.6596 317.757Z" fill="#513554"/>
<path d="M83.1226 321.612L80.1161 320.777L79.7224 319.245L82.7289 320.08L83.1226 321.612Z" fill="#513554"/>
<path d="M72.0264 317.908L71.4959 317.763C71.2049 317.685 70.9026 317.351 70.817 317.016C70.7314 316.688 70.8968 316.482 71.1878 316.565L71.7184 316.71C72.0093 316.788 72.3117 317.122 72.3972 317.456C72.4828 317.791 72.3174 317.991 72.0264 317.908Z" fill="#513554"/>
<path d="M91.4859 323.294L90.9553 323.15C90.6644 323.072 90.362 322.737 90.2765 322.403C90.1909 322.075 90.3563 321.868 90.6473 321.952L91.1778 322.097C91.4688 322.175 91.7712 322.509 91.8567 322.843C91.9423 323.172 91.7769 323.378 91.4859 323.294Z" fill="#513554"/>
<path opacity="0.46" d="M83.1052 320.966L83.4875 322.163C83.4875 322.163 84.6113 325.751 88.2853 326.542C91.965 327.333 90.1851 322.626 90.1851 322.626C90.1851 322.626 86.7564 320.242 83.1052 320.966Z" fill="white"/>
<path d="M90.8869 322.086C90.8869 322.086 86.6538 319.284 81.7932 319.924L82.1583 321.334L82.1983 321.345C82.1983 321.345 83.5732 325.667 88.5193 326.759C93.4712 327.846 90.8869 322.086 90.8869 322.086ZM88.2056 326.041C84.5202 325.233 83.5047 322.019 83.5047 322.019L83.1567 320.949C86.8649 320.414 90.2479 322.626 90.2479 322.626C90.2479 322.626 91.8853 326.854 88.2056 326.041Z" fill="#513554"/>
<path d="M84.2747 322.71C84.1378 322.593 84.0751 322.42 84.1321 322.336L84.8281 321.306C84.8909 321.217 85.0506 321.244 85.1875 321.361C85.3245 321.478 85.3872 321.651 85.3302 321.735L84.6342 322.765C84.5714 322.854 84.4117 322.832 84.2747 322.71Z" fill="#FCFEFF"/>
<path d="M73.4813 319.54C73.3444 319.423 73.2816 319.25 73.3387 319.167L74.0347 318.136C74.0974 318.047 74.2572 318.075 74.3941 318.192C74.531 318.309 74.5938 318.481 74.5367 318.565L73.8407 319.595C73.7836 319.685 73.6239 319.662 73.4813 319.54Z" fill="#FCFEFF"/>
<path d="M90.927 489.453C90.6988 489.581 87.4869 490.428 87.2701 490.545C86.9392 490.729 85.9636 491.219 85.3875 491.475C84.1666 492.01 81.3255 494.411 78.0794 491.676C73.3329 487.67 87.8748 481.883 87.8748 481.883L94.1388 480.128C94.9033 479.916 95.7305 480.078 96.3809 480.574C97.5732 481.487 97.7672 483.197 96.7916 484.267C95.1201 486.105 94.7949 487.308 90.927 489.453Z" fill="#15253D"/>
<path d="M90.6533 487.765C90.4251 487.893 87.2132 488.74 86.9964 488.857C86.6655 489.041 85.69 489.531 85.1138 489.787C83.8929 490.322 81.0518 492.723 77.8057 489.988C73.0592 485.983 87.6011 480.195 87.6011 480.195L93.8652 478.44C94.6296 478.228 95.4568 478.39 96.1072 478.886C97.2995 479.799 97.4935 481.509 96.518 482.579C94.8464 484.417 94.5212 485.621 90.6533 487.765Z" fill="url(#paint1_linear)"/>
<path d="M74.4454 413.872C78.7982 426.339 79.1976 439.747 78.7925 452.793C78.4902 462.519 76.9156 472.329 77.1666 482.055C77.3321 488.434 87.504 488.462 87.3386 482.055C87.0818 472.062 88.7134 461.985 88.993 451.985C89.3752 438.382 88.7933 424.216 84.2579 411.231C82.1585 405.215 72.3288 407.8 74.4454 413.872Z" fill="#616191"/>
<path d="M53.9874 402.68C56.2693 410.775 57.3019 419.125 58.1292 427.464C58.6198 432.388 59.2188 437.09 58.6882 442.003C57.6214 451.891 55.7331 461.968 55.8015 471.928C55.8472 478.318 66.0191 478.329 65.9735 471.928C65.905 461.818 67.839 451.601 68.9058 441.563C69.4421 436.511 68.7175 431.564 68.2041 426.511C67.3027 417.626 66.2245 408.663 63.7942 400.04C62.0599 393.885 52.2474 396.497 53.9874 402.68Z" fill="#616191"/>
<path d="M86.1349 481.381C83.9784 483.22 79.5058 482.963 77.8285 480.635C77.8 481.916 77.7943 483.203 77.8285 484.484C77.9597 489.704 86.2775 489.72 86.1463 484.484C86.1235 483.448 86.1178 482.412 86.1349 481.381Z" fill="#E1EAF4"/>
<path d="M62.3224 415.81C63.2638 416.841 59.2247 411.838 60.4341 412.551C62.95 414.033 77.0697 423.403 80.0078 423.453C83.5563 423.509 81.4911 420.161 84.1325 417.843C86.6369 415.649 87.2303 412.078 87.4756 408.797C87.544 407.889 87.5897 406.942 87.2189 406.112C86.8195 405.209 85.9923 404.574 85.1879 403.978C78.9124 399.344 66.5726 387.868 57.8098 391.539C47.6835 395.778 57.8269 410.891 62.3224 415.81Z" fill="#616191"/>
<path d="M54.963 342.429C53.1032 344.769 53.3257 346.212 53.417 349.404C53.5025 352.523 55.6704 355.225 58.7511 356.072L90.1968 364.684C90.1968 364.684 92.0053 352.874 85.804 349.314C82.4609 347.398 77.2808 344.334 73.2074 341.917C67.2173 338.357 59.2531 337.026 54.963 342.429Z" fill="#6D64FF"/>
<path d="M69.2996 342.028L71.9581 330.453L79.1862 335.204L77.0069 345.744C76.8016 347.454 68.7747 345.961 69.2996 342.028Z" fill="#FFAA82"/>
<path d="M70.7028 313.674C70.7028 313.674 62.7729 309.875 64.5643 321.724C65.8079 329.968 72.0491 336.341 79.477 338.519C84.098 339.878 88.9643 336.525 88.5593 332.386C88.6506 326.247 87.7891 320.654 85.0222 316.142C84.5316 311.156 81.3254 313.435 75.2496 314.014L70.7028 313.674Z" fill="#FFAA82"/>
<path d="M70.2124 337.265C70.2124 337.265 61.4553 335.499 60.457 323.996C59.3787 311.552 71.1481 310.878 77.5034 309.307C80.3159 308.61 79.54 308.003 82.866 310.109C85.8896 312.025 86.9165 317.518 83.157 318.42C81.668 318.777 82.9801 322.654 82.8888 324.063C82.7291 326.57 81.3656 327.99 81.1602 330.43C80.9663 332.737 78.1537 336.731 76.003 337.304C72.1749 338.335 70.2124 337.265 70.2124 337.265Z" fill="#915151"/>
<path d="M53.303 397.929C51.3005 397.171 51.7797 363.581 53.5768 345.025L88.9703 361.469C88.7935 377.262 86.7511 389.729 88.6851 408.975L53.303 397.929Z" fill="#6D64FF"/>
<path d="M76.8813 412.407C68.1356 409.293 59.8064 405.884 54.9115 400.023C52.5097 398.67 52.8121 396.28 55.5904 394.715C58.3687 393.149 62.6018 392.977 65.0093 394.336L86.979 406.719C89.3808 408.073 89.0785 410.462 86.3002 412.028C83.5218 413.593 79.2831 413.76 76.8813 412.407Z" fill="#6D64FF"/>
<path d="M88.9759 361.469L83.1455 358.762C82.9059 374.159 80.9719 386.526 82.8774 405.427L82.7804 405.399C82.8203 406.468 82.0444 407.605 80.487 408.485C77.7087 410.05 73.4756 410.223 71.0681 408.864C66.8693 407.371 62.7731 405.8 59.0991 403.934C63.9255 407.544 70.2865 410.067 76.8872 412.418C79.2889 413.771 83.5277 413.599 86.306 412.039C87.8635 411.159 88.6451 410.022 88.5994 408.953L88.6964 408.981C86.751 389.723 88.7934 377.262 88.9759 361.469Z" fill="#5555E5"/>
<path d="M75.6435 479.822L75.7347 483.42C75.7404 483.576 75.7861 483.721 75.8831 483.843C76.4365 484.579 78.6214 487.041 82.6035 486.35C86.0949 485.749 87.9719 484.673 88.6964 484.172C88.9189 484.016 89.0387 483.76 89.0102 483.493L88.6679 479.827C88.6165 479.281 88.0004 478.964 87.5212 479.242C85.7412 480.267 81.7877 481.793 76.7959 479.142C76.271 478.869 75.6321 479.237 75.6435 479.822Z" fill="#7070A0"/>
<path d="M65.0436 470.73C62.8871 472.569 58.4202 472.312 56.7372 469.984C56.7087 471.265 56.703 472.552 56.7372 473.833C56.8684 479.053 65.1862 479.07 65.055 473.833C65.0322 472.797 65.0322 471.761 65.0436 470.73Z" fill="#E1EAF4"/>
<path d="M54.558 469.171L54.6492 472.769C54.6549 472.925 54.7006 473.07 54.7976 473.193C55.3509 473.928 57.5359 476.39 61.518 475.699C65.0094 475.098 66.8864 474.023 67.6109 473.521C67.8334 473.365 67.9532 473.109 67.9247 472.842L67.5824 469.176C67.531 468.63 66.9149 468.313 66.4357 468.591C64.6557 469.616 60.7022 471.143 55.7104 468.491C55.1798 468.218 54.5408 468.586 54.558 469.171Z" fill="#7070A0"/>
<path d="M91.355 323.701L80.8179 326.297C80.4414 326.392 80.0591 326.163 79.9622 325.801C79.8652 325.434 80.0991 325.06 80.4699 324.966L91.0069 322.37C91.3835 322.275 91.7657 322.503 91.8627 322.866C91.9597 323.233 91.7315 323.606 91.355 323.701Z" fill="#513554"/>
<path d="M81.702 346.925C73.5839 345.733 68.0957 350.718 66.156 339.299C67.3426 338.58 68.8716 338.931 69.6646 340.051C71.0566 342.017 74.0231 343.259 77.2978 342.869C78.279 342.752 79.2432 343.192 79.7737 344.006L81.702 346.925Z" fill="#D0E7F4"/>
<path d="M83.0371 357.258C83.5163 363.28 84.3778 369.001 86.8537 374.566C88.086 377.334 89.4951 380.019 90.8643 382.721C91.9368 384.838 93.112 386.955 94.949 388.548C105.172 397.394 112.383 378.22 114.488 371.753C115.766 367.825 109.451 366.143 108.179 370.054C106.77 374.387 105.207 379.785 101.829 383.128C101.361 383.596 100.962 383.852 100.42 384.208C100.431 384.203 100.009 384.231 100.243 384.286C99.5986 384.125 98.8969 383.462 98.2579 382.593C95.7477 379.161 93.8366 374.627 92.2563 370.7C90.5163 366.383 89.9572 361.848 89.5921 357.258C89.2612 353.186 82.7119 353.147 83.0371 357.258Z" fill="#FFAA82"/>
<path d="M80.8064 355.381C81.8447 371.808 86.5171 382.47 93.5113 388.152C97.231 390.436 101.162 384.721 99.9009 381.067C92.9979 374.36 91.0069 364.377 90.9669 353.102C90.1454 350.768 87.5154 349.387 84.8854 349.91C82.1357 350.451 80.3386 352.863 80.8064 355.381Z" fill="#6D64FF"/>
<path d="M77.2066 332.074C76.8529 332.419 77.2579 340.791 84.1438 338.396C91.0297 336.001 88.5138 329.288 88.5138 329.288C88.5138 329.288 83.1055 331.561 80.4755 324.971C77.8455 318.381 77.2066 332.074 77.2066 332.074Z" fill="#AA6868"/>
<path d="M82.7233 327.762C83.2025 329.684 82.4437 331.516 81.0346 331.845C80.8806 331.884 80.7265 331.901 80.5668 331.895C79.3003 331.884 78.0395 330.675 77.6173 328.965C77.1381 327.043 77.8969 325.211 79.306 324.882C80.7151 324.553 82.2441 325.84 82.7233 327.762Z" fill="#FFAA82"/>
<path d="M200.51 406.037L239.35 383.123C239.571 382.993 239.849 382.99 240.072 383.116L293.901 413.524C293.943 413.547 293.976 413.577 294.011 413.608L297.163 415.387C297.647 415.66 297.654 416.356 297.174 416.638L258.334 439.552C258.113 439.682 257.836 439.685 257.612 439.559L203.783 409.151C203.741 409.128 203.708 409.098 203.674 409.068L200.522 407.288C200.037 407.013 200.03 406.319 200.51 406.037Z" fill="#A8C4E5"/>
<path d="M299.04 413.955L244.81 382.888L244.71 372.313L298.928 402L299.04 413.955Z" fill="#CE3A77"/>
<path d="M259.849 438.043L298.688 414.819C299.166 414.537 299.157 413.351 298.672 413.076L244.843 382.671C244.619 382.545 244.342 382.548 244.121 382.678L205.281 405.592C204.803 405.874 204.808 406.568 205.293 406.843L259.126 438.05C259.352 438.175 259.627 438.173 259.849 438.043Z" fill="#DD4078"/>
<path d="M298.021 412.224L299.023 412.214L299.034 413.416L298.032 413.426L298.021 412.224Z" fill="#DD4078"/>
<path d="M204.851 404.891L206.453 404.876L206.467 406.278L204.864 406.293L204.851 404.891Z" fill="#DD4078"/>
<path d="M259.829 435.918L298.669 413.004C299.147 412.722 299.142 412.028 298.658 411.753L244.831 381.346C244.607 381.22 244.33 381.222 244.109 381.353L205.269 404.267C204.791 404.549 204.796 405.243 205.28 405.518L259.107 435.925C259.331 436.051 259.606 436.049 259.829 435.918Z" fill="#CE3A77"/>
<path d="M259.185 436.005L295.846 415.11L295.735 403.158L258.898 425.222L259.185 436.005Z" fill="#E1EAF4"/>
<path d="M295.655 410.824L259.422 431.993" stroke="#BACED8" stroke-width="1.6635" stroke-miterlimit="10"/>
<path d="M295.623 407.337L258.842 428.455" stroke="#BACED8" stroke-width="1.6635" stroke-miterlimit="10"/>
<path d="M295.676 413.149L259.443 434.318" stroke="#BACED8" stroke-width="1.6635" stroke-miterlimit="10"/>
<path d="M292.159 412.904C292.159 412.904 296.983 416.577 297.309 420.353L293.887 422.226C293.887 422.226 290.978 415.932 288.954 414.777L292.159 412.904Z" fill="#6271F0"/>
<path d="M259.205 436.004L207.472 406.256L207.372 395.681L259.094 424.253L259.205 436.004Z" fill="white"/>
<path d="M259.744 426.666L298.584 403.752C299.061 403.47 299.056 402.776 298.572 402.501L244.743 372.094C244.519 371.968 244.242 371.97 244.021 372.101L205.181 395.015C204.703 395.297 204.708 395.991 205.192 396.266L259.022 426.673C259.245 426.799 259.52 426.796 259.744 426.666Z" fill="#DD4078"/>
<path d="M297.923 401.813L298.925 401.804L298.936 403.006L297.934 403.015L297.923 401.813Z" fill="#DD4078"/>
<path d="M204.751 394.28L206.354 394.265L206.367 395.667L204.764 395.682L204.751 394.28Z" fill="#DD4078"/>
<path d="M259.729 425.343L298.572 402.429C299.049 402.147 299.044 401.453 298.56 401.178L244.731 370.77C244.507 370.645 244.23 370.647 244.009 370.777L205.169 393.691C204.691 393.973 204.696 394.667 205.18 394.942L259.007 425.35C259.233 425.476 259.508 425.473 259.729 425.343Z" fill="#EF487C"/>
<path d="M208.087 400.069L258.842 428.455" stroke="#BACED8" stroke-width="1.6635" stroke-miterlimit="10"/>
<path d="M208.111 402.534L258.863 430.919" stroke="#BACED8" stroke-width="1.6635" stroke-miterlimit="10"/>
<path d="M208.134 404.998L258.886 433.384" stroke="#BACED8" stroke-width="1.6635" stroke-miterlimit="10"/>
<path d="M239.287 399.14L255.523 389.562C256.229 389.145 256.133 388.429 255.309 387.964L247.743 383.689C246.918 383.223 245.677 383.184 244.969 383.601L228.733 393.179C228.027 393.596 228.123 394.311 228.947 394.777L236.513 399.051C237.34 399.517 238.582 399.557 239.287 399.14Z" fill="white"/>
<path d="M232.532 394.416L247.14 385.797C247.359 385.669 247.328 385.443 247.072 385.299C246.816 385.154 246.429 385.143 246.21 385.271L231.603 393.89C231.384 394.018 231.414 394.244 231.67 394.388C231.924 394.532 232.313 394.546 232.532 394.416Z" fill="#F1A32F"/>
<path d="M235.01 395.816L249.618 387.197C249.837 387.069 249.807 386.843 249.55 386.699C249.294 386.554 248.907 386.543 248.688 386.671L234.081 395.29C233.862 395.418 233.892 395.644 234.149 395.788C234.402 395.932 234.791 395.944 235.01 395.816Z" fill="#F1A32F"/>
<path d="M237.486 397.216L252.094 388.597C252.313 388.469 252.283 388.243 252.026 388.099C251.77 387.954 251.383 387.943 251.165 388.071L236.557 396.689C236.338 396.817 236.368 397.043 236.625 397.188C236.881 397.332 237.268 397.344 237.486 397.216Z" fill="#F1A32F"/>
<path d="M211.81 402.196L206.464 405.583L240.245 418.052L211.81 402.196Z" fill="#F1A32F"/>
<path d="M211.35 389.058L249.628 365.217C249.846 365.081 250.123 365.072 250.35 365.192L304.895 394.298C304.937 394.32 304.97 394.349 305.006 394.379L308.199 396.082C308.69 396.343 308.714 397.039 308.241 397.332L269.963 421.173C269.745 421.309 269.468 421.318 269.242 421.197L214.697 392.092C214.655 392.07 214.621 392.041 214.586 392.011L211.392 390.308C210.901 390.045 210.877 389.351 211.35 389.058Z" fill="#A8C4E5"/>
<path d="M310.042 394.605L255.081 364.85L254.726 354.28L309.642 382.657L310.042 394.605Z" fill="#CE3A77"/>
<path d="M271.44 419.628L309.711 395.477C310.181 395.184 310.144 393.999 309.653 393.736L255.108 364.633C254.882 364.513 254.605 364.522 254.386 364.657L216.109 388.498C215.638 388.791 215.659 389.485 216.15 389.748L270.719 419.652C270.948 419.772 271.222 419.763 271.44 419.628Z" fill="#DD4078"/>
<path d="M308.981 392.899L309.982 392.865L310.023 394.067L309.021 394.1L308.981 392.899Z" fill="#DD4078"/>
<path d="M215.662 387.807L217.263 387.754L217.31 389.155L215.709 389.209L215.662 387.807Z" fill="#DD4078"/>
<path d="M271.371 417.504L309.648 393.664C310.119 393.37 310.098 392.676 309.607 392.413L255.065 363.308C254.838 363.188 254.561 363.197 254.343 363.333L216.065 387.173C215.594 387.467 215.616 388.16 216.107 388.424L270.649 417.529C270.875 417.649 271.15 417.64 271.371 417.504Z" fill="#CE3A77"/>
<path d="M270.728 417.606L306.877 395.837L306.478 383.891L270.182 406.834L270.728 417.606Z" fill="#E1EAF4"/>
<path d="M306.583 391.556L270.869 413.59" stroke="#BACED8" stroke-width="1.6635" stroke-miterlimit="10"/>
<path d="M306.466 388.071L270.204 410.067" stroke="#BACED8" stroke-width="1.6635" stroke-miterlimit="10"/>
<path d="M306.659 393.88L270.945 415.914" stroke="#BACED8" stroke-width="1.6635" stroke-miterlimit="10"/>
<path d="M303.137 393.72C303.137 393.72 308.048 397.276 308.465 401.043L305.089 402.998C305.089 402.998 302.029 396.776 299.978 395.669L303.137 393.72Z" fill="#6271F0"/>
<path d="M270.749 417.605L218.316 389.109L217.962 378.539L270.354 405.86L270.749 417.605Z" fill="white"/>
<path d="M271.062 408.257L309.34 384.416C309.81 384.123 309.789 383.429 309.298 383.166L254.754 354.061C254.527 353.94 254.25 353.949 254.032 354.085L215.754 377.926C215.283 378.219 215.305 378.913 215.796 379.176L270.34 408.281C270.567 408.401 270.842 408.393 271.062 408.257Z" fill="#DD4078"/>
<path d="M308.633 382.494L309.635 382.46L309.675 383.661L308.674 383.695L308.633 382.494Z" fill="#DD4078"/>
<path d="M215.307 377.202L216.908 377.148L216.955 378.55L215.354 378.603L215.307 377.202Z" fill="#DD4078"/>
<path d="M271.017 406.934L309.297 383.093C309.767 382.8 309.746 382.106 309.255 381.843L254.711 352.738C254.484 352.618 254.207 352.627 253.989 352.763L215.711 376.603C215.24 376.897 215.262 377.59 215.753 377.854L270.295 406.959C270.524 407.079 270.799 407.07 271.017 406.934Z" fill="#EF487C"/>
<path d="M218.781 382.909L270.203 410.067" stroke="#BACED8" stroke-width="1.6635" stroke-miterlimit="10"/>
<path d="M218.864 385.373L270.284 412.53" stroke="#BACED8" stroke-width="1.6635" stroke-miterlimit="10"/>
<path d="M218.947 387.836L270.367 414.993" stroke="#BACED8" stroke-width="1.6635" stroke-miterlimit="10"/>
<path d="M249.95 381.23L265.951 371.265C266.646 370.831 266.534 370.118 265.698 369.672L258.032 365.581C257.196 365.135 255.954 365.125 255.256 365.559L239.256 375.525C238.56 375.959 238.673 376.671 239.508 377.117L247.175 381.209C248.012 381.654 249.255 381.664 249.95 381.23Z" fill="white"/>
<path d="M243.083 376.67L257.479 367.703C257.695 367.57 257.659 367.345 257.4 367.206C257.14 367.068 256.753 367.066 256.538 367.199L242.141 376.166C241.926 376.3 241.961 376.525 242.221 376.663C242.478 376.801 242.868 376.806 243.083 376.67Z" fill="#F1A32F"/>
<path d="M245.595 378.01L259.991 369.043C260.206 368.91 260.171 368.684 259.911 368.546C259.651 368.408 259.265 368.406 259.049 368.539L244.653 377.506C244.437 377.64 244.473 377.865 244.732 378.003C244.99 378.141 245.379 378.144 245.595 378.01Z" fill="#F1A32F"/>
<path d="M248.104 379.35L262.5 370.383C262.715 370.25 262.68 370.024 262.42 369.886C262.16 369.748 261.774 369.746 261.558 369.879L247.162 378.846C246.946 378.98 246.982 379.205 247.241 379.343C247.501 379.481 247.888 379.483 248.104 379.35Z" fill="#F1A32F"/>
<path d="M222.555 384.946L217.292 388.46L251.362 400.114L222.555 384.946Z" fill="#F1A32F"/>
<path opacity="0.45" d="M281.173 386.777C279.958 384.693 277.517 384.431 275.468 385.317C271.213 387.155 267.424 389.796 263.876 392.709C260.59 395.405 257.213 398.386 254.953 401.99C251.987 406.725 251.314 411.967 251.61 417.376C252.033 425.052 252.455 432.723 252.871 440.399C252.877 440.532 252.894 440.661 252.911 440.789C251.742 442.588 250.498 444.504 249.79 445.607C247.885 447.707 246.059 449.774 245.221 450.933C244.245 452.281 246.51 453.105 246.51 453.105C251.319 453.98 256.1 451.857 256.1 451.857C258.154 450.482 256.813 448.61 258.913 445.624C259.266 445.117 260.105 444.599 260.242 445.078L260.059 448.276L261.2 448.064C261.2 448.064 261.885 443.496 262.501 440.421C262.758 439.145 262.501 438.081 261.936 437.485C261.737 437.112 261.446 436.733 261.109 436.388C261.075 436.265 261.024 436.16 260.966 436.054C260.653 430.294 260.333 424.534 260.019 418.774C259.808 414.925 259.523 411.187 261.32 407.571C263.032 404.134 266.158 401.522 269.079 399.06C272.291 396.352 275.788 394.041 279.673 392.364C281.755 391.45 282.2 388.537 281.173 386.777Z" fill="#45446C"/>
<path opacity="0.45" d="M268.754 388.381C264.532 389.144 260.088 390.108 256.305 392.158C251.336 394.848 248.096 399.082 245.626 403.928C242.117 410.808 238.609 417.688 235.094 424.562C235.032 424.679 234.98 424.801 234.935 424.918C233.012 425.915 230.958 426.985 229.789 427.609C227.068 428.517 224.438 429.436 223.12 430.043C221.591 430.745 223.143 432.55 223.143 432.55C226.885 435.625 232.116 436.082 232.116 436.082C234.598 435.875 234.381 433.597 237.713 432.01C238.278 431.742 239.265 431.692 239.145 432.177L237.371 434.873L238.472 435.235C238.472 435.235 241.376 431.586 243.469 429.213C244.336 428.227 244.65 427.18 244.462 426.389C244.479 425.971 244.416 425.498 244.296 425.035C244.325 424.913 244.336 424.796 244.342 424.679C246.978 419.515 249.614 414.351 252.249 409.187C254.012 405.733 255.649 402.346 259.038 400.068C262.267 397.901 266.306 397.132 270.083 396.397C274.242 395.589 273.312 387.557 268.754 388.381Z" fill="#45446C"/>
<path d="M262.444 347.008C261.851 350.78 261.178 354.668 259.455 358.127C257.914 361.219 255.861 364.049 254.166 367.062C252.597 369.853 251.417 372.906 249.608 375.563C247.646 378.449 244.525 380.109 241.421 381.624C237.816 383.378 240.982 388.648 244.576 386.899C248.148 385.161 251.571 383.106 254.029 379.98C256.214 377.201 257.515 373.892 259.192 370.817C260.972 367.558 263.192 364.528 264.852 361.213C266.837 357.23 267.784 352.991 268.469 348.635C269.079 344.786 263.055 343.131 262.444 347.008Z" fill="#FFAA82"/>
<path d="M267.487 383.512C259.939 386.782 251.93 392.865 247.331 399.639C244.091 404.413 243.315 409.9 243.623 415.482C244.045 423.186 244.468 430.89 244.89 438.594C245.175 443.808 253.516 443.841 253.23 438.594C252.837 431.375 252.437 424.155 252.044 416.93C251.821 412.891 251.576 408.998 253.607 405.26C255.387 401.984 258.502 399.411 261.354 397.032C264.492 394.408 267.921 392.18 271.697 390.548C273.774 389.651 274.219 386.732 273.192 384.977C271.977 382.888 269.529 382.627 267.487 383.512Z" fill="#EF9A78"/>
<path d="M261.965 346.624C259.421 353.715 255.998 360.35 253.162 367.319C252.324 369.38 254.081 371.769 256.077 372.326C258.439 372.989 260.379 371.519 261.206 369.48C264.042 362.517 267.459 355.877 270.009 348.785C271.783 343.833 263.728 341.7 261.965 346.624Z" fill="#9B3764"/>
<path d="M226.822 426.405C232.938 419.994 237.034 412.585 243.829 406.747C245.152 405.605 246.35 404.998 247.976 404.363C248.513 404.157 248.233 404.274 248.621 404.24C247.725 404.313 248.507 404.251 248.912 404.385C250.863 405.042 252.911 405.605 254.936 405.989C261.885 407.31 268.611 406.123 274.493 402.19C278.892 399.249 274.727 392.185 270.283 395.16C264.909 398.753 259.592 398.993 253.504 397.232C251.799 396.737 250.036 396.063 248.227 396.096C244.707 396.152 241.319 398.185 238.723 400.313C231.546 406.207 227.21 414.044 220.918 420.645C217.272 424.484 223.154 430.255 226.822 426.405Z" fill="#FFAA82"/>
<path d="M230.108 423.648C230.342 422.228 229.76 420.072 228.825 419.732L224.364 421.448L223.993 421.32C221.819 421.91 211.63 423.715 208.47 424.729C206.861 425.247 208.179 427.219 208.179 427.219C211.51 430.717 216.645 431.798 216.645 431.798C219.132 431.893 219.201 429.603 222.709 428.428C223.302 428.227 224.289 428.3 224.107 428.762L222.013 431.224L223.057 431.714C223.057 431.714 226.395 428.439 228.768 426.333C229.755 425.459 230.2 424.456 230.108 423.648Z" fill="#46466B"/>
<path d="M228.505 419.075L225.744 419.22C225.744 419.22 216.468 422.673 214.659 423.392C212.56 424.233 216.211 430.94 226.891 424.796C233.315 422.116 228.505 419.075 228.505 419.075Z" fill="#FFAA82"/>
<path d="M264.184 375.234C249.887 384.086 238.586 394.999 239.128 398.803C239.128 398.803 246.253 394.949 251.838 398.118C257.361 401.249 256.163 403.939 254.754 405.388C254.309 405.845 254.628 406.597 255.273 406.619C261.896 406.814 284.984 406.708 285.389 394.503C285.732 384.158 284.043 382.203 284.043 382.203C284.043 382.203 271.96 385.144 264.184 375.234Z" fill="#BC4073"/>
<path d="M288.903 347.432C285.709 343.967 279.918 342.329 275.303 342.129C273.962 342.067 273.962 344.106 275.303 344.162C279.376 344.34 284.613 345.805 287.432 348.869C288.327 349.849 289.799 348.401 288.903 347.432Z" fill="#BC4073"/>
<path d="M265.77 348.952C265.77 348.952 260.316 356.345 260.613 361.007C260.801 363.976 262.781 367.408 263.043 368.371C265.188 376.237 263.614 378.493 263.768 380.643C263.768 380.643 265.068 388.08 284.037 382.186L292.429 360.489L265.77 348.952Z" fill="#BC4073"/>
<path d="M290.398 365.603C290.569 365.324 292.361 362.567 292.435 362.249C293.268 358.584 295.47 355.782 291.454 350.924C290.615 349.911 281.379 344.323 274.151 342.624C270.648 341.8 267.037 343.527 265.416 346.674C264.469 348.512 263.442 352.195 263.442 352.195C262.661 359.498 266.552 350.072 266.843 354.144C266.831 354.044 266.808 353.944 266.803 353.849C266.803 353.849 267.305 360.729 267.681 366.054C267.909 369.374 268.075 371.781 268.081 372.115C268.081 372.132 268.081 372.154 268.081 372.154L280.169 382.615L287.529 371.24L290.398 365.603Z" fill="#BC4073"/>
<path d="M274.618 342.541C274.618 342.541 267.909 348.568 273.135 353.403C278.361 358.239 288.305 348.652 288.305 348.652C283.57 345.371 278.971 343.07 274.618 342.541Z" fill="#FFAA82"/>
<path d="M272.239 343.348C271.96 345.532 270.899 347.627 270.534 349.81C270.134 352.206 271.857 353.76 274.065 354.623C279.462 356.729 284.825 352.529 288.698 349.337C289.725 348.49 288.242 347.058 287.226 347.899C284.111 350.462 278.743 354.846 274.413 352.562C273.118 351.882 272.393 351.041 272.69 349.665C272.861 348.846 273.095 348.039 273.323 347.231C273.677 345.955 274.156 344.669 274.327 343.354C274.487 342.05 272.405 342.062 272.239 343.348Z" fill="white"/>
<path d="M253.955 435.669C253.276 434.388 251.491 433.001 250.532 433.268L247.999 437.24L247.623 437.357C246.236 439.095 239.156 446.471 237.24 449.128C236.264 450.476 238.529 451.3 238.529 451.3C243.338 452.175 248.119 450.052 248.119 450.052C250.173 448.676 248.832 446.805 250.931 443.819C251.285 443.312 252.124 442.794 252.261 443.273L252.078 446.471L253.219 446.259C253.219 446.259 253.904 441.691 254.52 438.616C254.777 437.329 254.526 436.265 253.955 435.669Z" fill="#46466B"/>
<path d="M249.882 432.929L247.754 434.65C247.754 434.65 242.408 442.816 241.399 444.449C240.223 446.343 247.252 449.612 252.078 438.455C255.598 432.572 249.882 432.929 249.882 432.929Z" fill="#EF9A78"/>
<path d="M276.678 363.096C275.674 363.492 274.636 363.898 273.563 364.049C273.038 364.121 273.107 364.015 273.05 363.959C272.211 363.258 271.68 361.035 271.241 359.893C269.033 354.166 265.907 349.236 261.246 345.092C258.274 342.452 253.841 346.758 256.825 349.409C259.814 352.072 262.227 355.047 263.979 358.617C265.097 360.901 265.776 363.363 266.871 365.653C269.176 370.46 273.7 370.8 278.35 368.979C282.035 367.541 280.42 361.631 276.678 363.096Z" fill="#FFAA82"/>
<path d="M261.486 330.664C260.516 333.338 260.259 336.563 262.039 338.808C262.364 339.221 262.752 339.583 263.117 339.962C264.076 340.953 264.914 342.056 265.604 343.243C265.724 343.449 265.844 343.66 266.038 343.8C266.483 344.117 267.145 343.911 267.538 343.527C267.926 343.142 268.137 342.624 268.44 342.167C269.341 340.819 288.202 351.548 289.132 350.217C290.392 348.412 285.749 328.052 285.264 325.924C284.642 323.211 270.864 326.809 268.605 325.11C268.16 324.776 267.675 324.503 267.276 324.119C266.706 323.562 266.181 322.375 265.234 322.776C264.469 323.099 264.218 324.442 263.95 325.094C263.18 326.971 262.176 328.754 261.486 330.664Z" fill="#492817"/>
<path d="M275.525 346.663L272.228 334.246L280.198 336.708L282.879 346.847C283.455 348.507 277.91 353.008 275.525 346.663Z" fill="#FFAA82"/>
<path d="M274.732 344.179C274.732 344.179 278.309 342.39 278.321 342.357C278.321 342.357 277.1 344.897 275.32 345.889L274.732 344.179Z" fill="#EA8A6C"/>
<path d="M275.149 344.167L272.673 344.251C268.857 344.373 265.633 341.427 265.508 337.705L265.086 325.406C264.96 321.679 267.978 318.532 271.789 318.409L274.265 318.331C278.081 318.209 281.305 321.155 281.43 324.876L281.852 337.176C281.984 340.892 278.966 344.039 275.149 344.167Z" fill="#FFAA82"/>
<path d="M276.952 328.464C274.077 324.993 268.748 329.132 265.873 328.046C262.752 326.871 263.813 323.746 265.93 321.217C267.065 319.863 268.509 318.715 271.39 317.651C279.456 314.677 287.552 318.008 287.86 326.915C287.86 326.915 288.596 339.12 281.316 340.92L280.843 339.137C280.843 339.137 285.03 334.625 280.569 331.996C279.525 331.383 279.479 331.361 279.576 329.884C279.673 328.386 277.922 329.628 276.952 328.464Z" fill="#492817"/>
<path d="M267.744 337.243L272.028 339.037C272.205 339.109 272.314 339.287 272.291 339.477C272.194 340.14 271.709 341.549 269.37 340.73C267.733 340.156 267.271 338.602 267.145 337.683C267.099 337.36 267.436 337.115 267.744 337.243Z" fill="white"/>
<path d="M267.767 332.475C267.767 332.998 267.55 333.422 267.288 333.422C267.025 333.422 266.808 332.998 266.808 332.475C266.808 331.951 267.025 331.528 267.288 331.528C267.55 331.528 267.767 331.951 267.767 332.475Z" fill="#492817"/>
<path d="M272.936 332.079C273.877 332.096 275.098 332.647 275.748 333.31C276.21 333.784 276.946 333.065 276.484 332.592C275.645 331.734 274.151 331.082 272.936 331.06C272.262 331.049 272.262 332.068 272.936 332.079Z" fill="#492817"/>
<path d="M265.936 329.483C266.871 329.433 268.143 329.862 268.845 330.475C269.341 330.909 270.083 330.196 269.581 329.756C268.68 328.965 267.151 328.397 265.936 328.464C265.268 328.503 265.262 329.522 265.936 329.483Z" fill="#492817"/>
<path d="M276.524 328.024C276.524 328.024 284.591 338.335 283.866 345.081C283.273 350.657 277.066 354.206 275.959 362.634C275.731 364.389 278.053 365.313 279.165 363.921C280.563 362.166 282.394 360.244 284.596 358.773C289.982 355.175 290.963 351.348 290.455 348.546C289.948 345.744 287.706 325.278 287.706 325.278L275.332 324.074L276.524 328.024Z" fill="#492817"/>
<path d="M283.25 337.432C282.138 338.335 280.865 338.023 280.409 336.736C279.953 335.449 280.483 333.678 281.596 332.775C282.708 331.873 283.98 332.185 284.437 333.472C284.893 334.753 284.363 336.53 283.25 337.432Z" fill="#FFAA82"/>
<path d="M263.922 335.098C263.922 335.098 264.041 331.004 274.076 325.651C284.111 320.297 274.533 325.406 274.533 325.406L264.583 323.211C264.578 323.211 260.647 327.567 263.922 335.098Z" fill="#492817"/>
<path d="M266.791 331.082L256.813 337.605L259.175 341.048L269.153 334.525C269.764 334.124 269.735 333.026 269.085 332.079C268.429 331.132 267.402 330.681 266.791 331.082Z" fill="white"/>
<path d="M264.469 331.517L250.27 340.792L253.63 345.694L267.829 336.413C268.702 335.845 268.657 334.285 267.727 332.931C266.802 331.583 265.342 330.948 264.469 331.517Z" fill="white"/>
<path d="M255.319 336.029C255.313 336.034 255.307 336.04 255.302 336.04L237.719 346.863L237.725 346.869C237.702 346.88 237.673 346.891 237.651 346.908C236.424 347.71 236.652 350.15 238.164 352.356C239.676 354.562 241.901 355.698 243.127 354.896C243.15 354.879 243.167 354.863 243.19 354.846L243.196 354.852L260.128 343.048C261.355 342.245 261.275 340.023 259.945 338.084C258.622 336.146 256.545 335.221 255.319 336.029Z" fill="#45446C"/>
<path d="M243.812 342.279C243.806 342.284 243.8 342.29 243.789 342.296L235.129 346.93L242.351 356.818L249.79 351.002C251.319 350.005 251.217 347.242 249.568 344.83C247.919 342.418 245.341 341.282 243.812 342.279Z" fill="#6D64FF"/>
<path d="M241.888 357.204C243.907 355.885 243.987 352.543 242.066 349.741C240.146 346.939 236.953 345.736 234.934 347.055C232.915 348.374 232.835 351.715 234.755 354.518C236.676 357.32 239.869 358.523 241.888 357.204Z" fill="#D0E7F4"/>
<path d="M241.216 350.289C242.682 352.428 242.62 354.98 241.079 355.988C239.539 356.996 237.097 356.077 235.631 353.938C234.165 351.799 234.228 349.248 235.768 348.239C237.308 347.237 239.75 348.15 241.216 350.289Z" fill="#45446C"/>
<path d="M272.422 334.825C273.227 334.725 274.059 335.098 274.607 335.683C274.818 335.912 275.161 335.572 274.949 335.349C274.328 334.681 273.352 334.241 272.422 334.352C272.114 334.385 272.108 334.864 272.422 334.825Z" fill="#492817"/>
<path d="M251.668 341.204C252.894 339.677 255.17 339.41 256.728 340.608L262.125 344.747C263.682 345.939 263.956 348.167 262.735 349.688C261.509 351.214 259.232 351.481 257.675 350.284L252.278 346.145C250.715 344.953 250.441 342.724 251.668 341.204Z" fill="#FFAA82"/>
<path d="M243.72 387.356H240.332C238.175 387.356 236.407 385.629 236.407 383.523C236.407 381.418 238.175 379.691 240.332 379.691H243.72C245.877 379.691 247.646 381.418 247.646 383.523C247.646 385.635 245.883 387.356 243.72 387.356Z" fill="#FFAA82"/>
<path d="M237.508 349.905C237.12 349.025 235.848 348.958 235.374 349.794C234.929 350.573 234.906 351.832 236.412 353.776C239.219 357.397 238.98 353.247 237.508 349.905Z" fill="#7B7BC6"/>
<path d="M237.856 349.615C238.152 349.977 238.147 350.468 237.839 350.707C237.53 350.947 237.04 350.846 236.743 350.479C236.447 350.117 236.452 349.627 236.76 349.387C237.068 349.153 237.559 349.253 237.856 349.615Z" fill="white"/>
<defs>
<linearGradient id="paint0_linear" x1="74.9385" y1="473.356" x2="56.4529" y2="473.356" gradientUnits="userSpaceOnUse">
<stop stop-color="#E1EAF4"/>
<stop offset="0.5566" stop-color="#ABC6E6"/>
<stop offset="0.6486" stop-color="#A8C4E5"/>
</linearGradient>
<linearGradient id="paint1_linear" x1="97.1407" y1="484.807" x2="76.8509" y2="484.807" gradientUnits="userSpaceOnUse">
<stop stop-color="#E1EAF4"/>
<stop offset="0.5566" stop-color="#ABC6E6"/>
<stop offset="0.6486" stop-color="#A8C4E5"/>
</linearGradient>
</defs>
</svg>
