<svg width="425" height="304" viewBox="0 0 425 304" fill="none" xmlns="http://www.w3.org/2000/svg">
<g clip-path="url(#clip0)">
<path d="M1.52997 151.925L168.27 53.5546C169.22 52.9946 170.41 52.9846 171.37 53.5246L402.46 184.065C402.64 184.165 402.78 184.295 402.93 184.425L416.46 192.065C418.54 193.235 418.57 196.225 416.51 197.435L249.77 295.805C248.82 296.365 247.63 296.375 246.67 295.835L15.58 165.295C15.4 165.195 15.2599 165.065 15.11 164.935L1.57996 157.295C-0.500031 156.115 -0.530029 153.135 1.52997 151.925Z" fill="#A8C4E5"/>
<path d="M424.52 185.915L191.71 52.5445L191.28 7.14453L424.04 134.595L424.52 185.915Z" fill="#CE3A77"/>
<path d="M256.27 289.325L423.01 189.625C425.06 188.415 425.02 183.325 422.94 182.145L191.85 51.6147C190.89 51.0747 189.7 51.0847 188.75 51.6447L22.0099 150.015C19.9599 151.225 19.9799 154.205 22.0599 155.385L253.17 289.355C254.14 289.895 255.32 289.885 256.27 289.325Z" fill="#DD4078"/>
<path d="M420.146 178.483L424.446 178.443L424.494 183.603L420.194 183.643L420.146 178.483Z" fill="#DD4078"/>
<path d="M20.1642 147.004L27.0442 146.939L27.1007 152.959L20.2207 153.024L20.1642 147.004Z" fill="#DD4078"/>
<path d="M256.19 280.204L422.93 181.835C424.98 180.624 424.96 177.644 422.88 176.464L191.8 45.9245C190.84 45.3845 189.65 45.3945 188.7 45.9545L21.96 144.324C19.91 145.534 19.93 148.514 22.01 149.694L253.09 280.234C254.05 280.774 255.23 280.764 256.19 280.204Z" fill="#CE3A77"/>
<path d="M253.42 280.575L410.81 190.875L410.33 139.565L252.19 234.285L253.42 280.575Z" fill="#E1EAF4"/>
<path d="M409.99 172.475L254.44 263.355" stroke="#BACED8" stroke-width="1.6635" stroke-miterlimit="10"/>
<path d="M409.85 157.505L251.95 248.165" stroke="#BACED8" stroke-width="1.6635" stroke-miterlimit="10"/>
<path d="M410.08 182.455L254.53 273.335" stroke="#BACED8" stroke-width="1.6635" stroke-miterlimit="10"/>
<path d="M394.98 181.405C394.98 181.405 415.69 197.175 417.09 213.385L402.4 221.425C402.4 221.425 389.91 194.405 381.22 189.445L394.98 181.405Z" fill="#6271F0"/>
<path d="M253.51 280.575L31.42 152.865L30.99 107.465L253.03 230.125L253.51 280.575Z" fill="white"/>
<path d="M255.82 240.485L422.56 142.115C424.61 140.905 424.59 137.925 422.51 136.745L191.42 6.20452C190.46 5.66452 189.27 5.67452 188.32 6.23452L21.5799 104.605C19.5299 105.815 19.5499 108.795 21.6299 109.975L252.72 240.515C253.68 241.055 254.86 241.045 255.82 240.485Z" fill="#DD4078"/>
<path d="M419.726 133.791L424.026 133.75L424.074 138.91L419.774 138.951L419.726 133.791Z" fill="#DD4078"/>
<path d="M19.734 101.452L26.614 101.387L26.6705 107.407L19.7905 107.471L19.734 101.452Z" fill="#DD4078"/>
<path d="M255.76 234.805L422.51 136.435C424.56 135.225 424.54 132.245 422.46 131.065L191.37 0.52459C190.41 -0.0154105 189.22 -0.00541049 188.27 0.55459L21.5298 98.9246C19.4799 100.135 19.4998 103.115 21.5798 104.295L252.66 234.835C253.63 235.375 254.81 235.365 255.76 234.805Z" fill="#EF487C"/>
<path d="M34.06 126.305L251.95 248.165" stroke="#BACED8" stroke-width="1.6635" stroke-miterlimit="10"/>
<path d="M34.1598 136.885L252.04 258.745" stroke="#BACED8" stroke-width="1.6635" stroke-miterlimit="10"/>
<path d="M34.2599 147.465L252.14 269.325" stroke="#BACED8" stroke-width="1.6635" stroke-miterlimit="10"/>
<path d="M168 122.314L237.7 81.1944C240.73 79.4044 240.32 76.3344 236.78 74.3344L204.3 55.9844C200.76 53.9844 195.43 53.8144 192.39 55.6044L122.69 96.7244C119.66 98.5145 120.07 101.584 123.61 103.584L156.09 121.934C159.64 123.934 164.97 124.104 168 122.314Z" fill="white"/>
<path d="M139 102.034L201.71 65.0344C202.65 64.4844 202.52 63.5144 201.42 62.8944C200.32 62.2744 198.66 62.2244 197.72 62.7744L135.01 99.7744C134.07 100.324 134.2 101.294 135.3 101.914C136.39 102.534 138.06 102.594 139 102.034Z" fill="#F1A32F"/>
<path d="M149.64 108.044L212.35 71.0444C213.29 70.4944 213.16 69.5244 212.06 68.9044C210.96 68.2844 209.3 68.2344 208.36 68.7844L145.65 105.784C144.71 106.334 144.84 107.304 145.94 107.924C147.03 108.544 148.7 108.594 149.64 108.044Z" fill="#F1A32F"/>
<path d="M160.27 114.054L222.98 77.0544C223.92 76.5044 223.79 75.5344 222.69 74.9144C221.59 74.2944 219.93 74.2444 218.99 74.7944L156.28 111.794C155.34 112.344 155.47 113.314 156.57 113.934C157.67 114.554 159.33 114.604 160.27 114.054Z" fill="#F1A32F"/>
<path d="M288.83 97.4946C289.92 104.605 291.21 111.875 294.51 118.335C297.46 124.125 301.29 129.415 304.25 135.205C306.55 139.695 308.22 144.165 307.31 149.255C306.24 155.225 304.19 160.805 303.54 166.915C302.81 173.865 291.83 173.935 292.57 166.915C293.25 160.445 294.71 154.435 296.32 148.175C296.74 146.525 296.84 146.415 296.51 144.965C295.9 142.195 294.19 139.595 292.81 137.165C289.95 132.145 286.6 127.365 284.16 122.105C280.95 115.195 279.39 107.895 278.24 100.405C277.19 93.5046 287.76 90.5346 288.83 97.4946Z" fill="#FFAA82"/>
<path d="M289.68 96.8046C294.15 109.535 300.14 121.455 305.12 133.975C306.59 137.675 303.51 141.965 300.01 142.975C295.87 144.165 292.47 141.515 291.01 137.865C286.04 125.365 280.04 113.435 275.57 100.695C272.45 91.7946 286.58 87.9646 289.68 96.8046Z" fill="#91B8DB"/>
<!-- <path d="M254 172.604C256.26 168.634 260.79 168.144 264.59 169.824C268.26 171.444 271.74 173.414 275.08 175.594C275.69 175.504 276.35 175.514 277.05 175.644C284.88 177.094 293.14 178.934 300.16 182.824C309.39 187.934 315.39 195.984 319.99 205.204C326.51 218.284 333.02 231.354 339.54 244.434C339.65 244.664 339.75 244.884 339.84 245.114C342.58 246.574 345.45 248.104 347.62 249.274C354.59 250.584 361.13 252.824 366.66 256.024C385.51 266.904 385.42 284.614 366.45 295.564C347.48 306.514 316.82 306.574 297.97 295.684C281.54 286.204 279.51 271.544 291.8 260.684C292.29 251.594 292.77 242.494 293.26 233.404C293.65 226.084 294.19 218.984 290.84 212.114C287.66 205.574 281.86 200.614 276.44 195.934C270.48 190.794 263.98 186.394 256.77 183.204C252.92 181.494 252.1 175.944 254 172.604ZM322.37 244.654C317.62 235.114 312.86 225.574 308.11 216.034C308.98 220.824 309.15 225.764 308.88 230.784C308.5 237.804 308.13 244.834 307.75 251.854C312.25 250.304 317.09 249.224 322.06 248.584C322.07 248.354 322.1 248.134 322.15 247.924C322.12 247.124 322.24 246.234 322.45 245.344C322.4 245.094 322.38 244.874 322.37 244.654Z" fill="#A8C4E5"/> -->
<path d="M279.41 166.395C287.31 169.885 294.34 174.915 300.93 180.455C307.03 185.585 313.3 191.245 317.49 198.095C323 207.095 324.25 217.055 323.7 227.345C322.92 241.935 322.14 256.525 321.35 271.115C320.82 281.025 305.33 281.085 305.87 271.115C306.6 257.405 307.34 243.685 308.07 229.975C308.46 222.655 309 215.555 305.65 208.685C302.47 202.145 296.67 197.185 291.25 192.505C285.29 187.365 278.79 182.965 271.58 179.775C267.77 178.085 266.85 172.495 268.8 169.185C271.14 165.235 275.56 164.685 279.41 166.395Z" fill="#EF9A78"/>
<path d="M354.89 247.945C343.33 235.555 336.27 222.215 323.71 210.935C321.55 208.995 319.47 207.335 316.7 206.365C315.93 206.095 314.53 205.765 314.7 205.795C314.64 205.785 316.03 205.435 314.44 205.935C310.74 207.105 306.98 208.255 303.18 209.035C290.14 211.695 277.44 209.505 266.39 201.915C258.23 196.315 265.96 182.885 274.2 188.545C284.4 195.545 294.42 195.765 305.9 192.315C308.93 191.405 312.14 190.175 315.36 190.335C322.14 190.655 328.33 194.525 333.31 198.805C346.3 209.985 354.31 224.655 365.82 236.995C372.63 244.275 361.71 255.245 354.89 247.945Z" fill="#FFAA82"/>
<path d="M363.7 257.704L364.18 256.715C364.45 256.155 364.21 255.465 363.65 255.195C363.09 254.925 362.4 255.165 362.13 255.725L361.65 256.715C361.38 257.275 361.62 257.964 362.18 258.234C362.75 258.504 363.43 258.264 363.7 257.704Z" fill="#514677"/>
<path d="M364.06 255.505L360.99 251.365C360.62 250.865 359.9 250.755 359.4 251.125C358.9 251.495 358.79 252.215 359.16 252.715L362.23 256.855C362.6 257.355 363.32 257.465 363.82 257.095C364.32 256.725 364.43 256.015 364.06 255.505Z" fill="#423A66"/>
<path d="M348.79 242.694C348.35 239.994 349.44 235.894 351.17 235.244L359.45 238.504L360.14 238.264C364.17 239.384 383.09 242.814 388.95 244.744C391.93 245.724 389.49 249.484 389.49 249.484C383.31 256.134 373.78 258.184 373.78 258.184C369.16 258.364 369.04 254.014 362.52 251.774C361.42 251.394 359.59 251.534 359.92 252.414L363.81 257.094L361.87 258.034C361.87 258.034 355.67 251.814 351.27 247.804C349.45 246.134 348.62 244.234 348.79 242.694Z" fill="#46466B"/>
<path d="M351.76 234.004L356.89 234.274C356.89 234.274 374.11 240.834 377.46 242.214C381.36 243.814 374.58 256.564 354.75 244.874C342.84 239.784 351.76 234.004 351.76 234.004Z" fill="#FFAA82"/>
<path d="M290.31 156.014C316.85 172.844 333.05 188.234 332.05 195.464C332.05 195.464 318.83 188.134 308.45 194.154C298.2 200.114 300.42 205.224 303.04 207.974C303.86 208.834 298.49 214.564 297.29 214.604C284.99 214.974 246.92 210.484 246.16 187.284C245.52 167.614 248.21 165.264 248.21 165.264C248.21 165.264 275.88 174.854 290.31 156.014Z" fill="#BC4073"/>
<path d="M239.66 97.8045C245.59 91.2145 256.34 88.1045 264.91 87.7245C267.4 87.6145 267.39 91.4845 264.91 91.5945C257.34 91.9345 247.63 94.7245 242.4 100.544C240.72 102.394 237.99 99.6545 239.66 97.8045Z" fill="#BC4073"/>
<path d="M282.59 100.705C282.59 100.705 292.71 114.765 292.16 123.625C291.81 129.265 288.13 135.795 287.64 137.625C283.65 152.575 286.58 156.865 286.29 160.955C286.29 160.955 283.87 175.095 248.66 163.885L233.08 122.635L282.59 100.705Z" fill="#D0E7F4"/>
<path d="M236.87 132.345C236.55 131.815 233.22 126.575 233.09 125.965C231.54 118.995 227.45 113.675 234.91 104.435C236.46 102.505 253.61 91.8845 267.03 88.6545C273.53 87.0845 280.24 90.3745 283.24 96.3445C285 99.8345 286.91 106.835 286.91 106.845C288.36 120.725 281.14 102.805 280.6 110.545C280.62 110.355 280.66 110.165 280.68 109.975C280.68 109.975 279.75 123.055 279.05 133.175C278.62 139.495 278.32 144.055 278.31 144.695C278.31 144.725 278.31 144.765 278.31 144.775L255.87 164.665L242.21 143.035L236.87 132.345Z" fill="#D0E7F4"/>
<path d="M266.17 88.5144C266.17 88.5144 278.62 99.9744 268.92 109.164C259.22 118.354 240.76 100.124 240.76 100.124C249.55 93.8944 258.09 89.5144 266.17 88.5144Z" fill="#FFAA82"/>
<path d="M233.09 125.965C234.61 126.595 238.83 132.265 242.15 135.195C248.59 140.895 257.92 144.185 266.15 141.705C278.24 138.065 290.31 131.135 290.31 131.135C290.31 131.135 285.98 148.485 288.41 158.305C289.53 162.865 288.87 162.045 288.87 162.045C288.86 166.465 281.54 165.675 281.54 165.675C266.3 171.385 248.68 163.885 248.68 163.885L236.93 135.045L233.09 125.965Z" fill="#A8C4E5"/>
<path d="M292.4 157.734C292.77 158.694 292.57 159.774 291.89 160.544C289.43 163.314 282.62 169.514 270.29 170.454C259.73 171.254 253.25 170.104 250.07 169.234C248.7 168.864 247.83 167.524 248.07 166.124L248.22 165.264C248.48 163.724 249.97 162.704 251.5 163.034C257.4 164.324 271.3 166.634 279.94 162.194C283.92 160.144 286.39 158.304 287.91 156.774C289.31 155.364 291.69 155.874 292.4 157.734Z" fill="#46466B"/>
<path d="M276.83 170.235L282.48 167.985C284.36 167.235 285.6 165.035 285.24 163.085C284.88 161.135 283.05 160.155 281.17 160.895L275.52 163.145C273.64 163.895 272.4 166.095 272.76 168.045C273.12 169.995 274.95 170.975 276.83 170.235Z" fill="white"/>
<path d="M277.9 168.235L281.17 166.935C282.26 166.505 282.98 165.225 282.77 164.095C282.56 162.965 281.5 162.395 280.41 162.825L277.14 164.125C276.05 164.555 275.33 165.835 275.54 166.965C275.75 168.105 276.81 168.675 277.9 168.235Z" fill="#46466B"/>
<path d="M270.59 90.0445C271.57 98.0545 278.12 105.864 268.5 110.904C258.27 116.264 247.48 107.714 240.02 101.434C238.11 99.8245 240.86 97.1045 242.76 98.6945C249.04 103.984 259.36 112.424 267.78 106.844C271.37 104.464 269.52 100.904 268.58 97.4445C267.92 95.0145 267.02 92.5545 266.71 90.0445C266.42 87.5745 270.29 87.5945 270.59 90.0445Z" fill="#BC4073"/>
<path d="M307.55 286.485L308.52 285.975C309.07 285.685 309.29 284.995 309 284.445C308.71 283.895 308.02 283.675 307.47 283.965L306.5 284.475C305.95 284.765 305.73 285.455 306.02 286.005C306.31 286.565 307 286.775 307.55 286.485Z" fill="#514677"/>
<path d="M309.15 284.935V279.785C309.15 279.155 308.64 278.645 308.01 278.645C307.38 278.645 306.87 279.155 306.87 279.785V284.935C306.87 285.565 307.38 286.075 308.01 286.075C308.63 286.065 309.15 285.555 309.15 284.935Z" fill="#423A66"/>
<path d="M304.52 265.545C305.78 263.115 309.1 260.474 310.87 260.984L315.58 268.535L316.28 268.755C318.85 272.055 331.99 286.085 335.56 291.125C337.37 293.685 333.17 295.255 333.17 295.255C324.24 296.915 315.37 292.885 315.37 292.885C311.55 290.275 314.04 286.705 310.15 281.035C309.49 280.075 307.94 279.095 307.68 279.995L308.01 286.075L305.89 285.665C305.89 285.665 304.62 276.975 303.47 271.135C303 268.705 303.47 266.685 304.52 265.545Z" fill="#46466B"/>
<path d="M312.09 260.335L316.04 263.605C316.04 263.605 325.96 279.135 327.83 282.235C330.01 285.835 316.97 292.045 308 270.845C301.47 259.665 312.09 260.335 312.09 260.335Z" fill="#EF9A78"/>
<path d="M290.55 65.9345C292.35 71.0245 292.83 77.1445 289.52 81.4145C288.91 82.1945 288.2 82.8845 287.52 83.6045C285.74 85.4945 284.19 87.5845 282.9 89.8445C282.68 90.2345 282.46 90.6345 282.1 90.9045C281.27 91.5145 280.04 91.1145 279.32 90.3845C278.6 89.6545 278.2 88.6645 277.64 87.8045C275.97 85.2445 240.95 105.634 239.23 103.104C236.89 99.6745 245.51 60.9645 246.41 56.9145C247.57 51.7545 273.14 58.5945 277.33 55.3745C278.15 54.7445 279.06 54.2145 279.79 53.4845C280.85 52.4245 281.82 50.1745 283.59 50.9345C285 51.5445 285.48 54.1045 285.97 55.3445C287.4 58.9145 289.26 62.2945 290.55 65.9345Z" fill="#492817"/>
<path d="M264.48 96.3446L270.6 72.7346L255.81 77.4146L250.83 96.6946C249.77 99.8446 260.06 108.405 264.48 96.3446Z" fill="#FFAA82"/>
<path d="M265.96 91.6245C265.96 91.6245 259.32 88.2246 259.3 88.1646C259.3 88.1646 261.57 92.9946 264.87 94.8846L265.96 91.6245Z" fill="#EA8A6C"/>
<path d="M265.18 91.5945L269.78 91.7445C276.86 91.9845 282.85 86.3845 283.09 79.2945L283.87 55.9145C284.11 48.8345 278.51 42.8445 271.42 42.6045L266.82 42.4545C259.74 42.2145 253.75 47.8145 253.51 54.9045L252.73 78.2845C252.5 85.3745 258.1 91.3645 265.18 91.5945Z" fill="#FFAA82"/>
<path d="M261.83 61.7445C267.17 55.1445 277.06 63.0145 282.39 60.9545C288.18 58.7246 286.21 52.7745 282.28 47.9745C280.17 45.3945 277.49 43.2246 272.14 41.2046C257.16 35.5446 242.14 41.8745 241.57 58.8145C241.57 58.8145 240.2 82.0145 253.72 85.4445L254.6 82.0546C254.6 82.0546 246.83 73.4845 255.11 68.4745C257.04 67.3045 257.13 67.2745 256.96 64.4545C256.79 61.5945 260.04 63.9645 261.83 61.7445Z" fill="#492817"/>
<path d="M271.61 85.4646L279.57 82.0546C279.9 81.9146 280.1 81.5746 280.05 81.2246C279.87 79.9646 278.97 77.2846 274.63 78.8346C271.59 79.9246 270.73 82.8746 270.5 84.6246C270.41 85.2446 271.04 85.7146 271.61 85.4646Z" fill="white"/>
<path d="M278.89 69.3745C278.89 70.3645 279.29 71.1745 279.78 71.1745C280.27 71.1745 280.67 70.3645 280.67 69.3745C280.67 68.3845 280.27 67.5745 279.78 67.5745C279.29 67.5745 278.89 68.3745 278.89 69.3745Z" fill="#492817"/>
<path d="M268.3 73.6945C268.3 74.6845 268.7 75.4945 269.19 75.4945C269.68 75.4945 270.08 74.6845 270.08 73.6945C270.08 72.7045 269.68 71.8945 269.19 71.8945C268.7 71.8945 268.3 72.7045 268.3 73.6945Z" fill="#492817"/>
<path d="M269.57 68.8046C267.93 69.4046 266.12 71.1346 265.39 72.7146C264.87 73.8446 263.13 72.9946 263.65 71.8646C264.59 69.8146 266.82 67.7446 268.94 66.9746C270.12 66.5446 270.74 68.3746 269.57 68.8046Z" fill="#492817"/>
<path d="M282.59 66.2546C280.96 65.6346 278.46 65.7046 276.87 66.4346C275.74 66.9446 274.84 65.2346 275.98 64.7146C278.03 63.7846 281.06 63.6046 283.18 64.4046C284.33 64.8546 283.75 66.7046 282.59 66.2546Z" fill="#492817"/>
<path d="M250.14 78.7945C252.2 80.5145 254.56 79.9145 255.41 77.4745C256.26 75.0245 255.27 71.6545 253.21 69.9445C251.15 68.2245 248.79 68.8245 247.94 71.2645C247.09 73.7045 248.08 77.0745 250.14 78.7945Z" fill="#FFAA82"/>
<path d="M286.03 74.3644C286.03 74.3644 285.8 66.5844 267.18 56.4044C248.56 46.2344 266.34 55.9344 266.34 55.9344L284.81 51.7544C284.8 51.7644 292.1 60.0444 286.03 74.3644Z" fill="#492817"/>
<path d="M50.0401 135.435L27.0901 149.975L172.11 203.505L50.0401 135.435Z" fill="#F1A32F"/>
<path d="M238.38 123.055C237.24 130.605 237.27 137.715 237.57 145.295C237.89 153.415 235.98 161.965 237.15 170.005C237.15 170.015 237.43 171.555 237.46 171.385C237.47 171.315 237.04 171.145 237.33 171.245C238.3 171.575 236.71 171.155 237.43 171.285C237.83 171.355 238.22 171.535 238.64 171.575C239.1 171.625 239.99 171.705 241.19 171.775C249.24 172.195 257.2 172.275 265.21 173.305C272.11 174.195 272.2 185.175 265.21 184.275C256.43 183.135 247.63 183.465 238.86 182.585C233.19 182.015 228.32 179.725 226.75 173.795C224.54 165.425 226.83 155.885 226.66 147.375C226.47 138.045 226.39 129.445 227.8 120.125C228.85 113.185 239.43 116.145 238.38 123.055Z" fill="#FFAA82"/>
<path d="M243.6 115.245C240.62 122.795 238.72 130.355 238.62 138.485C238.52 146.685 239.36 154.875 239.55 163.075C239.76 172.495 225.14 172.485 224.92 163.075C224.72 154.435 223.77 145.775 224.02 137.125C224.28 128.215 226.24 119.635 229.5 111.355C230.96 107.655 234.38 105.165 238.5 106.245C242 107.175 245.04 111.575 243.6 115.245Z" fill="#D0E7F4"/>
<path d="M295.97 177.365C299.4 177.915 302.66 175.565 303.22 172.125L305.39 158.655C305.94 155.225 303.59 151.955 300.15 151.405C296.72 150.855 293.46 153.205 292.9 156.645L290.73 170.115C290.18 173.555 292.54 176.815 295.97 177.365Z" fill="#FFAA82"/>
<path d="M261.27 186.194L261.28 184.964L262.86 185.574L263.2 184.794L302.74 161.964C303.22 161.694 304.06 161.724 304.61 162.044L321.63 171.874V171.604L324.78 172.864V174.164H324.76C324.72 174.294 324.62 174.404 324.46 174.504L283.32 198.254C282.84 198.524 282 198.494 281.45 198.174L261.73 186.794C261.42 186.634 261.27 186.414 261.27 186.194Z" fill="#A8C4E5"/>
<path d="M283.33 196.965L324.47 173.215C324.95 172.945 324.89 172.455 324.34 172.135L304.62 160.755C304.07 160.435 303.23 160.405 302.75 160.675L261.61 184.425C261.13 184.695 261.19 185.185 261.74 185.505L281.46 196.885C282.01 197.205 282.85 197.245 283.33 196.965Z" fill="#E1EAF4"/>
<path d="M280.52 181.664L290.48 175.914C290.6 175.844 290.58 175.734 290.45 175.654L285.68 172.904C285.55 172.824 285.34 172.814 285.23 172.884L275.27 178.634C275.15 178.704 275.17 178.814 275.3 178.894L280.07 181.644C280.2 181.724 280.4 181.734 280.52 181.664Z" fill="#A8C4E5"/>
<path d="M284.38 170.235C284.55 169.155 285.4 167.865 286.28 167.365L327.12 144.155C327.48 143.945 327.79 143.915 328.02 144.015H328.03C328.11 144.055 328.18 144.105 328.24 144.175L329.59 145.595L328.36 145.485L324.48 170.585C324.31 171.665 323.46 172.955 322.58 173.455L283.95 195.405L282.7 196.805L282.54 197.155C281.76 197.325 279.89 195.995 279.89 195.995L284.38 170.235Z" fill="white"/>
<path d="M283.19 198.184L324.04 174.974C324.92 174.474 325.77 173.194 325.94 172.104L329.87 146.724C330.04 145.644 329.46 145.164 328.58 145.664L287.73 168.874C286.85 169.374 286 170.654 285.83 171.744L281.9 197.124C281.73 198.214 282.31 198.684 283.19 198.184Z" fill="#45446C"/>
<path d="M280.56 183.765C281.64 180.465 279.83 176.875 276.52 175.785L265.08 172.035C261.78 170.955 258.19 172.765 257.1 176.075C256.02 179.375 257.83 182.965 261.14 184.055L272.58 187.805C275.89 188.885 279.48 187.065 280.56 183.765Z" fill="#FFAA82"/>
<path d="M304.9 173.614C304.69 174.964 305.91 175.264 307.63 174.284C309.35 173.304 310.91 171.424 311.12 170.074C311.33 168.724 310.11 168.424 308.39 169.404C306.67 170.384 305.11 172.264 304.9 173.614Z" fill="white"/>
<path d="M262.63 60.9045C262.63 60.9045 247.66 80.5045 249 93.3245C250.1 103.925 261.62 110.675 263.68 126.695C264.11 130.025 259.8 131.785 257.73 129.135C255.14 125.795 251.73 122.145 247.64 119.355C237.64 112.515 235.82 105.245 236.77 99.9145C237.71 94.5845 241.88 55.6745 241.88 55.6745L264.85 53.3845L262.63 60.9045Z" fill="#492817"/>
</g>
<defs>
<clipPath id="clip0">
<rect width="424.52" height="303.69" fill="white" transform="matrix(-1 0 0 1 424.52 0.124512)"/>
</clipPath>
</defs>
</svg>
