<svg width="475" height="438" viewBox="0 0 475 438" fill="none" xmlns="http://www.w3.org/2000/svg">
<g clip-path="url(#clip0)">
<path opacity="0.2" d="M93.0759 360.076L113.252 371.738L104.774 376.634L84.5974 364.973L93.0759 360.076Z" fill="#2B2A2F"/>
<path opacity="0.2" d="M206.808 397.211L170.551 376.261L160.445 382.104L155.078 385.211L172.934 395.531L122.441 401.499L115.189 405.696L109.821 408.798L148.535 431.169L158.647 425.332L158.641 425.327L164.014 422.225L143.695 410.483L194.188 404.509L201.44 400.318L206.808 397.211Z" fill="#2B2A2F"/>
<path opacity="0.2" d="M98.3463 333.193L83.8297 324.805L13.9393 345.846L17.9208 348.146L9.85474 350.576L22.16 357.686L38.0744 352.279L53.943 361.447L49.1308 366.177L49.5891 366.44L45.0463 370.907L57.8442 378.302L98.3463 333.193ZM69.0611 346.603L65.4004 350.141L57.701 345.692C63.8937 343.633 70.6364 341.18 76.8979 338.926C74.1653 341.541 71.427 344.184 69.0611 346.603Z" fill="#2B2A2F"/>
<path d="M35.3818 348.403V366.176L48.1798 373.572C48.1798 373.572 52.8143 340.325 51.955 340.325C51.0957 340.325 35.3818 348.403 35.3818 348.403Z" fill="#2C4482"/>
<path d="M0.19043 328.068V345.847L84.5974 333.193V315.414L66.7066 314.767L0.19043 328.068Z" fill="#2C4482"/>
<path d="M70.0751 324.805L84.5917 333.193L48.1742 373.572L35.3762 366.177L44.7312 356.98L28.4044 347.549L12.49 352.956L0.19043 345.846L70.0751 324.805ZM40.2514 343.553L51.6515 350.141L55.3122 346.603C59.1332 342.687 60.7888 339.884 64.9364 335.876L67.755 334.007C60.8175 336.501 53.2269 339.27 46.4556 341.483L40.2514 343.553Z" fill="#2C4482"/>
<path d="M162.233 336.467L64.9136 280.235C63.7163 279.541 63.7163 277.81 64.9136 277.116L198.335 200.027C198.891 199.706 199.579 199.706 200.134 200.027L297.454 256.259C298.651 256.952 298.651 258.684 297.454 259.378L164.032 336.467C163.476 336.788 162.789 336.788 162.233 336.467Z" fill="#D88D2B"/>
<path d="M67.9498 275.041H64.0142V278.979H67.9498V275.041Z" fill="#D88D2B"/>
<path d="M298.055 253.168H294.492V256.734H298.055V253.168Z" fill="#DD4078"/>
<path d="M162.233 333.164L64.9136 276.933C63.7163 276.239 63.7163 274.507 64.9136 273.814L198.335 196.724C198.891 196.403 199.579 196.403 200.134 196.724L297.454 252.956C298.651 253.65 298.651 255.381 297.454 256.075L164.032 333.164C163.476 333.485 162.789 333.485 162.233 333.164Z" fill="#D88D2B"/>
<path d="M157.73 331.272L72.9683 282.115V252.302L157.73 301.465V331.272Z" fill="#D8E3F0"/>
<path d="M162.233 310.088L64.9136 253.856C63.7163 253.162 63.7163 251.431 64.9136 250.737L198.335 173.648C198.891 173.327 199.579 173.327 200.134 173.648L297.454 229.88C298.651 230.573 298.651 232.305 297.454 232.999L164.032 310.088C163.476 310.409 162.789 310.409 162.233 310.088Z" fill="#D88D2B"/>
<path d="M67.9498 248.788H64.0142V252.291H67.9498V248.788Z" fill="#DEA749"/>
<path d="M298.342 228.658H294.406V231.284H298.342V228.658Z" fill="#DEA749"/>
<path d="M162.233 306.786L64.9136 250.554C63.7163 249.86 63.7163 248.129 64.9136 247.435L198.335 170.346C198.891 170.025 199.579 170.025 200.134 170.346L297.454 226.578C298.651 227.271 298.651 229.003 297.454 229.696L164.032 306.786C163.476 307.107 162.789 307.107 162.233 306.786Z" fill="#DEA749"/>
<path d="M164.141 336.708L298.049 257.967V231.588L164.141 306.895V336.708Z" fill="#EBD265"/>
<path d="M72.3723 271.423L154.854 318.614" stroke="#BACED8" stroke-width="1.6855" stroke-miterlimit="10"/>
<path d="M72.3723 262.726L154.854 309.916" stroke="#BACED8" stroke-width="1.6855" stroke-miterlimit="10"/>
<path d="M72.3723 277.219L154.854 324.41" stroke="#BACED8" stroke-width="1.6855" stroke-miterlimit="10"/>
<path d="M65.2229 241.335L202.701 162.526L202.953 135.694L65.5093 211.012L65.2229 241.335Z" fill="#4265C2"/>
<path d="M164.576 302.451L66.1223 243.531C64.9079 242.814 64.9365 239.804 66.1624 239.111L202.615 161.964C203.182 161.643 203.881 161.649 204.442 161.981L302.902 220.111C304.116 220.827 304.099 222.587 302.873 223.281L166.398 302.457C165.836 302.79 165.138 302.784 164.576 302.451Z" fill="#4265C2"/>
<path d="M67.8066 236.954L65.2688 236.93L65.2402 239.981L67.778 240.004L67.8066 236.954Z" fill="#4265C2"/>
<path d="M303.997 218.35L299.936 218.312L299.902 221.867L303.964 221.905L303.997 218.35Z" fill="#6271F0"/>
<path d="M164.622 297.057L66.1624 238.927C64.9479 238.21 64.9651 236.45 66.191 235.757L202.643 158.61C203.211 158.289 203.909 158.295 204.471 158.627L302.93 216.757C304.145 217.473 304.128 219.233 302.902 219.927L166.455 297.074C165.888 297.4 165.189 297.389 164.622 297.057Z" fill="#4265C2"/>
<path d="M166.26 297.28L73.3176 244.27L73.6041 213.947L166.988 269.921L166.26 297.28Z" fill="#D8E3F0"/>
<path d="M73.8044 233.395L165.659 287.098" stroke="#BACED8" stroke-width="1.7146" stroke-miterlimit="10"/>
<path d="M73.8904 224.548L167.131 278.125" stroke="#BACED8" stroke-width="1.7146" stroke-miterlimit="10"/>
<path d="M73.7473 239.294L165.602 292.997" stroke="#BACED8" stroke-width="1.7146" stroke-miterlimit="10"/>
<path d="M166.209 297.28L297.351 221.808L297.603 194.976L166.489 267.462L166.209 297.28Z" fill="white"/>
<path d="M164.845 273.585L66.3858 215.455C65.1713 214.738 65.1885 212.978 66.4144 212.285L202.867 135.138C203.434 134.817 204.133 134.823 204.694 135.155L303.154 193.285C304.368 194.001 304.351 195.761 303.125 196.455L166.673 273.602C166.106 273.929 165.407 273.917 164.845 273.585Z" fill="#4265C2"/>
<path d="M68.0586 210.546L65.5208 210.522L65.4922 213.572L68.03 213.596L68.0586 210.546Z" fill="#6271F0"/>
<path d="M304.249 191.426L300.188 191.388L300.154 194.942L304.216 194.98L304.249 191.426Z" fill="#6271F0"/>
<path d="M164.873 270.231L66.4139 212.095C65.1994 211.379 65.2166 209.619 66.4425 208.925L202.895 131.778C203.462 131.457 204.161 131.463 204.722 131.796L303.182 189.925C304.396 190.642 304.379 192.402 303.153 193.095L166.707 270.248C166.134 270.569 165.441 270.563 164.873 270.231Z" fill="#97CBFF"/>
<path d="M295.787 206.11L167.131 278.125" stroke="#BACED8" stroke-width="1.7146" stroke-miterlimit="10"/>
<path d="M295.729 212.365L167.074 284.38" stroke="#BACED8" stroke-width="1.7146" stroke-miterlimit="10"/>
<path d="M295.672 218.62L167.011 290.63" stroke="#BACED8" stroke-width="1.7146" stroke-miterlimit="10"/>
<path d="M216.696 203.754L175.541 179.456C173.748 178.395 173.994 176.584 176.085 175.403L195.265 164.561C197.356 163.38 200.507 163.277 202.294 164.338L243.449 188.635C245.242 189.696 244.996 191.507 242.905 192.688L223.725 203.53C221.634 204.705 218.489 204.809 216.696 203.754Z" fill="white"/>
<path d="M233.825 191.771L196.794 169.91C196.239 169.584 196.313 169.016 196.961 168.649C197.608 168.282 198.593 168.254 199.149 168.58L236.179 190.441C236.735 190.768 236.661 191.336 236.013 191.703C235.36 192.064 234.381 192.098 233.825 191.771Z" fill="#DEA749"/>
<path d="M227.54 195.32L190.51 173.459C189.954 173.132 190.029 172.565 190.676 172.198C191.324 171.831 192.309 171.802 192.865 172.129L229.895 193.99C230.451 194.317 230.376 194.884 229.729 195.251C229.082 195.618 228.096 195.647 227.54 195.32Z" fill="#DEA749"/>
<path d="M221.262 198.869L184.231 177.008C183.676 176.681 183.75 176.114 184.397 175.747C185.045 175.38 186.03 175.351 186.586 175.678L223.616 197.539C224.172 197.866 224.097 198.433 223.45 198.8C222.803 199.167 221.817 199.196 221.262 198.869Z" fill="#DEA749"/>
<path d="M66.0996 202.831L203.577 124.021L203.829 97.1897L66.386 172.507L66.0996 202.831Z" fill="#CE3A77"/>
<path d="M165.447 263.947L66.9932 205.026C65.7787 204.31 65.8073 201.3 67.0333 200.606L203.486 123.459C204.053 123.138 204.752 123.144 205.313 123.477L303.773 181.606C304.987 182.323 304.97 184.083 303.744 184.777L167.269 263.953C166.707 264.285 166.014 264.28 165.447 263.947Z" fill="#DD4078"/>
<path d="M68.6833 198.448L66.1455 198.424L66.1169 201.474L68.6547 201.498L68.6833 198.448Z" fill="#DD4078"/>
<path d="M304.874 179.845L300.812 179.806L300.779 183.361L304.841 183.399L304.874 179.845Z" fill="#DD4078"/>
<path d="M165.499 258.558L67.0391 200.422C65.8246 199.706 65.8418 197.946 67.0677 197.252L203.52 120.111C204.087 119.79 204.786 119.796 205.348 120.128L303.813 178.258C305.027 178.974 305.01 180.734 303.784 181.428L167.332 258.575C166.759 258.896 166.06 258.89 165.499 258.558Z" fill="#CE3A77"/>
<path d="M167.137 258.776L74.1941 205.766L74.4805 175.443L167.864 231.417L167.137 258.776Z" fill="#D8E3F0"/>
<path d="M74.6812 194.896L166.53 248.599" stroke="#BACED8" stroke-width="1.7146" stroke-miterlimit="10"/>
<path d="M74.7612 186.049L168.002 239.621" stroke="#BACED8" stroke-width="1.7146" stroke-miterlimit="10"/>
<path d="M74.6238 200.79L166.478 254.493" stroke="#BACED8" stroke-width="1.7146" stroke-miterlimit="10"/>
<path d="M167.08 258.776L298.227 183.303L298.479 156.471L167.36 228.957L167.08 258.776Z" fill="white"/>
<path d="M165.722 235.086L67.2566 176.951C66.0421 176.234 66.0593 174.474 67.2853 173.78L203.738 96.6335C204.305 96.3125 205.004 96.3182 205.565 96.6507L304.025 154.78C305.239 155.497 305.222 157.257 303.996 157.951L167.549 235.103C166.982 235.424 166.283 235.418 165.722 235.086Z" fill="#DD4078"/>
<path d="M68.9294 172.04L66.3916 172.016L66.363 175.066L68.9008 175.09L68.9294 172.04Z" fill="#DD4078"/>
<path d="M305.126 152.926L301.064 152.887L301.031 156.442L305.093 156.48L305.126 152.926Z" fill="#DD4078"/>
<path d="M165.75 231.726L67.2906 173.597C66.0761 172.88 66.0933 171.12 67.3192 170.426L203.772 93.2795C204.339 92.9585 205.038 92.9642 205.599 93.2967L304.059 151.426C305.273 152.143 305.256 153.903 304.03 154.597L167.583 231.743C167.01 232.064 166.311 232.059 165.75 231.726Z" fill="#EB6092"/>
<path d="M296.663 167.605L168.002 239.621" stroke="#BACED8" stroke-width="1.7146" stroke-miterlimit="10"/>
<path d="M296.6 173.86L167.945 245.876" stroke="#BACED8" stroke-width="1.7146" stroke-miterlimit="10"/>
<path d="M296.543 180.115L167.887 252.131" stroke="#BACED8" stroke-width="1.7146" stroke-miterlimit="10"/>
<path d="M287.228 173L300.782 181.595L215.149 213.231L287.228 173Z" fill="#DEA749"/>
<path d="M196.789 129.708L203.835 133.779L186.162 153.375L179.952 149.786L184.495 145.326L176.572 140.751L168.85 143.377L162.88 139.925L196.789 129.708ZM182.312 138.807L187.846 142.006L189.622 140.292C191.478 138.394 193.804 136.216 195.821 134.272L195.66 134.18C192.292 135.39 188.608 136.737 185.32 137.81L182.312 138.807Z" fill="white"/>
<path d="M199.699 147.258L209.489 152.917L205.376 155.296L195.586 149.637L199.699 147.258Z" fill="white"/>
<path d="M203.302 159.212L232.135 155.801L221.743 149.798L226.647 146.966L244.24 157.131L240.716 159.166L211.884 162.577L223.467 169.274L218.563 172.106L199.773 161.247L203.302 159.212Z" fill="white"/>
<path d="M70.0751 307.027L84.5917 315.414L48.1742 355.794L35.3762 348.398L44.7312 339.202L28.4044 329.77L12.49 335.177L0.19043 328.068L70.0751 307.027ZM40.2514 325.78L51.6515 332.368L55.3122 328.83C59.1332 324.914 63.9339 320.437 68.0815 316.429L67.755 316.24C60.8175 318.734 53.2269 321.503 46.4556 323.716L40.2514 325.78Z" fill="#4265C2"/>
<path d="M85.3765 346.821L105.553 358.483L97.0745 363.379L76.8979 351.717L85.3765 346.821Z" fill="#DBEFFF"/>
<path d="M117.641 382.27C120.694 382.27 165.687 380.137 165.687 380.137L166.719 392.963L133.303 396.03L115.349 383.669L117.641 382.27Z" fill="#DEA749"/>
<path d="M141.518 360.077V377.855L164.141 390.492L187.88 392.963V375.19L141.518 360.077Z" fill="#DEA749"/>
<path d="M96.261 383.669C96.261 383.669 95.3272 400.903 96.261 401.442C97.1947 401.981 134.981 423.813 134.981 423.813L145.087 417.971V400.198L96.261 383.669Z" fill="#DEA749"/>
<path d="M103.514 397.251L162.926 390.222L141.518 377.85L151.623 372.007L187.88 392.957L180.628 397.148L121.215 404.177L145.087 417.971L134.981 423.813L96.261 401.442L103.514 397.251Z" fill="#DEA749"/>
<path d="M103.513 379.478L162.925 372.449L141.517 360.077L151.622 354.234L187.879 375.184L180.627 379.375L121.214 386.404L145.086 400.198L134.98 406.04L96.26 383.669L103.513 379.478Z" fill="#EBD265"/>
<path opacity="0.2" d="M373.176 402.996L301.733 360.816C300.851 360.294 300.862 359.016 301.756 358.517C301.756 358.517 363.3 271.194 386.049 293.003L473.543 344.734C474.426 345.256 474.414 346.535 473.52 347.033L374.505 403.007C374.093 403.242 373.589 403.236 373.176 402.996Z" fill="#2B2A2F"/>
<path d="M380.612 399.888L260.257 328.83C253.131 324.714 247.35 313.66 247.35 304.149V55.1878C247.35 45.6763 253.131 41.3018 260.257 45.424L379.254 114.183C386.381 118.299 392.161 129.353 392.161 138.865V386.644C392.161 392.905 390.213 394.052 386.278 396.328L380.612 399.888Z" fill="#B6D4ED"/>
<path d="M303.48 162.187C303.48 162.187 247.299 313.413 247.299 303.902L244.389 46.8974L252.231 44.2544C254.425 43.2166 257.192 43.446 260.206 45.1831L379.203 113.936C382.686 115.949 385.842 119.612 388.162 123.941L303.48 162.187Z" fill="#DBEFFF"/>
<path d="M368.33 402.428L249.619 333.669C242.493 329.552 237.004 318.499 237.004 308.987V60.0322C237.004 50.5208 242.63 46.1463 249.762 50.2685L368.404 119.027C375.531 123.144 380.95 134.198 380.95 143.709V392.67C380.95 402.176 375.456 406.55 368.33 402.428Z" fill="#2C4482"/>
<path d="M386.049 161.97V176.188C386.049 177.18 386.639 177.639 387.383 177.209L387.206 177.088C387.945 176.658 388.168 175.5 388.168 174.508V160.29C388.168 159.298 387.939 158.839 387.2 159.269L387.194 159.39C386.45 159.82 386.049 160.978 386.049 161.97Z" fill="#2C4482"/>
<path d="M386.049 186.858V201.076C386.049 202.068 386.639 202.527 387.383 202.097L387.206 201.976C387.945 201.546 388.168 200.388 388.168 199.396V185.178C388.168 184.186 387.939 183.727 387.2 184.157L387.194 184.278C386.45 184.708 386.049 185.872 386.049 186.858Z" fill="#2C4482"/>
<path d="M365.035 359.881L249.298 293.009C248.095 292.315 247.35 291.025 247.35 289.638V79.3935C247.35 76.395 250.593 74.5202 253.188 76.0223L368.925 142.895C370.128 143.589 370.873 144.879 370.873 146.266V356.51C370.873 359.509 367.631 361.384 365.035 359.881Z" fill="#97CBFF"/>
<path d="M329.81 111.391L293.106 90.1834C291.817 89.4381 290.763 87.4257 290.763 85.7057C290.763 83.9857 291.817 83.1888 293.106 83.9341L329.81 105.141C331.099 105.887 332.153 107.899 332.153 109.619C332.153 111.339 331.099 112.136 329.81 111.391Z" fill="#5366C4"/>
<path d="M262.95 94.3689L199.126 57.4926C196.296 55.8586 193.976 51.4268 193.976 47.6486V4.79255C193.976 1.01433 196.29 -0.740044 199.126 0.899667L262.95 37.7817C265.78 39.4157 268.1 43.8475 268.1 47.6257V90.476C268.1 94.2542 265.785 96.0086 262.95 94.3689Z" fill="#DEA749"/>
<path d="M188.093 7.73349L195.145 1.12305L266.725 94.34L259.535 100.922L188.093 7.73349Z" fill="#DEA749"/>
<path d="M255.302 101.461L191.472 64.5789C188.642 62.9449 186.322 58.5131 186.322 54.7349V11.8846C186.322 8.10637 188.637 6.352 191.472 7.99171L255.302 44.8737C258.132 46.5077 260.452 50.9395 260.452 54.7177V97.5681C260.446 101.341 258.132 103.095 255.302 101.461Z" fill="#EBD265"/>
<path d="M211.763 38.1257L211.168 62.2742C211.139 63.4725 212.187 64.4758 213.413 64.4242L235.933 63.5126C237.663 63.4438 238.448 61.4429 237.25 60.1701L215.321 36.939C214.055 35.5916 211.809 36.337 211.763 38.1257Z" fill="white"/>
<path d="M372.253 133.2L384.96 128.488L447.225 203.461L431.649 209.12L372.253 133.2Z" fill="#5B5B84"/>
<path d="M387.331 178.648L428.108 202.062C444.155 211.276 462.521 198.467 461.169 179.003L461.037 177.071C460.413 168.041 455.44 159.843 447.993 155.566L403.309 129.903C387.778 120.988 370.002 133.384 371.308 152.223C372.076 163.323 378.183 173.396 387.331 178.648Z" fill="#5366C4"/>
<path d="M386.421 181.979L357.565 191.37C355.159 192.155 352.919 189.787 353.83 187.425L366.061 155.629L386.421 181.979Z" fill="#5366C4"/>
<path d="M374.826 183.274L415.603 206.689C431.649 215.902 450.015 203.094 448.663 183.63L448.531 181.698C447.907 172.668 442.934 164.469 435.487 160.192L390.803 134.53C375.272 125.615 357.496 138.01 358.802 156.85C359.57 167.949 365.677 178.023 374.826 183.274Z" fill="#52A5FF"/>
<path d="M427.27 189.975C430.194 188.765 430.958 183.898 428.978 179.105C426.997 174.312 423.021 171.408 420.097 172.618C417.174 173.829 416.409 178.695 418.39 183.488C420.371 188.281 424.346 191.185 427.27 189.975Z" fill="white"/>
<path d="M406.319 178.755C409.243 177.545 410.008 172.678 408.027 167.885C406.046 163.093 402.07 160.188 399.146 161.398C396.223 162.609 395.458 167.475 397.439 172.268C399.42 177.061 403.396 179.965 406.319 178.755Z" fill="white"/>
<path d="M387.385 168.737C390.309 167.526 391.073 162.66 389.093 157.867C387.112 153.074 383.136 150.17 380.212 151.38C377.289 152.59 376.524 157.457 378.505 162.25C380.486 167.042 384.461 169.947 387.385 168.737Z" fill="white"/>
<path d="M357.365 280.768L299.419 247.292V166.482L357.365 199.958V280.768Z" fill="#EBD265"/>
<path d="M313.477 185.442L304.219 180.092V176.607L313.477 181.956V185.442Z" fill="#DEA749"/>
<path d="M313.477 198.043L304.219 192.694V189.208L313.477 194.558V198.043Z" fill="#FFC108"/>
<path d="M345.237 216.395L339.841 213.271V209.791L345.237 212.909V216.395Z" fill="#DEA749"/>
<path d="M320.741 202.24L315.339 199.115V195.635L320.741 198.754V202.24Z" fill="#DEA749"/>
<path d="M352.564 220.627L347.935 217.949V214.469L352.564 217.141V220.627Z" fill="#DEA749"/>
<path d="M352.564 245.83L345.523 241.759V238.279L352.564 242.344V245.83Z" fill="#DEA749"/>
<path d="M317.247 212.818L304.219 205.296V201.81L317.247 209.338V212.818Z" fill="#FFC108"/>
<path d="M313.477 223.247L304.219 217.897V214.412L313.477 219.761V223.247Z" fill="#FFC108"/>
<path d="M310.023 233.847L304.219 230.493V227.013L310.023 230.361V233.847Z" fill="#FFC108"/>
<path d="M336.673 249.247L322.5 241.06V237.574L336.673 245.767V249.247Z" fill="#DEA749"/>
<path d="M339.308 261.166L304.219 240.894V237.414L339.308 257.681V261.166Z" fill="#DEA749"/>
<path d="M352.564 208.025L343.307 202.676V199.19L352.564 204.539V208.025Z" fill="#DEA749"/>
<path d="M352.564 233.228L343.982 228.269V224.783L352.564 229.742V233.228Z" fill="#DEA749"/>
<path d="M352.564 258.426L348.915 256.322V252.836L352.564 254.946V258.426Z" fill="#DEA749"/>
<path d="M352.564 268.826L343.307 263.477V259.997L352.564 265.346V268.826Z" fill="#DEA749"/>
<path d="M337.349 199.23L318.037 188.079V184.593L337.349 195.75V199.23Z" fill="#DEA749"/>
<path d="M340.878 214.48L312.2 197.905V194.935L339.211 210.541L340.878 214.48Z" fill="#2C4482"/>
<path d="M342.167 215.936L311.575 198.261V193.863L339.692 210.111L342.167 215.936ZM312.819 197.55L339.589 213.018L338.724 210.977L312.819 196.008V197.55Z" fill="#2C4482"/>
<path d="M315.523 197.527C315.523 197.527 320.742 220.511 340.912 233.107L342.31 229.839C342.31 229.839 328.092 224.204 318.462 198.553L315.523 197.527Z" fill="#2C4482"/>
<path d="M341.199 234.013L340.586 233.629C320.426 221.039 314.973 197.894 314.921 197.659L314.675 196.569L318.937 198.06L319.04 198.329C328.447 223.378 342.402 229.203 342.539 229.26L343.129 229.495L341.199 234.013ZM316.422 198.496C317.757 203.157 323.887 221.4 340.632 232.196L341.502 230.155C338.695 228.802 326.613 221.83 317.98 199.04L316.422 198.496Z" fill="#2C4482"/>
<path d="M342.573 212.485C342.573 212.485 337.091 229.954 316.92 219.239L315.522 214.36C315.522 214.36 329.581 225.064 339.211 210.541L342.573 212.485Z" fill="#2C4482"/>
<path d="M328.813 223.344C325.164 223.344 321.085 222.157 316.628 219.789L316.393 219.669L314.417 212.749L315.895 213.872C315.958 213.918 322.087 218.499 328.79 217.364C332.646 216.71 335.974 214.302 338.689 210.203L339.01 209.721L343.307 212.204L343.158 212.68C343.072 212.961 340.918 219.611 334.416 222.277C332.686 222.988 330.812 223.344 328.813 223.344ZM317.442 218.82C323.898 222.197 329.455 222.977 333.957 221.131C338.981 219.067 341.221 214.274 341.817 212.766L339.4 211.367C336.541 215.472 333.041 217.897 328.991 218.579C323.697 219.474 318.885 217.175 316.576 215.793L317.442 218.82Z" fill="#2C4482"/>
<path d="M329.953 250.576L326.539 248.604V226.084L329.953 228.051V250.576Z" fill="#2C4482"/>
<path d="M330.56 251.631L325.931 248.96V225.035L330.56 227.707V251.631ZM327.146 248.255L329.346 249.527V228.406L327.146 227.133V248.255Z" fill="#2C4482"/>
<path d="M336.908 240.102L319.693 230.155V226.463L336.908 236.416V240.102Z" fill="#2C4482"/>
<path d="M337.526 241.174L319.074 230.51V225.396L337.526 236.06V241.174ZM320.312 229.794L336.295 239.03V236.771L320.312 227.535V229.794Z" fill="#2C4482"/>
<path d="M336.908 249.631L319.693 239.683V235.991L336.908 245.938V249.631Z" fill="#2C4482"/>
<path d="M337.526 250.703L319.074 240.039V234.925L337.526 245.589V250.703ZM320.312 239.322L336.295 248.558V246.3L320.312 237.063V239.322Z" fill="#2C4482"/>
<path d="M317.246 270.999L259.306 237.517V156.706L317.246 190.189V270.999Z" fill="white"/>
<path d="M273.365 175.672L264.107 170.323V166.837L273.365 172.186V175.672Z" fill="#DBEFFF"/>
<path d="M273.365 188.274L264.107 182.919V179.439L273.365 184.788V188.274Z" fill="#DBEFFF"/>
<path d="M305.124 206.62L302.501 205.107V201.626L305.124 203.14V206.62Z" fill="#DBEFFF"/>
<path d="M312.446 210.851L307.817 208.179V204.694L312.446 207.371V210.851Z" fill="#DBEFFF"/>
<path d="M305.124 231.824L300.496 229.152V225.666L305.124 228.343V231.824Z" fill="#DBEFFF"/>
<path d="M300.496 241.811L295.867 239.139V235.653L300.496 238.331V241.811Z" fill="#DBEFFF"/>
<path d="M312.446 236.054L307.817 233.383V229.897L312.446 232.574V236.054Z" fill="#DBEFFF"/>
<path d="M268.043 197.797L264.107 195.521V192.041L268.043 194.317V197.797Z" fill="#DBEFFF"/>
<path d="M273.365 200.87L270.454 199.19V195.71L273.365 197.39V200.87Z" fill="#DBEFFF"/>
<path d="M273.365 213.471L264.107 208.122V204.642L273.365 209.991V213.471Z" fill="#DBEFFF"/>
<path d="M279.861 229.828L264.107 220.724V217.244L279.861 226.343V229.828Z" fill="#DBEFFF"/>
<path d="M299.19 251.397L264.107 231.124V227.638L299.19 247.911V251.397Z" fill="#DBEFFF"/>
<path d="M312.446 198.255L303.188 192.906V189.42L312.446 194.769V198.255Z" fill="#DBEFFF"/>
<path d="M312.446 223.453L303.864 218.494V215.014L312.446 219.973V223.453Z" fill="#DBEFFF"/>
<path d="M312.446 248.656L303.188 243.307V239.827L312.446 245.176V248.656Z" fill="#DBEFFF"/>
<path d="M312.446 259.056L303.188 253.707V250.221L312.446 255.571V259.056Z" fill="#DBEFFF"/>
<path d="M297.23 189.46L277.925 178.304V174.823L297.23 185.98V189.46Z" fill="#DBEFFF"/>
<path d="M292.349 156.013L284.197 151.3L283.951 151.157C282.129 150.102 280.651 150.944 280.651 153.043V160.341C280.651 161.264 281.304 162.394 282.112 162.858L282.742 163.219C283.55 163.684 284.203 163.311 284.203 162.388V157.05C284.203 155.967 284.965 155.531 285.91 156.076L292.355 159.802V156.013H292.349Z" fill="#2C4482"/>
<path d="M290.47 151.277C291.874 153.381 294.733 157.767 295.85 159.487C296.09 159.854 296.085 160.278 295.838 160.358L290.465 162.101C290.144 162.204 289.668 161.671 289.668 161.201V158.598C289.668 158.392 289.766 158.26 289.926 158.249L291.622 158.168C291.748 158.163 291.84 158.077 291.868 157.927C291.966 157.446 291.404 156.764 291.055 156.93L290.493 157.199C290.178 157.348 289.668 156.798 289.668 156.311V151.26C289.674 150.778 290.15 150.795 290.47 151.277Z" fill="#2C4482"/>
<path d="M326.223 278.807L334.375 283.52L334.622 283.664C336.443 284.718 337.921 283.876 337.921 281.777V274.479C337.921 273.556 337.268 272.426 336.46 271.962L335.83 271.601C335.023 271.136 334.369 271.509 334.369 272.432V277.724C334.369 278.83 333.59 279.278 332.622 278.721L326.218 275.018V278.807H326.223Z" fill="#2C4482"/>
<path d="M328.102 283.543C326.699 281.439 323.84 277.053 322.723 275.333C322.482 274.966 322.488 274.542 322.735 274.462L328.108 272.719C328.429 272.616 328.904 273.149 328.904 273.619V276.222C328.904 276.428 328.807 276.56 328.647 276.571L326.951 276.652C326.825 276.658 326.733 276.743 326.705 276.893C326.607 277.374 327.169 278.056 327.518 277.89L328.079 277.621C328.394 277.472 328.904 278.022 328.904 278.509V283.56C328.899 284.042 328.423 284.025 328.102 283.543Z" fill="#2C4482"/>
<path opacity="0.26" d="M299.419 179.886V177.317L320.288 189.615V259.343L317.246 257.589V190.189L299.419 179.886Z" fill="#3A3A3A"/>
<path opacity="0.2" d="M280.345 418.702C280.401 408.344 265.914 399.869 247.988 399.772C230.061 399.675 215.483 407.992 215.427 418.349C215.371 428.707 229.858 437.182 247.785 437.279C265.711 437.376 280.289 429.059 280.345 418.702Z" fill="#2B2A2F"/>
<path d="M239.45 403.735L225.552 406.573L223.679 411.401C223.232 414.863 223.255 416.704 225.547 418.527C227.477 420.063 231.407 418.877 233.464 417.919L242.395 412.547C249.012 408.895 248.513 406.195 247.797 403.965C246.737 401.459 243.678 402.038 239.45 403.735Z" fill="#2C4482"/>
<path d="M268.971 420.866L255.531 416.314L251.487 419.542C249.361 422.305 248.456 423.911 249.516 426.646C250.41 428.945 254.408 429.902 256.665 430.108L267.086 429.959C274.642 430.137 275.57 427.551 276.074 425.264C276.412 422.569 273.473 421.531 268.971 420.866Z" fill="#2C4482"/>
<path d="M221.52 248.462C213.94 259.962 210.589 274.634 207.593 287.912C206.946 290.773 206.699 292.481 207.456 295.285C209.988 304.613 212.858 313.333 213.946 323.063C214.496 327.965 222.247 328.022 221.691 323.063C220.677 314.027 218.942 305.123 216.066 296.489C215.527 294.861 214.931 293.255 214.313 291.656C214.88 293.124 214.118 294.201 214.416 292.894C214.599 292.074 214.771 291.255 214.954 290.435C217.813 277.644 220.907 263.443 228.199 252.377C230.96 248.198 224.258 244.311 221.52 248.462Z" fill="#FFC2B0"/>
<path d="M219.331 251.512C214.204 260.45 210.492 275.563 207.117 287.803C205.84 291.18 206.648 294.236 208.779 294.098L215.911 295.084C217.67 294.97 221.021 291.163 221.84 288.336L230.886 257.222C232.358 252.16 231.27 247.802 228.371 247.154L227.712 247.057C227.214 245.194 223.192 245.171 219.331 251.512Z" fill="#88BDEB"/>
<path d="M243.3 308.185L207.501 328.871C205.748 329.885 203.554 328.618 203.554 326.589V301.643C203.554 300.703 204.058 299.832 204.872 299.362L240.671 278.676C242.424 277.661 244.618 278.928 244.618 280.958V305.903C244.612 306.849 244.114 307.715 243.3 308.185Z" fill="#283D75"/>
<path d="M229.809 301.139C229.809 304.028 227.77 307.554 225.249 309.01C222.728 310.467 220.689 309.303 220.689 306.408C220.689 303.518 222.728 299.992 225.249 298.536C227.77 297.085 229.809 298.249 229.809 301.139Z" fill="white"/>
<path d="M223.931 324.261L221.325 325.442C219.325 326.348 216.942 325.454 216.037 323.447C215.132 321.446 216.026 319.061 218.031 318.155L220.637 316.974C222.636 316.068 225.02 316.963 225.925 318.969C226.824 320.976 225.93 323.355 223.931 324.261Z" fill="#FFC2B0"/>
<path opacity="0.46" d="M254.104 223.361L254.156 224.829C254.156 224.829 254.351 229.244 250.003 226.962C245.66 224.68 245.792 219.17 245.792 219.17C245.792 219.17 249.103 218.775 254.104 223.361Z" fill="white"/>
<path d="M249.98 227.088C255.645 230.035 255.445 224.881 255.445 224.881L255.491 224.904L255.325 223.149C249.006 217.714 244.984 217.972 244.984 217.972C244.984 217.972 244.314 224.141 249.98 227.088ZM246.021 219.371C246.021 219.371 249.246 219.199 254.081 223.413L254.122 224.68C254.122 224.68 254.27 228.51 250.054 226.314C245.844 224.13 246.021 219.371 246.021 219.371Z" fill="#513554"/>
<path d="M257.565 225.867L254.196 224.33L254.013 222.421L257.381 223.958L257.565 225.867Z" fill="#513554"/>
<path d="M245.259 219.44L244.664 219.164C244.337 219.015 244.045 218.563 244.005 218.15C243.965 217.737 244.199 217.525 244.52 217.674L245.116 217.949C245.443 218.098 245.735 218.551 245.775 218.964C245.815 219.377 245.586 219.589 245.259 219.44Z" fill="#513554"/>
<path d="M267.04 229.387L266.444 229.112C266.117 228.963 265.825 228.51 265.785 228.097C265.745 227.684 265.98 227.472 266.301 227.621L266.897 227.897C267.223 228.046 267.515 228.499 267.555 228.911C267.596 229.324 267.366 229.536 267.04 229.387Z" fill="#513554"/>
<path d="M266.559 227.828C266.559 227.828 262.119 223.705 256.31 223.602L256.476 225.357L256.522 225.38C256.522 225.38 257.335 230.815 262.927 233.005C268.523 235.195 266.559 227.828 266.559 227.828ZM262.692 232.093C258.533 230.459 257.925 226.423 257.925 226.423L257.713 225.076C262.153 225.099 265.705 228.361 265.705 228.361C265.705 228.361 266.856 233.721 262.692 232.093Z" fill="#2C4482"/>
<path d="M258.704 227.392C258.567 227.226 258.521 227.014 258.607 226.916L259.615 225.804C259.701 225.706 259.885 225.77 260.028 225.936C260.165 226.102 260.211 226.314 260.125 226.412L259.117 227.524C259.031 227.621 258.848 227.564 258.704 227.392Z" fill="#2C4482"/>
<path d="M246.663 221.659C246.525 221.492 246.479 221.28 246.565 221.183L247.574 220.071C247.659 219.973 247.843 220.036 247.986 220.202C248.123 220.369 248.169 220.581 248.083 220.678L247.075 221.791C246.983 221.882 246.8 221.825 246.663 221.659Z" fill="#FCFEFF"/>
<path d="M245.385 335.802C250.535 350.932 251.011 367.192 250.53 383.027C250.169 394.826 248.307 406.728 248.599 418.527C248.794 426.267 260.836 426.296 260.641 418.527C260.337 406.401 262.268 394.172 262.6 382.046C263.053 365.546 262.365 348.352 256.997 332.597C254.511 325.299 242.876 328.435 245.385 335.802Z" fill="#2C4482"/>
<path d="M221.164 322.226C223.863 332.047 225.088 342.177 226.068 352.297C226.647 358.276 227.357 363.975 226.727 369.938C225.461 381.932 223.232 394.161 223.313 406.241C223.364 413.992 235.406 414.009 235.354 406.241C235.268 393.972 237.56 381.576 238.826 369.399C239.462 363.264 238.602 357.267 238.001 351.139C236.935 340.36 235.658 329.484 232.782 319.021C230.726 311.556 219.102 314.727 221.164 322.226Z" fill="#2C4482"/>
<path d="M231.035 338.159C232.146 339.408 227.369 333.337 228.801 334.203C231.78 336.003 248.496 347.372 251.973 347.429C256.178 347.498 253.726 343.433 256.854 340.624C259.822 337.958 260.521 333.629 260.813 329.65C260.893 328.55 260.95 327.403 260.509 326.388C260.034 325.293 259.054 324.519 258.103 323.802C250.679 318.178 236.071 304.258 225.696 308.707C213.7 313.85 225.713 332.19 231.035 338.159Z" fill="#2C4482"/>
<path d="M222.322 249.121C220.122 251.959 220.385 253.713 220.488 257.583C220.591 261.367 223.158 264.647 226.801 265.673L264.027 276.119C264.027 276.119 266.163 261.786 258.825 257.474C254.872 255.152 248.737 251.431 243.913 248.496C236.832 244.185 227.397 242.568 222.322 249.121Z" fill="#DBEFFF"/>
<path d="M239.29 248.639L242.441 234.599L251 240.361L248.422 253.146C248.17 255.221 238.671 253.409 239.29 248.639Z" fill="#FFC2B0"/>
<path d="M244.486 214.119C244.486 214.119 235.904 208.14 235.824 222.673C235.767 232.781 241.902 241.547 250.192 245.492C255.353 247.951 261.661 244.804 261.947 239.764C263.179 232.42 263.196 225.557 260.79 219.646C261.134 213.575 256.957 215.736 249.745 215.346L244.486 214.119Z" fill="#FFC2B0"/>
<path d="M239.582 242.327C239.582 242.327 229.66 238.641 230.599 224.669C231.619 209.55 245.517 210.851 253.239 210.112C256.659 209.785 259.037 209.292 262.537 212.417C265.722 215.26 262.743 221.647 258.177 222.06C256.367 222.226 257.198 227.105 256.831 228.779C256.178 231.761 254.328 233.217 253.64 236.101C252.993 238.836 248.966 243.118 246.348 243.416C241.684 243.961 239.582 242.327 239.582 242.327Z" fill="#715154"/>
<path d="M220.356 316.458C217.985 315.541 218.552 274.783 220.683 252.269L262.583 272.22C262.371 291.381 259.953 306.505 262.245 329.857L220.356 316.458Z" fill="#DBEFFF"/>
<path d="M248.267 334.031C237.915 330.252 228.056 326.113 222.258 319.004C219.411 317.358 219.772 314.463 223.06 312.565C226.349 310.668 231.361 310.461 234.208 312.101L260.217 327.128C263.064 328.773 262.703 331.668 259.415 333.566C256.126 335.464 251.114 335.67 248.267 334.031Z" fill="#DBEFFF"/>
<path d="M262.583 272.22L255.68 268.935C255.399 287.614 253.108 302.618 255.365 325.551L255.25 325.517C255.296 326.812 254.379 328.194 252.535 329.26C249.246 331.158 244.234 331.364 241.387 329.725C236.42 327.913 231.568 326.01 227.219 323.739C232.937 328.119 240.464 331.181 248.273 334.03C251.12 335.676 256.132 335.464 259.421 333.566C261.265 332.5 262.188 331.118 262.136 329.822L262.251 329.857C259.953 306.505 262.371 291.386 262.583 272.22Z" fill="#DBEFFF"/>
<path d="M266.811 229.846L254.007 231.073C253.555 231.118 253.142 230.78 253.102 230.322C253.056 229.869 253.394 229.456 253.853 229.416L266.656 228.189C267.109 228.143 267.521 228.481 267.561 228.94C267.607 229.398 267.269 229.806 266.811 229.846Z" fill="#2C4482"/>
<path d="M253.973 254.579C244.36 253.134 237.869 259.183 235.572 245.325C236.976 244.454 238.786 244.878 239.725 246.237C241.375 248.622 244.881 250.13 248.76 249.654C249.922 249.511 251.057 250.044 251.693 251.03L253.973 254.579Z" fill="#DCEFFF"/>
<path d="M255.554 267.112C256.207 275.133 257.478 282.465 260.83 289.815C263.236 295.102 265.711 302.664 270.924 305.995C282.691 313.517 295.236 294.247 300.793 286.92C303.807 282.947 297.081 279.077 294.102 283.004C290.951 287.155 279.328 305.353 273.336 297.504C266.937 289.122 264.135 277.334 263.299 267.106C262.904 262.176 255.153 262.135 255.554 267.112Z" fill="#FFC2B0"/>
<path d="M251.664 267.02C254.007 286.846 260.251 299.459 268.907 305.874C273.456 308.397 277.718 301.208 275.977 296.868C267.361 289.196 264.336 277.243 263.511 263.586C262.382 260.817 259.18 259.315 256.104 260.123C252.896 260.96 250.936 263.999 251.664 267.02Z" fill="white"/>
<path d="M290.786 290.102L291.903 291.002C293.988 292.676 297.064 292.338 298.737 290.251L302.501 285.556C304.174 283.469 303.836 280.39 301.75 278.716L300.633 277.816C298.548 276.142 295.472 276.48 293.799 278.567L290.035 283.262C288.362 285.344 288.7 288.422 290.786 290.102Z" fill="#FFC2B0"/>
<path d="M248.719 237.356C248.244 237.706 247.178 247.819 255.68 246.18C264.175 244.546 262.463 236.038 262.463 236.038C262.463 236.038 255.72 237.792 253.852 229.421C251.979 221.045 248.719 237.356 248.719 237.356Z" fill="#715154"/>
<path d="M255.96 233.177C256.167 235.568 254.946 237.626 253.234 237.775C253.045 237.792 252.861 237.786 252.678 237.752C251.194 237.517 249.945 235.837 249.762 233.71C249.556 231.319 250.776 229.261 252.489 229.112C254.202 228.963 255.76 230.786 255.96 233.177Z" fill="#FFC2B0"/>
<path d="M76.8979 351.717V369.49L97.0745 381.152L105.553 376.256V358.477L97.0745 363.379L76.8979 351.717Z" fill="#88BDEB"/>
<path d="M195.563 64.6876C195.614 62.9275 194.543 61.1445 192.876 60.2214L134.414 27.926C132.787 27.0259 131.43 27.9489 131.384 29.9785L130.175 78.6481C130.124 80.6777 131.401 83.0513 133.028 83.9456L187.76 114.183C190.768 115.845 194.073 114.229 194.171 111.052L195.563 64.6876Z" fill="#9DBEE3"/>
<path d="M195.568 64.4754C195.62 62.8357 194.623 61.1846 193.076 60.3303L134.89 28.1897C133.005 27.1462 131.435 27.7195 131.395 29.4624L131.246 35.4078L195.379 70.8336L195.568 64.4754Z" fill="#2C4482"/>
<path d="M139.175 35.6773C139.158 36.4685 138.447 36.7265 137.594 36.2507C136.74 35.7805 136.064 34.76 136.087 33.9688C136.104 33.1776 136.815 32.9196 137.668 33.3955C138.516 33.8656 139.192 34.8861 139.175 35.6773Z" fill="#FFD22D"/>
<path d="M145.414 39.1231C145.396 39.9143 144.686 40.1723 143.832 39.6965C142.979 39.2263 142.303 38.2058 142.326 37.4146C142.343 36.6234 143.053 36.3654 143.907 36.8413C144.755 37.3114 145.431 38.3319 145.414 39.1231Z" fill="#D84177"/>
<path d="M151.652 42.5687C151.635 43.3599 150.925 43.6179 150.071 43.142C149.217 42.6719 148.541 41.6514 148.564 40.8602C148.581 40.069 149.292 39.811 150.145 40.2869C150.993 40.757 151.669 41.7775 151.652 42.5687Z" fill="#6271F0"/>
<path opacity="0.45" d="M184.988 70.4553L144.984 48.6632C143.85 48.044 142.326 48.7722 142.263 49.9704L140.957 74.847C140.905 75.8618 141.461 76.802 142.429 77.3295L146.703 79.6572L146.691 79.6687L180.158 97.9004L180.147 97.8775L182.65 99.242C183.676 99.7981 185.051 99.1445 185.108 98.0667L186.431 72.8862C186.477 71.8944 185.933 70.9713 184.988 70.4553Z" fill="#1E1B5E"/>
<path d="M179.242 100.366L139.02 78.4532C138.058 77.9257 137.496 76.9855 137.548 75.9707L138.854 51.0941C138.917 49.9016 140.435 49.1677 141.575 49.7869L181.579 71.579C182.524 72.095 183.068 73.0181 183.017 74.0099L181.693 99.1904C181.636 100.268 180.267 100.928 179.242 100.366Z" fill="white"/>
<path d="M143.277 80.798L149.286 75.512C150.707 74.2621 153.061 74.6405 153.777 76.2287L158.521 86.7721L165.114 79.3074C166.495 77.7422 169.251 78.1034 169.909 79.9381L176.744 99.0298L143.277 80.798Z" fill="#52A5FF"/>
<path d="M153.212 66.7117C154.367 66.1425 154.57 64.1887 153.664 62.3478C152.759 60.5069 151.088 59.476 149.933 60.0453C148.777 60.6145 148.575 62.5683 149.481 64.4092C150.386 66.2501 152.057 67.2809 153.212 66.7117Z" fill="#FFD22D"/>
</g>
<path d="M279.576 217.733L276.098 226.91L268.479 223.287L281.437 191.231L290.855 195.709L303.997 240.173L296.08 236.408L292.419 223.839L279.576 217.733ZM291.153 217.969L287.974 207.046C287.195 204.352 286.536 201.427 285.934 198.931L285.814 198.874C285.213 200.8 284.617 203.182 283.895 205.107L280.773 213.034L291.153 217.969Z" fill="#2C4482"/>
<defs>
<clipPath id="clip0">
<rect width="474" height="437" fill="white" transform="translate(0.19043 0.286133)"/>
</clipPath>
</defs>
</svg>
