<svg width="56" height="71" viewBox="0 0 56 71" fill="none" xmlns="http://www.w3.org/2000/svg">
<path d="M4.87583 11.9775C4.57968 10.8084 3.39146 10.101 2.22233 10.3969C1.05272 10.6933 0.345245 11.8814 0.641552 13.0509L14.9108 69.352C15.1615 70.3414 16.0506 71.0001 17.0265 71.0001C17.2043 71.0001 17.3848 70.9782 17.565 70.9326C18.7339 70.6364 19.4417 69.448 19.1454 68.2789L4.87583 11.9775Z" fill="#442A82"/>
<path d="M55.5746 27.8351C53.2492 19.2483 50.9215 10.6622 48.5955 2.07549C48.3434 1.14602 47.9014 0.149021 46.24 0.0493053C33.1622 -0.897835 24.5749 12.1259 11.4969 11.1786C10.4649 11.0515 9.80158 11.5889 10.0535 12.5183C12.3797 21.1049 14.6878 29.6967 17.0325 38.2781C17.4088 39.6553 18.356 40.1769 19.3883 40.3043C32.466 41.2516 41.0536 28.2278 54.1318 29.1751C55.1636 29.3019 55.8266 28.7647 55.5746 27.8351ZM45.3118 3.29085C45.9534 5.65988 46.5958 8.02876 47.2374 10.3978C44.4863 10.4884 42.0583 11.0434 39.4854 12.0076C38.844 9.63857 38.2016 7.26953 37.5602 4.90066C40.1328 3.93679 42.5608 3.38126 45.3118 3.29085ZM18.3628 29.8512C17.6327 27.1596 16.9039 24.4675 16.1747 21.7758C19.0664 21.692 21.6324 21.0653 24.3163 20.0044C23.6742 17.6354 23.0323 15.2663 22.3908 12.8973C25.0145 11.7245 27.4893 10.3205 29.9676 8.87035C30.6091 11.2392 31.2516 13.6083 31.8933 15.9773C29.4148 17.4273 26.9399 18.8318 24.3163 20.0044C25.0457 22.6961 25.7748 25.3881 26.5041 28.0798C23.82 29.1405 21.2543 29.7672 18.3628 29.8512ZM28.458 35.2909C27.8065 32.8873 27.1554 30.4834 26.5041 28.0795C29.1095 26.9156 31.5667 25.5233 34.0274 24.0834C34.6787 26.4873 35.33 28.8911 35.9812 31.295C33.5208 32.735 31.0632 34.1269 28.458 35.2909ZM34.0806 24.0525C33.3518 21.3607 32.6224 18.6688 31.8933 15.977C34.3714 14.5302 36.848 13.1457 39.4854 12.0078C40.215 14.6994 40.9442 17.3913 41.6733 20.083C39.0364 21.2212 36.559 22.6055 34.0806 24.0525ZM43.6727 27.2761C43.0212 24.8725 42.3701 22.4686 41.7186 20.0647C44.2763 19.1109 46.6919 18.5625 49.4249 18.4733C50.0764 20.8772 50.7277 23.281 51.3792 25.6846C48.646 25.7739 46.2301 26.3222 43.6727 27.2761Z" fill="#442A82"/>
</svg>
