<svg width="36" height="36" viewBox="0 0 36 36" fill="none" xmlns="http://www.w3.org/2000/svg">
<g clip-path="url(#clip0)">
<path d="M1.96191 9.79651L18.3682 17.9996L34.7744 9.79651V27.2965L18.3682 35.4995L1.96191 27.2964V9.79651Z" fill="#DB5449"/>
<path d="M1.96191 11.437V16.5503L18.3134 24.562L34.7743 16.5229V11.437L18.3682 19.4761L1.96191 11.437Z" fill="#C54B42"/>
<path d="M18.3682 35.4995V17.9996L3.05567 10.3434H1.96191V27.2965L18.3682 35.4995Z" fill="#D05045"/>
<path d="M1.96191 11.437V16.5503L18.3134 24.562L18.3682 24.5346V19.4487V19.4761L1.96191 11.437Z" fill="#BB483E"/>
<path d="M0.868164 9.22313L18.3682 0.500488L35.8682 9.22313V10.3716L18.3682 19.0941L0.868164 10.3989V9.22313Z" fill="#EB6258"/>
<path d="M28.4033 3.26125C27.8291 2.2222 26.5986 1.59326 25.1494 1.59326C21.8409 1.59326 19.5166 4.68313 18.3682 6.65188C17.2197 4.68313 14.8682 1.62062 11.5869 1.62062C9.48147 1.62062 7.97754 2.90579 7.97754 4.65577C7.97754 7.77292 11.3955 9.79638 18.2588 9.79638C25.122 9.79638 28.7587 7.19876 28.7587 4.68313C28.7588 4.19096 28.6495 3.69879 28.4033 3.26125ZM12.2979 6.62459C11.5323 6.10507 11.2589 5.53084 11.2589 5.14801C11.2589 4.6832 11.6964 4.32773 12.3253 4.32773C13.8019 4.32773 14.9776 6.26913 15.6338 7.609C13.9112 7.47223 12.8995 7.00735 12.2979 6.62459ZM24.4385 6.62459C23.8369 7.00742 22.8252 7.47223 21.1026 7.60894C21.7314 6.26913 22.9073 4.32766 24.4111 4.32766C25.04 4.32766 25.4775 4.68313 25.4775 5.14794C25.4776 5.53084 25.2041 6.105 24.4385 6.62459Z" fill="#EFEFEF"/>
<path d="M0.868164 9.24963L18.3682 17.8082L35.8682 9.24963V14.9098L18.3135 23.4684L0.868164 14.9098V9.24963Z" fill="#E2574C"/>
<path d="M24.9306 15.3471V14.7182L18.3681 11.1636L11.8056 14.7182V15.3471L7.43066 13.4331V12.5581L18.1493 6.89795L18.3681 7.0073L18.5869 6.89795L29.3056 12.5307V13.4057L24.9306 15.3471Z" fill="#EFEFEF"/>
<path d="M24.9307 14.7183V32.1909L29.3056 30.0034V12.5308L24.9307 14.7183Z" fill="#DCDCDC"/>
<path d="M7.43066 30.0307L11.8056 32.2182V14.7456L7.43066 12.5308C7.43066 12.5307 7.43066 30.0307 7.43066 30.0307Z" fill="#D1D1D1"/>
</g>
<defs>
<clipPath id="clip0">
<rect width="35" height="35" fill="white" transform="translate(0.868164 0.499512)"/>
</clipPath>
</defs>
</svg>
