<svg width="325" height="400" viewBox="0 0 325 400" fill="none" xmlns="http://www.w3.org/2000/svg">
<mask id="mask0" mask-type="alpha" maskUnits="userSpaceOnUse" x="0" y="0" width="325" height="400">
<path d="M0.52005 8.02C0.508985 3.59392 4.09393 0 8.52003 0H316.02C320.43 0 324.009 3.56954 324.02 7.98L324.98 391.98C324.991 396.406 321.406 400 316.98 400H9.48001C5.06954 400 1.49108 396.43 1.48005 392.02L0.52005 8.02Z" fill="#FFD22E"/>
</mask>
<g mask="url(#mask0)">
<g opacity="0.1">
<g clip-path="url(#clip0)">
<path d="M415.888 405.938C391.247 376.783 347.095 354.554 293.733 345.479C288.514 314.229 279.196 299.629 278.952 299.223C283.015 297.318 287.918 296.668 293.516 297.905C300.342 299.44 305.001 303.06 307.827 307.647C308.649 308.983 310.743 308.532 310.987 306.979C311.339 304.704 311.231 302.221 310.455 299.467C308.504 292.614 303.168 286.916 296.216 285.417C291.674 284.451 287.159 285.201 283.349 287.223C286.879 284.171 291.277 281.679 296.631 279.937C308.188 276.235 318.265 278.041 326.102 283.043C327.429 283.882 329.055 282.664 328.63 281.147C327.321 276.442 324.73 271.829 319.926 267.594C311.836 260.479 300.577 257.391 290.347 260.777C287.051 261.869 284.053 263.495 281.444 265.508C281.633 265.264 281.841 265.011 282.031 264.777C289.57 255.919 298.626 252.091 307.556 251.874C309.497 251.829 310.364 249.31 308.874 248.055C305.705 245.418 301.805 243.342 296.739 242.258C285.344 239.829 273.354 243.242 266.112 252.362C263.512 255.621 261.706 259.296 260.659 263.088C257.589 260.605 253.995 258.682 249.968 257.544C238.772 254.366 227.043 258.592 219.206 267.197C215.82 270.908 213.861 274.781 212.822 278.655C212.281 280.65 214.574 282.266 216.299 281.129C223.639 276.217 233.129 274.122 244.298 276.885C244.605 276.975 244.903 277.056 245.21 277.129C241.914 277.002 238.537 277.436 235.206 278.474C224.921 281.679 217.572 290.745 215.143 301.245C213.752 307.295 214.258 312.433 215.829 316.911C216.398 318.536 218.637 318.572 219.305 316.983C222.836 308.514 229.905 301.354 241.282 297.697C246.637 295.972 251.666 295.44 256.307 295.855C252.018 296.424 247.919 298.455 244.804 301.896C240.018 307.169 239.016 314.889 241.427 321.606C242.393 324.315 243.783 326.41 245.409 328.062C246.492 329.173 248.442 328.324 248.325 326.78C247.919 321.389 249.607 315.791 254.257 310.555C257.842 306.537 261.923 303.954 266.058 303.376C266.049 303.376 272.604 319.475 273.516 342.707C262.6 341.588 251.386 340.965 239.937 340.965C211.901 340.965 185.238 344.459 161.112 350.788C166.115 241.779 233.201 169.564 233.282 169.203L233.282 169.194C241.544 174.657 248.524 183.027 253.038 194.774C258.916 210.033 257.905 223.857 252.587 235.27C251.061 238.538 254.636 241.996 257.923 240.47C262.835 238.195 267.575 234.755 271.927 229.653C282.699 217.004 286.879 199.288 280.767 183.849C276.776 173.772 269.471 165.98 260.614 161.185C271.087 164.093 281.643 169.393 291.927 177.546C313.759 194.891 323.303 216.381 324.052 237.734C324.197 241.743 329.118 243.54 331.691 240.452C338.797 231.965 344.151 221.148 346.074 206.783C349.415 181.853 340.838 156.021 321.019 140.536C314.608 135.515 307.592 131.805 300.279 129.349C301.01 129.421 301.732 129.502 302.473 129.574C329.127 132.689 348.142 145.059 360.133 161.826C362.932 165.736 369.279 164.066 369.731 159.289C370.661 149.971 369.541 139.913 365.207 129.005C355.185 103.76 333.045 84.9071 305.967 82.6137C296.252 81.792 286.798 83.02 278.058 85.9184C278.916 76.7448 277.959 67.2912 274.97 58.0273C266.636 32.1679 243.278 14.859 216.425 10.7688C204.516 8.96295 194.231 10.2631 185.184 13.4414C180.904 14.9402 180.706 21.1613 184.904 22.8588C204.245 30.66 220.867 46.4429 230.041 72.0135C230.294 72.7087 230.529 73.404 230.754 74.0902C226.709 67.526 221.508 61.5216 215.17 56.4201C195.604 40.6101 168.498 38.091 144.977 46.9666C131 52.2397 121.538 60.2214 114.829 69.395C112.662 72.3566 115.208 76.3565 118.793 75.6071C140.047 71.1738 163.505 75.4626 185.681 93.1056C195.956 101.268 203.513 110.342 208.714 119.904C202.051 112.338 192.796 106.992 182.078 105.394C165.654 102.929 149.338 110.992 139.452 124.364C135.488 129.71 133.23 135.064 132.111 140.328C131.352 143.904 135.569 146.63 138.458 144.382C148.372 136.671 161.564 132.599 177.717 134.874C190.981 136.743 201.157 142.188 208.452 149.691C207.152 150.802 126.215 211.198 73.1866 396.115C69.9542 399.185 66.9475 402.381 64.1845 405.65C58.749 412.087 63.3448 422.001 71.751 422.001L408.231 422.001C416.511 422.046 421.242 412.277 415.888 405.938Z" fill="#442A82"/>
</g>
</g>
</g>
<defs>
<clipPath id="clip0">
<rect width="412" height="412" fill="white" transform="translate(34 10)"/>
</clipPath>
</defs>
</svg>
