<svg width="372" height="418" viewBox="0 0 372 418" fill="none" xmlns="http://www.w3.org/2000/svg">
<g opacity="0.3">
<path d="M373.46 85.0657L209.421 20.0382L198.438 47.744C183.434 85.2939 184.073 127.284 200.215 164.357L224.68 220.956L281.281 196.492C318.44 180.549 347.676 150.402 362.476 112.771L373.46 85.0657ZM240.404 196.68C236.337 198.438 231.618 196.568 229.86 192.501L214.946 157.996C200.5 124.827 199.925 87.256 213.35 53.6556C214.983 49.538 219.645 47.5229 223.762 49.1552C227.88 50.7876 229.895 55.4496 228.263 59.5672C216.413 89.213 216.922 122.363 229.669 151.632L244.582 186.14C246.338 190.203 244.466 194.925 240.404 196.68Z" fill="white"/>
<path d="M242.562 415.256C257.566 377.706 256.927 335.716 240.785 298.643L216.32 242.044L159.719 266.508C122.56 282.451 93.3234 312.598 78.5234 350.229L67.54 377.934L231.579 442.962L242.562 415.256ZM217.238 413.845C213.12 412.213 211.105 407.551 212.737 403.433C224.587 373.787 224.078 340.637 211.331 311.368L196.418 276.86C195.223 274.221 195.542 271.141 197.26 268.806C198.974 266.469 201.816 265.241 204.694 265.589C207.571 265.942 210.038 267.817 211.14 270.5L226.054 305.004C240.5 338.173 241.075 375.744 227.65 409.345C226.017 413.462 221.355 415.477 217.238 413.845Z" fill="white"/>
<path d="M435.933 58.0636L182.418 -42.4334C178.301 -44.0658 173.638 -42.0507 172.006 -37.9331C170.374 -33.8154 172.389 -29.1534 176.507 -27.5211L206.332 -15.6979L200.42 -0.785603L394.284 76.0651L400.196 61.1527L430.021 72.9759C434.139 74.6083 438.801 72.5932 440.433 68.4756C442.066 64.3579 440.051 59.6959 435.933 58.0636Z" fill="white"/>
<path d="M264.493 490.521L234.668 478.698L240.58 463.786L46.7157 386.935L40.804 401.847L10.9787 390.024C6.86101 388.392 2.19893 390.407 0.566571 394.524C-1.06579 398.642 0.949313 403.304 5.06703 404.936L258.582 505.433C262.699 507.066 267.361 505.051 268.994 500.933C270.626 496.815 268.611 492.153 264.493 490.521Z" fill="white"/>
</g>
</svg>
