<svg width="25" height="24" viewBox="0 0 25 24" fill="none" xmlns="http://www.w3.org/2000/svg">
<path d="M11.4894 1.41851C11.8321 0.60027 12.9914 0.60027 13.3341 1.41851L15.8587 7.44609C16.0029 7.79032 16.3267 8.02562 16.6987 8.05637L23.2114 8.59476C24.0955 8.66785 24.4537 9.77042 23.7814 10.3492L18.829 14.6128C18.5462 14.8563 18.4225 15.2371 18.5082 15.6003L20.0086 21.9606C20.2123 22.824 19.2744 23.5055 18.5162 23.0449L12.9309 19.6524C12.6119 19.4587 12.2116 19.4587 11.8926 19.6524L6.30726 23.0449C5.54905 23.5055 4.61115 22.824 4.81484 21.9606L6.31534 15.6003C6.40103 15.2371 6.27732 14.8563 5.99449 14.6128L1.04206 10.3492C0.36977 9.77042 0.728017 8.66785 1.61211 8.59476L8.12482 8.05637C8.49676 8.02562 8.82062 7.79032 8.9648 7.44609L11.4894 1.41851Z" fill="#FFD22E"/>
</svg>
