<svg width="32" height="32" viewBox="0 0 32 32" fill="none" xmlns="http://www.w3.org/2000/svg">
<g clip-path="url(#clip0)">
<path d="M4.67135 20.5049C4.49019 20.8662 4.56075 21.303 4.84615 21.5886L5.0754 21.8179C5.73775 21.033 6.50973 20.1812 7.44601 19.2451C7.51217 19.179 7.58029 19.147 7.64669 19.0859L6.17184 17.6108C5.31441 19.1616 4.81441 20.2212 4.67135 20.5049Z" fill="#FFD22E"/>
<path d="M12.7493 24.5483C11.8108 25.4868 10.9612 26.2603 10.1807 26.9231L10.4912 27.2336C10.7793 27.5217 11.2202 27.5911 11.5828 27.4045C12.0684 27.1543 12.832 26.7949 14.4531 25.8921L12.9087 24.3477C12.8477 24.4143 12.8157 24.4822 12.7493 24.5483Z" fill="#FFD22E"/>
<path d="M12.2495 19.7461C11.572 19.0686 9.66673 19.676 8.77171 20.5708C5.77757 23.5649 4.42527 25.6877 3.8181 26.9412C3.64402 27.3003 3.71653 27.7302 3.99876 28.0124C4.28147 28.2954 4.71214 28.3672 5.07151 28.1931C6.29685 27.5981 8.39378 26.2522 11.4236 23.2227C12.4077 22.238 12.8933 20.3901 12.2502 19.7468L12.2495 19.7461Z" fill="#FFD22E"/>
<path d="M2.92634 12.4819L0.274731 15.1335C-0.0250741 15.4334 -0.0865975 15.8975 0.125805 16.2651C0.33308 16.6279 0.767162 16.8127 1.18025 16.7021C2.61335 16.3179 3.87434 16.1555 4.72346 16.3733C5.93147 14.2256 7.22956 12.2485 8.60432 10.4526C7.80915 9.94288 5.18147 10.2268 2.92634 12.4819Z" fill="#FFD22E"/>
<path d="M15.8685 31.8994C16.2295 32.082 16.6668 32.0115 16.9527 31.7253L19.6045 29.0737C21.6575 27.0203 22.0189 24.3708 21.553 23.5308C19.5501 25.0403 17.521 26.3149 15.628 27.3821C15.7586 28.1196 15.6717 28.8352 15.3628 30.925C15.3025 31.3296 15.5115 31.7209 15.8685 31.8994Z" fill="#FFD22E"/>
<path d="M18.6125 9.4043C17.5161 10.501 17.5161 12.2849 18.6125 13.3816C19.7092 14.4783 21.4933 14.4783 22.59 13.3816C23.6867 12.2849 23.6867 10.501 22.59 9.4043C21.4933 8.30762 19.7092 8.30762 18.6125 9.4043Z" fill="#FFD22E"/>
<path d="M31.9448 0.914561C31.9111 0.450938 31.542 0.084483 31.0798 0.0498151C28.7774 -0.123525 26.4839 0.159678 24.2358 0.847179C24.405 2.39161 25.2039 4.063 26.5676 5.42677C27.9478 6.80665 29.6646 7.60524 31.2366 7.75465C31.8421 5.63282 32.1292 3.36036 31.9448 0.914561Z" fill="#FFD22E"/>
<path d="M25.2419 6.75269C23.6819 5.19263 22.7292 3.32153 22.4236 1.49976C16.7939 3.80859 11.4048 8.85059 7.14624 15.9336L9.26196 18.0493C10.7075 17.4624 12.4624 17.3074 13.5754 18.4202C14.6899 19.5349 14.532 21.2891 13.9453 22.7327L16.1306 24.918C21.5803 21.6335 27.925 16.459 30.623 9.57446C28.7568 9.29248 26.8274 8.33813 25.2419 6.75269ZM23.9158 14.7075C22.0884 16.5349 19.1145 16.5349 17.2869 14.7075C15.4592 12.8799 15.4592 9.90576 17.2869 8.07837C19.1145 6.25098 22.0884 6.25098 23.9158 8.07837C25.7434 9.90601 25.7434 12.8799 23.9158 14.7075Z" fill="#FFD22E"/>
</g>
<defs>
<clipPath id="clip0">
<rect width="32" height="32" fill="white"/>
</clipPath>
</defs>
</svg>
