<svg width="24" height="77" viewBox="0 0 24 77" fill="none" xmlns="http://www.w3.org/2000/svg">
<path d="M23.9246 2.35547C23.9842 2.08583 23.8139 1.81894 23.5443 1.75934L19.1503 0.788162C18.8807 0.728565 18.6138 0.898835 18.5542 1.16847C18.4946 1.4381 18.6649 1.705 18.9345 1.7646L22.8402 2.62787L21.9769 6.5336C21.9174 6.80324 22.0876 7.07013 22.3573 7.12973C22.6269 7.18932 22.8938 7.01905 22.9534 6.74942L23.9246 2.35547ZM15.6639 75.6001C-8.3767 51.0424 2.20121 16.3879 23.7053 2.66908L23.1674 1.82603C1.23305 15.8194 -9.61856 51.2033 14.9493 76.2996L15.6639 75.6001Z" fill="black"/>
</svg>
