<svg width="375" height="400" viewBox="0 0 375 400" fill="none" xmlns="http://www.w3.org/2000/svg">
<mask id="mask0" mask-type="alpha" maskUnits="userSpaceOnUse" x="0" y="0" width="375" height="400">
<path d="M0.98005 7.97999C0.991076 3.56953 4.56956 0 8.98003 0H366.98C371.406 0 374.991 3.59392 374.98 8.02L374.02 392.02C374.009 396.43 370.43 400 366.02 400H8.02002C3.59393 400 0.00898481 396.406 0.02005 391.98L0.98005 7.97999Z" fill="#FFD22E"/>
</mask>
<g mask="url(#mask0)">
<g opacity="0.1">
<path d="M37.0762 118.841C29.7287 124.879 27.6414 135.378 31.949 144.321C33.311 147.135 32.5562 150.554 30.1189 152.529C27.7013 154.541 24.211 154.638 21.7233 152.762C13.7607 146.828 3.056 146.861 -4.27122 152.936L-11.2489 158.681C-20.4607 166.243 -20.8042 181.075 -13.0117 189.732C-10.8484 192.165 -8.79407 194.751 -6.72248 197.28C-3.67354 201.009 -0.587376 204.719 2.46156 208.448C6.52528 213.358 10.5512 218.288 14.6145 223.197C19.4217 229.049 24.2863 234.918 29.0935 240.77C34.5047 247.304 39.8784 253.857 45.29 260.392C51.0347 267.369 56.7993 274.384 62.5812 281.342C68.4828 288.523 74.4211 295.684 80.3026 302.828C86.1641 309.934 92.0061 317.003 97.8675 324.111C103.455 330.885 109.043 337.659 114.631 344.433C119.732 350.655 124.85 356.819 129.95 363.04C134.367 368.431 138.821 373.802 143.218 379.155C146.754 383.438 150.29 387.72 153.847 392.039C156.289 394.993 158.731 397.946 161.173 400.899C162.287 402.266 163.438 403.612 164.552 404.978C164.592 405.053 164.67 405.107 164.71 405.182C160.402 406.434 156.471 409.017 153.557 412.874C147.456 420.973 147.894 431.988 154.032 439.521C155.85 441.755 156.373 444.969 154.644 447.283L149.18 454.515C147.451 456.828 144.194 457.183 141.539 456.067C141.041 455.854 -126.144 253.82 -126.494 253.433C-128.312 251.199 -128.836 247.985 -127.106 245.671L-121.642 238.439C-119.913 236.126 -116.657 235.771 -114.001 236.887C-105.095 240.737 -94.3669 238.155 -88.267 230.055C-82.1666 221.956 -82.6044 210.942 -88.7421 203.408C-90.5599 201.175 -91.0835 197.96 -89.3538 195.647L-83.8902 188.415C-82.1607 186.101 -78.9045 185.746 -76.2487 186.862C-67.3432 190.712 -56.6149 188.13 -50.5148 180.031C-44.4148 171.932 -44.8522 160.917 -50.9899 153.384C-52.8079 151.15 -53.3314 147.935 -51.6018 145.622L-46.1382 138.39C-44.4085 136.076 -41.1521 135.721 -38.4965 136.837C-29.591 140.688 -18.8627 138.105 -12.7622 130.006C-6.66203 121.906 -7.10023 110.892 -13.2374 103.359C-15.0553 101.125 -15.5788 97.9106 -13.8496 95.5971L-7.78325 87.6121C-6.05376 85.2983 -2.79979 84.8493 -0.486429 86.579L39.4536 116.756L37.0762 118.841Z" fill="#442A82"/>
<path d="M210.683 437.061C210.221 436.734 -2.81128 178.291 -3.07016 177.807C-4.31285 175.217 -4.06417 171.925 -1.86719 170.127L5.11046 164.382C7.34462 162.564 10.6022 162.927 12.916 164.657C20.7046 170.445 31.7124 170.442 39.5577 163.993C47.4032 157.544 49.5003 146.705 45.2923 137.948C44.0498 135.358 44.2983 132.065 46.4952 130.267L51.6082 126.047L53.5099 124.502C55.7441 122.684 59.0019 123.048 61.3154 124.777C69.1042 130.565 80.1118 130.562 87.9568 124.113C95.8027 117.664 97.8998 106.825 93.6917 98.0678C92.4492 95.4778 92.6977 92.1856 94.8947 90.3875L101.872 84.6429C104.107 82.8249 107.364 83.188 109.678 84.9175C117.467 90.7056 128.474 90.7023 136.32 84.2534C144.165 77.8049 146.262 66.9656 142.054 58.2082C140.812 55.6182 141.06 52.3264 143.257 50.528L150.991 44.1396C153.225 42.3213 156.5 42.6273 158.318 44.8611C158.318 44.8611 372.368 304.579 372.527 304.877C373.682 307.035 373.172 309.749 371.253 311.35L363.519 317.739C361.285 319.557 358.027 319.194 355.714 317.465C347.925 311.677 336.917 311.68 329.072 318.129C321.226 324.577 319.129 335.416 323.337 344.174C324.58 346.764 324.331 350.056 322.134 351.854L315.157 357.599C312.922 359.417 309.665 359.054 307.351 357.324C299.563 351.536 288.555 351.539 280.709 357.988C272.864 364.437 270.767 375.276 274.975 384.033C276.217 386.623 275.969 389.916 273.772 391.714L266.794 397.458C264.56 399.276 261.302 398.913 258.989 397.184C251.2 391.396 240.192 391.399 232.347 397.848C224.501 404.296 222.404 415.136 226.612 423.893C227.855 426.483 227.606 429.775 225.409 431.573L218.431 437.318C216.217 439.174 212.997 438.791 210.683 437.061ZM173.327 138.02C177.812 134.327 178.458 127.663 174.765 123.177C171.072 118.692 164.408 118.046 159.923 121.739L105.396 166.716L71.7822 194.423C67.8321 197.685 66.8516 203.188 69.1815 207.542C69.5003 208.137 69.9131 208.73 70.3433 209.265C74.0363 213.751 80.7004 214.397 85.186 210.704L122.675 179.775L173.327 138.02ZM296.772 287.739C301.258 284.046 301.904 277.382 298.211 272.897C294.518 268.411 287.854 267.765 283.368 271.458L264.54 286.991L243.183 304.595L225.98 318.78L195.208 344.104C191.257 347.367 190.277 352.87 192.607 357.224C192.926 357.819 193.339 358.412 193.769 358.947C193.946 359.187 194.159 359.408 194.353 359.592C198.162 363.488 204.347 363.865 208.591 360.348L214.813 355.248L230.891 342L296.772 287.739Z" fill="#442A82"/>
</g>
</g>
</svg>
