<svg width="130" height="130" viewBox="0 0 130 130" fill="none" xmlns="http://www.w3.org/2000/svg">
<path d="M123.276 15.6897H6.7242C3.01057 15.6897 0 18.7003 0 22.4139V107.586C0 111.3 3.01057 114.31 6.7242 114.31H123.276C126.989 114.31 130 111.3 130 107.586V22.4139C130 18.7003 126.989 15.6897 123.276 15.6897ZM112.069 20.1724H114.31C115.548 20.1724 116.552 21.1761 116.552 22.4139C116.552 23.6517 115.548 24.6554 114.31 24.6554H112.069C110.831 24.6554 109.827 23.6517 109.827 22.4139C109.828 21.1761 110.831 20.1724 112.069 20.1724ZM49.3104 20.1724H103.103C104.341 20.1724 105.345 21.1761 105.345 22.4139C105.345 23.6517 104.341 24.6554 103.103 24.6554H49.3104C48.0726 24.6554 47.0689 23.6517 47.0689 22.4139C47.0689 21.1761 48.0726 20.1724 49.3104 20.1724ZM38.1035 20.1724H40.3449C41.5827 20.1724 42.5864 21.1761 42.5864 22.4139C42.5864 23.6517 41.5827 24.6554 40.3449 24.6554H38.1035C36.8657 24.6554 35.862 23.6517 35.862 22.4139C35.862 21.1761 36.8657 20.1724 38.1035 20.1724ZM29.138 20.1724H31.3795C32.6173 20.1724 33.621 21.1761 33.621 22.4139C33.621 23.6517 32.6173 24.6554 31.3795 24.6554H29.138C27.9002 24.6554 26.8965 23.6517 26.8965 22.4139C26.8965 21.1761 27.9002 20.1724 29.138 20.1724ZM20.1723 20.1724C21.4101 20.1724 22.4138 21.1761 22.4138 22.4139C22.4138 23.6517 21.4101 24.6554 20.1723 24.6554C18.9346 24.6554 17.9309 23.6517 17.9309 22.4139C17.9311 21.1761 18.9346 20.1724 20.1723 20.1724ZM13.4484 20.1724C14.6862 20.1724 15.6899 21.1761 15.6899 22.4139C15.6899 23.6517 14.6862 24.6554 13.4484 24.6554C12.2106 24.6554 11.2069 23.6517 11.2069 22.4139C11.2069 21.1761 12.2104 20.1724 13.4484 20.1724ZM6.7242 20.1724C7.96199 20.1724 8.96568 21.1761 8.96568 22.4139C8.96568 23.6517 7.96199 24.6554 6.7242 24.6554C5.48641 24.6554 4.48272 23.6517 4.48272 22.4139C4.48272 21.1761 5.48641 20.1724 6.7242 20.1724ZM125.517 42.5862V107.586C125.517 108.824 124.514 109.828 123.276 109.828H65H6.7242C5.48641 109.828 4.48272 108.824 4.48272 107.586V42.5862V31.3793C4.48272 30.1415 5.48641 29.1378 6.7242 29.1378H65H123.276C124.514 29.1378 125.517 30.1415 125.517 31.3793V42.5862ZM123.276 24.6551H121.034C119.797 24.6551 118.793 23.6514 118.793 22.4136C118.793 21.1759 119.797 20.1722 121.034 20.1722H123.276C124.514 20.1722 125.517 21.1759 125.517 22.4136C125.517 23.6517 124.514 24.6551 123.276 24.6551Z" fill="#424A60"/>
<path d="M65 109.828H123.276C124.514 109.828 125.517 108.824 125.517 107.586V42.5863H65V109.828ZM98.6207 53.7932V51.5517C98.6207 50.3139 99.6244 49.3102 100.862 49.3102H116.552C117.79 49.3102 118.793 50.3139 118.793 51.5517V53.7932V71.7243C118.793 72.9621 117.79 73.9658 116.552 73.9658H100.862C99.6244 73.9658 98.6207 72.9621 98.6207 71.7243V53.7932ZM71.7242 53.7932V51.5517C71.7242 50.3139 72.7279 49.3102 73.9657 49.3102H89.6553C90.8931 49.3102 91.8968 50.3139 91.8968 51.5517V53.7932V71.7243C91.8968 72.9621 90.8931 73.9658 89.6553 73.9658H73.9654C72.7276 73.9658 71.7239 72.9621 71.7239 71.7243L71.7242 53.7932ZM73.9654 80.6898H76.2069H116.552C117.79 80.6898 118.793 81.6935 118.793 82.9312V100.862C118.793 102.1 117.79 103.104 116.552 103.104H76.2069H73.9654C72.7276 103.104 71.7239 102.1 71.7239 100.862V82.9312C71.7242 81.6935 72.7276 80.6898 73.9654 80.6898Z" fill="white"/>
<path d="M6.72415 24.6553C7.96209 24.6553 8.96564 23.6518 8.96564 22.4139C8.96564 21.1759 7.96209 20.1724 6.72415 20.1724C5.48621 20.1724 4.48267 21.1759 4.48267 22.4139C4.48267 23.6518 5.48621 24.6553 6.72415 24.6553Z" fill="#69559B"/>
<path d="M13.4485 24.6553C14.6865 24.6553 15.69 23.6518 15.69 22.4138C15.69 21.1759 14.6865 20.1724 13.4485 20.1724C12.2106 20.1724 11.207 21.1759 11.207 22.4138C11.207 23.6518 12.2106 24.6553 13.4485 24.6553Z" fill="#FFE169"/>
<path d="M20.1721 24.6553C21.4101 24.6553 22.4136 23.6518 22.4136 22.4138C22.4136 21.1759 21.4101 20.1724 20.1721 20.1724C18.9342 20.1724 17.9307 21.1759 17.9307 22.4138C17.9307 23.6518 18.9342 24.6553 20.1721 24.6553Z" fill="#69559B"/>
<path d="M29.1382 24.655H31.3797C32.6175 24.655 33.6212 23.6513 33.6212 22.4135C33.6212 21.1757 32.6175 20.172 31.3797 20.172H29.1382C27.9004 20.172 26.8967 21.1757 26.8967 22.4135C26.8967 23.6515 27.9004 24.655 29.1382 24.655Z" fill="#E4EAF6"/>
<path d="M38.1034 24.655H40.3449C41.5827 24.655 42.5864 23.6513 42.5864 22.4135C42.5864 21.1757 41.5827 20.172 40.3449 20.172H38.1034C36.8656 20.172 35.8619 21.1757 35.8619 22.4135C35.8619 23.6515 36.8656 24.655 38.1034 24.655Z" fill="#E4EAF6"/>
<path d="M112.069 24.655H114.311C115.549 24.655 116.552 23.6513 116.552 22.4135C116.552 21.1757 115.549 20.172 114.311 20.172H112.069C110.832 20.172 109.828 21.1757 109.828 22.4135C109.828 23.6515 110.832 24.655 112.069 24.655Z" fill="#E4EAF6"/>
<path d="M123.276 20.1724H121.035C119.797 20.1724 118.793 21.1761 118.793 22.4139C118.793 23.6516 119.797 24.6553 121.035 24.6553H123.276C124.514 24.6553 125.518 23.6516 125.518 22.4139C125.518 21.1761 124.514 20.1724 123.276 20.1724Z" fill="#E4EAF6"/>
<path d="M49.3106 24.655H103.104C104.341 24.655 105.345 23.6513 105.345 22.4135C105.345 21.1757 104.341 20.172 103.104 20.172H49.3106C48.0728 20.172 47.0691 21.1757 47.0691 22.4135C47.0691 23.6515 48.0728 24.655 49.3106 24.655Z" fill="#E4EAF6"/>
<path d="M123.276 29.1381H65V42.5865H125.517V31.3795C125.517 30.1415 124.514 29.1381 123.276 29.1381ZM80.6896 38.1035H71.7242C70.4864 38.1035 69.4827 37.0998 69.4827 35.862C69.4827 34.6242 70.4864 33.6205 71.7242 33.6205H80.6896C81.9274 33.6205 82.9311 34.6242 82.9311 35.862C82.9311 37.0998 81.9274 38.1035 80.6896 38.1035ZM98.6207 38.1035H89.6553C88.4175 38.1035 87.4138 37.0998 87.4138 35.862C87.4138 34.6242 88.4175 33.6205 89.6553 33.6205H98.6207C99.8585 33.6205 100.862 34.6242 100.862 35.862C100.862 37.0998 99.8585 38.1035 98.6207 38.1035ZM116.552 38.1035H107.586C106.348 38.1035 105.345 37.0998 105.345 35.862C105.345 34.6242 106.348 33.6205 107.586 33.6205H116.552C117.789 33.6205 118.793 34.6242 118.793 35.862C118.793 37.0998 117.79 38.1035 116.552 38.1035Z" fill="#69559B"/>
<path d="M80.6896 33.6206H71.7242C70.4864 33.6206 69.4827 34.6243 69.4827 35.8621C69.4827 37.0999 70.4864 38.1036 71.7242 38.1036H80.6896C81.9274 38.1036 82.9311 37.0999 82.9311 35.8621C82.9311 34.6243 81.9274 33.6206 80.6896 33.6206Z" fill="#FFE169"/>
<path d="M98.6205 33.6206H89.6551C88.4173 33.6206 87.4136 34.6243 87.4136 35.8621C87.4136 37.0999 88.4173 38.1036 89.6551 38.1036H98.6205C99.8583 38.1036 100.862 37.0999 100.862 35.8621C100.862 34.6243 99.8583 33.6206 98.6205 33.6206Z" fill="#FFE169"/>
<path d="M116.552 33.6206H107.586C106.348 33.6206 105.345 34.6243 105.345 35.8621C105.345 37.0999 106.348 38.1036 107.586 38.1036H116.552C117.789 38.1036 118.793 37.0999 118.793 35.8621C118.793 34.6243 117.79 33.6206 116.552 33.6206Z" fill="#FFE169"/>
<path d="M73.9656 73.9655H89.6552C90.893 73.9655 91.8967 72.9618 91.8967 71.724V53.7928C91.8967 55.0306 90.893 56.0343 89.6552 56.0343H73.9656C72.7278 56.0343 71.7241 55.0306 71.7241 53.7928V71.724C71.7244 72.962 72.7278 73.9655 73.9656 73.9655Z" fill="#DEE3ED"/>
<path d="M100.862 73.9655H116.552C117.79 73.9655 118.793 72.9618 118.793 71.724V53.7928C118.793 55.0306 117.79 56.0343 116.552 56.0343H100.862C99.6245 56.0343 98.6208 55.0306 98.6208 53.7928V71.724C98.6211 72.962 99.6245 73.9655 100.862 73.9655Z" fill="#DEE3ED"/>
<path d="M73.9656 56.0345H89.6552C90.893 56.0345 91.8967 55.0308 91.8967 53.793V51.5515C91.8967 50.3138 90.893 49.3101 89.6552 49.3101H73.9656C72.7278 49.3101 71.7241 50.3138 71.7241 51.5515V53.793C71.7244 55.0308 72.7278 56.0345 73.9656 56.0345Z" fill="#FFE169"/>
<path d="M100.862 56.0345H116.551C117.789 56.0345 118.793 55.0308 118.793 53.793V51.5515C118.793 50.3138 117.789 49.3101 116.551 49.3101H100.862C99.6239 49.3101 98.6202 50.3138 98.6202 51.5515V53.793C98.6205 55.0308 99.6239 56.0345 100.862 56.0345Z" fill="#69559B"/>
<path d="M78.4485 82.9312V100.862C78.4485 102.1 77.4448 103.104 76.207 103.104H116.552C117.79 103.104 118.793 102.1 118.793 100.862V82.9312C118.793 81.6934 117.79 80.6897 116.552 80.6897H76.207C77.4448 80.6897 78.4485 81.6934 78.4485 82.9312Z" fill="#DEE3ED"/>
<path d="M73.9656 103.103H76.2071C77.4449 103.103 78.4486 102.1 78.4486 100.862V82.9308C78.4486 81.693 77.4449 80.6893 76.2071 80.6893H73.9656C72.7278 80.6893 71.7241 81.693 71.7241 82.9308V100.862C71.7244 102.1 72.7278 103.103 73.9656 103.103Z" fill="#69559B"/>
<path d="M65 29.1381H6.72415C5.48636 29.1381 4.48267 30.1418 4.48267 31.3795V42.5865V107.586C4.48267 108.824 5.48636 109.828 6.72415 109.828H65V42.5862V29.1381ZM22.4138 35.862H58.2758C59.5135 35.862 60.5172 36.8657 60.5172 38.1035C60.5172 39.3413 59.5135 40.345 58.2758 40.345H22.4138C21.176 40.345 20.1723 39.3413 20.1723 38.1035C20.1723 36.8657 21.176 35.862 22.4138 35.862ZM11.2069 35.862H13.4483C14.6861 35.862 15.6898 36.8657 15.6898 38.1035C15.6898 39.3413 14.6861 40.345 13.4483 40.345H11.2069C9.96907 40.345 8.96538 39.3413 8.96538 38.1035C8.96538 36.8657 9.96907 35.862 11.2069 35.862ZM33.6207 49.3104H26.8965C25.6587 49.3104 24.655 48.3067 24.655 47.0689C24.655 45.8311 25.6587 44.8274 26.8965 44.8274H33.6207C34.8585 44.8274 35.8622 45.8311 35.8622 47.0689C35.8619 48.3067 34.8585 49.3104 33.6207 49.3104ZM35.8619 56.0346C35.8619 57.2724 34.8582 58.2761 33.6204 58.2761H26.8962C25.6584 58.2761 24.6548 57.2724 24.6548 56.0346C24.6548 54.7968 25.6584 53.7931 26.8962 53.7931H33.6204C34.8585 53.7931 35.8619 54.7968 35.8619 56.0346ZM11.2069 71.7242H13.4483C14.6861 71.7242 15.6898 72.7279 15.6898 73.9657C15.6898 75.2035 14.6861 76.2072 13.4483 76.2072H11.2069C9.96907 76.2072 8.96538 75.2035 8.96538 73.9657C8.96538 72.7279 9.96907 71.7242 11.2069 71.7242ZM8.96538 65C8.96538 63.7622 9.96907 62.7585 11.2069 62.7585H13.4483C14.6861 62.7585 15.6898 63.7622 15.6898 65C15.6898 66.2378 14.6861 67.2415 13.4483 67.2415H11.2069C9.96907 67.2415 8.96538 66.2378 8.96538 65ZM15.6896 80.6897H17.9311C19.1689 80.6897 20.1725 81.6934 20.1725 82.9311C20.1725 84.1689 19.1689 85.1726 17.9311 85.1726H15.6896C14.4518 85.1726 13.4481 84.1689 13.4481 82.9311C13.4481 81.6934 14.4518 80.6897 15.6896 80.6897ZM17.9311 58.2758H15.6896C14.4518 58.2758 13.4481 57.2721 13.4481 56.0343C13.4481 54.7966 14.4518 53.7929 15.6896 53.7929H17.9311C19.1689 53.7929 20.1725 54.7966 20.1725 56.0343C20.1725 57.2721 19.1689 58.2758 17.9311 58.2758ZM17.9311 49.3104H15.6896C14.4518 49.3104 13.4481 48.3067 13.4481 47.0689C13.4481 45.8311 14.4518 44.8274 15.6896 44.8274H17.9311C19.1689 44.8274 20.1725 45.8311 20.1725 47.0689C20.1723 48.3067 19.1689 49.3104 17.9311 49.3104ZM13.4483 103.103H11.2069C9.96907 103.103 8.96538 102.1 8.96538 100.862C8.96538 99.6242 9.96907 98.6205 11.2069 98.6205H13.4483C14.6861 98.6205 15.6898 99.6242 15.6898 100.862C15.6896 102.1 14.6861 103.103 13.4483 103.103ZM17.9311 94.1381H15.6896C14.4518 94.1381 13.4481 93.1344 13.4481 91.8966C13.4481 90.6588 14.4518 89.6551 15.6896 89.6551H17.9311C19.1689 89.6551 20.1725 90.6588 20.1725 91.8966C20.1725 93.1344 19.1689 94.1381 17.9311 94.1381ZM58.2758 103.103H22.4138C21.176 103.103 20.1723 102.1 20.1723 100.862C20.1723 99.6242 21.176 98.6205 22.4138 98.6205H58.2758C59.5135 98.6205 60.5172 99.6242 60.5172 100.862C60.5172 102.1 59.5135 103.103 58.2758 103.103ZM26.8965 89.6551H33.6207C34.8585 89.6551 35.8622 90.6588 35.8622 91.8966C35.8622 93.1344 34.8585 94.1381 33.6207 94.1381H26.8965C25.6587 94.1381 24.655 93.1344 24.655 91.8966C24.655 90.6588 25.6587 89.6551 26.8965 89.6551ZM24.655 82.9311C24.655 81.6934 25.6587 80.6897 26.8965 80.6897H33.6207C34.8585 80.6897 35.8622 81.6934 35.8622 82.9311C35.8622 84.1689 34.8585 85.1726 33.6207 85.1726H26.8965C25.6587 85.1724 24.655 84.1689 24.655 82.9311ZM58.2758 94.1381H42.5861C41.3483 94.1381 40.3446 93.1344 40.3446 91.8966C40.3446 90.6588 41.3483 89.6551 42.5861 89.6551H58.2758C59.5135 89.6551 60.5172 90.6588 60.5172 91.8966C60.5172 93.1344 59.5135 94.1381 58.2758 94.1381ZM58.2758 85.1724H42.5861C41.3483 85.1724 40.3446 84.1687 40.3446 82.9309C40.3446 81.6931 41.3483 80.6894 42.5861 80.6894H58.2758C59.5135 80.6894 60.5172 81.6931 60.5172 82.9309C60.5172 84.1687 59.5135 85.1724 58.2758 85.1724ZM58.2758 76.207H22.4138C21.176 76.207 20.1723 75.2033 20.1723 73.9655C20.1723 72.7277 21.176 71.724 22.4138 71.724H58.2758C59.5135 71.724 60.5172 72.7277 60.5172 73.9655C60.5172 75.2033 59.5135 76.207 58.2758 76.207ZM58.2758 67.2415H22.4138C21.176 67.2415 20.1723 66.2378 20.1723 65C20.1723 63.7622 21.176 62.7585 22.4138 62.7585H58.2758C59.5135 62.7585 60.5172 63.7622 60.5172 65C60.5172 66.2378 59.5135 67.2415 58.2758 67.2415ZM58.2758 58.2758H42.5861C41.3483 58.2758 40.3446 57.2721 40.3446 56.0343C40.3446 54.7966 41.3483 53.7929 42.5861 53.7929H58.2758C59.5135 53.7929 60.5172 54.7966 60.5172 56.0343C60.5172 57.2721 59.5135 58.2758 58.2758 58.2758ZM58.2758 49.3104H42.5861C41.3483 49.3104 40.3446 48.3067 40.3446 47.0689C40.3446 45.8311 41.3483 44.8274 42.5861 44.8274H58.2758C59.5135 44.8274 60.5172 45.8311 60.5172 47.0689C60.5172 48.3067 59.5135 49.3104 58.2758 49.3104Z" fill="#464655"/>
<path d="M22.4138 40.3449H58.2758C59.5136 40.3449 60.5173 39.3412 60.5173 38.1034C60.5173 36.8656 59.5136 35.8619 58.2758 35.8619H22.4138C21.1761 35.8619 20.1724 36.8656 20.1724 38.1034C20.1724 39.3412 21.1761 40.3449 22.4138 40.3449Z" fill="#FFE169"/>
<path d="M33.6207 44.8276H26.8965C25.6587 44.8276 24.655 45.8313 24.655 47.0691C24.655 48.3069 25.6587 49.3106 26.8965 49.3106H33.6207C34.8585 49.3106 35.8622 48.3069 35.8622 47.0691C35.8619 45.8311 34.8585 44.8276 33.6207 44.8276Z" fill="#69559B"/>
<path d="M33.6207 53.7928H26.8965C25.6587 53.7928 24.655 54.7965 24.655 56.0343C24.655 57.2721 25.6587 58.2758 26.8965 58.2758H33.6207C34.8585 58.2758 35.8622 57.2721 35.8622 56.0343C35.8622 54.7965 34.8585 53.7928 33.6207 53.7928Z" fill="#69559B"/>
<path d="M58.2758 62.7585H22.4138C21.1761 62.7585 20.1724 63.7622 20.1724 65C20.1724 66.2378 21.1761 67.2415 22.4138 67.2415H58.2758C59.5136 67.2415 60.5173 66.2378 60.5173 65C60.5173 63.7622 59.5136 62.7585 58.2758 62.7585Z" fill="#FFE169"/>
<path d="M58.2758 71.7241H22.4138C21.1761 71.7241 20.1724 72.7278 20.1724 73.9656C20.1724 75.2034 21.1761 76.2071 22.4138 76.2071H58.2758C59.5136 76.2071 60.5173 75.2034 60.5173 73.9656C60.5173 72.7278 59.5136 71.7241 58.2758 71.7241Z" fill="white"/>
<path d="M58.2758 44.8276H42.5862C41.3484 44.8276 40.3447 45.8313 40.3447 47.0691C40.3447 48.3069 41.3484 49.3106 42.5862 49.3106H58.2758C59.5136 49.3106 60.5173 48.3069 60.5173 47.0691C60.5173 45.8311 59.5136 44.8276 58.2758 44.8276Z" fill="white"/>
<path d="M58.2758 53.7928H42.5862C41.3484 53.7928 40.3447 54.7965 40.3447 56.0343C40.3447 57.2721 41.3484 58.2758 42.5862 58.2758H58.2758C59.5136 58.2758 60.5173 57.2721 60.5173 56.0343C60.5173 54.7965 59.5136 53.7928 58.2758 53.7928Z" fill="white"/>
<path d="M58.2758 80.6896H42.5862C41.3484 80.6896 40.3447 81.6933 40.3447 82.9311C40.3447 84.1689 41.3484 85.1726 42.5862 85.1726H58.2758C59.5136 85.1726 60.5173 84.1689 60.5173 82.9311C60.5173 81.6933 59.5136 80.6896 58.2758 80.6896Z" fill="white"/>
<path d="M58.2758 89.655H42.5862C41.3484 89.655 40.3447 90.6587 40.3447 91.8965C40.3447 93.1343 41.3484 94.138 42.5862 94.138H58.2758C59.5136 94.138 60.5173 93.1343 60.5173 91.8965C60.5173 90.6587 59.5136 89.655 58.2758 89.655Z" fill="white"/>
<path d="M26.8965 85.1723H33.6207C34.8585 85.1723 35.8622 84.1686 35.8622 82.9308C35.8622 81.693 34.8585 80.6893 33.6207 80.6893H26.8965C25.6587 80.6893 24.655 81.693 24.655 82.9308C24.655 84.1686 25.6587 85.1723 26.8965 85.1723Z" fill="#69559B"/>
<path d="M26.8965 94.1379H33.6207C34.8585 94.1379 35.8622 93.1342 35.8622 91.8964C35.8622 90.6586 34.8585 89.6549 33.6207 89.6549H26.8965C25.6587 89.6549 24.655 90.6586 24.655 91.8964C24.655 93.1342 25.6587 94.1379 26.8965 94.1379Z" fill="#69559B"/>
<path d="M58.2758 98.6206H22.4138C21.1761 98.6206 20.1724 99.6243 20.1724 100.862C20.1724 102.1 21.1761 103.104 22.4138 103.104H58.2758C59.5136 103.104 60.5173 102.1 60.5173 100.862C60.5173 99.624 59.5136 98.6206 58.2758 98.6206Z" fill="#FFE169"/>
<path d="M11.2067 40.3449H13.4482C14.686 40.3449 15.6897 39.3412 15.6897 38.1034C15.6897 36.8656 14.686 35.8619 13.4482 35.8619H11.2067C9.9689 35.8619 8.96521 36.8656 8.96521 38.1034C8.96521 39.3412 9.9689 40.3449 11.2067 40.3449Z" fill="#FFE169"/>
<path d="M17.9309 44.8275H15.6894C14.4516 44.8275 13.4479 45.8312 13.4479 47.069C13.4479 48.3068 14.4516 49.3105 15.6894 49.3105H17.9309C19.1686 49.3105 20.1723 48.3068 20.1723 47.069C20.1721 45.831 19.1686 44.8275 17.9309 44.8275Z" fill="#FFE169"/>
<path d="M17.9309 53.7931H15.6894C14.4516 53.7931 13.4479 54.7968 13.4479 56.0346C13.4479 57.2724 14.4516 58.2761 15.6894 58.2761H17.9309C19.1686 58.2761 20.1723 57.2724 20.1723 56.0346C20.1723 54.7968 19.1686 53.7931 17.9309 53.7931Z" fill="#FFE169"/>
<path d="M11.2067 67.2414H13.4482C14.686 67.2414 15.6897 66.2377 15.6897 64.9999C15.6897 63.7621 14.686 62.7584 13.4482 62.7584H11.2067C9.9689 62.7584 8.96521 63.7621 8.96521 64.9999C8.96521 66.2377 9.9689 67.2414 11.2067 67.2414Z" fill="#FFE169"/>
<path d="M11.2067 76.2069H13.4482C14.686 76.2069 15.6897 75.2032 15.6897 73.9654C15.6897 72.7276 14.686 71.7239 13.4482 71.7239H11.2067C9.9689 71.7239 8.96521 72.7276 8.96521 73.9654C8.96521 75.2032 9.9689 76.2069 11.2067 76.2069Z" fill="#FFE169"/>
<path d="M15.6894 85.1723H17.9309C19.1686 85.1723 20.1723 84.1686 20.1723 82.9308C20.1723 81.693 19.1686 80.6893 17.9309 80.6893H15.6894C14.4516 80.6893 13.4479 81.693 13.4479 82.9308C13.4479 84.1686 14.4516 85.1723 15.6894 85.1723Z" fill="#FFE169"/>
<path d="M17.9309 89.6549H15.6894C14.4516 89.6549 13.4479 90.6586 13.4479 91.8964C13.4479 93.1342 14.4516 94.1379 15.6894 94.1379H17.9309C19.1686 94.1379 20.1723 93.1342 20.1723 91.8964C20.1723 90.6586 19.1686 89.6549 17.9309 89.6549Z" fill="#FFE169"/>
<path d="M13.4482 98.6207H11.2067C9.9689 98.6207 8.96521 99.6244 8.96521 100.862C8.96521 102.1 9.9689 103.104 11.2067 103.104H13.4482C14.686 103.104 15.6897 102.1 15.6897 100.862C15.6894 99.6242 14.686 98.6207 13.4482 98.6207Z" fill="#FFE169"/>
</svg>
