<svg width="80" height="112" viewBox="0 0 80 112" fill="none" xmlns="http://www.w3.org/2000/svg">
<path d="M50.3245 98.2083H25.6758V109.769H50.3245V98.2083Z" fill="#69559B"/>
<path d="M42.4716 103.879H33.7463V109.769H42.4716V103.879Z" fill="#FFD22E"/>
<path d="M33.7465 26.2253V52.8372H25.6758V98.2081H33.7465H50.3243V26.2253H33.7465Z" fill="#FFD22E"/>
<path d="M42.0352 2.23096H33.7463V17.2818H42.0352V2.23096Z" fill="#69559B"/>
<path d="M42.0352 17.282H33.7463V26.2253H42.0352V17.282Z" fill="#FFD22E"/>
<path d="M43.8217 2.23108C43.8217 0.998853 42.8229 0 41.5907 0H33.3018C32.0695 0 31.0707 0.998853 31.0707 2.23108V50.6062H25.2311C23.9989 50.6062 23 51.605 23 52.8372V109.769C23 111.001 23.9989 112 25.2311 112H49.8798C51.112 112 52.1108 111.001 52.1108 109.769L52.0573 17.4024C52.0573 16.1702 51.0584 15.1713 49.8262 15.1713C48.594 15.1713 47.5951 16.1702 47.5951 17.4024V23.9941H43.8217V2.23108ZM27.4622 95.9771V91.496H31.0707V95.9771H27.4622ZM39.3596 41.6627H35.5328V37.6177H39.3596V41.6627ZM43.8217 37.6177H47.6485V41.6627H43.8217V37.6177ZM39.3596 46.1248V50.6059H35.5328V46.1248H39.3596ZM43.8217 46.1248H47.6485V50.6059H43.8217V46.1248ZM47.6485 55.0683V59.5494H43.8217V55.0683H47.6485ZM47.6485 64.0116V68.7109H43.8217V64.0116H47.6485ZM47.6485 73.173V77.8724H43.8217V73.173H47.6485ZM39.3596 77.8724H35.5328V73.173H39.3596V77.8724ZM31.0707 77.8724H27.4622V73.173H31.0707V77.8724ZM27.4622 82.3345H31.0707V87.0338H27.4622V82.3345ZM35.5328 82.3345H39.3596V87.0338H35.5328V82.3345ZM43.8217 82.3345H47.6485V87.0338H43.8217V82.3345ZM47.6485 33.1556H43.8217V28.4563H47.6485V33.1556ZM39.3596 33.1556H35.5328V28.4563H39.3596V33.1556ZM35.5328 55.0683H39.3596V59.5494H35.5328V55.0683ZM39.3596 64.0116V68.7109H35.5328V64.0116H39.3596ZM31.0707 68.7109H27.4622V64.0116H31.0707V68.7109ZM35.5328 91.4957H39.3596V95.9769H35.5328V91.4957ZM43.8217 91.4957H47.6485V95.9769H43.8217V91.4957ZM35.5328 23.9941V19.513H39.3596V23.9941H35.5328ZM35.5328 4.46215H39.3596V15.0508H35.5328V4.46215ZM31.0707 55.0683V59.5494H27.4622V55.0683H31.0707ZM35.5328 107.538V106.111H39.7958V107.538H35.5328ZM47.6485 107.538H44.2579V103.88C44.2579 102.647 43.2591 101.648 42.0268 101.648H33.3018C32.0695 101.648 31.0707 102.647 31.0707 103.88V107.538H27.4622V100.439H33.3018H47.6485V107.538Z" fill="#424A60"/>
<path d="M47.8263 12.494C49.0585 12.494 50.0574 11.4951 50.0574 10.2629V9.37048C50.0574 8.13826 49.0585 7.1394 47.8263 7.1394C46.5941 7.1394 45.5952 8.13826 45.5952 9.37048V10.2629C45.5952 11.4951 46.5941 12.494 47.8263 12.494Z" fill="#424A60"/>
<path d="M56.5152 100.302H77.4226V110.108H56.5152V100.302Z" fill="#69559B"/>
<path d="M63.176 105.112H70.5769V110.108H63.176V105.112Z" fill="#FFD22E"/>
<path d="M70.5769 39.2449V61.8174H77.4226V100.302H70.5769H56.5154V39.2449H70.5769Z" fill="#FFD22E"/>
<path d="M63.5461 18.8926H70.5769V31.6589H63.5461V18.8926Z" fill="#69559B"/>
<path d="M63.5461 31.6587H70.5769V39.2445H63.5461V31.6587Z" fill="#FFD22E"/>
<path d="M62.031 18.8924C62.031 17.8472 62.8782 17 63.9234 17H70.9542C71.9993 17 72.8466 17.8472 72.8466 18.8924V59.9249H77.7998C78.845 59.9249 79.6923 60.7721 79.6923 61.8173V110.108C79.6923 111.153 78.845 112 77.7998 112H56.8925C55.8473 112 55 111.153 55 110.108L55.0454 31.761C55.0454 30.7158 55.8927 29.8685 56.9379 29.8685C57.9831 29.8685 58.8303 30.7158 58.8303 31.761V37.3521H62.031V18.8924ZM75.9074 98.4091V94.6082H72.8466V98.4091H75.9074ZM65.8158 52.3389H69.0617V48.9079H65.8158V52.3389ZM62.031 48.9079H58.7851V52.3389H62.031V48.9079ZM65.8158 56.1237V59.9247H69.0617V56.1237H65.8158ZM62.031 56.1237H58.7851V59.9247H62.031V56.1237ZM58.7851 63.7097V67.5107H62.031V63.7097H58.7851ZM58.7851 71.2955V75.2816H62.031V71.2955H58.7851ZM58.7851 79.0664V83.0524H62.031V79.0664H58.7851ZM65.8158 83.0524H69.0617V79.0664H65.8158V83.0524ZM72.8466 83.0524H75.9074V79.0664H72.8466V83.0524ZM75.9074 86.8373H72.8466V90.8233H75.9074V86.8373ZM69.0617 86.8373H65.8158V90.8233H69.0617V86.8373ZM62.031 86.8373H58.7851V90.8233H62.031V86.8373ZM58.7851 45.123H62.031V41.137H58.7851V45.123ZM65.8158 45.123H69.0617V41.137H65.8158V45.123ZM69.0617 63.7097H65.8158V67.5107H69.0617V63.7097ZM65.8158 71.2955V75.2816H69.0617V71.2955H65.8158ZM72.8466 75.2816H75.9074V71.2955H72.8466V75.2816ZM69.0617 94.608H65.8158V98.409H69.0617V94.608ZM62.031 94.608H58.7851V98.409H62.031V94.608ZM69.0617 37.3521V33.5512H65.8158V37.3521H69.0617ZM69.0617 20.7849H65.8158V29.7663H69.0617V20.7849ZM72.8466 63.7097V67.5107H75.9074V63.7097H72.8466ZM69.0617 108.215V107.005H65.4459V108.215H69.0617ZM58.7851 108.215H61.661V105.112C61.661 104.067 62.5082 103.22 63.5534 103.22H70.9542C71.9993 103.22 72.8466 104.067 72.8466 105.112V108.215H75.9074V102.194H70.9542H58.7851V108.215Z" fill="#424A60"/>
<path d="M58.6342 27.5977C57.589 27.5977 56.7417 26.7505 56.7417 25.7053V24.9483C56.7417 23.9031 57.589 23.0559 58.6342 23.0559C59.6794 23.0559 60.5266 23.9031 60.5266 24.9483V25.7053C60.5266 26.7505 59.6794 27.5977 58.6342 27.5977Z" fill="#424A60"/>
<path d="M18.7727 102.525H1.83838V110.467H18.7727V102.525Z" fill="#69559B"/>
<path d="M13.3777 106.421H7.38318V110.467H13.3777V106.421Z" fill="#FFD22E"/>
<path d="M7.38318 53.0706V71.3537H1.83838V102.525H7.38318H18.7726V53.0706H7.38318Z" fill="#FFD22E"/>
<path d="M13.0779 36.5857H7.38318V46.9261H13.0779V36.5857Z" fill="#69559B"/>
<path d="M13.0779 46.926H7.38318V53.0703H13.0779V46.926Z" fill="#FFD22E"/>
<path d="M14.3051 36.5855C14.3051 35.739 13.6189 35.0527 12.7723 35.0527H7.07761C6.23104 35.0527 5.5448 35.739 5.5448 36.5855V69.8206H1.53281C0.686241 69.8206 0 70.5069 0 71.3535V110.467C0 111.314 0.686241 112 1.53281 112H18.4672C19.3138 112 20 111.314 20 110.467L19.9632 47.0087C19.9632 46.1621 19.277 45.4759 18.4304 45.4759C17.5838 45.4759 16.8976 46.1621 16.8976 47.0087V51.5374H14.3051V36.5855ZM3.06563 100.992V97.9131H5.5448V100.992H3.06563ZM11.2395 63.6762H8.61043V60.8972H11.2395V63.6762ZM14.3051 60.8972H16.9342V63.6762H14.3051V60.8972ZM11.2395 66.7418V69.8205H8.61043V66.7418H11.2395ZM14.3051 66.7418H16.9342V69.8205H14.3051V66.7418ZM16.9342 72.8863V75.9649H14.3051V72.8863H16.9342ZM16.9342 79.0306V82.2591H14.3051V79.0306H16.9342ZM16.9342 85.3247V88.5533H14.3051V85.3247H16.9342ZM11.2395 88.5533H8.61043V85.3247H11.2395V88.5533ZM5.5448 88.5533H3.06563V85.3247H5.5448V88.5533ZM3.06563 91.6189H5.5448V94.8475H3.06563V91.6189ZM8.61043 91.6189H11.2395V94.8475H8.61043V91.6189ZM14.3051 91.6189H16.9342V94.8475H14.3051V91.6189ZM16.9342 57.8316H14.3051V54.603H16.9342V57.8316ZM11.2395 57.8316H8.61043V54.603H11.2395V57.8316ZM8.61043 72.8863H11.2395V75.9649H8.61043V72.8863ZM11.2395 79.0306V82.2591H8.61043V79.0306H11.2395ZM5.5448 82.2591H3.06563V79.0306H5.5448V82.2591ZM8.61043 97.913H11.2395V100.992H8.61043V97.913ZM14.3051 97.913H16.9342V100.992H14.3051V97.913ZM8.61043 51.5374V48.4587H11.2395V51.5374H8.61043ZM8.61043 38.1184H11.2395V45.3931H8.61043V38.1184ZM5.5448 72.8863V75.9649H3.06563V72.8863H5.5448ZM8.61043 108.934V107.954H11.5392V108.934H8.61043ZM16.9342 108.934H14.6048V106.421C14.6048 105.574 13.9186 104.888 13.072 104.888H7.07761C6.23104 104.888 5.5448 105.574 5.5448 106.421V108.934H3.06563V104.057H7.07761H16.9342V108.934Z" fill="#424A60"/>
<path d="M17.0564 43.6365C17.903 43.6365 18.5892 42.9503 18.5892 42.1037V41.4906C18.5892 40.644 17.903 39.9578 17.0564 39.9578C16.2098 39.9578 15.5236 40.644 15.5236 41.4906V42.1037C15.5236 42.9503 16.2098 43.6365 17.0564 43.6365Z" fill="#424A60"/>
</svg>
