<svg width="94" height="94" viewBox="0 0 94 94" fill="none" xmlns="http://www.w3.org/2000/svg">
<path d="M76.5658 20.3216V91.1098C76.5658 92.7048 75.272 93.9986 73.677 93.9986H2.88873C1.29448 93.9986 0 92.7048 0 91.1098V20.3216C0 18.7273 1.29448 17.4329 2.88873 17.4329H73.677C75.272 17.4329 76.5658 18.7273 76.5658 20.3216Z" fill="#424A60"/>
<path d="M8.7037 20.2967V91.1098C8.7037 92.7054 8.40956 93.9996 8.04694 93.9996H0V17.407H8.04694C8.40956 17.407 8.7037 18.7019 8.7037 20.2967Z" fill="#FFD22E"/>
<path d="M94 2.88873V73.677C94 75.2713 92.7055 76.5658 91.1112 76.5658H20.3229C18.728 76.5658 17.4342 75.2713 17.4342 73.677V2.88873C17.4342 1.29376 18.728 0 20.3229 0H91.1112C92.7055 0 94 1.29376 94 2.88873Z" fill="#69559B"/>
<path d="M76.6259 18.1442H70.6519C68.9903 18.1442 67.6434 19.491 67.6434 21.1527C67.6434 22.8144 68.9903 24.1612 70.6519 24.1612H76.6259C78.2876 24.1612 79.6344 22.8144 79.6344 21.1527C79.6344 19.491 78.2876 18.1442 76.6259 18.1442Z" fill="#FFEB99"/>
<path d="M61.9565 21.1541C61.9565 22.8158 60.6104 24.1619 58.9487 24.1619H34.8069C33.1452 24.1619 31.7991 22.8158 31.7991 21.1541C31.7991 19.4924 33.1452 18.1442 34.8069 18.1442H58.9487C60.6104 18.1442 61.9565 19.4924 61.9565 21.1541Z" fill="#FFEB99"/>
<path d="M52.7094 24.1619H31.7991V18.1442H52.7094C54.3711 18.1442 55.7172 19.4924 55.7172 21.1541C55.7172 22.8158 54.3711 24.1619 52.7094 24.1619Z" fill="#FFD22E"/>
<path d="M76.6259 35.2758H70.6519C68.9903 35.2758 67.6434 36.6233 67.6434 38.2843C67.6434 39.9459 68.9903 41.2935 70.6519 41.2935H76.6259C78.2876 41.2935 79.6344 39.9459 79.6344 38.2843C79.6344 36.6233 78.2876 35.2758 76.6259 35.2758Z" fill="#FFEB99"/>
<path d="M61.9565 38.2807C61.9565 39.9424 60.6104 41.2907 58.9487 41.2907H34.8069C33.1452 41.2907 31.7991 39.9424 31.7991 38.2807C31.7991 36.6191 33.1452 35.2729 34.8069 35.2729H58.9487C60.6104 35.2729 61.9565 36.6191 61.9565 38.2807Z" fill="#FFEB99"/>
<path d="M55.7172 38.2807C55.7172 39.9424 54.3711 41.2907 52.7094 41.2907H31.7991V35.2729H52.7094C54.3711 35.2729 55.7172 36.6191 55.7172 38.2807Z" fill="#FFD22E"/>
<path d="M76.6259 52.4045H70.6519C68.9903 52.4045 67.6434 53.7514 67.6434 55.413C67.6434 57.0747 68.9903 58.4215 70.6519 58.4215H76.6259C78.2876 58.4215 79.6344 57.0747 79.6344 55.413C79.6344 53.7514 78.2876 52.4045 76.6259 52.4045Z" fill="#FFEB99"/>
<path d="M61.9565 55.4123C61.9565 57.074 60.6104 58.4223 58.9487 58.4223H34.8069C33.1452 58.4223 31.7991 57.074 31.7991 55.4123C31.7991 53.7521 33.1452 52.4045 34.8069 52.4045H58.9487C60.6104 52.4045 61.9565 53.7521 61.9565 55.4123Z" fill="#FFEB99"/>
<path d="M55.7172 55.4123C55.7172 57.074 54.3711 58.4223 52.7094 58.4223H31.7991V52.4045H52.7094C54.3711 52.4045 55.7172 53.7521 55.7172 55.4123Z" fill="#FFD22E"/>
</svg>
