<svg width="89" height="102" viewBox="0 0 89 102" fill="none" xmlns="http://www.w3.org/2000/svg">
<rect x="11" y="13" width="66" height="74" fill="#69559B"/>
<path d="M0.00967572 3.37661L6.61672 88.0676C6.7159 89.3393 7.57505 90.4238 8.78874 90.8094L43.5551 101.854C44.17 102.049 44.83 102.049 45.4448 101.854L80.2112 90.8094C81.4249 90.4238 82.2841 89.3393 82.3833 88.0676L88.9903 3.37661C89.1324 1.55579 87.6962 0 85.8735 0H3.12666C1.30402 0 -0.132187 1.55579 0.00967572 3.37661ZM72.047 29.6534H28.9876L30.2871 41.6602H71.1105L68.4399 75.8897L44.5001 83.4946L20.5603 75.8897L19.1651 58.0068H31.7306V66.7786L44.8359 70.3028L57.8628 66.7786L58.8735 52.7988H18.7587L16.0955 18.659H72.9045L72.047 29.6534Z" fill="#FFD22E"/>
</svg>
