<svg width="130" height="130" viewBox="0 0 130 130" fill="none" xmlns="http://www.w3.org/2000/svg">
<path d="M117.812 24.125H12.1875V89.125H117.812V24.125Z" fill="white"/>
<path d="M117.812 24.125H12.1875V40.375H117.812V24.125Z" fill="#442A82"/>
<path d="M116.577 16H13.4195C8.25982 16 4.0625 20.1877 4.0625 25.3351V99.2812C4.0625 100.404 4.97098 101.312 6.09375 101.312H123.906C125.029 101.312 125.938 100.404 125.938 99.2812V25.3351C125.938 20.1877 121.738 16 116.577 16ZM12.1875 87.0938V26.1562C12.1875 25.0345 13.097 24.125 14.2188 24.125H115.781C116.903 24.125 117.812 25.0345 117.812 26.1562V87.0938C117.812 88.2155 116.903 89.125 115.781 89.125H14.2188C13.097 89.125 12.1875 88.2155 12.1875 87.0938Z" fill="#424A60"/>
<path d="M127.969 97.25H2.03125C0.908477 97.25 0 98.1585 0 99.2813C0 103.766 3.64787 107.414 8.13287 107.414H121.867C126.352 107.414 130 103.766 130 99.2813C130 98.1585 129.092 97.25 127.969 97.25Z" fill="#B9BBC1"/>
<path d="M36.5625 34.2812H22.3438C21.221 34.2812 20.3125 33.3728 20.3125 32.25C20.3125 31.1272 21.221 30.2188 22.3438 30.2188H36.5625C37.6853 30.2188 38.5938 31.1272 38.5938 32.25C38.5938 33.3728 37.6853 34.2812 36.5625 34.2812Z" fill="#FFD22E"/>
<path d="M73.125 34.2812H71.0938C69.971 34.2812 69.0625 33.3728 69.0625 32.25C69.0625 31.1272 69.971 30.2188 71.0938 30.2188H73.125C74.2478 30.2188 75.1562 31.1272 75.1562 32.25C75.1562 33.3728 74.2478 34.2812 73.125 34.2812Z" fill="white"/>
<path d="M83.2812 34.2812H81.25C80.1272 34.2812 79.2188 33.3728 79.2188 32.25C79.2188 31.1272 80.1272 30.2188 81.25 30.2188H83.2812C84.404 30.2188 85.3125 31.1272 85.3125 32.25C85.3125 33.3728 84.404 34.2812 83.2812 34.2812Z" fill="white"/>
<path d="M93.4375 34.2812H91.4062C90.2835 34.2812 89.375 33.3728 89.375 32.25C89.375 31.1272 90.2835 30.2188 91.4062 30.2188H93.4375C94.5603 30.2188 95.4688 31.1272 95.4688 32.25C95.4688 33.3728 94.5603 34.2812 93.4375 34.2812Z" fill="white"/>
<path d="M103.594 34.2812H101.562C100.44 34.2812 99.5312 33.3728 99.5312 32.25C99.5312 31.1272 100.44 30.2188 101.562 30.2188H103.594C104.717 30.2188 105.625 31.1272 105.625 32.25C105.625 33.3728 104.717 34.2812 103.594 34.2812Z" fill="white"/>
<path d="M56.875 83.0313H22.3438C21.222 83.0313 20.3125 82.1218 20.3125 81V48.5C20.3125 47.3782 21.222 46.4688 22.3438 46.4688H56.875C57.9968 46.4688 58.9062 47.3782 58.9062 48.5V81C58.9062 82.1218 57.9968 83.0313 56.875 83.0313Z" fill="#FFD22E"/>
<path d="M105.625 50.5312H67.0312C65.9085 50.5312 65 49.6228 65 48.5C65 47.3772 65.9085 46.4688 67.0312 46.4688H105.625C106.748 46.4688 107.656 47.3772 107.656 48.5C107.656 49.6228 106.748 50.5312 105.625 50.5312Z" fill="#442A82"/>
<path d="M83.2812 66.7812H67.0312C65.9085 66.7812 65 65.8728 65 64.75C65 63.6272 65.9085 62.7188 67.0312 62.7188H83.2812C84.404 62.7188 85.3125 63.6272 85.3125 64.75C85.3125 65.8728 84.404 66.7812 83.2812 66.7812Z" fill="#B9BBC1"/>
<path d="M83.2812 74.9062H67.0312C65.9085 74.9062 65 73.9978 65 72.875C65 71.7522 65.9085 70.8438 67.0312 70.8438H83.2812C84.404 70.8438 85.3125 71.7522 85.3125 72.875C85.3125 73.9978 84.404 74.9062 83.2812 74.9062Z" fill="#B9BBC1"/>
<path d="M83.2812 83.0312H67.0312C65.9085 83.0312 65 82.1228 65 81C65 79.8772 65.9085 78.9688 67.0312 78.9688H83.2812C84.404 78.9688 85.3125 79.8772 85.3125 81C85.3125 82.1228 84.404 83.0312 83.2812 83.0312Z" fill="#B9BBC1"/>
<path d="M107.656 66.7812H91.4062C90.2835 66.7812 89.375 65.8728 89.375 64.75C89.375 63.6272 90.2835 62.7188 91.4062 62.7188H107.656C108.779 62.7188 109.688 63.6272 109.688 64.75C109.688 65.8728 108.779 66.7812 107.656 66.7812Z" fill="#B9BBC1"/>
<path d="M107.656 74.9062H91.4062C90.2835 74.9062 89.375 73.9978 89.375 72.875C89.375 71.7522 90.2835 70.8438 91.4062 70.8438H107.656C108.779 70.8438 109.688 71.7522 109.688 72.875C109.688 73.9978 108.779 74.9062 107.656 74.9062Z" fill="#B9BBC1"/>
<path d="M107.656 83.0312H91.4062C90.2835 83.0312 89.375 82.1228 89.375 81C89.375 79.8772 90.2835 78.9688 91.4062 78.9688H107.656C108.779 78.9688 109.688 79.8772 109.688 81C109.688 82.1228 108.779 83.0312 107.656 83.0312Z" fill="#B9BBC1"/>
<path d="M93.4375 58.6562H67.0312C65.9085 58.6562 65 57.7478 65 56.625C65 55.5022 65.9085 54.5938 67.0312 54.5938H93.4375C94.5603 54.5938 95.4688 55.5022 95.4688 56.625C95.4688 57.7478 94.5603 58.6562 93.4375 58.6562Z" fill="#442A82"/>
<path d="M56.875 101.312H73.125C75.3685 101.312 77.1875 99.4935 77.1875 97.25H52.8125C52.8125 99.4938 54.6312 101.312 56.875 101.312Z" fill="#8B8996"/>
</svg>
